<svg width="192" height="186" viewBox="0 0 192 186" fill="none" xmlns="http://www.w3.org/2000/svg">
<mask id="mask0_334_358" style="mask-type:luminance" maskUnits="userSpaceOnUse" x="73" y="25" width="24" height="59">
<path d="M96.1022 25.7818H73.5973V83.4408H96.1022V25.7818Z" fill="white"/>
</mask>
<g mask="url(#mask0_334_358)">
<path d="M96.1204 25.7818C78.1236 26.2278 67.5526 46.2068 77.3137 61.3324C78.7415 63.5454 79.7265 65.2365 80.0315 66.1053C81.8373 71.2608 80.9545 71.6758 80.9545 71.6758C80.9545 71.6758 80.8941 71.2933 79.2355 73.0727C77.5785 74.8521 78.0462 76.8607 78.0462 76.8607C78.0462 76.8607 75.5498 77.3748 74.842 79.3787C74.1343 81.3827 75.1471 83.4408 75.1471 83.4408L96.156 70.3966L96.1204 25.7818Z" fill="#426077"/>
</g>
<mask id="mask1_334_358" style="mask-type:luminance" maskUnits="userSpaceOnUse" x="96" y="25" width="23" height="59">
<path d="M118.607 25.7818H96.1022V83.4408H118.607V25.7818Z" fill="white"/>
</mask>
<g mask="url(#mask1_334_358)">
<path d="M96.0836 25.7818C114.08 26.2278 124.651 46.2068 114.89 61.3324C113.462 63.5454 112.478 65.2365 112.172 66.1053C110.367 71.2608 111.249 71.6758 111.249 71.6758C111.249 71.6758 111.31 71.2933 112.968 73.0727C114.627 74.8521 114.158 76.8607 114.158 76.8607C114.158 76.8607 116.654 77.3748 117.362 79.3787C118.07 81.3827 117.057 83.4408 117.057 83.4408L96.048 70.3966L96.0836 25.7818Z" fill="#426077"/>
</g>
<path d="M72.6124 177.166V86.3151C72.6124 83.3774 74.9942 80.9955 77.932 80.9955H113.467C116.306 80.9955 118.607 83.2968 118.607 86.1355V177.166H72.6124Z" fill="#FDFDFD" stroke="#426077" stroke-width="2.63269" stroke-miterlimit="10"/>
<mask id="mask2_334_358" style="mask-type:luminance" maskUnits="userSpaceOnUse" x="43" y="79" width="38" height="100">
<path d="M80.0149 79.6141H43.5026V178.648H80.0149V79.6141Z" fill="white"/>
</mask>
<g mask="url(#mask2_334_358)">
<path d="M79.3552 80.0602C42.2885 90.6157 41.9307 133.676 45.2975 165.296C50.1927 168.557 56.3083 170.154 61.6248 172.801C67.5174 175.351 73.5803 177.942 79.9963 178.182" fill="#FDFDFD"/>
<path d="M79.3552 80.0602C42.2885 90.6157 41.9307 133.676 45.2975 165.296C50.1927 168.557 56.3083 170.154 61.6248 172.801C67.5174 175.351 73.5803 177.942 79.9963 178.182" stroke="#426077" stroke-width="0.929185" stroke-miterlimit="10"/>
</g>
<mask id="mask3_334_358" style="mask-type:luminance" maskUnits="userSpaceOnUse" x="111" y="79" width="38" height="100">
<path d="M148.174 79.6141H111.661V178.648H148.174V79.6141Z" fill="white"/>
</mask>
<g mask="url(#mask3_334_358)">
<path d="M112.32 80.0602C149.386 90.6157 149.744 133.676 146.377 165.296C141.482 168.557 135.366 170.154 130.05 172.801C124.157 175.351 118.094 177.942 111.678 178.182" fill="#FDFDFD"/>
<path d="M112.32 80.0602C149.386 90.6157 149.744 133.676 146.377 165.296C141.482 168.557 135.366 170.154 130.05 172.801C124.157 175.351 118.094 177.942 111.678 178.182" stroke="#426077" stroke-width="0.929185" stroke-miterlimit="10"/>
</g>
<path d="M85.4321 83.1544V64.4793H106.648V83.1544C99.8205 85.7483 92.2802 85.7514 85.4506 83.1621L85.4321 83.1544Z" fill="#FDFDFD" stroke="#426077" stroke-width="1.08405" stroke-miterlimit="10"/>
<mask id="mask4_334_358" style="mask-type:luminance" maskUnits="userSpaceOnUse" x="68" y="96" width="2" height="27">
<path d="M69.6452 96.9156H68.253V122.428H69.6452V96.9156Z" fill="white"/>
</mask>
<g mask="url(#mask4_334_358)">
<path d="M68.4929 122.178C68.4279 119.374 68.0221 101.118 68.4372 97.005C68.4496 96.8796 68.6354 96.8858 68.6385 97.0128C68.7407 101.657 69.3075 116.84 69.5538 120.543C69.5909 121.1 69.8093 121.571 69.4066 121.96C69.2208 122.14 69.0272 122.308 68.8754 122.393C68.7066 122.489 68.4976 122.372 68.4929 122.178Z" fill="#426077"/>
</g>
<mask id="mask5_334_358" style="mask-type:luminance" maskUnits="userSpaceOnUse" x="122" y="96" width="2" height="27">
<path d="M123.812 96.9156H122.42V122.428H123.812V96.9156Z" fill="white"/>
</mask>
<g mask="url(#mask5_334_358)">
<path d="M123.572 122.178C123.637 119.374 124.042 101.118 123.627 97.005C123.615 96.8795 123.429 96.8857 123.426 97.0127C123.324 101.657 122.757 116.84 122.511 120.543C122.474 121.1 122.255 121.571 122.658 121.96C122.844 122.139 123.037 122.308 123.189 122.393C123.358 122.489 123.567 122.372 123.572 122.178Z" fill="#426077"/>
</g>
<path opacity="0.2706" d="M124.362 163.574L124.252 136.618C124.252 136.618 120.033 137.786 115.048 136.838C110.062 135.89 107.417 134.434 107.268 133.112C107.119 131.789 107.432 130.098 107.432 130.098C107.432 130.098 103.963 130.577 103.706 128.838C103.449 127.1 100.418 133.11 100.418 133.11L87.5428 133.659L86.6663 130.427C86.6663 130.427 85.7356 130.662 84.9133 130.537C84.0909 130.411 83.8168 134.371 83.8168 134.371C83.8168 134.371 79.908 136.649 75.8181 137.111C71.7281 137.572 67.9293 136.946 67.9293 136.946L67.601 163.354C67.601 163.354 79.5937 171.627 95.0491 170.75C110.508 169.874 124.362 163.574 124.362 163.574Z" fill="#426077"/>
<path d="M67.4647 135.035V122.302C67.4647 121.466 68.143 120.788 68.9793 120.788H123.141C123.758 120.788 124.257 121.288 124.257 121.903V135.035H67.4647Z" fill="#385469" stroke="#426077" stroke-width="0.464593" stroke-miterlimit="10"/>
<mask id="mask6_334_358" style="mask-type:luminance" maskUnits="userSpaceOnUse" x="71" y="75" width="15" height="104">
<path d="M71.8009 75.8184H85.4321V178.803H71.8009V75.8184Z" fill="white"/>
</mask>
<g mask="url(#mask6_334_358)">
<path d="M71.8009 178.803V82.7099C71.8009 82.7099 77.5355 77.8332 85.4321 75.8184L85.429 178.803H71.8009Z" fill="#426077"/>
</g>
<mask id="mask7_334_358" style="mask-type:luminance" maskUnits="userSpaceOnUse" x="106" y="75" width="15" height="104">
<path d="M120.266 75.8185H106.635V178.803H120.266V75.8185Z" fill="white"/>
</mask>
<g mask="url(#mask7_334_358)">
<path d="M120.266 178.803V82.7099C120.266 82.7099 114.531 77.8332 106.635 75.8185L106.638 178.803H120.266Z" fill="#426077"/>
</g>
<mask id="mask8_334_358" style="mask-type:luminance" maskUnits="userSpaceOnUse" x="78" y="33" width="19" height="43">
<path d="M96.0356 33.2773H78.8441V75.2052H96.0356V33.2773Z" fill="white"/>
</mask>
<g mask="url(#mask8_334_358)">
<path d="M96.1564 33.4771C95.9148 33.6195 95.7073 33.8147 95.5447 34.0438C92.4304 38.4002 87.9811 41.6291 82.8644 43.2397C81.4582 46.9239 80.7753 50.8451 80.8527 54.7864L80.9441 59.4137L80.0366 55.889C80.0289 55.858 79.9994 56.3102 79.97 56.8011C79.9251 57.5445 79.6123 58.2476 79.0888 58.7788C79.0888 58.7788 79.6727 63.4061 81.6844 64.247C84.1993 69.1082 91.5368 74.9745 96.1502 74.9745" fill="#FDFDFD"/>
<path d="M96.1564 33.4771C95.9148 33.6195 95.7073 33.8147 95.5447 34.0438C92.4304 38.4002 87.9811 41.6291 82.8644 43.2397C81.4582 46.9239 80.7753 50.8451 80.8527 54.7864L80.9441 59.4137L80.0366 55.889C80.0289 55.858 79.9994 56.3102 79.97 56.8011C79.9251 57.5445 79.6123 58.2476 79.0888 58.7788C79.0888 58.7788 79.6727 63.4061 81.6844 64.247C84.1993 69.1082 91.5368 74.9745 96.1502 74.9745" stroke="#426077" stroke-width="0.464593" stroke-miterlimit="10"/>
</g>
<mask id="mask9_334_358" style="mask-type:luminance" maskUnits="userSpaceOnUse" x="96" y="33" width="18" height="43">
<path d="M113.227 33.2773H96.0356V75.2052H113.227V33.2773Z" fill="white"/>
</mask>
<g mask="url(#mask9_334_358)">
<path d="M95.9148 33.4771C96.1564 33.6195 96.3639 33.8147 96.5265 34.0438C99.6408 38.4002 104.09 41.6291 109.207 43.2397C110.613 46.9239 111.296 50.8451 111.22 54.7864L111.129 59.4137L112.036 55.889C112.044 55.858 112.073 56.3102 112.103 56.8011C112.148 57.5445 112.461 58.2476 112.984 58.7788C112.984 58.7788 112.4 63.4061 110.388 64.247C107.873 69.1082 100.536 74.9745 95.9226 74.9745" fill="#FDFDFD"/>
<path d="M95.9148 33.4771C96.1564 33.6195 96.3639 33.8147 96.5265 34.0438C99.6408 38.4002 104.09 41.6291 109.207 43.2397C110.613 46.9239 111.296 50.8451 111.22 54.7864L111.129 59.4137L112.036 55.889C112.044 55.858 112.073 56.3102 112.103 56.8011C112.148 57.5445 112.46 58.2476 112.984 58.7788C112.984 58.7788 112.4 63.4061 110.388 64.247C107.873 69.1082 100.536 74.9745 95.9226 74.9745" stroke="#426077" stroke-width="0.464593" stroke-miterlimit="10"/>
</g>
<mask id="mask10_334_358" style="mask-type:luminance" maskUnits="userSpaceOnUse" x="82" y="43" width="12" height="4">
<path d="M82.9248 43.5679H93.327V46.5646H82.9248V43.5679Z" fill="white"/>
</mask>
<g mask="url(#mask10_334_358)">
<path d="M82.9248 46.5644C84.2953 45.358 85.8517 43.8914 87.6698 43.6762C88.6919 43.5554 93.6275 43.2673 93.3146 44.6363C93.2326 44.9925 92.8671 45.2078 92.5062 45.1567C88.1189 44.5279 87.3973 44.277 82.9248 46.5644Z" fill="#426077"/>
</g>
<mask id="mask11_334_358" style="mask-type:luminance" maskUnits="userSpaceOnUse" x="98" y="43" width="12" height="4">
<path d="M109.394 43.5679H98.9904V46.5646H109.394V43.5679Z" fill="white"/>
</mask>
<g mask="url(#mask11_334_358)">
<path d="M109.394 46.5643C108.024 45.3579 106.467 43.8914 104.649 43.6761C103.627 43.5553 98.6915 43.2673 99.0043 44.6363C99.0864 44.9925 99.4519 45.2077 99.8127 45.1566C104.2 44.5279 104.92 44.277 109.394 46.5643Z" fill="#426077"/>
</g>
<mask id="mask12_334_358" style="mask-type:luminance" maskUnits="userSpaceOnUse" x="83" y="46" width="11" height="6">
<path d="M83.3042 46.5243H93.0204V51.099H83.3042V46.5243Z" fill="white"/>
</mask>
<g mask="url(#mask12_334_358)">
<path d="M89.8256 46.8184C89.0094 46.4389 88.0322 46.425 87.2068 46.7812C86.5053 47.0832 85.9044 47.5029 85.4894 47.7739C84.9504 48.1254 83.3042 49.1351 83.3042 49.1351C83.3042 49.1351 84.9148 48.7278 85.6272 48.3515C86.0376 48.1332 86.4387 47.8854 86.8553 47.6763C86.5935 48.0325 86.4402 48.4708 86.4402 48.9446C86.4402 50.1325 87.4066 51.0988 88.5959 51.0988C89.7837 51.0988 90.7501 50.1325 90.7501 48.9446C90.7501 48.5327 90.6339 48.1455 90.4295 47.8172C90.7625 48.0309 91.0784 48.2741 91.4284 48.4568C92.0029 48.7542 93.0204 49.403 93.0204 49.403C93.0204 49.403 91.0536 47.3883 89.8256 46.8184ZM88.5959 50.6342C87.6636 50.6342 86.9048 49.8769 86.9048 48.9446C86.9048 48.0124 87.6636 47.2535 88.5959 47.2535C89.5267 47.2535 90.2855 48.0124 90.2855 48.9446C90.2855 49.8769 89.5267 50.6342 88.5959 50.6342Z" fill="#426077"/>
<path d="M88.5959 50.1543C89.2639 50.1543 89.8054 49.6128 89.8054 48.9448C89.8054 48.2769 89.2639 47.7354 88.5959 47.7354C87.928 47.7354 87.3864 48.2769 87.3864 48.9448C87.3864 49.6128 87.928 50.1543 88.5959 50.1543Z" fill="#426077"/>
</g>
<mask id="mask13_334_358" style="mask-type:luminance" maskUnits="userSpaceOnUse" x="99" y="46" width="10" height="6">
<path d="M108.795 46.5243H99.0787V51.099H108.795V46.5243Z" fill="white"/>
</mask>
<g mask="url(#mask13_334_358)">
<path d="M102.274 46.8182C103.09 46.4388 104.067 46.4248 104.892 46.781C105.594 47.083 106.195 47.5027 106.61 47.7737C107.149 48.1252 108.795 49.1349 108.795 49.1349C108.795 49.1349 107.184 48.7277 106.472 48.3513C106.062 48.133 105.66 47.8852 105.244 47.6761C105.506 48.0323 105.659 48.4706 105.659 48.9445C105.659 50.1323 104.693 51.0986 103.503 51.0986C102.315 51.0986 101.349 50.1323 101.349 48.9445C101.349 48.5325 101.465 48.1454 101.67 47.817C101.337 48.0308 101.021 48.2739 100.671 48.4566C100.096 48.754 99.0787 49.4029 99.0787 49.4029C99.0787 49.4029 101.045 47.3881 102.274 46.8182ZM103.503 50.634C104.435 50.634 105.194 49.8767 105.194 48.9445C105.194 48.0122 104.435 47.2533 103.503 47.2533C102.572 47.2533 101.814 48.0122 101.814 48.9445C101.814 49.8767 102.572 50.634 103.503 50.634Z" fill="#426077"/>
<path d="M103.505 50.1543C104.173 50.1543 104.714 49.6128 104.714 48.9448C104.714 48.2769 104.173 47.7354 103.505 47.7354C102.837 47.7354 102.295 48.2769 102.295 48.9448C102.295 49.6128 102.837 50.1543 103.505 50.1543Z" fill="#426077"/>
</g>
<mask id="mask14_334_358" style="mask-type:luminance" maskUnits="userSpaceOnUse" x="92" y="57" width="4" height="3">
<path d="M96 57.5739H92.6782V59.9697H96V57.5739Z" fill="white"/>
</mask>
<g mask="url(#mask14_334_358)">
<path d="M92.8798 57.5739C92.6584 57.8248 92.6212 58.212 92.7621 58.5155C92.9046 58.819 93.2066 59.0327 93.5334 59.1009C93.8168 59.1597 94.1234 59.121 94.3836 59.2464C94.571 59.3378 94.7103 59.5035 94.8745 59.6321C95.1563 59.8535 95.5048 59.9712 95.8687 59.9712C96.259 59.9712 96.3411 59.8705 96.3674 59.8334C96.3891 59.804 96.4913 59.6646 96.4138 59.5175C96.3364 59.3719 96.2946 59.3719 95.9121 59.3719C95.6674 59.3719 95.4692 59.3239 95.336 59.2697C94.9767 59.121 94.7506 58.8856 94.7398 58.4969C94.7382 58.4164 94.749 58.3312 94.7134 58.26C94.6778 58.1872 94.5648 58.15 94.5183 58.2151C94.4951 58.2476 94.4966 58.2909 94.4935 58.3312C94.4672 58.6022 94.1342 58.723 93.8632 58.7199C93.5829 58.7168 93.2918 58.6394 93.0858 58.4489C92.8814 58.2569 92.7807 57.9378 92.8798 57.5739Z" fill="#426077"/>
</g>
<mask id="mask15_334_358" style="mask-type:luminance" maskUnits="userSpaceOnUse" x="96" y="57" width="4" height="3">
<path d="M99.3218 57.5739H96V59.9696H99.3218V57.5739Z" fill="white"/>
</mask>
<g mask="url(#mask15_334_358)">
<path d="M99.1205 57.5739C99.3419 57.8248 99.3791 58.2119 99.2382 58.5155C99.0957 58.819 98.7937 59.0327 98.467 59.1008C98.1836 59.1597 97.8769 59.121 97.6168 59.2464C97.4294 59.3378 97.29 59.5035 97.1258 59.632C96.844 59.8535 96.4955 59.9712 96.1316 59.9712C95.7414 59.9712 95.6593 59.8705 95.633 59.8334C95.6113 59.8039 95.5091 59.6646 95.5865 59.5174C95.6639 59.3719 95.7057 59.3719 96.0883 59.3719C96.3329 59.3719 96.5312 59.3239 96.6644 59.2696C97.0236 59.121 97.2497 58.8856 97.2606 58.4969C97.2621 58.4163 97.2513 58.3312 97.2869 58.2599C97.3225 58.1871 97.4356 58.15 97.482 58.215C97.5053 58.2475 97.5037 58.2909 97.5068 58.3312C97.5331 58.6022 97.8661 58.723 98.1371 58.7199C98.4174 58.7168 98.7086 58.6394 98.9145 58.4489C99.1205 58.2568 99.2196 57.9378 99.1205 57.5739Z" fill="#426077"/>
</g>
<mask id="mask16_334_358" style="mask-type:luminance" maskUnits="userSpaceOnUse" x="91" y="62" width="6" height="5">
<path d="M96.1564 62.1176H91.1311V66.8409H96.1564V62.1176Z" fill="white"/>
</mask>
<g mask="url(#mask16_334_358)">
<path d="M96.415 66.525C96.3624 66.5777 96.2153 66.8192 96.1626 66.8409C95.1529 66.8332 92.9864 66.5885 92.7293 65.1994C92.7107 65.0941 92.8191 64.9996 92.9259 64.9903C92.9306 64.9903 92.9352 64.9888 92.9399 64.9888C93.0189 64.9857 93.087 65.0368 93.1118 65.1095C93.4959 66.2168 94.871 66.525 96.415 66.525Z" fill="#426077"/>
<path d="M94.2838 62.6174C93.7372 63.02 93.2122 63.7402 92.5091 63.9771C93.6551 64.0452 96.7276 63.593 96.407 64.2017C95.1433 64.1939 93.4538 64.1877 92.1901 64.18C91.8881 64.1784 91.5768 64.1753 91.3089 64.0391C91.2005 63.9941 91.1277 63.878 91.1308 63.7618C91.3585 63.8269 91.5892 63.8734 91.82 63.9074C93.6923 63.655 94.1847 60.8876 96.1329 62.7676C96.1221 62.7707 95.8371 62.8249 95.6064 62.6468C95.2177 62.351 94.6772 62.3278 94.2838 62.6174Z" fill="#426077"/>
</g>
<mask id="mask17_334_358" style="mask-type:luminance" maskUnits="userSpaceOnUse" x="96" y="62" width="6" height="5">
<path d="M101.182 62.1176H96.1564V66.8409H101.182V62.1176Z" fill="white"/>
</mask>
<g mask="url(#mask17_334_358)">
<path d="M95.8978 66.525C95.9504 66.5777 96.0976 66.8192 96.1502 66.8409C97.1599 66.8332 99.3265 66.5885 99.5836 65.1994C99.6021 65.0941 99.4937 64.9996 99.3869 64.9903C99.3822 64.9903 99.3776 64.9888 99.3729 64.9888C99.294 64.9857 99.2258 65.0368 99.201 65.1095C98.817 66.2168 97.4418 66.525 95.8978 66.525Z" fill="#426077"/>
<path d="M98.0287 62.6178C98.5754 63.0204 99.1004 63.7406 99.8035 63.9775C98.6575 64.0456 95.585 63.5934 95.9055 64.2021C97.1692 64.1943 98.8588 64.1881 100.122 64.1804C100.424 64.1788 100.736 64.1757 101.004 64.0395C101.112 63.9945 101.185 63.8784 101.182 63.7622C100.954 63.8273 100.723 63.8737 100.493 63.9078C98.6203 63.6554 98.1278 60.888 96.1796 62.768C96.1905 62.7711 96.4754 62.8253 96.7062 62.6472C97.0949 62.3514 97.6354 62.3282 98.0287 62.6178Z" fill="#426077"/>
</g>
<mask id="mask18_334_358" style="mask-type:luminance" maskUnits="userSpaceOnUse" x="97" y="45" width="2" height="13">
<path d="M97.1553 45.2962H98.9006V57.7628H97.1553V45.2962Z" fill="white"/>
</mask>
<g mask="url(#mask18_334_358)">
<path d="M98.3508 46.4144C98.3508 46.4144 97.4449 48.4385 97.1553 49.1354C97.211 51.9941 97.3566 54.9118 97.5409 57.7628C97.9993 55.0806 97.6477 52.3163 97.5626 49.6108C97.7422 48.1086 98.6668 46.7923 98.9006 45.2978C98.834 45.3381 98.3508 46.4144 98.3508 46.4144Z" fill="#426077"/>
</g>
<mask id="mask19_334_358" style="mask-type:luminance" maskUnits="userSpaceOnUse" x="93" y="45" width="2" height="13">
<path d="M94.9469 45.2962H93.2001V57.7628H94.9469V45.2962Z" fill="white"/>
</mask>
<g mask="url(#mask19_334_358)">
<path d="M93.7498 46.4146C93.7498 46.4146 94.6558 48.4387 94.9454 49.1356C94.8896 51.9944 94.744 54.912 94.5597 57.763C94.1013 55.0808 94.4529 52.3165 94.5381 49.611C94.3584 48.1088 93.4339 46.7925 93.2 45.298C93.2682 45.3383 93.7498 46.4146 93.7498 46.4146Z" fill="#426077"/>
</g>
<mask id="mask20_334_358" style="mask-type:luminance" maskUnits="userSpaceOnUse" x="85" y="107" width="7" height="42">
<path d="M91.862 107.287H85.5745V148.121H91.862V107.287Z" fill="white"/>
</mask>
<g mask="url(#mask20_334_358)">
<path d="M91.8439 147.985L91.8624 107.46C91.8624 107.263 91.5868 107.219 91.5248 107.406L86.532 122.714C85.925 124.574 85.6028 126.515 85.5765 128.471C85.5533 130.174 85.8336 131.867 86.405 133.471L91.579 148.028C91.6301 148.175 91.8439 148.138 91.8439 147.985Z" fill="#526F85"/>
</g>
<mask id="mask21_334_358" style="mask-type:luminance" maskUnits="userSpaceOnUse" x="99" y="107" width="8" height="42">
<path d="M106.235 107.287H99.9475V148.121H106.235V107.287Z" fill="white"/>
</mask>
<g mask="url(#mask21_334_358)">
<path d="M99.9644 147.985L99.9458 107.46C99.9458 107.264 100.221 107.219 100.283 107.406L105.276 122.714C105.883 124.574 106.205 126.515 106.232 128.471C106.255 130.174 105.975 131.867 105.403 133.471L100.229 148.029C100.178 148.176 99.9644 148.138 99.9644 147.985Z" fill="#526F85"/>
</g>
<path d="M84.4889 124.811C84.6608 124.649 84.856 124.505 85.0805 124.427C85.3051 124.351 85.5606 124.348 85.7697 124.46C86.0267 124.598 86.1739 124.887 86.2219 125.175C86.2885 125.578 86.1909 125.99 86.05 126.372C85.8626 126.877 85.5978 127.353 85.2648 127.777C85.0836 128.008 84.8823 128.223 84.6515 128.403C84.5493 128.482 84.4394 128.554 84.3155 128.592C84.1916 128.629 84.0522 128.629 83.9392 128.567C83.8044 128.492 83.727 128.344 83.6805 128.198C83.5535 127.806 83.5861 127.385 83.6248 126.976C83.6573 126.646 83.6929 126.313 83.7859 125.996C83.8788 125.679 83.9639 125.307 84.4889 124.811Z" fill="#FDFDFD"/>
<path d="M105.566 126.405C105.499 126.112 105.369 125.835 105.32 125.539C105.27 125.243 105.32 124.903 105.55 124.711C105.654 124.624 105.786 124.574 105.921 124.556C106.272 124.505 106.631 124.649 106.899 124.881C107.167 125.113 107.356 125.423 107.509 125.744C107.929 126.618 108.11 127.67 107.715 128.557C107.63 128.751 107.508 128.941 107.316 129.03C107.142 129.11 106.935 129.09 106.76 129.014C106.585 128.937 106.438 128.808 106.308 128.669C105.704 128.025 105.732 127.125 105.566 126.405Z" fill="#FDFDFD"/>
<mask id="mask22_334_358" style="mask-type:luminance" maskUnits="userSpaceOnUse" x="83" y="124" width="5" height="7">
<path d="M83.4343 124.297H87.3059V130.956H83.4343V124.297Z" fill="white"/>
</mask>
<g mask="url(#mask22_334_358)">
<path d="M85.3701 124.297C84.3015 124.297 83.4343 125.788 83.4343 127.627C83.4343 129.465 84.3015 130.956 85.3701 130.956C86.4387 130.956 87.3059 129.465 87.3059 127.627C87.3059 125.788 86.4402 124.297 85.3701 124.297ZM85.7991 125.443C85.2617 126.625 84.7553 126.903 84.3465 128.003C84.1188 128.618 83.8369 128.001 83.8369 126.996C83.8369 125.819 85.0418 124.159 85.6829 124.763C85.8657 124.935 85.9028 125.215 85.7991 125.443Z" fill="#526F85"/>
</g>
<mask id="mask23_334_358" style="mask-type:luminance" maskUnits="userSpaceOnUse" x="104" y="124" width="4" height="7">
<path d="M107.934 124.297H104.062V130.956H107.934V124.297Z" fill="white"/>
</mask>
<g mask="url(#mask23_334_358)">
<path d="M105.998 124.297C104.929 124.297 104.062 125.788 104.062 127.627C104.062 129.465 104.929 130.956 105.998 130.956C107.067 130.956 107.934 129.465 107.934 127.627C107.934 125.788 107.067 124.297 105.998 124.297ZM107.022 128.003C106.613 126.903 106.106 126.625 105.569 125.443C105.465 125.214 105.502 124.935 105.685 124.762C106.326 124.158 107.531 125.818 107.531 126.995C107.531 128.001 107.251 128.618 107.022 128.003Z" fill="#526F85"/>
</g>
<g opacity="0.5">
<mask id="mask24_334_358" style="mask-type:luminance" maskUnits="userSpaceOnUse" x="80" y="44" width="16" height="32">
<path d="M80.1791 44.0805H95.6097V75.0023H80.1791V44.0805Z" fill="white"/>
</mask>
<g mask="url(#mask24_334_358)">
<path d="M92.881 44.5018L94.7518 49.2623L94.5582 58.7833L94.202 58.8468C93.7343 58.9289 93.2481 58.7911 92.912 58.4566C92.8315 58.376 92.7726 58.2971 92.7571 58.2289C92.7401 58.1561 92.7618 57.8913 92.8237 57.9378C93.1582 58.1933 93.6631 58.0431 93.8056 57.6466C93.8164 57.6172 93.8226 57.5924 93.8226 57.5738C93.9047 55.9571 93.8489 54.5602 93.8489 51.0974C93.8489 49.6278 92.1547 48.5267 90.7129 48.2402C89.9804 48.0946 89.1875 47.9676 88.4968 47.9289C88.4271 47.9243 88.3559 47.9227 88.2847 47.9212C85.6798 47.8855 82.6724 49.0099 81.7277 50.478C80.4036 52.5361 80.9302 59.8504 80.9302 59.8504C80.9302 59.8504 79.9715 54.2195 80.7288 50.9333C81.4861 47.6471 81.9012 47.0261 84.9257 45.1863C87.7395 43.4735 91.8512 44.1765 92.881 44.5018Z" fill="#426077"/>
</g>
<mask id="mask25_334_358" style="mask-type:luminance" maskUnits="userSpaceOnUse" x="80" y="44" width="16" height="32">
<path d="M80.1791 44.0805H95.6097V75.0023H80.1791V44.0805Z" fill="white"/>
</mask>
<g mask="url(#mask25_334_358)">
<path d="M83.8803 47.1268C83.8803 47.1268 81.9166 48.886 82.8892 56.0082C85.1037 72.2256 95.6097 75.0023 95.6097 75.0023C95.6097 75.0023 80.1806 71.5581 80.1806 56.9111C80.1791 48.7095 83.8803 47.1268 83.8803 47.1268Z" fill="#426077"/>
</g>
<mask id="mask26_334_358" style="mask-type:luminance" maskUnits="userSpaceOnUse" x="96" y="44" width="16" height="32">
<path d="M111.888 44.0805H96.4584V75.0023H111.888V44.0805Z" fill="white"/>
</mask>
<g mask="url(#mask26_334_358)">
<path d="M99.1871 44.5018L97.3163 49.2623L97.5099 58.7833L97.8661 58.8468C98.3338 58.9289 98.8201 58.7911 99.1561 58.4566C99.2367 58.376 99.2955 58.2971 99.311 58.2289C99.328 58.1561 99.3063 57.8913 99.2444 57.9378C98.9099 58.1933 98.405 58.0431 98.2626 57.6466C98.2517 57.6172 98.2455 57.5924 98.2455 57.5738C98.1634 55.9571 98.2192 54.5602 98.2192 51.0974C98.2192 49.6278 99.9134 48.5267 101.355 48.2402C102.088 48.0946 102.881 47.9676 103.571 47.9289C103.641 47.9243 103.712 47.9227 103.783 47.9212C106.388 47.8855 109.396 49.0099 110.34 50.478C111.665 52.5361 111.138 59.8504 111.138 59.8504C111.138 59.8504 112.097 54.2195 111.339 50.9333C110.582 47.6471 110.167 47.0261 107.142 45.1863C104.327 43.4735 100.215 44.1765 99.1871 44.5018Z" fill="#426077"/>
</g>
<mask id="mask27_334_358" style="mask-type:luminance" maskUnits="userSpaceOnUse" x="96" y="44" width="16" height="32">
<path d="M111.888 44.0805H96.4584V75.0023H111.888V44.0805Z" fill="white"/>
</mask>
<g mask="url(#mask27_334_358)">
<path d="M108.188 47.1268C108.188 47.1268 110.151 48.886 109.179 56.0082C106.964 72.2256 96.4584 75.0023 96.4584 75.0023C96.4584 75.0023 111.888 71.5581 111.888 56.9111C111.888 48.7095 108.188 47.1268 108.188 47.1268Z" fill="#426077"/>
</g>
<path opacity="0.4" d="M91.4408 73.4784L85.9214 83.4424C85.9214 83.4424 93.4989 86.0797 100.222 84.7386C106.944 83.3959 107.592 82.0951 107.592 82.0951L107.479 68.5925C107.48 68.5925 97.6849 78.637 91.4408 73.4784Z" fill="#426077"/>
</g>
<mask id="mask28_334_358" style="mask-type:luminance" maskUnits="userSpaceOnUse" x="107" y="120" width="18" height="18">
<path d="M124.258 120.738H107.217V137.121H124.258V120.738Z" fill="white"/>
</mask>
<g mask="url(#mask28_334_358)">
<path d="M123.982 130.837C124.284 130.438 124.262 129.882 124.253 129.402C124.213 129.005 124.242 128.604 124.203 128.208C124.169 127.838 124.179 127.463 124.094 127.1C124.132 126.696 124.135 126.289 124.143 125.885C124.171 125.302 123.651 125.245 123.22 125.089C123.209 125.084 123.197 125.079 123.186 125.076C122.961 124.965 122.751 124.825 122.545 124.683C122.243 124.463 121.922 124.273 121.582 124.124C121.574 124.118 121.568 124.112 121.562 124.107C121.146 123.726 120.646 123.424 120.086 123.326C120.05 123.312 120.048 123.317 120.062 123.328C119.855 123.244 119.602 123.266 119.384 123.264C118.864 123.308 118.367 123.463 117.86 123.583C117.123 123.743 116.956 123.735 116.31 123.638C115.77 123.523 115.771 123.548 115.331 123.266C115.065 123.089 114.769 122.961 114.501 122.787C114.37 122.682 113.532 122.05 113.056 121.782C112.336 121.309 111.489 121.093 110.673 120.844C109.933 120.629 109.021 120.674 109.098 121.68C109.148 122.046 109.363 122.365 109.57 122.659C109.885 123.229 110.369 123.673 110.884 124.062C111.2 124.277 111.227 124.338 111.492 124.541C111.449 124.534 111.404 124.528 111.358 124.522C111.488 124.541 110.964 124.458 110.856 124.434C110.253 124.297 109.631 124.222 109.011 124.251C108.661 124.28 108.327 124.395 108.012 124.547C107.624 124.731 107.412 125.131 107.336 125.539C107.263 125.865 107.243 126.212 107.405 126.513C107.549 126.834 107.825 127.08 108.177 127.272C107.856 127.275 107.562 127.385 107.371 127.717C107.215 128.109 107.204 128.558 107.221 128.974C107.247 129.392 107.48 129.755 107.749 130.061C107.935 130.261 108.136 130.447 108.352 130.616C107.484 130.596 107.144 131.229 107.314 132.058C107.421 132.612 107.794 133.047 108.234 133.382C108.031 133.51 107.915 133.76 107.994 134.003C108.098 134.309 108.4 134.475 108.668 134.624C109.1 134.859 109.566 135.022 110.016 135.215C110.815 135.541 111.545 135.754 112.59 135.993C113.343 136.16 114.114 136.231 114.862 136.423C115.638 136.612 116.431 136.738 117.227 136.814C117.835 136.854 118.444 136.823 119.053 136.849C119.192 136.848 119.331 136.849 119.471 136.851C119.494 136.857 119.528 136.863 119.564 136.866C120.036 136.956 120.502 137.085 120.985 137.108C121.619 137.139 122.255 137.106 122.879 136.992C123.49 136.923 123.965 136.858 123.993 136.1C124.002 136.011 124.002 135.926 123.999 135.841C124.035 135.75 124.061 135.65 124.07 135.534C124.112 134.972 124.157 134.407 124.171 133.843C124.152 133.194 124.087 133.092 124.053 132.578C124.019 131.999 124.008 131.418 123.982 130.837ZM111.172 128.05C111.069 128.042 110.967 128.034 110.863 128.03C110.775 128.005 110.688 127.979 110.6 127.951C110.798 127.986 110.99 128.019 111.172 128.05Z" fill="#FDFDFD"/>
</g>
<mask id="mask29_334_358" style="mask-type:luminance" maskUnits="userSpaceOnUse" x="67" y="120" width="18" height="18">
<path d="M84.506 120.738H67.4647V137.121H84.506V120.738Z" fill="white"/>
</mask>
<g mask="url(#mask29_334_358)">
<path d="M67.7405 130.837C67.4385 130.438 67.4602 129.882 67.4695 129.402C67.5097 129.005 67.4803 128.604 67.519 128.208C67.5531 127.838 67.5438 127.463 67.629 127.1C67.5903 126.696 67.5872 126.289 67.5794 125.885C67.5515 125.302 68.0719 125.245 68.5024 125.089C68.5133 125.084 68.5256 125.079 68.5365 125.076C68.761 124.965 68.9717 124.826 69.1776 124.683C69.4796 124.463 69.8002 124.273 70.1409 124.124C70.1486 124.118 70.1548 124.112 70.161 124.107C70.576 123.726 71.0763 123.424 71.6369 123.326C71.6725 123.312 71.674 123.317 71.6601 123.328C71.8676 123.244 72.12 123.266 72.3384 123.264C72.8587 123.308 73.3559 123.463 73.8623 123.584C74.5994 123.743 74.7667 123.735 75.4125 123.638C75.9529 123.523 75.9514 123.548 76.3912 123.266C76.6576 123.089 76.9534 122.961 77.2213 122.787C77.3529 122.682 78.1907 122.05 78.6662 121.782C79.3863 121.309 80.2334 121.093 81.0495 120.844C81.7898 120.629 82.7019 120.674 82.6245 121.68C82.5749 122.046 82.3597 122.365 82.1521 122.659C81.8378 123.229 81.353 123.673 80.8389 124.062C80.523 124.277 80.4951 124.338 80.2303 124.541C80.2736 124.534 80.3186 124.528 80.365 124.522C80.2349 124.541 80.7584 124.458 80.8668 124.434C81.4692 124.297 82.0918 124.222 82.7112 124.251C83.0612 124.28 83.3957 124.395 83.7101 124.547C84.0988 124.731 84.311 125.131 84.3868 125.539C84.4596 125.865 84.4798 126.212 84.3171 126.514C84.1731 126.834 83.8975 127.08 83.5459 127.272C83.8665 127.275 84.1607 127.385 84.3512 127.717C84.5076 128.109 84.5185 128.558 84.5014 128.974C84.4751 129.392 84.2428 129.755 83.9733 130.061C83.7875 130.261 83.5862 130.447 83.3709 130.616C84.2382 130.596 84.5789 131.229 84.4085 132.058C84.3017 132.612 83.9284 133.047 83.4886 133.382C83.6915 133.51 83.8076 133.76 83.7287 134.003C83.6249 134.309 83.3229 134.475 83.055 134.624C82.6229 134.859 82.1568 135.022 81.7061 135.215C80.907 135.541 80.1776 135.754 79.1323 135.993C78.3796 136.16 77.6084 136.231 76.8604 136.423C76.0846 136.612 75.2917 136.738 74.4957 136.814C73.887 136.854 73.2784 136.823 72.6698 136.849C72.5304 136.848 72.3911 136.849 72.2517 136.851C72.2284 136.857 72.1944 136.863 72.1588 136.866C71.6864 136.956 71.2203 137.085 70.7371 137.108C70.1037 137.139 69.4672 137.106 68.8431 136.992C68.2329 136.924 67.7575 136.858 67.7296 136.1C67.7203 136.011 67.7204 135.926 67.7234 135.841C67.6878 135.75 67.6615 135.651 67.6522 135.534C67.6104 134.972 67.5655 134.407 67.5516 133.843C67.5701 133.194 67.6352 133.092 67.6692 132.578C67.7033 131.999 67.7142 131.418 67.7405 130.837ZM80.5508 128.05C80.6531 128.042 80.7553 128.034 80.859 128.03C80.9473 128.005 81.034 127.979 81.1223 127.951C80.9241 127.986 80.7305 128.019 80.5508 128.05Z" fill="#FDFDFD"/>
</g>
<mask id="mask30_334_358" style="mask-type:luminance" maskUnits="userSpaceOnUse" x="28" y="124" width="41" height="50">
<path d="M68.0315 124.847H28.9484V173.809H68.0315V124.847Z" fill="white"/>
</mask>
<g mask="url(#mask30_334_358)">
<path d="M29.3821 146.709C31.8754 135.203 50.3677 126.42 62.3046 125.344C64.3039 125.164 66.1174 125.2 67.6428 125.476L67.5406 173.072L29.3821 146.709Z" fill="#FDFDFD" stroke="#426077" stroke-width="0.774321" stroke-miterlimit="10"/>
</g>
<mask id="mask31_334_358" style="mask-type:luminance" maskUnits="userSpaceOnUse" x="123" y="124" width="40" height="50">
<path d="M162.973 124.847H123.889V173.809H162.973V124.847Z" fill="white"/>
</mask>
<g mask="url(#mask31_334_358)">
<path d="M162.539 146.709C160.046 135.203 141.553 126.42 129.616 125.344C127.617 125.164 125.804 125.2 124.278 125.476L124.38 173.072L162.539 146.709Z" fill="#FDFDFD" stroke="#426077" stroke-width="0.774321" stroke-miterlimit="10"/>
</g>
<mask id="mask32_334_358" style="mask-type:luminance" maskUnits="userSpaceOnUse" x="106" y="120" width="19" height="18">
<path d="M124.472 120.331H106.783V137.736H124.472V120.331Z" fill="white"/>
</mask>
<g mask="url(#mask32_334_358)">
<path d="M123.905 136.517C123.008 137.227 113.39 137.177 109.41 134.969C108.524 134.476 108.004 133.942 107.858 133.374C108.854 134.105 110.46 134.517 111.64 134.819L111.846 134.871C111.866 134.876 111.884 134.879 111.905 134.879C112.008 134.879 112.103 134.809 112.129 134.704C112.162 134.58 112.086 134.453 111.962 134.421L111.754 134.368C110.288 133.993 107.832 133.364 107.455 132.158C107.316 131.71 107.486 131.189 107.963 130.605C108.09 130.66 108.309 130.769 108.521 130.874C109.65 131.433 111.536 132.369 112.745 132.183C112.871 132.164 112.959 132.045 112.939 131.918C112.92 131.793 112.803 131.704 112.674 131.724C111.61 131.885 109.735 130.958 108.728 130.458C108.439 130.314 108.253 130.224 108.126 130.171C108.124 130.17 108.124 130.17 108.123 130.17C108.11 130.165 108.098 130.16 108.086 130.157C108.053 130.149 108.021 130.137 107.99 130.123C107.99 130.122 107.988 130.122 107.988 130.122C107.517 129.897 107.305 128.955 107.449 128.248C107.514 127.929 107.697 127.415 108.206 127.467C109.05 127.952 110.388 128.212 112.078 128.542C112.677 128.66 113.297 128.779 113.974 128.923C113.989 128.928 114.006 128.929 114.022 128.929C114.128 128.929 114.226 128.853 114.249 128.745C114.276 128.619 114.195 128.495 114.07 128.469C113.39 128.324 112.741 128.198 112.168 128.087C110.368 127.737 109.145 127.478 108.432 127.063C108.412 127.052 108.392 127.04 108.374 127.029C108.372 127.027 108.372 127.027 108.371 127.027C107.801 126.673 107.585 126.202 107.688 125.473C107.739 125.099 107.881 124.838 108.121 124.672C108.877 124.152 110.568 124.539 112.526 124.989C113.168 125.136 113.834 125.29 114.522 125.423C114.647 125.448 114.77 125.366 114.794 125.24C114.819 125.115 114.737 124.992 114.612 124.968C113.93 124.835 113.269 124.683 112.629 124.536C112.207 124.438 111.801 124.345 111.415 124.263C111.327 124.178 111.22 124.079 111.101 123.97C110.367 123.297 109.001 122.041 109.4 121.223C109.671 120.666 110.793 121.093 111.332 121.299L111.449 121.344C112.724 121.821 113.839 122.476 114.917 123.109C115.648 123.54 116.324 123.887 117.192 123.775C117.537 123.732 117.868 123.637 118.189 123.548C118.573 123.438 118.935 123.335 119.312 123.314C120.606 123.239 121.692 124.097 122.745 124.926C123.024 125.146 123.289 125.353 123.558 125.545C123.598 125.575 124.08 125.86 124.08 125.86C124.08 125.86 124.099 125.406 124.037 125.336C123.99 125.284 123.933 125.242 123.828 125.167C123.567 124.982 123.307 124.777 123.032 124.56C121.963 123.719 120.752 122.77 119.285 122.851C118.858 122.874 118.452 122.989 118.062 123.1C117.743 123.19 117.442 123.275 117.133 123.315C116.411 123.408 115.832 123.109 115.152 122.71C114.057 122.066 112.925 121.4 111.612 120.909L111.497 120.865C110.83 120.611 109.439 120.082 108.982 121.02C108.479 122.053 109.671 123.275 110.551 124.096C109.386 123.894 108.457 123.876 107.858 124.289C107.508 124.529 107.296 124.906 107.226 125.408C107.122 126.159 107.294 126.691 107.705 127.094C107.356 127.255 107.102 127.627 106.994 128.156C106.831 128.959 107.029 129.93 107.548 130.38C107.009 131.066 106.83 131.709 107.012 132.296C107.082 132.519 107.2 132.723 107.356 132.911C107.288 133.835 107.903 134.664 109.185 135.375C111.912 136.888 117.01 137.581 120.4 137.581C122.036 137.581 123.507 137.382 123.886 137.072C123.987 136.991 124.792 135.816 123.905 136.517Z" fill="#426077" stroke="#426077" stroke-width="0.309728" stroke-miterlimit="10"/>
</g>
<mask id="mask33_334_358" style="mask-type:luminance" maskUnits="userSpaceOnUse" x="67" y="120" width="18" height="18">
<path d="M84.8916 120.331H67.203V137.736H84.8916V120.331Z" fill="white"/>
</mask>
<g mask="url(#mask33_334_358)">
<path d="M84.681 128.156C84.5726 127.627 84.3186 127.255 83.9701 127.094C84.3805 126.691 84.5524 126.159 84.4487 125.408C84.379 124.906 84.1668 124.529 83.8168 124.289C83.2175 123.876 82.2883 123.894 81.1237 124.096C82.0034 123.275 83.1958 122.053 82.6925 121.02C82.2357 120.082 80.845 120.611 80.1775 120.865L80.0629 120.909C78.7497 121.4 77.6176 122.066 76.5227 122.71C75.8429 123.109 75.2637 123.408 74.542 123.315C74.2323 123.275 73.9318 123.19 73.6128 123.1C73.2226 122.989 72.8168 122.874 72.3894 122.851C70.9228 122.77 69.7118 123.719 68.6432 124.56C68.3676 124.777 68.1074 124.982 67.8472 125.167C67.7419 125.242 67.6846 125.284 67.6382 125.336C67.5762 125.406 67.5948 125.86 67.5948 125.86C67.5948 125.86 68.0764 125.575 68.1167 125.545C68.3861 125.353 68.651 125.146 68.9297 124.926C69.9828 124.097 71.0684 123.239 72.3631 123.314C72.7394 123.335 73.1018 123.438 73.4858 123.548C73.8064 123.637 74.1378 123.732 74.4832 123.775C75.3504 123.887 76.0272 123.54 76.7581 123.109C77.836 122.476 78.951 121.821 80.2255 121.344L80.3432 121.299C80.8821 121.093 82.0034 120.666 82.2744 121.223C82.6739 122.041 81.308 123.297 80.574 123.97C80.4547 124.079 80.3479 124.178 80.2596 124.263C79.874 124.345 79.4682 124.438 79.0454 124.536C78.4059 124.683 77.7446 124.835 77.0632 124.968C76.9377 124.992 76.8557 125.115 76.8804 125.24C76.9052 125.366 77.0276 125.448 77.153 125.423C77.8406 125.29 78.5065 125.136 79.1492 124.989C81.1067 124.539 82.7978 124.152 83.5536 124.672C83.7936 124.838 83.9361 125.099 83.9872 125.473C84.0894 126.202 83.8741 126.673 83.3042 127.027C83.3027 127.027 83.3027 127.027 83.3011 127.029C83.2825 127.04 83.2624 127.052 83.2423 127.063C82.5299 127.478 81.3065 127.737 79.5069 128.087C78.934 128.198 78.2851 128.324 77.6052 128.469C77.4798 128.495 77.3992 128.619 77.4256 128.745C77.4488 128.853 77.5464 128.929 77.6532 128.929C77.6687 128.929 77.6857 128.928 77.7012 128.923C78.378 128.779 78.9974 128.66 79.5968 128.542C81.2863 128.212 82.6244 127.952 83.4684 127.467C83.9779 127.415 84.1606 127.929 84.2257 128.248C84.3697 128.955 84.1575 129.897 83.6867 130.122C83.6867 130.122 83.6852 130.122 83.6852 130.123C83.6542 130.137 83.6217 130.149 83.5892 130.157C83.5768 130.16 83.5644 130.165 83.552 130.17C83.5505 130.17 83.5504 130.17 83.5489 130.171C83.4219 130.224 83.2361 130.314 82.9465 130.458C81.9399 130.958 80.0645 131.885 79.0005 131.724C78.872 131.704 78.7543 131.793 78.7357 131.918C78.7156 132.045 78.8039 132.164 78.9293 132.183C80.1388 132.369 82.025 131.433 83.154 130.874C83.3662 130.769 83.5845 130.66 83.7115 130.605C84.1885 131.189 84.3588 131.71 84.2195 132.158C83.8431 133.364 81.387 133.993 79.9204 134.368L79.7129 134.421C79.589 134.453 79.5131 134.58 79.5457 134.704C79.572 134.809 79.6665 134.879 79.7702 134.879C79.7903 134.879 79.8089 134.876 79.8291 134.871L80.035 134.819C81.2151 134.517 82.821 134.105 83.8168 133.374C83.6712 133.942 83.1509 134.476 82.2651 134.969C78.2851 137.177 68.6665 137.227 67.7698 136.517C66.8824 135.816 67.6877 136.991 67.7884 137.072C68.1678 137.382 69.639 137.581 71.2744 137.581C74.6643 137.581 79.7625 136.888 82.4896 135.375C83.7719 134.664 84.3867 133.835 84.3186 132.911C84.475 132.723 84.5927 132.519 84.6624 132.296C84.8451 131.709 84.6655 131.066 84.1265 130.38C84.6453 129.93 84.8436 128.959 84.681 128.156Z" fill="#426077" stroke="#426077" stroke-width="0.309728" stroke-miterlimit="10"/>
</g>
<mask id="mask34_334_358" style="mask-type:luminance" maskUnits="userSpaceOnUse" x="45" y="130" width="13" height="16">
<path d="M45.8643 130.166H57.5565V145.304H45.8643V130.166Z" fill="white"/>
</mask>
<g mask="url(#mask34_334_358)">
<path d="M56.3904 134.637H52.7944V131.676L51.7104 130.166L50.6263 131.676V134.637H47.0304L45.8643 135.721L47.0304 136.805H50.6263V143.794L51.7104 145.304L52.7944 143.794V136.805H56.3904L57.5565 135.721L56.3904 134.637Z" fill="#426077"/>
</g>
<mask id="mask35_334_358" style="mask-type:luminance" maskUnits="userSpaceOnUse" x="134" y="130" width="13" height="16">
<path d="M146.092 130.166H134.4V145.304H146.092V130.166Z" fill="white"/>
</mask>
<g mask="url(#mask35_334_358)">
<path d="M144.926 134.637H141.33V131.676L140.246 130.166L139.162 131.676V134.637H135.566L134.4 135.721L135.566 136.805H139.162V143.794L140.246 145.304L141.33 143.794V136.805H144.926L146.092 135.721L144.926 134.637Z" fill="#426077"/>
</g>
<mask id="mask36_334_358" style="mask-type:luminance" maskUnits="userSpaceOnUse" x="61" y="125" width="2" height="36">
<path d="M61.3693 125.226H62.0228V160.93H61.3693V125.226Z" fill="white"/>
</mask>
<g mask="url(#mask36_334_358)">
<path d="M62.0059 125.226H61.3864V160.93H62.0059V125.226Z" fill="#426077"/>
</g>
<mask id="mask37_334_358" style="mask-type:luminance" maskUnits="userSpaceOnUse" x="129" y="125" width="2" height="36">
<path d="M130.135 125.226H129.483V160.93H130.135V125.226Z" fill="white"/>
</mask>
<g mask="url(#mask37_334_358)">
<path d="M130.118 125.226H129.499V160.93H130.118V125.226Z" fill="#426077"/>
</g>
<path d="M96 18.274C106.43 18.274 116.533 20.264 126.031 24.1898C135.188 27.9747 143.409 33.3887 150.464 40.2848C157.49 47.1515 163.002 55.1332 166.844 64.0085C170.804 73.1594 172.813 82.8849 172.813 92.917C172.813 102.949 170.804 112.676 166.844 121.825C163.002 130.701 157.492 138.684 150.464 145.549C143.409 152.444 135.188 157.859 126.031 161.644C116.533 165.57 106.429 167.56 96 167.56C85.5714 167.56 75.4665 165.57 65.9687 161.644C56.8116 157.859 48.5914 152.445 41.5358 145.549C34.5096 138.682 28.998 130.701 25.1574 121.825C21.1975 112.675 19.1889 102.949 19.1889 92.917C19.1889 82.8849 21.1975 73.1578 25.1574 64.0085C28.9996 55.1332 34.5096 47.1499 41.5358 40.2848C48.5914 33.3903 56.8116 27.9747 65.9687 24.1898C75.4665 20.264 85.5699 18.274 96 18.274ZM96 0C43.4856 0 0.913391 41.6012 0.913391 92.9185C0.913391 144.236 43.4856 185.837 96 185.837C148.514 185.837 191.087 144.236 191.087 92.9185C191.087 41.6012 148.514 0 96 0Z" fill="#426077"/>
<path d="M86.0407 144.927C86.2683 144.115 86.163 143.232 85.9121 142.438C85.4971 141.239 84.619 140.127 84.6299 138.977C84.7104 137.732 85.2447 137.047 85.5188 135.824C85.6566 135.221 85.8223 134.61 85.7991 133.987C85.6891 132.742 85.2214 131.495 84.4115 130.537C84.3712 130.49 84.331 130.442 84.2907 130.396C84.4812 130.786 84.6469 131.189 84.7631 131.608C85.0062 132.485 85.1146 133.398 85.1053 134.308C85.079 135.303 84.6175 136.451 84.3712 137.174C83.9918 138.182 83.3956 139.153 83.3259 140.25C83.2934 141.67 84.2752 142.806 84.633 144.124C84.825 144.841 84.8482 146.025 84.4549 146.565C84.588 146.34 84.4487 146.576 84.362 146.706C84.3232 146.757 84.283 146.807 84.2427 146.856C83.6232 147.572 82.8582 148.253 82.7111 149.227C82.6089 149.857 82.8582 150.482 83.1308 151.038C83.4932 151.742 83.9051 152.424 84.187 153.165C84.5493 154.011 84.6082 154.979 84.156 155.795C84.0197 156.095 83.7642 156.34 83.7038 156.681C83.7859 156.388 84.0027 156.164 84.1684 155.916C84.3898 155.6 84.5865 155.264 84.7259 154.903C85.4832 153.094 84.4704 151.237 83.9841 149.498C83.71 148.612 83.9732 147.809 84.173 147.502C84.873 146.709 85.6953 145.953 86.0407 144.927Z" fill="#213F57"/>
<path d="M108.73 138.082C108.302 136.685 107.415 135.481 106.94 134.103C106.494 132.59 106.814 130.763 106.95 129.107C106.991 128.791 106.853 129.465 106.828 129.516C106.365 131.439 105.668 133.465 106.137 135.45C106.452 136.697 107.008 137.866 107.359 139.104C107.486 139.627 107.593 140.219 107.565 140.892C107.548 141.323 107.444 141.744 107.327 142.158C107.181 142.625 107.206 142.621 107.006 142.995C106.975 143.042 106.923 143.124 106.881 143.183C106.87 143.197 106.861 143.211 106.85 143.225C106.85 143.226 106.848 143.226 106.848 143.228C106.845 143.232 106.845 143.232 106.842 143.235C106.449 143.77 106.01 144.273 105.685 144.852C105.478 145.215 105.307 145.61 105.261 146.028C105.231 146.669 105.453 147.296 105.699 147.878C106.156 148.961 106.791 149.964 107.17 151.079C107.655 152.628 106.797 154.418 106.28 155.941C107.113 154.081 108.434 152.131 108.027 150.005C107.751 148.68 107.164 147.448 106.797 146.15C106.452 145.009 106.662 144.302 107.074 143.706C107.152 143.553 108.058 142.506 108.406 141.808C108.679 141.16 108.891 140.468 108.947 139.766C108.987 139.197 108.869 138.63 108.73 138.082Z" fill="#213F57"/>
<path d="M64.9668 115.434C64.8553 114.273 64.6927 113.116 64.4913 111.965C63.7542 107.778 62.4471 103.708 60.9682 99.7279C60.8241 99.3609 60.6755 98.9954 60.5175 98.6346C60.5934 98.9272 60.6662 99.2199 60.7374 99.5142C61.6945 103.482 62.2195 107.044 63.144 110.903C63.5296 112.487 64.0066 114.045 64.4511 115.614C64.7019 116.551 64.9838 117.466 64.9853 118.437C65.1418 117.444 65.055 116.432 64.9668 115.434Z" fill="#89A1B3"/>
<path d="M60.7034 114.963C60.6786 114.917 60.6538 114.869 60.629 114.823C60.6461 114.878 60.6615 114.932 60.6786 114.988C60.8396 115.529 61.0069 116.068 61.1819 116.605C61.5938 117.943 62.1575 119.225 62.7631 120.486C62.4874 118.522 61.5938 116.712 60.7034 114.963Z" fill="#89A1B3"/>
<path d="M132.601 99.4368C131.272 103.008 130.05 106.619 128.899 110.252C127.894 113.522 126.903 116.814 126.471 120.216C127.18 117.175 128.232 114.231 129.155 111.251C130.388 107.299 131.456 103.296 132.698 99.3469C132.797 99.0326 132.898 98.7182 133.002 98.4038C132.865 98.7476 132.732 99.0914 132.601 99.4368Z" fill="#89A1B3"/>
<path d="M127.896 121.285C128.591 119.791 129.29 118.298 129.928 116.778C129.18 118.247 128.385 119.707 127.896 121.285Z" fill="#89A1B3"/>
<path d="M59.5589 128.582C59.226 130.283 59.229 132.025 59.2445 133.752C59.4753 132.037 59.6441 130.312 59.5589 128.582Z" fill="#89A1B3"/>
<path d="M42.3519 134.156C42.2482 134.644 41.6752 138.857 41.7031 139.356C42.592 137.327 42.5548 135.073 42.3519 134.156Z" fill="#89A1B3"/>
<path d="M131.947 130.091C131.71 134.803 132.223 139.508 132.995 144.151C133.033 139.444 132.906 134.713 131.947 130.091Z" fill="#89A1B3"/>
<path d="M148.894 134.01C148.985 134.496 149.007 134.997 149.128 135.477C149.204 135.779 149.301 136.076 149.411 136.367C149.413 136.28 149.413 136.194 149.411 136.107C149.399 135.384 149.304 134.623 148.894 134.01Z" fill="#89A1B3"/>
<path d="M103.697 88.7635C102.814 91.6021 101.925 94.4749 101.688 97.4529C101.453 100.186 101.896 102.906 102.091 105.625C102.583 100.092 102.984 94.543 103.737 89.0391C103.81 88.6458 103.892 88.2555 103.985 87.8668C103.886 88.1657 103.79 88.463 103.697 88.7635Z" fill="#89A1B3"/>
<path d="M96.2075 91.3172C96.1998 91.2692 96.192 91.2212 96.1843 91.1717C96.1425 91.8082 96.096 92.4431 96.0496 93.078C95.9473 94.5446 95.8374 96.0112 95.7816 97.4808C95.7104 99.4244 95.842 101.368 95.8606 103.311C96.638 99.3686 96.827 95.2957 96.2075 91.3172Z" fill="#89A1B3"/>
<path d="M88.9134 92.313C88.8546 92.1024 88.7988 91.8918 88.7431 91.6812C88.7663 91.9274 88.788 92.1736 88.805 92.4199C88.9939 94.7877 88.9475 97.1602 88.9723 99.5328C89.011 101.566 89.2588 103.593 89.2789 105.627C90.0935 101.236 90.2452 96.6151 88.9134 92.313Z" fill="#89A1B3"/>
<path d="M65.8541 91.2769C65.4716 91.7648 65.0984 92.2588 64.7376 92.7621C64.5378 93.0579 64.3132 93.3521 64.2172 93.7006C64.0871 94.159 64.163 94.6452 64.2296 95.1083C64.4062 96.2543 64.9776 97.2764 65.4314 98.3295C65.2873 97.1091 64.9621 95.9151 64.8599 94.6886C64.8289 94.1605 64.7654 93.6123 64.9048 93.0966C65.0086 92.7466 65.2331 92.4942 65.436 92.1767C65.7829 91.6749 66.1344 91.1794 66.486 90.6807C66.884 90.1139 67.2572 89.5951 67.6629 89.0562C67.0559 89.7902 66.4442 90.5258 65.8541 91.2769Z" fill="#89A1B3"/>
<path d="M127.183 101.622C129.163 98.2675 128.127 95.6968 126.343 92.5747C125.743 91.4953 125.144 90.4143 124.462 89.3829C125.207 91.0384 125.796 92.759 126.295 94.5027C126.618 95.7448 127.185 96.9016 127.547 98.1281C127.682 98.6918 127.75 99.3469 127.66 99.9973C127.561 100.55 127.413 101.119 127.183 101.622Z" fill="#89A1B3"/>
<g opacity="0.502">
<path d="M93.6151 70.2309C93.6151 68.7442 94.8199 67.5394 96.3066 67.5394C97.3101 67.5394 98.1836 68.0907 98.6466 68.9053C98.4221 67.6462 97.3241 66.6876 96 66.6876C94.5133 66.6876 93.3085 67.8925 93.3085 69.3792C93.3085 69.8608 93.437 70.313 93.66 70.7048C93.6321 70.5499 93.6151 70.392 93.6151 70.2309Z" fill="#426077"/>
</g>
<mask id="mask38_334_358" style="mask-type:luminance" maskUnits="userSpaceOnUse" x="74" y="32" width="20" height="28">
<path d="M74.9818 32.9179H93.1598V59.9712H74.9818V32.9179Z" fill="white"/>
</mask>
<g mask="url(#mask38_334_358)">
<path d="M75.7205 55.1719C75.7205 55.1719 74.9307 54.7615 76.5661 52.3565C78.2014 49.9514 80.3091 47.7895 81.1361 46.0752C81.9631 44.3609 82.3487 43.5834 82.3487 43.5834C82.3487 43.5834 81.3421 48.1643 79.2948 50.2116C77.2475 52.2589 75.7422 53.5536 75.7422 55.0852" fill="#678399"/>
</g>
<mask id="mask39_334_358" style="mask-type:luminance" maskUnits="userSpaceOnUse" x="74" y="32" width="20" height="28">
<path d="M74.9818 32.9179H93.1598V59.9712H74.9818V32.9179Z" fill="white"/>
</mask>
<g mask="url(#mask39_334_358)">
<path d="M74.9911 44.192C74.9911 44.192 74.686 43.3558 77.5154 42.6852C80.3447 42.0146 83.36 41.8443 85.1285 41.1381C86.8971 40.4319 87.7055 40.1191 87.7055 40.1191C87.7055 40.1191 83.871 42.8184 80.9766 42.9454C78.0822 43.0724 76.0984 43.012 75.0654 44.1409" fill="#678399"/>
</g>
<mask id="mask40_334_358" style="mask-type:luminance" maskUnits="userSpaceOnUse" x="74" y="32" width="20" height="28">
<path d="M74.9818 32.9179H93.1598V59.9712H74.9818V32.9179Z" fill="white"/>
</mask>
<g mask="url(#mask40_334_358)">
<path d="M80.4454 36.9909C80.4454 36.9909 80.1403 36.1546 82.9697 35.484C85.7991 34.8135 88.8143 34.6431 90.5828 33.9369C92.3514 33.2308 93.1598 32.9179 93.1598 32.9179C93.1598 32.9179 89.3253 35.6172 86.4309 35.7442C83.5365 35.8712 81.5527 35.8108 80.5197 36.9398" fill="#678399"/>
</g>
<mask id="mask41_334_358" style="mask-type:luminance" maskUnits="userSpaceOnUse" x="74" y="32" width="20" height="28">
<path d="M74.9818 32.9179H93.1598V59.9712H74.9818V32.9179Z" fill="white"/>
</mask>
<g mask="url(#mask41_334_358)">
<path d="M78.1255 59.9711C78.1255 59.9711 77.63 59.8705 78.2556 58.4302C78.8813 56.9885 79.8027 55.6071 80.0583 54.6252C80.3138 53.6434 80.4361 53.1974 80.4361 53.1974C80.4361 53.1974 80.4315 55.6551 79.5302 56.9714C78.6289 58.2878 77.9413 59.1488 78.1286 59.9247" fill="#678399"/>
</g>
<mask id="mask42_334_358" style="mask-type:luminance" maskUnits="userSpaceOnUse" x="98" y="32" width="20" height="28">
<path d="M117.074 32.9179H98.8944V59.9712H117.074V32.9179Z" fill="white"/>
</mask>
<g mask="url(#mask42_334_358)">
<path d="M116.335 55.172C116.335 55.172 117.125 54.7616 115.49 52.3565C113.854 49.9515 111.747 47.7896 110.92 46.0752C110.093 44.3609 109.707 43.5835 109.707 43.5835C109.707 43.5835 110.714 48.1644 112.761 50.2117C114.81 52.2605 116.314 53.5536 116.314 55.0852" fill="#678399"/>
</g>
<mask id="mask43_334_358" style="mask-type:luminance" maskUnits="userSpaceOnUse" x="98" y="32" width="20" height="28">
<path d="M117.074 32.9179H98.8944V59.9712H117.074V32.9179Z" fill="white"/>
</mask>
<g mask="url(#mask43_334_358)">
<path d="M117.063 44.1921C117.063 44.1921 117.368 43.3558 114.539 42.6852C111.708 42.0147 108.694 41.8443 106.926 41.1381C105.157 40.432 104.349 40.1191 104.349 40.1191C104.349 40.1191 108.183 42.8184 111.078 42.9454C113.972 43.0724 115.956 43.012 116.989 44.141" fill="#678399"/>
</g>
<mask id="mask44_334_358" style="mask-type:luminance" maskUnits="userSpaceOnUse" x="98" y="32" width="20" height="28">
<path d="M117.074 32.9179H98.8944V59.9712H117.074V32.9179Z" fill="white"/>
</mask>
<g mask="url(#mask44_334_358)">
<path d="M111.61 36.9909C111.61 36.9909 111.916 36.1546 109.086 35.4841C106.257 34.8135 103.242 34.6432 101.473 33.937C99.7045 33.2308 98.8961 32.918 98.8961 32.918C98.8961 32.918 102.731 35.6173 105.625 35.7442C108.519 35.8712 110.503 35.8108 111.536 36.9398" fill="#678399"/>
</g>
<mask id="mask45_334_358" style="mask-type:luminance" maskUnits="userSpaceOnUse" x="98" y="32" width="20" height="28">
<path d="M117.074 32.9179H98.8944V59.9712H117.074V32.9179Z" fill="white"/>
</mask>
<g mask="url(#mask45_334_358)">
<path d="M113.929 59.9712C113.929 59.9712 114.424 59.8705 113.799 58.4303C113.173 56.9885 112.251 55.6071 111.996 54.6253C111.74 53.6434 111.618 53.1974 111.618 53.1974C111.618 53.1974 111.623 55.6551 112.524 56.9715C113.425 58.2878 114.113 59.1488 113.926 59.9247" fill="#678399"/>
</g>
</svg>
