<svg width="46" height="45" viewBox="0 0 46 45" fill="none" xmlns="http://www.w3.org/2000/svg">
<path d="M23.5791 4.68209C27.8183 4.68209 31.727 6.06845 34.8449 8.40865L31.2734 11.2422L30.5433 11.8214L31.4296 12.1094L43.6856 16.0921L44.5007 16.357L44.3301 15.517L41.9328 3.71291L41.7706 2.91413L41.132 3.42072L37.9574 5.93936C34.0724 2.80418 29.0581 0.908401 23.5791 0.908401C11.1634 0.908401 1.1781 10.611 1.1781 22.4884C1.1781 34.3658 11.1634 44.0684 23.5791 44.0684C30.1288 44.0684 36.0143 41.3593 40.1007 37.0623L39.7383 36.7178L40.1007 37.0623C40.8522 36.2721 40.7618 35.0587 39.9176 34.3725L39.6022 34.7605L39.9176 34.3725C39.0961 33.7048 37.8527 33.7744 37.1228 34.5418L37.4852 34.8864L37.1228 34.5418C33.751 38.0876 28.9278 40.2947 23.5791 40.2947C13.4597 40.2947 5.17824 32.3626 5.17824 22.4884C5.17824 12.6142 13.4597 4.68209 23.5791 4.68209Z" fill="#BFD5DF" stroke="#BFD5DF"/>
<path d="M30.6625 25.7507C30.6625 26.2708 30.5611 26.7746 30.3583 27.2622C30.1682 27.7497 29.8957 28.1777 29.5408 28.5461C29.1732 28.9253 28.6916 29.2232 28.0958 29.4399C27.5001 29.6566 26.8474 29.765 26.1376 29.765C25.3897 29.765 24.7497 29.6783 24.2173 29.5049C23.6976 29.3208 23.2794 29.077 22.9625 28.7736C22.671 28.5027 22.4618 28.1994 22.3351 27.8635C22.2083 27.5276 22.145 27.078 22.145 26.5146H24.7116C24.7243 26.8613 24.756 27.1159 24.8067 27.2784C24.8574 27.4301 24.9334 27.5601 25.0348 27.6685C25.1362 27.7551 25.2757 27.8364 25.4531 27.9122C25.6432 27.9773 25.8714 28.0098 26.1376 28.0098C26.6446 28.0098 27.1009 27.8147 27.5065 27.4247C27.9247 27.0238 28.1529 26.4604 28.1909 25.7345C28.1909 24.9977 28.0008 24.4506 27.6205 24.093C27.2403 23.7246 26.7967 23.5404 26.2897 23.5404C25.9855 23.5404 25.7003 23.6109 25.4341 23.7517C25.1679 23.8926 24.9398 24.1472 24.7497 24.5156H22.4682L22.8484 17.2509H29.94V19.1361H25.1299L24.9208 22.1428C25.3897 21.9044 25.9094 21.7852 26.4798 21.7852C27.9121 21.7852 28.9641 22.159 29.6358 22.9066C30.3203 23.6434 30.6625 24.5914 30.6625 25.7507Z" fill="#BFD5DF"/>
<path d="M18.4375 29.6512H16.023V19.6237L13.6084 20.8751V18.7623L16.4983 17.1371H18.4375V29.6512Z" fill="#BFD5DF"/>
</svg>
