<svg width="45" height="49" viewBox="0 0 45 49" fill="none" xmlns="http://www.w3.org/2000/svg">
<path d="M21.8436 5.16576C17.5909 5.16576 13.6669 6.67827 10.5398 9.23603L14.1642 12.3461L14.8214 12.9101L14.0044 13.1973L1.74842 17.5049L0.9314 17.7921L1.09122 16.9409L3.48851 4.17366L3.64833 3.32254L4.30553 3.88648L7.46521 6.59778C11.3469 3.21552 16.3604 1.16576 21.8436 1.16576C34.2962 1.16576 44.2446 11.6802 44.2446 24.4658C44.2446 37.2514 34.2962 47.7658 21.8436 47.7658C15.28 47.7658 9.39096 44.8291 5.30889 40.1863L5.68439 39.8562L5.30888 40.1863C4.57954 39.3568 4.66081 38.093 5.49038 37.3637L5.82051 37.7392L5.49039 37.3637C6.31996 36.6344 7.58371 36.7157 8.31307 37.5452C11.6892 41.3851 16.5088 43.7658 21.8436 43.7658C31.9261 43.7658 40.2445 35.2066 40.2445 24.4658C40.2445 13.7249 31.9261 5.16576 21.8436 5.16576Z" fill="#BFD5DF" stroke="#BFD5DF"/>
<path d="M30.2294 27.9943C30.2294 28.5568 30.1356 29.1017 29.9481 29.629C29.7723 30.1564 29.5204 30.6193 29.1923 31.0177C28.8524 31.4279 28.4071 31.7501 27.8563 31.9845C27.3055 32.2189 26.702 32.3361 26.0458 32.3361C25.3544 32.3361 24.7626 32.2423 24.2704 32.0548C23.7899 31.8556 23.4032 31.5919 23.1102 31.2638C22.8407 30.9708 22.6473 30.6427 22.5302 30.2794C22.413 29.9162 22.3544 29.4298 22.3544 28.8204H24.7274C24.7391 29.1954 24.7684 29.4708 24.8153 29.6466C24.8622 29.8107 24.9325 29.9513 25.0262 30.0685C25.12 30.1622 25.2489 30.2501 25.413 30.3322C25.5887 30.4025 25.7997 30.4376 26.0458 30.4376C26.5145 30.4376 26.9364 30.2267 27.3114 29.8048C27.6981 29.3712 27.9091 28.7619 27.9442 27.9767C27.9442 27.1798 27.7684 26.588 27.4169 26.2013C27.0653 25.8029 26.6552 25.6037 26.1864 25.6037C25.9052 25.6037 25.6415 25.6798 25.3954 25.8322C25.1493 25.9845 24.9384 26.2599 24.7626 26.6583H22.6532L23.0048 18.8009H29.5614V20.84H25.1141L24.9208 24.0919C25.3544 23.8341 25.8348 23.7052 26.3622 23.7052C27.6864 23.7052 28.6591 24.1095 29.2802 24.9181C29.913 25.715 30.2294 26.7404 30.2294 27.9943Z" fill="#BFD5DF"/>
<path d="M18.9266 32.213H16.6942V21.3673L14.4618 22.7208V20.4357L17.1337 18.6779H18.9266V32.213Z" fill="#BFD5DF"/>
</svg>
