<svg width="51" height="45" viewBox="0 0 51 45" fill="none" xmlns="http://www.w3.org/2000/svg">
<path d="M25.9659 24.5481C25.9659 24.5481 20.6187 27.0371 18.8299 31.2777C17.0604 35.5183 17.1565 39.9616 17.1565 39.9616L2.05746 39.7404C2.05746 39.7404 -1.25087 37.1407 1.84588 29.7474C4.94263 22.354 16.4641 20.8975 25.9659 24.5481ZM46.1237 26.9265C46.1237 26.9265 54.0483 19.5516 48.6241 12.8219C43.2 6.09232 39.6032 7.73324 38.9877 6.31357C38.3529 4.8939 38.4876 3.38204 36.6795 3.49266C34.8715 3.60329 34.9484 5.0414 34.9869 6.95888C35.0446 8.87636 35.1985 29.5446 35.1985 29.5446C35.1985 29.5446 22.6384 27.6087 22.6191 38.2101C22.5999 48.83 38.3914 45.8431 38.3529 37.1407C38.3145 28.4199 38.5645 14.3338 38.5645 14.3338C38.5645 14.3338 46.3929 13.0432 46.5276 18.4638C46.6815 23.8843 44.5657 26.7605 46.1237 26.9265ZM17.5797 0.00801477C17.5797 0.00801477 24.4464 1.16956 24.9273 7.40137C25.4081 13.6332 21.7343 17.3575 17.1565 17.376C12.598 17.3944 9.19345 14.721 8.98188 8.48917C8.7703 2.23893 14.0982 -0.157921 17.5797 0.00801477Z" fill="#EDF2F5"/>
</svg>
