<svg width="44" height="58" viewBox="0 0 44 58" fill="none" xmlns="http://www.w3.org/2000/svg">
<g clip-path="url(#clip0_811_30154)">
<path d="M19.5644 0.75195C20.4987 0.751991 21.3924 0.716566 22.2813 0.770766C22.6049 0.790493 22.9983 0.935499 23.2223 1.17306C26.0728 4.19666 28.9046 7.24073 31.7177 10.3045C31.9401 10.5468 32.099 10.9735 32.1005 11.3154C32.1236 16.6533 32.1188 21.9913 32.1127 27.3292C32.1116 28.2829 31.5978 28.7424 30.7162 28.6213C23.7085 27.6593 17.1582 32.3636 15.3784 39.6956C15.0955 40.8611 15.0104 42.0894 14.9085 43.296C14.8279 44.25 14.5093 44.6607 13.6262 44.6623C11.2197 44.6664 8.8131 44.6745 6.40666 44.6609C3.80608 44.6462 1.98477 42.6728 1.98384 39.8699C1.98 28.4184 1.98032 16.9668 1.98382 5.51528C1.98467 2.74517 3.85148 0.755347 6.44175 0.753076C10.8018 0.749253 15.1619 0.751979 19.5644 0.75195ZM11.7043 26.1931C10.9709 26.1735 10.2625 26.2955 9.61083 26.6723C8.93873 27.0608 8.44803 27.6092 8.44385 28.4865C8.43966 29.3661 8.91855 29.9489 9.6038 30.3002C10.9719 31.0017 12.3733 31.0053 13.7394 30.2923C14.5106 29.8897 14.9085 29.2124 14.9012 28.2415C14.8793 25.3219 14.8933 22.4019 14.8933 19.482C14.8933 19.3211 14.8933 19.1602 14.8933 18.9943C17.0651 18.4112 19.1853 17.842 21.3193 17.2691C21.3193 19.5343 21.3193 21.7451 21.3193 23.976C21.0218 23.9419 20.7557 23.8991 20.4883 23.8831C19.6075 23.8305 18.7659 23.9861 18.0064 24.4938C17.5749 24.7824 17.2384 25.1684 17.1078 25.7155C16.8961 26.6025 17.2705 27.4458 18.1275 27.9433C19.2296 28.5831 20.4015 28.6425 21.5898 28.3041C22.9794 27.9082 23.4923 27.1596 23.492 25.6203C23.4915 22.4115 23.4922 19.2027 23.4899 15.9939C23.4891 14.8711 22.9398 14.4141 21.93 14.6862C19.2278 15.4145 16.5258 16.1438 13.8229 16.8694C12.9789 17.096 12.75 17.3971 12.7495 18.3316C12.7483 20.7192 12.75 23.1068 12.7506 25.4944C12.7506 25.7503 12.7506 26.0061 12.7506 26.2804C12.4008 26.2504 12.0936 26.2241 11.7043 26.1931ZM23.6255 8.46328C23.9297 9.28905 24.472 9.87416 25.2991 9.94393C26.2811 10.0268 27.2733 9.96871 28.261 9.96813C28.2737 9.96812 28.2863 9.92096 28.2512 9.99083C26.6497 8.26945 25.0692 6.57054 23.4393 4.81865C23.4929 6.02191 23.5457 7.20906 23.6255 8.46328Z" fill="#678399"/>
<path d="M24.4892 55.3212C18.4947 52.7743 15.4913 45.3171 17.8291 38.9418C20.2484 32.3443 27.1042 29.0854 33.2046 31.6949C39.3804 34.3367 42.321 41.7559 39.8472 48.2962C37.3993 54.7678 30.4789 57.9458 24.4892 55.3212ZM29.9472 40.0352C29.945 38.8647 29.9541 37.6941 29.9356 36.5239C29.9272 35.9866 29.5751 35.5668 29.1057 35.4526C28.664 35.3451 28.1511 35.5682 27.9553 36.0164C27.8519 36.2529 27.8097 36.5407 27.809 36.8055C27.7996 40.2259 27.8027 43.6463 27.8026 47.0667C27.8026 47.2235 27.8026 47.3804 27.8026 47.6273C27.6275 47.4492 27.5248 47.3492 27.4267 47.2442C26.7352 46.5039 26.0509 45.7556 25.3509 45.0246C25.0383 44.6981 24.664 44.5591 24.2227 44.7253C23.8061 44.8821 23.5709 45.2034 23.4978 45.6524C23.4225 46.1159 23.6364 46.4678 23.9305 46.7826C25.2533 48.1991 26.5725 49.6195 27.893 51.0385C28.6091 51.8081 29.1265 51.8078 29.8497 51.0322C31.1814 49.6041 32.508 48.1703 33.8442 46.747C34.3436 46.215 34.4094 45.5542 33.9834 45.0593C33.5435 44.5481 32.8815 44.5539 32.3697 45.0924C31.6927 45.8048 31.0271 46.5298 30.3557 47.2485C30.2509 47.3607 30.1417 47.4682 29.9474 47.6669C29.9474 45.0662 29.9474 42.5963 29.9472 40.0352Z" fill="#678399"/>
</g>
<defs>
<clipPath id="clip0_811_30154">
<rect width="42.9791" height="57.3055" fill="white" transform="translate(0.368164 0.113022)"/>
</clipPath>
</defs>
</svg>
