<svg width="111" height="356" viewBox="0 0 111 356" fill="none" xmlns="http://www.w3.org/2000/svg">
<path d="M19.7283 130C15.8121 152.35 10.3295 202.755 19.7283 225.572C31.4769 254.094 37.0961 261.099 43.2258 295.625C49.3555 330.151 39.139 362.676 19.7283 348.665C0.317652 334.655 -2.74728 266.603 19.7283 130Z" stroke="#B5CBD5" stroke-width="7" stroke-linejoin="round"/>
<path fill-rule="evenodd" clip-rule="evenodd" d="M19.2866 103.45C22.4594 116.984 26.3505 144.5 26.3505 144.5C26.3505 144.5 8 142 5.50003 126C3.00007 110 19.2866 103.45 19.2866 103.45Z" fill="#678399"/>
<path d="M26.3503 144.5C26.3503 144.5 20 123.5 19.2864 103.45C17.3453 76.3632 17 52 23.9821 23.0013C30 9.5 31.9653 5.90007 42.2097 0.250184C46.9728 -0.104502 51.2498 0.883276 55.0404 3.2134C59.8861 6.62551 63.7075 10.483 66.5049 14.786C78.9743 35.5146 88.1062 56.837 93.9016 78.7534C103.715 113.045 109.143 147.52 110.188 182.176C110.203 198.478 108.004 214.518 103.59 230.298C101.143 235.308 97.5071 239.737 92.6841 243.584C86.374 246.093 80.3167 245.561 74.5097 241.989C67.6231 237.091 62.1965 231.562 58.23 225.4C43.0995 199.137 37 182.176 26.3503 144.5Z" fill="#426077"/>
<path d="M79.6827 188.733C90.5163 186.152 93.8521 154.456 87.1335 117.936C80.4149 81.416 66.186 53.9027 55.3524 56.483C54.9669 56.5748 54.5909 56.7035 54.2245 56.868C63.5305 56.6488 75.4657 81.2708 81.3855 113.448C87.534 146.87 84.8648 175.786 75.4237 178.034C65.9826 180.283 53.3446 155.013 47.1961 121.592C46.5458 118.057 45.9941 114.573 45.5387 111.165C46.1034 116.371 46.8881 121.771 47.9017 127.28C54.6203 163.8 68.8491 191.313 79.6827 188.733Z" fill="#223848"/>
</svg>
