<svg width="124" height="355" viewBox="0 0 124 355" fill="none" xmlns="http://www.w3.org/2000/svg">
<path d="M112.61 138C137.543 41.7051 116.746 -6.328 85 1.5C3.89037 21.5001 -8.50016 167 5.49984 219.5C19.4998 272 83.6096 250 112.61 138Z" fill="#678399"/>
<path d="M43.5049 37.0558C25.9049 62.2558 21.8382 84.5558 22.0049 92.5558C42.0048 26.5558 71.0049 11.0558 83.0049 11.5558C77.1715 9.55581 61.1048 11.8558 43.5049 37.0558Z" fill="#8BA8BE"/>
<path d="M50.6304 54.2392C36.2053 76.1775 32.8723 95.5912 33.0089 102.556C49.401 45.0982 73.1696 31.6044 83.0049 32.0397C78.2238 30.2985 65.0555 32.3008 50.6304 54.2392Z" fill="#8BA8BE"/>
<path d="M59.0478 72.8495C48.3732 88.608 45.9067 102.553 46.0078 107.556C58.138 66.2834 75.7268 56.5907 83.0049 56.9034C79.4669 55.6527 69.7223 57.091 59.0478 72.8495Z" fill="#8BA8BE"/>
<path d="M68.3265 184.401C77.2787 174.363 80.995 164.555 81.7341 160.905C67.8247 189.294 55.6761 194.006 51.3405 192.814C53.2724 194.192 59.3743 194.439 68.3265 184.401Z" fill="#8BA8BE"/>
<path d="M70.4226 199.043C82.623 185.011 87.736 171.343 88.7674 166.263C69.7016 205.85 53.2214 212.506 47.3645 210.885C49.967 212.785 58.2221 213.075 70.4226 199.043Z" fill="#8BA8BE"/>
<path d="M71.9684 212.476C86.6035 196.494 92.6201 180.826 93.799 174.989C71.1932 220.307 51.2398 227.727 44.0888 225.773C47.284 228 57.3332 228.458 71.9684 212.476Z" fill="#8BA8BE"/>
<path d="M67.4999 117C71.4999 103 79.1666 94.1667 82.4999 91.5C89.3333 96 101.7 109.9 96.5 129.5C91.3 149.1 76.6666 153.333 69.9999 153C67.4999 146.833 63.4999 131 67.4999 117Z" fill="#8BA8BE"/>
<path d="M88.0003 129C91.8337 151.333 97.2003 201.7 88.0003 224.5C76.5003 253 71 260 65 294.5C59 329 69.0003 361.5 88.0003 347.5C107 333.5 110 265.5 88.0003 129Z" stroke="#B5CBD5" stroke-width="7" stroke-linejoin="round"/>
</svg>
