<svg width="70" height="63" viewBox="0 0 70 63" fill="none" xmlns="http://www.w3.org/2000/svg">
<path fill-rule="evenodd" clip-rule="evenodd" d="M5.12751 28.6058C6.22545 31.8988 7.11731 35.2467 7.80305 38.6495C9.95469 45.39 13.2434 51.8577 17.6691 58.0521C18.814 59.4963 20.319 60.7518 22.1841 61.8185C23.7449 62.5793 25.3054 62.5793 26.8663 61.8185C28.0184 60.7577 28.8546 59.5783 29.3746 58.2804C30.1696 54.2643 30.3923 50.2315 30.0435 46.1823C29.0428 37.5956 26.9248 29.1498 23.6891 20.8448C21.743 15.5266 18.956 10.4286 15.328 5.55096C14.5214 4.54296 13.4624 3.66795 12.1508 2.9259C11.132 2.42965 10.0171 2.27747 8.80638 2.46937C6.30575 4.09615 4.91223 6.11249 4.62584 8.51842C3.89054 15.2233 4.05776 21.9192 5.12751 28.6058ZM16.3313 18.5622C15.733 18.1675 15.0084 18.0153 14.1575 18.1056C13.4092 18.6897 12.9076 19.3745 12.6525 20.16C11.6388 27.7012 13.088 35.0057 17.0002 42.0735C17.9135 43.6417 19.1955 45.0494 20.8463 46.2965C21.4955 46.4661 22.1085 46.4279 22.6857 46.1823C23.4195 45.4852 23.977 44.7242 24.358 43.8997C24.4984 36.4673 22.8262 29.2391 19.3413 22.2144C18.5224 20.9092 17.5191 19.6918 16.3313 18.5622Z" fill="#BFD5DF"/>
<path fill-rule="evenodd" clip-rule="evenodd" d="M5.12754 28.6058C6.22548 31.8987 7.11734 35.2467 7.80308 38.6495C6.55973 37.9382 5.5564 37.1014 4.7931 36.1385C4.45531 35.3561 4.12087 34.5952 3.78977 33.8559C3.52459 32.0088 3.97054 30.2586 5.12754 28.6058Z" fill="#678399"/>
<path fill-rule="evenodd" clip-rule="evenodd" d="M4.79308 36.1386C4.45529 35.3561 4.12085 34.5952 3.78975 33.8559C-0.0103534 37.4696 -0.790708 41.3501 1.44865 45.4975C2.54231 45.8887 3.37842 45.7367 3.95697 45.0409C4.34041 42.0792 4.6191 39.1117 4.79308 36.1386ZM2.11754 39.7908C2.66656 41.1202 2.77803 42.4898 2.45198 43.8996C2.11891 42.5384 2.00741 41.1688 2.11754 39.7908Z" fill="#678399"/>
<path fill-rule="evenodd" clip-rule="evenodd" d="M64.065 26.785C63.2488 26.9201 62.5935 27.301 62.0992 27.9276C61.0052 30.0373 60.6558 32.2464 61.0508 34.5547C61.2007 35.2875 61.6811 35.6685 62.4924 35.6973C61.5996 36.5081 60.5512 37.1557 59.3471 37.6397C58.8498 37.8933 58.3694 37.9313 57.9055 37.7539C56.8754 35.309 56.7006 32.7953 57.3812 30.2128C57.7949 27.7916 58.8868 25.6589 60.6576 23.8142C60.9069 23.6255 61.169 23.5876 61.4439 23.7C62.0161 24.237 62.6276 24.7322 63.2787 25.1854C63.7576 25.6394 64.0197 26.1728 64.065 26.785Z" fill="#678399"/>
<path fill-rule="evenodd" clip-rule="evenodd" d="M67.9967 33.4121C67.2274 32.6265 66.3976 31.8648 65.5067 31.1269C65.4417 29.9699 65.2668 28.8273 64.9824 27.6991C64.8094 27.2823 64.5036 26.9777 64.0651 26.7851C64.0197 26.1729 63.7576 25.6395 63.2787 25.1854C62.6277 24.7323 62.0162 24.2371 61.444 23.7C61.169 23.5876 60.9069 23.6255 60.6576 23.8143C58.8868 25.6589 57.7949 27.7917 57.3813 30.2129C56.7006 32.7954 56.8754 35.3091 57.9055 37.754C58.3694 37.9313 58.8499 37.8934 59.3471 37.6397C60.5512 37.1557 61.5997 36.5081 62.4924 35.6973C63.3867 35.2154 64.042 34.5298 64.4582 33.6406C64.9908 34.7339 65.2094 35.8765 65.1135 37.0684C63.5553 41.6338 61.5022 46.052 58.9539 50.3226C57.451 52.395 55.66 54.2613 53.5807 55.9213C53.4234 56.0185 53.264 56.1094 53.1024 56.1942C51.9709 56.7875 50.7325 57.0775 49.387 57.0639C51.0993 57.3285 52.672 57.0237 54.1049 56.1498C56.8107 54.172 59.0386 51.8486 60.7887 49.18C62.2269 46.1388 63.5812 43.0918 64.8514 40.0392C64.9172 40.8959 65.0917 41.7337 65.3756 42.5529C63.5678 47.7625 60.7284 52.4851 56.8571 56.7211C54.6475 59.1137 51.8078 60.2182 48.3385 60.0347C46.5483 59.6199 45.1067 58.7437 44.0138 57.4067C41.8089 53.8473 40.4984 50.0387 40.0821 45.9807C38.8754 32.9768 41.5837 20.6367 48.2075 8.96054C50.2192 5.30212 53.2334 2.44563 57.2502 0.391052C60.4847 -0.446152 63.1495 0.277501 65.2445 2.56199C67.6525 6.15788 69.0504 10.0427 69.4383 14.2165C69.9554 20.7085 69.475 27.107 67.9967 33.4121ZM57.5123 3.01902C58.4774 2.98124 59.4383 3.01934 60.3955 3.13328C59.0375 3.13444 57.8143 3.47722 56.726 4.16162C53.3068 6.95508 50.6422 10.2305 48.7317 13.988C47.261 17.0856 45.8632 20.2087 44.538 23.3573C45.4664 16.7248 48.3933 10.8594 53.3186 5.76125C54.6407 4.73122 56.0385 3.81715 57.5123 3.01902ZM57.7745 8.04645C58.5655 8.00884 59.3518 8.04691 60.1334 8.16071C57.4977 8.77922 55.4446 10.1122 53.9739 12.1598C51.0141 16.6477 48.6552 21.3705 46.8969 26.328C47.5674 21.043 49.577 16.1679 52.9254 11.7028C54.3602 10.2586 55.9766 9.03985 57.7745 8.04645ZM58.5608 13.988C59.0061 13.9513 59.443 13.9894 59.8713 14.1022C58.5749 14.4954 57.4827 15.1428 56.595 16.0446C53.3438 20.2009 51.1596 24.7713 50.0422 29.7558C50.247 26.3234 51.2078 23.0478 52.9254 19.9295C54.1914 17.494 56.07 15.5135 58.5608 13.988ZM60.3955 40.7248C60.0642 42.669 59.0158 44.345 57.2502 45.7522C56.9826 45.6375 56.9388 45.4853 57.1192 45.2951C58.5456 43.9499 59.6378 42.4265 60.3955 40.7248ZM62.7545 38.6681C62.0791 42.7439 60.2008 46.4003 57.1192 49.637L55.4155 51.1224C55.0855 51.3468 54.7361 51.4229 54.367 51.3509C56.0946 49.8457 57.6235 48.2081 58.9539 46.4377C60.4501 43.9343 61.7168 41.3445 62.7545 38.6681Z" fill="#BFD5DF"/>
<path d="M67.4725 36.1544C67.3288 36.6402 67.154 37.0972 66.9482 37.5255C66.9309 36.5979 66.8872 35.6838 66.8172 34.7832C67.2531 35.1621 67.4714 35.6192 67.4725 36.1544Z" fill="#BFD5DF"/>
<path fill-rule="evenodd" clip-rule="evenodd" d="M67.4724 36.1543C68.572 38.0042 68.4847 39.8324 67.2103 41.6388C67.0289 41.5188 66.8979 41.3664 66.8172 41.1818C66.6575 39.9567 66.7013 38.7378 66.9482 37.5255C67.154 37.0972 67.3288 36.6402 67.4724 36.1543ZM64.065 26.785C64.5035 26.9777 64.8094 27.2823 64.9824 27.6991C65.2668 28.8273 65.4416 29.9699 65.5066 31.1269C66.3975 31.8648 67.2274 32.6265 67.9967 33.4121C70.0458 36.2492 70.3517 39.2199 68.914 42.3244C67.8326 43.4638 66.6531 43.5401 65.3756 42.5529C65.0917 41.7336 64.9171 40.8959 64.8514 40.0392C64.9633 39.0511 65.0508 38.0606 65.1135 37.0684C65.2094 35.8765 64.9908 34.7339 64.4582 33.6406C64.042 34.5298 63.3867 35.2153 62.4924 35.6973C61.6812 35.6685 61.2007 35.2876 61.0508 34.5547C60.6558 32.2464 61.0052 30.0373 62.0992 27.9276C62.5936 27.301 63.2488 26.9201 64.065 26.785Z" fill="#678399"/>
</svg>
