<svg width="44" height="44" viewBox="0 0 44 44" fill="none" xmlns="http://www.w3.org/2000/svg">
<path d="M23.2248 35.3649L13.3946 26.8625H4.09106V15.9212H13.2536L23.2248 7.29612V35.3649Z" fill="#678399"/>
<path fill-rule="evenodd" clip-rule="evenodd" d="M35.0557 36.3494C35.6725 36.8449 36.5742 36.7466 37.0698 36.1298C40.4459 31.9272 42.2862 26.698 42.2862 21.3073C42.2862 15.9166 40.4459 10.6874 37.0698 6.48485C36.5742 5.86802 35.6725 5.76969 35.0557 6.26522C34.4388 6.76076 34.3405 7.66251 34.836 8.27934C37.8034 11.9731 39.4209 16.5692 39.4209 21.3073C39.4209 26.0454 37.8034 30.6415 34.836 34.3353C34.3405 34.9521 34.4388 35.8539 35.0557 36.3494ZM31.378 32.6609C32.0149 33.1304 32.9118 32.9946 33.3813 32.3577C35.7408 29.1565 37.0138 25.2841 37.0138 21.3073C37.0138 17.3305 35.7408 13.4581 33.3813 10.2569C32.9118 9.62002 32.0149 9.48428 31.378 9.95374C30.7411 10.4232 30.6054 11.3201 31.0748 11.957C33.0714 14.6657 34.1485 17.9423 34.1485 21.3073C34.1485 24.6723 33.0714 27.949 31.0748 30.6577C30.6054 31.2946 30.7411 32.1914 31.378 32.6609ZM27.3732 28.6367C28.0347 29.0708 28.9229 28.8866 29.3571 28.2251C30.7059 26.1701 31.4245 23.7655 31.4245 21.3073C31.4245 18.8491 30.7059 16.4446 29.3571 14.3895C28.9229 13.7281 28.0347 13.5438 27.3732 13.9779C26.7118 14.4121 26.5275 15.3003 26.9617 15.9617C28.004 17.5497 28.5593 19.4078 28.5593 21.3073C28.5593 23.2068 28.004 25.0649 26.9617 26.6529C26.5275 27.3144 26.7118 28.2025 27.3732 28.6367Z" fill="#678399"/>
</svg>
