<svg width="36" height="31" viewBox="0 0 36 31" fill="none" xmlns="http://www.w3.org/2000/svg">
<path d="M16.9893 15.9322C16.742 16.1947 16.5734 16.53 16.5049 16.8955C16.4364 17.2609 16.4711 17.6399 16.6046 17.9842C16.7382 18.3284 16.9645 18.6223 17.2547 18.8283C17.5449 19.0344 17.8859 19.1433 18.2341 19.1411H18.5672C18.6834 19.1237 18.796 19.0856 18.9004 19.0285C19.0081 18.991 19.1089 18.9339 19.1984 18.8596L19.4614 18.6344C19.6258 18.46 19.7562 18.2524 19.8452 18.0238C19.9342 17.7951 19.98 17.5498 19.98 17.3021C19.98 17.0543 19.9342 16.8091 19.8452 16.5804C19.7562 16.3517 19.6258 16.1442 19.4614 15.9697C19.1376 15.6152 18.6958 15.4122 18.2326 15.4052C17.7694 15.3982 17.3224 15.5876 16.9893 15.9322ZM18.2341 21.0177C17.7691 21.0177 17.3231 21.2154 16.9943 21.5673C16.6655 21.9192 16.4808 22.3965 16.4808 22.8942V28.5239C16.4808 29.0216 16.6655 29.4989 16.9943 29.8508C17.3231 30.2027 17.7691 30.4005 18.2341 30.4005C18.6991 30.4005 19.1451 30.2027 19.4739 29.8508C19.8027 29.4989 19.9874 29.0216 19.9874 28.5239V22.8942C19.9874 22.3965 19.8027 21.9192 19.4739 21.5673C19.1451 21.2154 18.6991 21.0177 18.2341 21.0177ZM29.4903 8.29459C28.419 5.65991 26.5702 3.47386 24.227 2.07141C21.8839 0.668966 19.1757 0.127494 16.5176 0.529973C13.8594 0.932452 11.3978 2.25668 9.51012 4.29973C7.62239 6.34278 6.41261 8.99195 6.06618 11.8413C4.39455 12.2697 2.92815 13.3403 1.94545 14.8498C0.962756 16.3592 0.532198 18.2023 0.735545 20.0291C0.938893 21.8559 1.76198 23.5392 3.04851 24.7593C4.33504 25.9793 5.9954 26.6512 7.71429 26.6473H11.2209C11.6859 26.6473 12.1319 26.4496 12.4607 26.0977C12.7895 25.7458 12.9742 25.2685 12.9742 24.7708C12.9742 24.2731 12.7895 23.7958 12.4607 23.4438C12.1319 23.0919 11.6859 22.8942 11.2209 22.8942H7.71429C6.78428 22.8942 5.89236 22.4988 5.23474 21.795C4.57712 21.0911 4.20768 20.1365 4.20768 19.1411C4.20768 18.1457 4.57712 17.1911 5.23474 16.4872C5.89236 15.7834 6.78428 15.388 7.71429 15.388C8.17929 15.388 8.62525 15.1903 8.95406 14.8384C9.28287 14.4864 9.46759 14.0091 9.46759 13.5114C9.47207 11.292 10.2115 9.14609 11.5545 7.45499C12.8975 5.76389 14.7571 4.63709 16.803 4.27477C18.8488 3.91245 20.9485 4.33807 22.7288 5.47602C24.5092 6.61397 25.855 8.39056 26.5272 10.4902C26.6275 10.8126 26.8076 11.0999 27.0485 11.3214C27.2893 11.5428 27.5819 11.6901 27.8948 11.7475C29.1119 11.9722 30.2163 12.6481 31.0145 13.6568C31.8127 14.6655 32.2538 15.9427 32.2605 17.2645C32.2605 18.7576 31.7064 20.1896 30.72 21.2453C29.7335 22.3011 28.3957 22.8942 27.0006 22.8942H25.2473C24.7823 22.8942 24.3364 23.0919 24.0076 23.4438C23.6787 23.7958 23.494 24.2731 23.494 24.7708C23.494 25.2685 23.6787 25.7458 24.0076 26.0977C24.3364 26.4496 24.7823 26.6473 25.2473 26.6473H27.0006C29.0934 26.6267 31.1102 25.8053 32.6865 24.3318C34.2628 22.8583 35.2946 20.8299 35.5953 18.6131C35.896 16.3964 35.4458 14.1376 34.3262 12.2452C33.2065 10.3527 31.4912 8.95142 29.4903 8.29459Z" fill="#426077"/>
</svg>
