<svg version="1.2" xmlns="http://www.w3.org/2000/svg" viewBox="0 0 260 260" width="1080" height="1080">
	<title>cross-svg (1)-svg</title>
	<style>
		.s0 { fill: #000000 } 
	</style>
	<path id="Layer 1" class="s0" d="m132.3 141.1c0 0-27.8 13.5-37.1 36.5-9.2 23-8.7 47.1-8.7 47.1l-78.5-1.2c0 0-17.2-14.1-1.1-54.2 16.1-40.1 76-48 125.4-28.2zm104.8 12.9c0 0 41.2-40 13-76.5-28.2-36.5-46.9-27.6-50.1-35.3-3.3-7.7-2.6-15.9-12-15.3-9.4 0.6-9 8.4-8.8 18.8 0.3 10.4 1.1 122.5 1.1 122.5 0 0-65.3-10.5-65.4 47-0.1 57.6 82 41.4 81.8-5.8-0.2-47.3 1.1-123.7 1.1-123.7 0 0 40.7-7 41.4 22.4 0.8 29.4-10.2 45-2.1 45.9zm-148.4-146c0 0 35.7 6.3 38.2 40.1 2.5 33.8-16.6 54-40.4 54.1-23.7 0.1-41.4-14.4-42.5-48.2-1.1-33.9 26.6-46.9 44.7-46z"/>
</svg>