<svg width="76" height="66" viewBox="0 0 76 66" fill="none" xmlns="http://www.w3.org/2000/svg">
<path d="M27.5669 65.2867C27.5669 65.2867 13.7566 18.3178 9.02582 15.2898C4.29506 12.2619 -1.13571 14.0577 1.06951 25.0644C3.27473 36.071 27.5669 65.2867 27.5669 65.2867Z" fill="#8BA8BE"/>
<path d="M38.9395 40.8968C38.9395 40.8968 38.5772 5.13485 36.3766 2.02849C34.176 -1.07786 30.8117 -0.953247 30.3121 7.21212C29.8125 15.3775 38.9395 40.8968 38.9395 40.8968Z" fill="#8BA8BE"/>
<path d="M54.3817 49.4958C54.3817 49.4958 59.399 14.0857 57.6904 10.6839C55.9817 7.28204 52.6369 6.89954 50.9156 14.897C49.1943 22.8945 54.3817 49.4958 54.3817 49.4958Z" fill="#8BA8BE"/>
<path d="M71.0106 42.0312C71.0106 42.0312 76.3026 21.0713 75.6029 18.9384C74.9032 16.8055 73.086 16.394 71.5664 21.0958C70.0469 25.7976 71.0106 42.0312 71.0106 42.0312Z" fill="#8BA8BE"/>
</svg>
