<svg width="31" height="31" viewBox="0 0 31 31" fill="none" xmlns="http://www.w3.org/2000/svg">
<path d="M23.2848 0.412437C27.1421 0.449391 30.6232 3.79458 30.6612 7.79196C30.6775 12.876 30.7088 17.96 30.6605 23.0434C30.5999 26.866 27.2805 30.3374 23.2848 30.3753C18.203 30.3916 13.1212 30.4229 8.04003 30.3747C4.21976 30.3141 0.749565 26.9932 0.711296 22.9958C0.695322 17.9118 0.663709 12.8277 0.711961 7.74436C0.772527 3.92176 4.09197 0.450723 8.08762 0.412437C13.1535 0.396457 18.219 0.396457 23.2848 0.412437ZM8.1372 2.40996C5.32191 2.41895 2.73624 4.83563 2.70795 7.80461C2.69198 12.876 2.66003 17.9474 2.70829 23.0181C2.75255 25.809 5.17582 28.3498 8.10026 28.3778C13.1694 28.3941 18.2386 28.4254 23.3071 28.3775C26.0985 28.3329 28.6366 25.9089 28.6645 22.9831C28.6808 17.9118 28.7121 12.8404 28.6642 7.76966C28.6196 4.97745 26.2003 2.43793 23.2722 2.40996C18.2273 2.39398 13.1821 2.40996 8.1372 2.40996Z" fill="#426077"/>
<path d="M15.7691 4.54565C19.406 4.61457 22.5651 8.1645 22.0466 11.8676C21.6223 14.8958 18.7614 17.3957 15.6862 17.3957C11.9861 17.3957 8.67963 13.6627 9.36415 9.83443C9.88195 6.93736 12.5575 4.60358 15.6034 4.54565C15.6862 4.54499 15.6862 4.54499 15.7691 4.54565ZM15.629 6.54284C12.7042 6.59844 10.3275 10.0478 11.6966 12.8883C12.8962 15.3782 16.6686 16.1499 18.7388 14.1751C21.1587 11.8669 19.8792 6.62175 15.7435 6.54284C15.6862 6.54251 15.6862 6.54251 15.629 6.54284ZM15.7854 18.7278C19.7218 18.782 23.5148 21.1241 25.2682 24.731C25.6372 25.49 24.8905 26.5111 24.0379 26.1722C23.4053 25.9205 23.2336 25.0879 22.8279 24.4959C20.379 20.9217 15.0733 19.6659 11.2616 21.9424C9.79542 22.818 8.60642 24.1347 7.86532 25.6768C7.86532 25.6768 7.52522 26.2171 7.01341 26.2418C6.23072 26.2791 5.73389 25.4155 6.27332 24.3984C8.08229 20.986 11.8184 18.7098 15.7854 18.7278Z" fill="#426077"/>
</svg>
