<svg width="141" height="115" viewBox="0 0 141 115" fill="none" xmlns="http://www.w3.org/2000/svg">
<path fill-rule="evenodd" clip-rule="evenodd" d="M65.9352 52.4588L65.5002 5.05044L76.4998 4.94952L76.9635 55.5H128V66.5H96.7062L126.283 79.9963L121.717 90.0037L77.0933 69.6415L77.4998 113.95L66.5002 114.05L66.064 66.5H9V55.5H46.1023L18.7168 43.0037L23.2832 32.9963L65.9352 52.4588Z" fill="#2C475C"/>
<path d="M77 6.5C77 10.0899 74.3137 13 71 13C67.6863 13 65 10.0899 65 6.5C65 2.91015 67.6863 0 71 0C74.3137 0 77 2.91015 77 6.5Z" fill="#2C475C"/>
<path d="M65.5 7C69.0899 7 72 9.68629 72 13C72 16.3137 69.0899 19 65.5 19C61.9101 19 59 16.3137 59 13C59 9.68629 61.9101 7 65.5 7Z" fill="#2C475C"/>
<path d="M77.5 7C81.0899 7 84 9.68629 84 13C84 16.3137 81.0899 19 77.5 19C73.9101 19 71 16.3137 71 13C71 9.68629 73.9101 7 77.5 7Z" fill="#2C475C"/>
<path d="M6.5 54C10.0899 54 13 56.6863 13 60C13 63.3137 10.0899 66 6.5 66C2.91015 66 0 63.3137 0 60C0 56.6863 2.91015 54 6.5 54Z" fill="#2C475C"/>
<path d="M7 65.5C7 61.9101 9.68629 59 13 59C16.3137 59 19 61.9101 19 65.5C19 69.0899 16.3137 72 13 72C9.68629 72 7 69.0899 7 65.5Z" fill="#2C475C"/>
<path d="M7 53.5C7 49.9101 9.68629 47 13 47C16.3137 47 19 49.9101 19 53.5C19 57.0899 16.3137 60 13 60C9.68629 60 7 57.0899 7 53.5Z" fill="#2C475C"/>
<path d="M134.5 65C130.91 65 128 62.3137 128 59C128 55.6863 130.91 53 134.5 53C138.09 53 141 55.6863 141 59C141 62.3137 138.09 65 134.5 65Z" fill="#2C475C"/>
<path d="M134 53.5C134 57.0899 131.314 60 128 60C124.686 60 122 57.0899 122 53.5C122 49.9101 124.686 47 128 47C131.314 47 134 49.9101 134 53.5Z" fill="#2C475C"/>
<path d="M134 65.5C134 69.0899 131.314 72 128 72C124.686 72 122 69.0899 122 65.5C122 61.9101 124.686 59 128 59C131.314 59 134 61.9101 134 65.5Z" fill="#2C475C"/>
<path d="M15.8034 28.1555C19.0215 29.7463 20.4399 33.444 18.9715 36.4146C17.5031 39.3852 13.7039 40.5038 10.4858 38.913C7.26762 37.3222 5.84918 33.6245 7.3176 30.6539C8.78601 27.6833 12.5852 26.5648 15.8034 28.1555Z" fill="#2C475C"/>
<path d="M11.1556 38.6863C12.7463 35.4682 16.4441 34.0498 19.4147 35.5182C22.3852 36.9866 23.5038 40.7858 21.913 44.0039C20.3222 47.2221 16.6245 48.6405 13.6539 47.1721C10.6833 45.7037 9.56477 41.9045 11.1556 38.6863Z" fill="#2C475C"/>
<path d="M16.4732 27.9289C18.0639 24.7107 21.7617 23.2923 24.7323 24.7607C27.7028 26.2291 28.8214 30.0283 27.2306 33.2465C25.6398 36.4646 21.9421 37.8831 18.9715 36.4146C16.0009 34.9462 14.8824 31.147 16.4732 27.9289Z" fill="#2C475C"/>
<path d="M128.311 93.6916C125.101 92.0844 123.702 88.3795 125.185 85.4164C126.669 82.4534 130.474 81.3542 133.684 82.9614C136.894 84.5686 138.293 88.2735 136.81 91.2365C135.326 94.1996 131.521 95.2988 128.311 93.6916Z" fill="#2C475C"/>
<path d="M133.013 83.1846C131.405 86.3946 127.701 87.7942 124.738 86.3106C121.774 84.8271 120.675 81.0222 122.282 77.8122C123.89 74.6022 127.595 73.2027 130.558 74.6862C133.521 76.1698 134.62 79.9746 133.013 83.1846Z" fill="#2C475C"/>
<path d="M127.64 93.9148C126.033 97.1248 122.328 98.5244 119.365 97.0408C116.402 95.5572 115.303 91.7524 116.91 88.5424C118.517 85.3324 122.222 83.9329 125.185 85.4164C128.148 86.9 129.247 90.7048 127.64 93.9148Z" fill="#2C475C"/>
</svg>
