<svg width="40" height="51" viewBox="0 0 40 51" fill="none" xmlns="http://www.w3.org/2000/svg">
<g opacity="0.8">
<path fill-rule="evenodd" clip-rule="evenodd" d="M4.84584 24.5931C5.35348 26.9954 5.73023 29.4243 5.97606 31.8796C6.9557 36.7912 8.65593 41.578 11.0768 46.2397C11.7114 47.3334 12.5797 48.3149 13.6816 49.1843C14.6107 49.8184 15.5798 49.9127 16.5895 49.4673C17.3612 48.7845 17.9428 47.9983 18.3345 47.109C19.0407 44.3081 19.3924 41.4608 19.39 38.5673C19.2229 32.4156 18.3544 26.2963 16.7843 20.2094C15.857 16.3192 14.3959 12.5344 12.4008 8.85498C11.9532 8.09118 11.3418 7.40645 10.5665 6.80079C9.95997 6.38719 9.27565 6.21186 8.51356 6.27481C6.87445 7.27769 5.90231 8.62382 5.59714 10.3132C4.78571 15.0251 4.53527 19.7851 4.84584 24.5931ZM12.3355 18.1455C11.9848 17.8293 11.5428 17.6776 11.0095 17.6902C10.5139 18.0594 10.1661 18.5148 9.96614 19.0566C8.93755 24.3449 9.45111 29.6142 11.5068 34.8644C11.9911 36.032 12.7128 37.1081 13.672 38.0925C14.0662 38.252 14.449 38.262 14.8205 38.1227C15.3131 37.6725 15.6996 37.1663 15.9798 36.6045C16.4603 31.3406 15.8042 26.112 14.0116 20.9182C13.5721 19.9428 13.0133 19.0186 12.3355 18.1455Z" fill="#2C475C"/>
<path fill-rule="evenodd" clip-rule="evenodd" d="M4.84586 24.5931C5.35351 26.9954 5.73025 29.4243 5.97609 31.8796C5.24153 31.2999 4.66268 30.6456 4.23958 29.9165C4.0712 29.341 3.90375 28.7811 3.73724 28.2366C3.67028 26.9102 4.03984 25.6957 4.84586 24.5931Z" fill="#2C475C"/>
<path fill-rule="evenodd" clip-rule="evenodd" d="M4.23957 29.9165C4.07119 29.341 3.90374 28.7811 3.73723 28.2366C1.18594 30.5704 0.495971 33.276 1.66729 36.3534C2.32582 36.697 2.85313 36.6397 3.24926 36.1811C3.64411 34.1033 3.9742 32.0151 4.23957 29.9165ZM2.38466 32.3456C2.65529 33.3219 2.65205 34.3002 2.37496 35.2805C2.24013 34.2948 2.24335 33.3165 2.38466 32.3456Z" fill="#2C475C"/>
<path fill-rule="evenodd" clip-rule="evenodd" d="M36.2484 19.2853C35.7388 19.3753 35.3279 19.6416 35.0156 20.084C34.3199 21.5777 34.0877 23.1477 34.3188 24.794C34.4074 25.3168 34.7043 25.5916 35.2098 25.6182C34.648 26.1887 33.9903 26.6419 33.2367 26.9775C32.9251 27.1543 32.6254 27.1778 32.3374 27.048C31.7114 25.2998 31.6189 23.5089 32.0601 21.6755C32.3338 19.9549 33.0283 18.4448 34.1441 17.1448C34.3007 17.0123 34.4643 16.9873 34.6349 17.0694C34.9881 17.456 35.3659 17.8131 35.7688 18.1406C36.0643 18.4674 36.2241 18.8491 36.2484 19.2853Z" fill="#2C475C"/>
<path fill-rule="evenodd" clip-rule="evenodd" d="M38.6554 24.0326C38.1811 23.4675 37.6689 22.9191 37.1184 22.3871C37.0855 21.5629 36.984 20.7482 36.8142 19.9429C36.7091 19.6449 36.5204 19.4257 36.2484 19.2853C36.2241 18.8491 36.0643 18.4674 35.7688 18.1406C35.366 17.8131 34.9881 17.456 34.635 17.0694C34.4643 16.9873 34.3007 17.0123 34.1441 17.1449C33.0283 18.4448 32.3338 19.955 32.0601 21.6755C31.6189 23.5089 31.7114 25.2998 32.3374 27.048C32.6254 27.1778 32.9251 27.1544 33.2367 26.9775C33.9904 26.6419 34.6481 26.1887 35.2098 25.6182C35.7703 25.2818 36.1833 24.7987 36.4485 24.1688C36.7733 24.951 36.9021 25.7661 36.8344 26.614C35.8333 29.8524 34.5247 32.9824 32.9085 36.0036C31.9582 37.4677 30.8297 38.783 29.5228 39.9491C29.4242 40.0171 29.3242 40.0807 29.2229 40.1398C28.5138 40.5538 27.7401 40.7509 26.9015 40.7312C27.967 40.9324 28.9492 40.7271 29.8481 40.1157C31.5474 38.728 32.9513 37.0906 34.0595 35.2039C34.9759 33.0496 35.8399 30.8905 36.6516 28.7269C36.687 29.3373 36.7903 29.935 36.9619 30.5204C35.801 34.2156 34.0003 37.5564 31.5596 40.5431C30.1668 42.2298 28.3897 42.9948 26.2286 42.8382C25.1155 42.5295 24.2228 41.895 23.5503 40.935C22.1994 38.3845 21.4075 35.6633 21.1747 32.7713C20.5078 23.5046 22.2767 14.7399 26.4817 6.47711C27.7595 3.88771 29.6569 1.87672 32.1739 0.444119C34.1953 -0.127679 35.8515 0.407448 37.1423 2.04948C38.6196 4.62746 39.4653 7.40357 39.6797 10.3778C39.9595 15.0034 39.6181 19.555 38.6554 24.0326ZM32.3201 2.31695C32.9218 2.29729 33.5205 2.3316 34.1163 2.41988C33.2699 2.41054 32.5052 2.64541 31.8225 3.12449C29.6731 5.08759 27.9908 7.39946 26.7754 10.0601C25.8385 12.2543 24.9468 14.4672 24.1002 16.6988C24.7223 11.984 26.585 7.83033 29.6882 4.23778C30.519 3.51439 31.3962 2.87411 32.3201 2.31695ZM32.4505 5.89799C32.9437 5.87714 33.4336 5.91013 33.92 5.997C32.2732 6.41759 30.9848 7.35121 30.0547 8.79787C28.1806 11.9707 26.6794 15.3152 25.551 18.8314C26.0035 15.074 27.288 11.6184 29.4043 8.46465C30.308 7.44729 31.3234 6.59174 32.4505 5.89799ZM32.9016 10.1337C33.1794 10.111 33.4515 10.1414 33.7177 10.2248C32.9071 10.495 32.2221 10.9478 31.6629 11.5831C29.6093 14.5177 28.218 17.7551 27.4889 21.2952C27.639 18.8532 28.2594 16.5285 29.3503 14.3213C30.1553 12.597 31.3392 11.2011 32.9016 10.1337ZM33.8699 29.1816C33.6507 30.5632 32.9862 31.7485 31.8766 32.7371C31.7105 32.6534 31.6843 32.5448 31.7979 32.4108C32.6958 31.4637 33.3865 30.3874 33.8699 29.1816ZM35.3537 27.7351C34.906 30.6317 33.7113 33.2206 31.7694 35.5018L30.6978 36.5465C30.4907 36.7038 30.2724 36.7553 30.0429 36.7013C31.1295 35.6427 32.0931 34.4883 32.934 33.2379C33.8829 31.4669 34.6894 29.6327 35.3537 27.7351Z" fill="#2C475C"/>
<path d="M38.3107 25.9809C38.218 26.3257 38.1061 26.6497 37.975 26.9531C37.9703 26.2926 37.949 25.6415 37.9113 24.9999C38.1805 25.2729 38.3136 25.5999 38.3107 25.9809Z" fill="#2C475C"/>
<path fill-rule="evenodd" clip-rule="evenodd" d="M38.3107 25.9809C38.9839 27.306 38.9175 28.6069 38.1114 29.8834C37.9991 29.7966 37.9184 29.6871 37.8693 29.555C37.7779 28.6817 37.8132 27.8143 37.975 26.9531C38.106 26.6497 38.218 26.3257 38.3107 25.9809ZM36.2484 19.2853C36.5204 19.4257 36.7091 19.6448 36.8142 19.9429C36.984 20.7482 37.0855 21.5629 37.1184 22.3871C37.6689 22.9191 38.1811 23.4675 38.6554 24.0326C39.914 26.0677 40.0852 28.1849 39.1688 30.3842C38.4873 31.1872 37.7516 31.2327 36.9618 30.5204C36.7903 29.935 36.687 29.3373 36.6516 28.7269C36.7278 28.0243 36.7889 27.3199 36.8344 26.614C36.902 25.7661 36.7733 24.951 36.4485 24.1688C36.1832 24.7987 35.7703 25.2818 35.2098 25.6182C34.7043 25.5916 34.4074 25.3169 34.3188 24.794C34.0877 23.1478 34.3199 21.5777 35.0157 20.084C35.3279 19.6416 35.7388 19.3753 36.2484 19.2853Z" fill="#2C475C"/>
</g>
</svg>
