<svg width="491" height="682" viewBox="0 0 491 682" fill="none" xmlns="http://www.w3.org/2000/svg">
<g opacity="0.25">
<path d="M215.938 0.242011C164.537 5.33392 122.632 22.4675 84.1677 54.1199C78.2501 58.9366 61.8734 75.1757 56.0246 82.0566C38.8222 102.08 21.3445 129.879 13.5003 149.834C-0.192856 184.377 -3.42691 227.727 3.66048 281.88C4.62382 289.449 8.40834 303.968 11.5736 312.569C22.996 343.189 47.9739 380.14 78.4565 411.311L86.9201 419.912L82.9291 423.352C74.672 430.508 66.9653 438.49 63.2496 443.582C51.896 459.408 41.1617 479.226 33.5927 498.699C23.34 524.778 10.8167 565.513 6.41286 587.119C2.49072 606.042 -1.29381 643.268 0.42643 644.988C2.42191 646.915 37.5836 657.993 57.676 663.085C130.064 681.251 216.97 686.411 312.616 678.223C367.182 673.613 429.661 662.534 480.029 648.566L490.282 645.745L489.869 642.236C489.663 640.309 488.699 629.575 487.736 618.427C483.539 570.054 480.167 551.889 466.405 504.892C463.928 496.359 463.859 495.946 462.689 463.95C462.001 446.954 461.451 444.821 456.909 443.582C455.464 443.238 447.895 442.825 440.189 442.688L426.083 442.481L423.605 438.766C420.096 433.536 397.802 411.448 392.916 408.421C392.366 408.076 394.912 405.049 400.073 399.819C414.729 384.956 423.881 373.672 434.546 357.295C453.882 327.707 464.478 299.839 468.951 266.81C470.946 252.016 471.084 218.919 469.295 204.194C465.442 173.436 459.593 152.724 448.514 130.567C429.317 92.2405 404.614 62.7211 372.755 40.014C345.025 20.1968 309.45 6.98535 268.921 1.48058C261.696 0.44844 222.75 -0.446085 215.938 0.242011ZM245.457 11.7332C245.32 12.6277 245.526 12.7654 246.145 12.2149C246.627 11.8708 247.246 11.7332 247.453 12.0085C247.728 12.2149 247.935 12.0773 247.935 11.6644C247.935 10.6323 267.064 11.5268 273.05 12.903C274.564 13.247 276.835 13.5911 278.073 13.5911C279.243 13.5911 280.275 13.8663 280.275 14.2104C280.275 14.8985 284.266 15.793 288.395 15.9994C292.661 16.2058 293.28 17.1004 291.422 20.6096C289.564 24.1189 285.849 29.5549 283.716 31.8256C282.271 33.3394 282.271 33.8899 282.339 45.6563C282.408 52.4685 282.408 64.8542 282.408 73.249L282.339 88.5935H280.688C279.793 88.5935 277.523 88.1119 275.734 87.6302C264.793 84.3273 261.559 83.6392 254.265 83.02C249.861 82.6759 243.531 82.0566 240.297 81.7126C231.695 80.818 218.002 82.4007 205.961 85.7723C193.437 89.2128 194.263 89.0752 194.676 87.0109C194.814 86.1852 195.158 73.5242 195.433 58.8678L195.846 32.3073L193.369 28.5916C192.061 26.5961 189.378 23.4997 187.451 21.6418C185.524 19.8527 183.942 17.9949 183.942 17.5132C183.942 16.4123 191.648 14.5544 199.768 13.5911C202.589 13.3158 206.167 12.6965 207.681 12.2837C209.195 11.8708 212.016 11.5268 213.874 11.5268C215.8 11.5268 217.796 11.1827 218.346 10.8387C218.966 10.4258 224.746 10.2194 232.452 10.357C244.494 10.4946 245.526 10.5634 245.457 11.7332ZM308.831 20.6096C310.758 21.3666 315.093 22.8804 318.533 23.9125C321.974 25.0135 326.446 26.7337 328.511 27.7658C333.052 30.1054 333.19 30.1742 339.658 32.8578C342.548 34.0275 344.956 35.3349 344.956 35.679C344.956 36.023 345.438 36.2982 345.988 36.2982C347.433 36.2982 351.975 38.6378 356.034 41.5278C357.892 42.8351 359.613 43.8673 359.888 43.8673C360.232 43.8673 362.021 45.1059 364.016 46.6197C366.012 48.0647 368.558 49.7849 369.728 50.4042C370.828 50.9547 371.792 51.7116 371.792 51.9868C371.792 52.3309 373.099 53.2942 374.682 54.1887C376.264 55.0833 379.361 57.354 381.494 59.2806C383.627 61.2073 387.343 64.3726 389.751 66.368C392.159 68.3635 395.875 71.7352 397.939 73.8683C400.004 76.0014 402.687 78.7538 403.857 79.9235C405.027 81.0933 409.155 85.8411 413.009 90.4514C416.862 95.1304 420.303 98.915 420.715 98.915C421.059 98.915 421.954 100.291 422.642 101.943C423.399 103.594 424.775 105.727 425.739 106.69C426.702 107.654 427.528 108.755 427.528 109.168C427.528 110.2 432.964 118.182 433.72 118.182C434.064 118.182 434.546 118.87 434.753 119.695C435.785 123.274 437.367 125.82 439.088 126.714C440.533 127.471 441.29 128.778 442.666 133.045C443.56 136.072 444.73 139.237 445.143 140.201C445.624 141.164 446.175 143.228 446.45 144.88L446.932 147.839L439.776 155.064C435.922 159.055 432.069 162.633 431.312 163.114C430.349 163.665 422.16 163.871 402.068 163.665C386.723 163.596 373.512 163.321 372.618 163.114C371.585 162.908 370.416 161.532 369.246 159.192C368.282 157.266 366.837 154.926 366.012 153.963C365.186 152.999 363.259 150.247 361.814 147.77C354.452 135.453 341.309 121.76 328.029 112.677C327.203 112.126 324.726 110.406 322.524 108.824C320.253 107.31 317.088 105.314 315.368 104.351C313.648 103.456 310.895 101.736 309.175 100.635C305.872 98.4333 297.271 94.0983 296.17 94.0983C294.931 94.0983 290.734 91.2771 290.321 90.1761C289.908 89.0752 289.908 82.1942 290.252 54.1887C290.596 32.1009 290.321 34.3028 293.28 29.3485C294.725 26.9401 297.271 23.4997 298.922 21.7106C302.294 18.2013 302.501 18.1325 308.831 20.6096ZM177.818 21.573C178.712 22.5363 180.157 23.6373 180.983 23.9813C181.809 24.2566 183.047 25.5639 183.666 26.8025C184.286 28.0411 186.212 30.8623 187.933 33.0642L191.098 37.0551L190.272 46.138C189.79 51.1611 189.24 62.9275 189.102 72.4233C188.896 81.8502 188.552 90.1761 188.345 90.8642C187.657 92.9973 186.35 91.69 185.937 88.5247C185.593 85.91 185.18 65.7487 185.043 42.8352C184.974 34.5092 184.148 32.4449 180.157 29.8989C177.061 27.9035 171.556 21.917 171.556 20.5408C171.556 18.9582 176.097 19.7151 177.818 21.573ZM173.139 33.7523L178.437 39.6699L179.056 55.3585C179.882 79.9923 179.675 94.8552 178.437 95.5433C177.886 95.8185 175.891 96.8507 173.964 97.7452C167.427 100.773 158.826 105.314 157.794 106.14C157.243 106.622 155.11 107.929 153.184 109.03C151.188 110.131 148.711 111.714 147.679 112.539C140.936 117.975 137.839 120.246 137.289 120.246C136.532 120.246 126.692 129.191 119.605 136.416C113.756 142.403 105.499 152.724 101.164 159.467L99.5811 161.876L92.7689 162.289C88.9844 162.564 77.2179 162.77 66.6901 162.839C56.0934 162.839 45.7031 163.046 43.6389 163.321C40.2672 163.665 39.3727 163.458 36.4827 161.876C34.6936 160.844 32.9734 159.467 32.6293 158.848C32.2165 158.16 30.7027 156.165 29.1888 154.307C27.6062 152.449 26.3676 150.385 26.3676 149.696C26.3676 148.32 34.6248 132.288 37.5148 128.021C38.5469 126.439 39.4415 124.994 39.4415 124.787C39.4415 124.581 41.1617 121.829 43.226 118.732C49.2124 109.718 49.9693 108.617 52.3089 105.589C53.4786 104.007 55.5429 101.117 56.9191 99.259C58.2265 97.3323 60.7036 94.4423 62.4239 92.8597C64.2129 91.2083 66.4836 88.7311 67.5158 87.355C69.7177 84.3273 79.7639 73.6618 84.1677 69.6709C85.8191 68.1571 89.2596 64.9918 91.8056 62.5835C94.2827 60.244 96.6911 58.3173 97.1039 58.3173C97.5856 58.3173 97.9296 58.0421 97.9296 57.698C97.9296 57.354 98.8241 56.5283 99.9251 55.7714C101.026 55.0833 103.847 53.1566 106.256 51.4363C111.898 47.4454 123.32 40.358 128.206 37.8809C130.27 36.8487 132.334 35.6101 132.678 35.1285C133.091 34.6468 136.188 33.2018 139.559 31.8944C143 30.587 148.367 28.3851 151.601 27.0089C154.835 25.6328 158.482 24.1877 159.721 23.9125C161.028 23.5685 162.198 23.1556 162.404 22.9492C162.886 22.5363 164.4 24.1189 173.139 33.7523ZM218.828 102.355C217.521 103.456 216.007 104.42 215.456 104.42C214.906 104.42 213.874 105.108 213.117 105.865C211.328 107.929 204.378 112.539 200.938 114.053C195.364 116.461 182.497 116.668 180.226 114.328C179.675 113.778 178.643 113.365 177.955 113.296C175.616 113.159 180.019 112.126 183.254 112.058C186.075 111.989 189.24 111.438 198.392 109.236C203.759 107.998 211.672 104.97 215.594 102.631C220.342 99.7407 221.856 99.6719 218.828 102.355ZM261.284 100.979C262.247 101.323 266.513 101.943 270.848 102.287C282.408 103.319 287.706 104.901 283.647 106.14C281.995 106.69 271.536 106.002 267.545 105.108C260.527 103.594 255.504 102.149 255.504 101.736C255.504 100.222 258.325 99.8095 261.284 100.979ZM205.961 103.044C205.961 103.388 205.066 103.732 203.965 103.732C202.795 103.732 201.694 104.007 201.488 104.42C200.938 105.245 198.392 105.314 198.392 104.489C198.392 103.869 202.451 102.562 204.791 102.424C205.41 102.355 205.961 102.631 205.961 103.044ZM223.163 105.727C223.163 107.31 213.736 115.223 208.851 117.769C202.727 120.934 194.125 123.274 188.758 123.136C185.18 123.067 173.207 120.934 168.459 119.489C166.395 118.801 166.051 118.526 167.083 118.319C168.735 117.975 180.226 118.595 187.726 119.489C195.089 120.315 199.424 119.489 206.236 115.705C213.874 111.507 214.08 111.369 218.002 107.998C221.305 105.245 223.163 104.42 223.163 105.727ZM193.231 106.484C193.024 106.828 191.511 107.172 189.928 107.103C187.657 107.103 187.313 106.966 188.414 106.484C190.341 105.658 193.781 105.658 193.231 106.484ZM269.954 108.479C274.701 109.168 283.303 110.062 289.014 110.406C298.716 110.957 302.088 111.714 300.711 113.09C299.886 113.915 280.137 113.365 273.738 112.402C265.894 111.163 258.944 109.236 256.811 107.654L255.16 106.484L258.256 106.759C259.976 106.966 265.206 107.723 269.954 108.479ZM253.095 109.58C263.692 114.26 272.706 115.842 293.28 116.805C308.005 117.425 312.34 118.113 313.579 120.177C314.405 121.485 310.827 121.76 295.276 121.416C279.312 121.072 276.766 120.728 264.793 117.012C261.765 116.049 257.706 114.397 255.779 113.296C253.852 112.195 251.65 111.301 250.893 111.301C249.173 111.301 245.733 108.686 246.283 107.791C246.765 107.034 248.279 107.447 253.095 109.58ZM259.151 118.044C264.242 120.452 266.857 121.278 272.362 122.31C274.633 122.723 277.798 123.342 279.449 123.686C281.032 124.099 289.908 124.581 299.06 124.719C315.987 125.131 322.318 125.888 323.763 127.677C324.52 128.503 324.176 128.572 321.217 128.228C319.29 127.953 310.07 127.609 300.574 127.471C281.995 127.127 273.256 126.095 264.586 123.274C258.118 121.14 254.265 119.283 251.719 117.081L249.655 115.36L252.27 115.705C253.715 115.911 256.811 116.943 259.151 118.044ZM236.925 116.737C236.925 118.595 252.132 131.187 254.54 131.256C254.884 131.256 255.916 131.875 256.88 132.632C257.843 133.389 259.357 134.008 260.32 134.008C262.178 134.008 266.857 135.522 267.614 136.279C267.889 136.554 269.266 136.76 270.711 136.76C273.807 136.76 283.922 139.1 289.014 141.026C291.56 141.99 293.211 143.091 294.243 144.673C295.069 145.912 298.166 149.765 301.124 153.137C304.014 156.577 306.423 159.536 306.423 159.811C306.423 160.087 307.386 161.463 308.487 162.908C309.657 164.353 310.551 166.348 310.551 167.381C310.551 168.481 311.927 171.303 313.717 173.986C315.437 176.67 317.295 180.386 317.776 182.243C318.327 184.17 319.221 186.854 319.841 188.092C321.767 192.221 319.359 193.115 315.368 189.744C314.061 188.574 312.753 187.679 312.34 187.679C311.996 187.679 311.377 187.267 310.964 186.716C309.794 185.271 300.23 182.312 291.353 180.73C277.66 178.252 260.596 179.835 255.091 183.964C253.577 185.133 251.857 187.679 250.274 191.051C246.558 198.827 244.425 202.886 242.636 205.501C241.122 207.772 241.054 208.322 241.054 222.428C241.054 230.41 240.847 240.732 240.641 245.204L240.159 253.461L242.361 255.938C245.389 259.379 245.251 261.925 241.948 264.677C239.402 266.81 236.581 267.361 233.072 266.398C230.113 265.641 229.15 260.205 231.076 255.594C231.902 253.53 231.971 251.948 231.42 246.374C231.007 242.658 230.732 232.337 230.87 223.46C231.007 207.909 231.007 207.152 229.425 203.162C225.503 193.184 224.608 190.569 223.576 186.854C222.406 182.863 220.273 180.386 217.383 179.766C196.327 175.5 187.451 175.569 173.964 179.904C170.937 180.867 167.978 182.243 167.427 182.932C165.982 184.583 160.959 186.234 159.583 185.477C158.757 184.996 158.482 185.133 158.482 186.166C158.482 186.854 158.069 188.023 157.519 188.712C155.179 191.946 159.17 193.941 162.679 191.257C163.574 190.569 166.12 189.262 168.253 188.436C170.455 187.542 172.519 186.441 172.932 185.959C174.652 183.895 193.919 182.932 195.777 184.789C196.396 185.409 196.259 185.615 195.089 185.615C194.263 185.615 193.024 186.234 192.405 186.991C191.648 187.886 190.341 188.367 188.896 188.367C186.144 188.367 182.497 189.812 180.57 191.739C179.813 192.496 177.474 194.079 175.409 195.18C173.345 196.281 169.767 198.62 167.496 200.34C165.157 202.129 163.299 203.437 163.299 203.23C163.299 202.955 162.198 203.987 160.89 205.501C159.583 206.946 158.482 208.597 158.482 209.217C158.482 211.556 159.996 211.006 163.023 207.703C167.427 202.817 179.4 196.9 186.832 195.937C195.433 194.904 199.217 196.074 208.369 202.749C210.984 204.675 213.392 206.258 213.667 206.258C214.355 206.258 216.97 211.419 216.97 212.726C216.97 213.277 216.626 213.965 216.282 214.171C215.456 214.653 215.112 214.446 208.644 209.423C194.263 198.276 182.084 198.964 166.464 211.9C164.262 213.758 161.578 215.478 160.478 215.685C159.101 215.96 158.482 216.511 158.482 217.336C158.482 218.437 159.033 218.644 161.647 218.644C165.432 218.644 166.533 219.194 172.106 223.942C174.515 225.938 177.749 228.277 179.331 229.103C183.254 231.098 190.685 231.511 195.502 230.135C199.217 229.034 208.025 223.116 208.025 221.74C208.025 220.295 210.846 219.194 213.53 219.676C216.833 220.226 218.759 222.703 217.658 224.837C217.245 225.593 217.177 226.213 217.521 226.213C217.865 226.213 217.865 228.002 217.589 230.273C217.245 232.543 216.901 241.42 216.764 250.021L216.557 265.641L219.172 268.118C220.617 269.494 221.787 271.008 221.787 271.421C221.787 271.902 220.755 272.728 219.585 273.279C218.346 273.76 216.007 275.48 214.424 277.063C212.842 278.577 211.328 279.884 211.053 279.884C209.952 279.884 202.52 286.008 197.222 291.238C187.933 300.458 185.455 302.591 184.423 302.591C183.942 302.591 182.428 301.284 181.12 299.633C179.882 298.05 177.129 295.229 175.134 293.371C173.139 291.513 170.73 288.485 169.836 286.696C168.872 284.907 167.84 283.256 167.427 282.981C167.083 282.774 166.739 282.086 166.739 281.467C166.739 280.848 166.326 280.022 165.776 279.609C164.95 278.921 161.303 272.04 158.757 266.466C158.276 265.297 157.656 262.613 157.45 260.48C157.175 258.278 156.693 256.351 156.349 256.145C156.005 255.87 155.73 255.044 155.73 254.149C155.73 253.255 155.317 251.672 154.766 250.571C153.459 247.888 150.913 234.332 150.225 226.075C149.881 222.359 149.399 218.988 149.124 218.575C148.711 217.887 149.743 211.763 150.775 209.01C151.395 207.29 151.532 206.74 152.014 203.85C152.289 202.336 152.908 200.203 153.459 199.171C154.147 197.863 154.285 196.281 153.941 194.147C153.665 191.946 153.803 190.707 154.56 189.468C155.179 188.574 155.798 186.922 155.936 185.89C156.074 184.652 156.624 183.964 157.175 184.032C157.725 184.101 158.757 182.932 159.514 181.487C162.267 176.051 167.703 166.692 168.322 166.28C168.666 166.004 168.597 165.66 168.184 165.385C166.946 164.628 167.29 163.734 169.836 160.912C171.143 159.467 172.45 157.266 172.657 156.096C172.932 154.72 174.033 153.206 175.409 152.105C176.717 151.141 177.749 149.972 177.749 149.49C177.749 148.94 178.85 147.632 180.226 146.531C184.561 142.953 191.304 140.132 199.768 138.412C200.731 138.205 202.107 137.792 202.864 137.448C203.621 137.173 206.649 136.072 209.608 135.04C212.498 134.008 215.938 132.425 217.177 131.531C218.346 130.636 219.998 129.604 220.755 129.26C222.131 128.572 224.47 126.37 230.595 119.695C232.659 117.562 234.585 116.117 235.48 116.117C236.237 116.117 236.925 116.393 236.925 116.737ZM172.588 125.131C173.414 125.407 169.904 125.682 164.4 125.682C155.042 125.751 153.321 125.407 157.932 124.443C160.615 123.893 170.661 124.306 172.588 125.131ZM327.272 129.673C326.79 129.811 325.965 129.811 325.552 129.673C325.07 129.466 325.414 129.329 326.377 129.329C327.341 129.329 327.685 129.466 327.272 129.673ZM321.767 131.944C323.9 132.701 326.24 133.32 326.997 133.32C328.235 133.32 330.3 135.109 329.68 135.728C329.543 135.935 327.203 135.591 324.588 134.971C321.974 134.421 318.602 133.801 317.088 133.595C315.574 133.389 313.854 133.045 313.304 132.838C312.753 132.563 311.652 132.494 310.895 132.494C310.138 132.563 309.932 132.425 310.414 132.219C310.826 132.012 311.102 131.531 310.827 131.187C310.138 130.017 317.776 130.567 321.767 131.944ZM149.193 147.77C148.505 148.527 147.817 149.008 147.61 148.802C147.128 148.389 148.849 146.394 149.743 146.394C150.087 146.394 149.881 147.013 149.193 147.77ZM315.918 149.903C316.538 151.141 317.639 152.586 318.327 153.206C318.946 153.756 319.497 154.582 319.497 154.995C319.497 155.408 320.735 156.921 322.18 158.366C323.694 159.811 326.24 163.665 327.822 166.83C329.612 170.408 331.332 172.885 332.226 173.229C333.534 173.711 337.387 178.665 337.387 179.835C337.387 180.11 338.557 181.349 340.002 182.587C341.584 184.032 342.135 184.858 341.516 184.927C340.346 184.927 335.598 179.766 330.712 173.092C328.923 170.752 326.997 168.344 326.377 167.725C325.689 167.174 323.35 163.734 321.148 160.156C318.946 156.577 316.744 153.343 316.262 153.068C315.781 152.793 315.368 152.105 315.368 151.692C315.368 151.21 314.749 150.385 313.992 149.834C312.34 148.664 312.203 147.77 313.648 147.77C314.267 147.77 315.299 148.733 315.918 149.903ZM329.68 157.954C331.469 160.018 333.602 162.701 334.359 164.009C337.043 168.413 348.809 180.867 351.837 182.519C353.076 183.207 358.374 188.092 359.75 189.881C360.163 190.363 362.64 193.391 365.393 196.625C368.076 199.859 370.76 203.643 371.31 205.019C372.342 207.497 372.342 207.634 371.173 207.634C370.484 207.634 369.108 206.602 368.076 205.295C367.113 203.987 360.507 197.037 353.42 189.812C346.263 182.656 338.901 174.812 336.905 172.404C331.813 166.142 322.318 151.692 322.731 150.935C323.006 150.591 323.9 151.21 324.795 152.311C325.689 153.412 327.822 155.958 329.68 157.954ZM449.34 153.825C449.822 154.1 450.372 155.339 450.648 156.44C450.992 158.229 450.716 158.711 449.065 159.811C448.033 160.5 444.524 163.665 441.358 166.899C438.124 170.064 434.615 173.092 433.514 173.711C431.863 174.537 428.56 174.743 415.211 174.674C406.265 174.606 393.88 174.399 387.618 174.193C377.09 173.917 376.196 173.78 375.026 172.404C374.338 171.578 373.856 170.133 373.994 169.17L374.2 167.381L404.408 167.312C431.381 167.243 434.615 167.105 435.165 166.142C435.991 164.766 447.482 153.275 448.102 153.275C448.308 153.275 448.927 153.55 449.34 153.825ZM336.011 158.504C336.011 158.711 335.529 158.573 334.979 158.091C334.428 157.61 333.947 156.921 333.947 156.577C333.947 156.233 334.428 156.371 334.979 156.99C335.529 157.541 336.011 158.229 336.011 158.504ZM141.004 160.156C140.11 161.119 138.596 163.183 137.564 164.766C135.775 167.656 134.399 168.55 134.399 166.83C134.399 166.417 135.981 163.871 137.908 161.256C140.523 157.747 141.555 156.784 142.037 157.472C142.381 158.091 142.037 158.986 141.004 160.156ZM148.711 158.917C147.748 160.568 146.647 161.601 146.234 161.188C146.096 161.05 146.647 160.018 147.541 158.848C149.33 156.44 150.087 156.44 148.711 158.917ZM27.331 161.188C29.1888 163.252 31.8724 165.729 33.2486 166.692L35.8634 168.481L59.121 167.518C88.8468 166.211 96.347 166.142 96.8287 166.968C97.1039 167.381 96.6222 168.826 95.8653 170.271C95.1084 171.716 94.4891 173.229 94.4891 173.711C94.4891 174.124 94.2827 174.606 93.9387 174.743C93.6634 174.812 92.2184 178.665 90.7734 183.207C89.3284 187.748 87.8834 192.221 87.5394 193.184C85.4751 199.033 82.7915 212.657 82.1722 220.02C80.0391 244.654 79.9703 247.2 80.7272 252.154C81.1401 254.906 81.3465 257.452 81.0713 257.865C80.796 258.278 71.0939 258.553 53.341 258.553C38.3405 258.553 24.8538 258.828 23.4088 259.173C20.8629 259.792 19.005 261.443 15.0141 266.398C13.0186 268.944 11.5048 268.393 10.9543 264.953C9.30287 254.081 9.09644 228.071 10.4726 213.139C10.9543 208.047 12.0553 200.065 13.0186 195.386C13.9131 190.707 14.67 186.372 14.67 185.753C14.67 184.721 15.9774 180.042 20.3124 166.004C21.4134 162.22 22.5143 158.711 22.6519 158.229C23.0648 156.784 23.8905 157.266 27.331 161.188ZM132.334 161.945C132.334 162.495 131.99 162.77 131.646 162.564C131.233 162.289 131.096 161.807 131.302 161.463C131.922 160.5 132.334 160.706 132.334 161.945ZM343.649 166.142C345.438 168 348.534 170.821 350.598 172.541C354.933 176.188 362.021 183.413 362.915 185.065C363.259 185.753 363.259 186.372 362.915 186.578C361.883 187.267 360.163 186.234 359.681 184.721C359.406 183.895 358.443 182.656 357.411 181.831C354.933 179.904 347.915 173.711 344.75 170.615C342.204 168.206 338.901 162.908 339.864 162.908C340.139 162.908 341.791 164.353 343.649 166.142ZM130.614 164.215C130.821 164.559 130.683 165.041 130.27 165.316C129.926 165.523 129.582 165.247 129.582 164.697C129.582 163.458 129.995 163.252 130.614 164.215ZM454.914 171.165C456.772 177.152 458.836 186.303 459.937 192.978C461.451 202.68 463.515 227.795 463.515 236.878C463.515 243.484 461.795 261.925 460.556 268.187C458.698 277.614 457.597 282.361 457.047 283.462C456.703 284.15 456.428 285.114 456.428 285.664C456.428 288.004 454.707 287.316 450.992 283.531C448.859 281.329 446.175 278.302 445.074 276.788C442.322 273.072 442.184 273.003 437.849 273.485C434.133 273.829 400.141 272.728 388.444 271.902L382.664 271.421L383.077 269.288C384.59 261.65 386.173 241.076 386.173 227.795C386.242 218.162 385.21 209.01 383.214 201.785C382.664 199.859 381.907 196.143 381.425 193.528C380.943 190.845 379.774 186.647 378.879 184.101C378.053 181.555 377.297 179.009 377.297 178.39C377.297 177.496 380.324 177.427 402.618 177.702C416.518 177.908 429.867 178.184 432.275 178.39C435.922 178.665 436.817 178.459 437.78 177.427C440.601 174.124 451.198 165.592 452.161 165.798C452.849 165.936 453.882 167.931 454.914 171.165ZM128.894 166.899C128.894 167.725 126.967 170.202 126.623 169.789C126.073 169.238 127.38 166.348 128.206 166.348C128.55 166.348 128.894 166.624 128.894 166.899ZM125.453 171.303C125.453 171.784 124.49 173.161 123.389 174.399C122.219 175.638 121.325 176.876 121.325 177.152C121.325 177.496 120.224 178.872 118.848 180.179L116.302 182.519L118.848 178.941C120.224 176.945 121.325 175.156 121.325 174.95C121.325 174.193 124.353 170.477 124.903 170.477C125.178 170.477 125.453 170.89 125.453 171.303ZM116.508 183.413C116.508 183.688 115.063 185.34 113.274 186.991L110.04 190.088L112.586 187.06C113.962 185.34 115.132 183.757 115.132 183.413C115.132 183.138 115.476 182.863 115.82 182.863C116.233 182.863 116.508 183.138 116.508 183.413ZM295.757 186.991C305.184 189.812 309.726 191.67 313.166 194.01C314.955 195.248 317.019 196.143 317.914 196.074C319.152 196.005 319.428 196.349 319.634 198.207C319.772 199.79 320.185 200.409 321.079 200.34C322.318 200.203 322.387 201.166 322.455 221.74C322.455 225.869 321.767 235.708 321.217 239.631C321.079 240.732 320.735 243.622 320.529 245.961C320.322 248.301 319.497 252.016 318.74 254.218C317.983 256.42 316.882 260.342 316.331 262.957C315.712 266.053 314.542 268.806 313.097 270.87C311.859 272.59 309.932 276.237 308.9 278.99C307.799 281.673 306.01 284.907 304.909 286.077C303.602 287.591 303.051 288.692 303.326 289.586C303.67 290.687 302.982 291.307 302.019 290.687C301.468 290.343 298.922 294.128 298.578 295.917C298.372 296.949 298.028 298.532 297.821 299.495C297.133 302.729 296.445 302.316 283.991 290.619C281.238 288.004 277.729 285.045 276.215 284.082C274.77 283.118 269.954 279.884 265.55 276.994C261.215 274.035 256.605 271.214 255.435 270.595C253.646 269.632 253.37 269.219 253.783 267.636C254.059 266.604 254.471 265.641 254.816 265.434C256.536 264.402 256.811 261.03 256.054 250.915C255.435 243.415 254.953 240.25 254.196 239.493C253.439 238.667 253.164 236.672 253.164 230.617C253.164 222.979 253.233 222.772 255.022 221.327C256.054 220.57 256.811 219.401 256.742 218.781C256.329 216.511 259.288 218.024 262.66 221.809C265.068 224.493 267.545 226.35 271.399 228.346C276.628 230.961 277.041 231.029 283.784 231.029C290.184 231.029 291.147 230.823 295.069 228.896C297.477 227.727 300.918 225.181 303.051 223.048C306.354 219.676 307.042 219.332 309.657 219.332C314.473 219.332 313.648 217.474 306.629 212.795C295.276 205.295 290.872 203.506 282.959 203.506C276.078 203.506 270.504 205.57 261.696 211.419C260.389 212.313 258.462 213.277 257.43 213.483C255.848 213.896 255.504 213.758 255.504 212.726C255.504 211.487 260.251 206.946 261.49 206.946C261.834 206.946 263.141 206.052 264.449 205.019C268.509 201.785 272.156 199.927 277.179 198.62C285.505 196.418 291.835 197.106 297.133 200.753C298.647 201.785 301.468 203.437 303.326 204.469C305.253 205.432 308.212 207.359 310.07 208.666C313.166 211.006 313.304 211.006 313.304 209.561C313.304 207.634 308.212 202.886 305.597 202.336C304.565 202.129 303.533 201.372 303.257 200.616C303.051 199.859 301.744 198.827 300.436 198.207C299.06 197.657 297.546 196.762 296.996 196.281C296.445 195.73 294.725 194.904 293.142 194.423C291.147 193.872 289.151 192.427 286.674 189.812C284.679 187.679 283.027 185.959 283.027 185.959C283.027 185.546 293.831 186.441 295.757 186.991ZM273.738 187.679C274.013 188.092 273.256 188.367 272.087 188.367C270.917 188.367 269.954 188.023 269.954 187.679C269.954 187.267 270.71 186.991 271.605 186.991C272.568 186.991 273.532 187.267 273.738 187.679ZM366.012 188.849C367.388 190.707 367.113 191.257 365.599 189.744C364.842 188.987 364.223 188.23 364.223 188.023C364.223 187.267 365.117 187.748 366.012 188.849ZM283.027 188.643C283.027 188.78 282.408 189.056 281.651 189.262C280.894 189.468 280.275 189.331 280.275 188.987C280.275 188.643 280.894 188.367 281.651 188.367C282.408 188.367 283.027 188.505 283.027 188.643ZM354.452 195.868C358.718 199.996 362.158 203.712 362.158 204.125C362.158 204.538 363.053 205.295 364.154 205.845C365.186 206.396 366.631 207.909 367.25 209.148C367.938 210.387 369.177 212.451 370.14 213.758C371.035 215.066 371.792 216.511 371.792 217.061C371.792 219.194 369.315 217.336 365.117 212.107C362.709 209.079 359.062 204.882 357.067 202.817C355.002 200.753 353.213 198.689 353.144 198.276C353.007 197.794 351.218 195.73 349.291 193.597C345.851 189.881 344.956 188.367 346.195 188.367C346.539 188.367 350.254 191.739 354.452 195.868ZM198.392 212.176C198.392 212.382 198.048 213.139 197.704 213.896C196.809 215.547 194.538 215.616 193.644 213.965C192.887 212.588 193.369 211.487 194.951 210.937C195.983 210.593 198.392 211.487 198.392 212.176ZM132.059 212.932C131.371 213.621 130.752 212.588 131.371 211.694C131.784 210.937 131.922 210.937 132.197 211.694C132.334 212.176 132.266 212.726 132.059 212.932ZM293.899 213.07C294.243 215.272 292.317 216.786 290.528 215.822C289.771 215.478 289.22 214.584 289.22 213.965C289.22 210.868 293.486 210.111 293.899 213.07ZM175.272 213.621C176.51 216.098 180.226 219.538 183.047 220.983C185.799 222.359 190.823 222.428 193.919 221.052C195.295 220.502 198.048 218.506 200.112 216.511C203.69 213.139 204.034 213.001 205.617 213.827C208.369 215.272 207.819 217.405 203.759 221.052C199.493 224.837 196.19 226.626 191.579 227.658C185.18 229.034 176.992 225.731 171.694 219.676C169.216 216.923 168.941 214.928 170.661 213.001C172.244 211.212 174.102 211.487 175.272 213.621ZM338.832 214.928C339.176 217.474 341.447 225.525 343.029 229.997C344.13 233.094 344.474 235.846 343.855 235.846C343.029 235.777 340.827 230.892 340.827 229.103C340.827 228.346 340.552 227.52 340.277 227.314C339.933 227.107 339.314 225.181 338.832 222.979C338.35 220.777 337.731 218.024 337.318 216.855C336.424 213.896 336.492 211.625 337.593 211.9C338.006 212.107 338.626 213.414 338.832 214.928ZM271.123 217.543C275.114 221.603 280.55 223.873 284.61 223.254C290.115 222.428 294.037 220.777 295.895 218.644C299.817 213.896 299.955 213.896 302.363 215.822C304.496 217.543 303.877 218.575 298.441 222.91C293.555 226.832 289.22 228.277 282.752 228.277C278.83 228.277 277.041 227.864 273.738 226.282C266.513 222.841 261.215 216.648 263.554 214.309C264.931 212.864 267.752 214.033 271.123 217.543ZM344.956 218.231C344.956 218.575 345.369 219.401 345.919 219.951C346.47 220.57 347.296 222.635 347.777 224.493C348.259 226.419 349.153 229.172 349.773 230.685C350.461 232.199 351.218 234.195 351.424 235.158C351.699 236.121 352.181 237.498 352.525 238.254C355.553 245.479 359.406 257.796 359.406 260.273C359.406 260.824 359.681 261.306 360.025 261.306C360.369 261.306 360.92 262.338 361.126 263.508C361.402 264.746 362.227 267.017 362.915 268.462C363.672 269.976 364.223 271.902 364.223 272.866C364.223 273.76 364.498 274.999 364.842 275.687C365.186 276.306 365.255 277.269 364.98 277.682C364.223 278.921 361.814 273.898 357.479 262.338C356.31 259.31 355.209 256.076 354.933 255.113C354.658 254.149 354.039 252.429 353.488 251.328C352.319 248.713 350.598 243.828 349.704 240.663C347.02 231.511 345.369 226.075 344.199 223.116C343.511 221.19 342.892 218.575 342.892 217.268C342.961 214.997 342.961 214.928 343.924 216.167C344.474 216.923 344.956 217.818 344.956 218.231ZM129.307 220.089C128.343 222.291 128.275 222.291 128.206 220.639C128.206 219.676 128.55 218.575 129.032 218.093C130.27 216.855 130.408 217.543 129.307 220.089ZM122.701 223.46C122.701 223.804 122.082 225.938 121.394 228.071C120.706 230.273 119.536 234.401 118.917 237.153C118.228 239.975 117.472 242.796 117.196 243.346C116.302 245.273 114.306 251.259 113.756 253.737C113.481 255.044 112.93 256.902 112.517 257.865C111.76 259.585 111.76 259.585 111.76 257.383C111.692 256.214 111.967 255.044 112.311 254.838C112.655 254.631 113.137 252.429 113.412 250.021C113.825 246.099 116.095 237.91 117.816 234.126C118.16 233.369 118.641 231.305 118.917 229.516C119.123 227.795 119.811 225.938 120.293 225.525C120.843 225.043 121.325 224.217 121.325 223.736C121.325 223.185 121.669 222.772 122.013 222.772C122.426 222.772 122.701 223.048 122.701 223.46ZM127.587 226.35C127.036 227.176 126.417 228.69 126.073 229.653L125.591 231.373L125.522 229.722C125.453 227.107 126.967 223.323 127.793 224.148C128.275 224.63 128.206 225.318 127.587 226.35ZM354.245 230.341C355.553 231.924 358.03 239.424 357.961 241.764C357.892 243.759 357.892 243.759 356.585 241.007C355.897 239.493 355.277 237.222 355.277 235.984C355.277 234.814 355.002 233.782 354.658 233.782C353.901 233.782 352.525 229.928 352.594 228.002C352.663 226.626 352.732 226.626 353.007 227.933C353.213 228.69 353.764 229.791 354.245 230.341ZM349.085 250.365C349.085 250.778 348.809 250.847 348.397 250.64C348.052 250.434 347.708 249.883 347.708 249.539C347.708 249.126 348.052 249.058 348.397 249.264C348.809 249.47 349.085 250.021 349.085 250.365ZM137.22 254.356C138.183 254.493 139.903 259.585 139.903 262.2C139.903 263.852 140.248 265.503 140.66 265.916C141.073 266.329 141.211 267.086 140.936 267.498C140.248 268.599 133.504 268.049 132.059 266.879C130.545 265.641 130.683 261.443 132.334 257.728C133.917 254.081 134.192 253.805 135.637 254.081C136.257 254.218 137.013 254.356 137.22 254.356ZM252.476 256.145C253.99 258.484 253.37 262.544 251.237 264.196C250.343 264.884 249.38 265.297 248.967 265.159C248.279 264.953 248.416 256.076 249.104 254.906C249.724 253.874 251.375 254.493 252.476 256.145ZM224.195 255.938C225.159 256.351 225.915 257.246 225.915 257.865C225.915 258.553 226.122 260.48 226.328 262.269C226.81 265.434 226.81 265.434 224.746 265.434C221.856 265.434 220.067 263.232 220.135 259.861C220.204 258.416 220.617 256.695 221.099 256.145C222.131 254.906 221.993 254.906 224.195 255.938ZM340.415 265.434C341.516 269.219 341.378 269.769 338.488 270.801C334.566 272.246 334.428 272.109 334.979 266.604C335.254 263.92 335.804 261.03 336.148 260.342C336.837 259.104 336.905 259.104 338.144 260.686C338.901 261.581 339.864 263.714 340.415 265.434ZM79.2134 263.37C82.3787 263.37 82.9291 263.576 83.6172 265.021C84.0301 265.985 84.1677 267.223 83.8925 267.911C83.4796 268.943 81.2089 269.012 54.3732 268.806L25.3355 268.531L20.106 273.967C16.9407 277.338 14.6012 279.196 14.1195 278.921C12.5369 277.958 13.2938 276.169 16.5967 273.003C18.3857 271.214 21.1381 268.324 22.7207 266.604L25.6107 263.37L41.2993 263.301C49.9005 263.232 60.222 263.026 64.2129 262.751C68.2039 262.544 72.3325 262.544 73.5022 262.819C74.6032 263.163 77.2179 263.37 79.2134 263.37ZM110.384 264.953C109.834 265.503 109.627 265.434 109.627 264.677C109.627 263.301 110.522 262.338 110.866 263.37C111.072 263.852 110.797 264.54 110.384 264.953ZM365.599 264.402C365.599 264.953 365.324 265.434 364.911 265.434C364.567 265.434 364.429 264.953 364.636 264.402C364.911 263.852 365.186 263.37 365.324 263.37C365.461 263.37 365.599 263.852 365.599 264.402ZM359.475 276.719C362.158 284.632 362.227 292.27 359.613 284.839C358.512 281.742 355.966 271.696 355.966 270.251C355.966 268.118 357.548 271.008 359.475 276.719ZM85.3375 274.104C86.4384 274.311 87.1265 275.274 87.8834 277.682C89.5349 282.981 93.8699 294.609 94.4891 295.366C95.0396 296.123 99.5811 304.449 103.022 311.193C104.191 313.463 105.705 315.872 106.393 316.629C107.012 317.385 107.563 318.555 107.563 319.243C107.563 319.931 107.838 320.482 108.182 320.482C109.077 320.482 112.38 325.78 112.38 327.294C112.38 328.051 112.655 328.739 112.999 328.877C113.343 328.945 113.825 330.459 114.031 332.18C114.169 333.9 114.375 335.414 114.375 335.551C114.444 335.689 114.857 335.414 115.338 335.001C115.889 334.588 116.508 334.45 116.715 334.725C117.472 335.414 117.265 340.437 116.577 340.437C115.751 340.437 114.926 337.891 115.476 336.996C115.682 336.652 115.614 336.308 115.27 336.308C114.375 336.308 113.825 338.923 114.169 341.675C114.444 344.221 113.068 345.322 111.347 343.877C110.522 343.189 110.453 342.845 111.279 341.675C113.068 339.198 111.141 336.446 109.077 338.51C108.457 339.129 107.769 338.992 106.187 337.822C105.086 336.996 103.847 336.308 103.503 336.308C103.159 336.308 102.746 335.62 102.609 334.794C102.333 332.936 99.9939 332.18 99.9939 333.9C99.9939 335.207 101.577 336.996 102.677 336.996C103.09 336.996 103.434 337.753 103.434 338.785C103.434 340.093 103.985 340.712 105.843 341.538C107.907 342.363 108.251 342.845 108.113 344.428C107.976 345.666 108.251 346.285 108.939 346.354C111.347 346.561 111.692 346.698 111.692 347.593C111.692 348.143 111.003 348.694 110.178 348.831C108.733 349.038 108.733 349.107 109.902 350.276C111.692 351.997 113.274 351.446 114.1 348.831C114.788 346.423 116.715 345.804 117.472 347.73C118.022 349.107 117.334 351.446 116.508 351.446C115.201 351.446 114.375 354.13 115.132 355.644C115.614 356.401 116.095 357.845 116.233 358.809C116.439 359.841 117.196 361.355 117.884 362.318C119.673 364.52 119.605 365.208 117.609 365.208C116.715 365.208 115.545 364.52 114.926 363.625C112.586 360.254 109.214 357.157 108.251 357.501C107.701 357.639 106.531 358.465 105.705 359.222C104.329 360.46 104.122 360.46 103.71 359.428C103.159 358.052 100.957 357.983 100.407 359.359C99.4434 361.905 96.6222 359.566 96.4846 356.125C96.4846 355.231 95.9341 353.579 95.2461 352.478C94.0763 350.552 93.801 350.414 89.122 350.208C86.3696 350.07 84.1677 349.795 84.1677 349.451C84.1677 348.487 88.021 345.253 89.122 345.253C89.8101 345.253 90.3606 345.941 90.4982 346.767C90.6358 347.662 91.2551 348.419 91.9432 348.556C92.8377 348.763 93.113 348.281 93.113 346.492C93.113 344.634 92.7001 343.946 91.1175 342.983C88.4339 341.4 85.131 341.469 83.686 343.189C82.241 344.84 81.4841 344.909 79.351 343.395C77.3556 342.019 74.7408 341.606 74.1215 342.639C73.7775 343.12 74.0527 343.258 74.7408 342.983C75.4977 342.707 75.9106 342.914 75.9106 343.602C75.9106 344.152 76.1858 344.496 76.5298 344.221C76.9427 344.015 77.562 344.496 77.9748 345.253C78.6629 346.561 78.5253 346.63 75.1536 346.63H71.6444L71.9196 344.565C72.1948 342.776 72.0572 342.501 70.6122 342.501C69.6489 342.501 68.3415 342.845 67.5846 343.258C66.4836 343.808 66.346 344.152 67.0341 344.978C67.447 345.529 68.2039 345.941 68.6855 345.941C69.1672 345.941 69.7865 346.423 69.9929 347.042C70.1994 347.593 70.1306 347.937 69.8553 347.73C69.5113 347.524 68.7544 348.006 68.1351 348.694C65.9332 351.309 61.4605 351.377 61.4605 348.763C61.4605 348.075 60.9789 347.318 60.4284 347.042C59.6715 346.767 59.3963 347.111 59.3963 348.35C59.3963 350.483 57.6072 350.689 56.9879 348.625C56.6439 347.524 56.1622 347.318 54.5796 347.662C53.341 347.937 51.8272 347.662 50.5198 347.042C49.006 346.217 47.9739 346.148 46.7353 346.63C45.0839 347.249 44.9462 347.111 44.9462 345.322C44.9462 344.29 44.327 342.845 43.57 342.157C42.8131 341.469 42.1939 340.505 42.1939 339.955C42.1939 338.992 41.3681 338.785 40.6112 339.473C40.4048 339.749 41.1617 341.469 42.2627 343.464C43.4324 345.391 44.671 347.799 45.015 348.763C45.5655 350.208 46.0472 350.483 47.3546 350.208C48.3179 350.07 49.0748 349.657 49.0748 349.382C49.0748 348.556 51.0703 348.006 51.4832 348.694C51.6896 348.969 51.2767 349.795 50.6574 350.414C49.5565 351.584 49.5565 351.721 50.8639 352.754C51.896 353.579 52.1712 354.267 51.7584 355.231C51.4143 356.194 51.2079 356.263 51.1391 355.575C51.0703 354.887 50.8639 354.956 50.5198 355.919C50.0381 357.089 49.9693 357.089 49.4877 355.368C49.2812 354.336 48.5931 353.51 48.0427 353.51C47.4922 353.51 47.0105 353.166 47.0105 352.822C47.0105 352.41 46.46 352.134 45.7031 352.134C44.4646 352.134 39.4415 345.116 38.4093 341.882C38.1341 341.056 37.2396 339.611 36.2762 338.716C35.3817 337.822 34.6248 336.515 34.6248 335.758C34.6248 335.07 34.3496 334.244 34.0055 333.9C33.5927 333.487 32.2165 330.872 30.7715 328.051C29.3953 325.23 27.1246 320.895 25.6795 318.418C24.2345 315.94 22.6519 312.225 22.2391 310.16C21.7574 308.096 20.7941 305.275 20.106 303.968C19.4179 302.66 18.661 300.458 18.4545 299.151C18.2481 297.844 17.56 295.435 17.0095 293.784C15.3581 288.898 15.7022 287.591 19.6931 283.394C27.7438 274.861 28.5696 274.311 34.0743 273.691C39.0286 273.141 82.3787 273.485 85.3375 274.104ZM439.363 278.577C441.289 279.059 442.597 280.091 444.386 282.499C445.693 284.288 448.514 287.522 450.648 289.655C454.845 293.921 454.914 294.059 452.574 301.078C452.024 302.66 451.611 304.449 451.611 304.931C451.611 305.413 450.923 306.858 450.028 308.165C449.203 309.472 448.033 311.881 447.551 313.601C447.069 315.321 445.831 318.211 444.868 320.138C443.904 321.996 442.459 325.092 441.634 327.019C440.051 330.803 431.45 346.217 427.596 352.134C420.647 362.937 405.784 381.103 398.903 387.365C396.082 389.911 393.604 392.25 386.517 398.925C385.141 400.232 385.141 400.232 382.939 398.374C381.356 396.998 380.943 396.241 381.425 395.484C382.801 393.351 382.251 392.663 380.049 393.764C378.879 394.383 377.641 394.659 377.297 394.452C376.402 393.902 376.402 390.874 377.365 390.53C378.191 390.255 377.434 387.915 376.471 387.915C376.127 387.915 375.645 388.535 375.439 389.291C374.888 391.287 373.925 390.943 373.994 388.741C374.063 385.782 373.099 380.966 371.792 377.938C368.833 370.988 366.287 366.034 365.324 365.277C364.704 364.726 364.223 363.97 364.223 363.557C364.223 363.075 362.503 361.699 360.438 360.46C357.273 358.534 356.654 357.846 356.654 356.194C356.654 355.093 356.929 354.199 357.273 354.199C357.548 354.199 358.168 352.754 358.58 350.896C360.163 344.084 361.677 337.96 362.158 336.652C362.434 335.895 363.122 333.693 363.741 331.835C364.292 329.909 365.805 325.918 366.975 322.89C368.145 319.863 369.865 314.564 370.76 311.193C372.205 305.413 374.682 297.912 377.916 289.793C378.673 287.866 379.498 284.563 379.774 282.568C380.049 280.504 380.531 278.508 380.806 278.095C381.563 277.132 435.509 277.614 439.363 278.577ZM366.769 286.903C366.631 287.797 366.493 287.247 366.493 285.733C366.425 284.219 366.562 283.531 366.769 284.15C366.906 284.839 366.906 286.077 366.769 286.903ZM362.847 292.27C362.847 293.371 362.571 294.403 362.227 294.678C361.333 295.16 360.576 292.614 361.126 290.894C361.746 288.967 362.847 289.862 362.847 292.27ZM344.75 293.096C344.543 293.577 344.406 293.233 344.406 292.27C344.406 291.307 344.543 290.963 344.75 291.375C344.887 291.857 344.887 292.683 344.75 293.096ZM249.311 298.669C249.311 301.559 242.843 304.38 238.164 303.624C232.521 302.66 229.769 300.871 230.595 298.6C231.007 297.362 249.311 297.431 249.311 298.669ZM266.513 301.903C269.678 303.555 274.082 307.683 274.082 309.128C274.082 309.885 273.532 310.023 271.949 309.679L269.816 309.266L270.917 310.986C272.156 312.913 271.743 313.876 270.022 312.775C269.197 312.294 267.683 312.362 264.793 312.982C259.426 314.151 259.632 314.151 258.531 312.569C257.774 311.399 257.843 310.78 258.738 308.784C260.045 306.032 260.114 305.688 260.251 304.312C260.32 303.348 262.66 300.527 263.417 300.527C263.623 300.527 264.999 301.146 266.513 301.903ZM343.855 304.656C343.718 305.619 343.305 309.472 342.892 313.257C341.24 328.533 340.621 333.349 339.933 335.964C339.589 337.478 339.176 340.23 339.038 342.157C338.832 346.767 337.8 353.373 337.181 353.923C336.424 354.68 336.63 344.634 337.387 343.189C337.8 342.501 338.213 338.992 338.35 335.482C338.488 331.973 338.832 328.601 339.038 327.982C339.314 327.363 339.933 322.615 340.415 317.317C340.965 312.087 341.584 306.995 341.86 306.032C342.135 305.069 342.479 303.417 342.754 302.247C343.029 300.458 343.167 300.389 343.58 301.559C343.855 302.316 343.993 303.692 343.855 304.656ZM137.702 312.362C138.734 325.092 138.734 329.221 137.908 328.326C137.013 327.432 135.981 319.725 135.844 312.638C135.775 309.266 135.5 306.169 135.362 305.894C134.812 305.069 135.637 301.903 136.325 301.903C136.669 301.903 137.289 306.651 137.702 312.362ZM222.819 307.202L227.636 311.674L225.571 313.394C224.402 314.358 222.613 315.665 221.512 316.353C219.516 317.592 219.516 317.592 217.314 315.94C216.076 315.046 214.906 314.289 214.562 314.289C213.874 314.289 211.465 317.041 211.465 317.867C211.465 318.142 211.19 318.418 210.777 318.418C210.433 318.418 210.296 317.523 210.571 316.353C210.846 314.702 210.571 313.876 209.401 312.638C208.231 311.33 208.025 310.711 208.575 309.679C209.745 307.477 215.456 302.591 216.764 302.591C217.452 302.66 220.135 304.656 222.819 307.202ZM130.064 307.546C129.926 308.44 129.788 307.752 129.788 306.032C129.788 304.312 129.926 303.624 130.064 304.449C130.201 305.344 130.201 306.72 130.064 307.546ZM273.394 314.977C273.394 315.321 273.256 315.665 273.119 315.665C272.912 315.665 272.568 315.321 272.362 314.977C272.156 314.564 272.293 314.289 272.637 314.289C273.05 314.289 273.394 314.564 273.394 314.977ZM245.939 319.45C251.237 321.308 252.063 321.858 251.306 323.372C250.825 324.335 250.893 325.505 251.65 327.569C252.201 329.152 252.889 331.354 253.164 332.524C253.37 333.625 253.783 334.175 253.921 333.693C254.403 332.386 255.366 332.73 255.916 334.381C256.123 335.276 256.742 336.446 257.224 336.996C258.05 337.96 258.531 340.23 258.325 342.295C258.256 342.776 257.774 343.189 257.224 343.189C256.605 343.189 256.192 343.808 256.192 344.703C256.123 346.905 254.471 349.795 253.852 348.763C253.026 347.455 250.205 347.937 249.104 349.52L248.003 351.102V349.175C247.935 347.111 246.558 346.561 246.558 348.625C246.558 350.827 245.182 351.033 245.045 348.9C244.907 345.391 245.182 344.221 246.765 343.051C248.21 341.95 248.347 341.95 249.173 343.602C250.412 346.01 251.581 345.666 251.1 342.983C249.173 331.904 247.935 329.014 247.935 335.551C247.935 338.923 246.902 340.712 245.182 340.299C244.7 340.161 243.875 341.4 243.324 342.983C242.636 345.047 241.948 345.941 241.054 345.941C240.365 345.941 239.677 346.492 239.54 347.111C239.402 348.006 238.852 347.455 237.957 345.46C236.375 342.157 234.861 341.606 234.861 344.359C234.861 346.354 233.829 345.873 233.278 343.533C233.072 342.639 232.934 342.845 232.865 344.29C232.865 345.46 232.384 346.836 231.833 347.249C231.076 347.868 230.87 347.386 230.457 344.84C230.25 343.051 230.044 340.505 230.044 339.129C229.975 337.134 229.838 336.859 229.287 337.822C228.943 338.51 228.186 339.06 227.705 339.06C227.154 339.06 226.604 339.886 226.397 340.918C225.915 343.258 224.126 345.804 223.507 345.116C221.993 343.602 224.539 331.629 226.879 328.739C228.049 327.363 229.769 323.028 229.494 322.202C229.356 321.789 229.425 321.72 229.7 321.927C229.906 322.202 230.939 321.652 231.833 320.826C234.585 318.28 240.847 317.661 245.939 319.45ZM335.804 326.124C335.598 326.606 335.46 326.262 335.46 325.299C335.46 324.335 335.598 323.991 335.804 324.404C335.942 324.886 335.942 325.711 335.804 326.124ZM334.428 332.661C334.222 333.349 334.084 332.936 334.084 331.835C334.084 330.666 334.222 330.184 334.428 330.597C334.566 331.079 334.566 332.042 334.428 332.661ZM317.432 340.23C317.432 342.432 317.157 347.799 316.813 352.134C316.469 356.469 315.918 364.658 315.712 370.369C315.437 376.011 315.093 380.897 314.955 381.103C314.817 381.378 314.405 395.897 313.992 413.444C313.51 437.733 313.097 445.44 312.478 445.853C311.996 446.197 307.868 446.266 303.326 446.059C298.785 445.853 285.092 445.922 272.912 446.197C254.54 446.679 250.549 446.954 249.724 447.78C249.104 448.399 248.485 450.807 248.21 453.835C247.797 458.239 247.522 458.858 246.214 459.202C244.219 459.684 224.195 458.996 218.002 458.17C215.388 457.826 211.465 456.931 209.401 456.174C207.337 455.417 203.139 454.592 200.112 454.317C194.745 453.904 190.479 453.422 180.983 451.977C176.579 451.289 172.244 449.5 172.244 448.33C172.244 447.573 174.928 445.991 178.781 444.683C182.153 443.445 191.511 437.045 191.511 435.944C191.511 435.6 192.887 434.775 194.538 434.018C197.428 432.848 203.208 427.687 203.208 426.38C203.208 426.105 205.273 424.109 207.887 421.907C210.433 419.774 212.842 417.435 213.186 416.746C214.218 414.889 226.604 403.879 228.737 402.916C229.7 402.503 231.007 401.333 231.558 400.301C232.177 399.269 235.962 396.172 240.021 393.351C244.494 390.324 248.003 387.434 248.829 386.057C249.517 384.819 250.412 383.787 250.825 383.787C252.063 383.787 255.504 386.608 255.504 387.64C255.504 388.191 256.123 388.603 256.949 388.603C258.806 388.603 265.343 385.851 266.031 384.75C266.307 384.268 268.577 382.411 271.192 380.621C273.738 378.764 277.041 376.149 278.555 374.773C280.069 373.396 281.789 372.02 282.408 371.676C285.367 370.094 303.395 353.029 305.184 350.139C305.941 348.9 308.281 345.941 310.345 343.602C312.409 341.331 314.405 338.716 314.749 337.822C315.024 336.996 315.781 336.308 316.4 336.308C317.226 336.308 317.432 337.203 317.432 340.23ZM121.118 348.143C120.912 348.694 120.706 348.487 120.706 347.73C120.637 346.974 120.843 346.561 121.05 346.836C121.256 347.042 121.325 347.662 121.118 348.143ZM57.332 352.203C57.8136 353.098 58.5017 353.442 59.1898 353.235C60.6348 352.616 62.8367 353.373 62.8367 354.474C62.8367 354.955 62.0798 355.712 61.1165 356.125C60.0843 356.607 59.3963 356.676 59.3963 356.263C59.3963 355.85 58.9834 355.575 58.5017 355.575C57.5384 355.575 53.8915 352.134 53.8915 351.24C53.8915 350.139 56.6439 350.896 57.332 352.203ZM337.181 358.809C336.974 359.497 336.837 359.084 336.837 357.983C336.837 356.813 336.974 356.332 337.181 356.745C337.318 357.226 337.318 358.19 337.181 358.809ZM113.756 366.791C113.756 366.928 113.137 366.997 112.38 366.997C111.623 366.997 111.003 366.584 111.003 366.103C111.003 365.346 111.347 365.346 112.38 365.896C113.137 366.309 113.756 366.722 113.756 366.791ZM331.882 366.86C331.882 367.066 331.607 367.41 331.194 367.616C330.85 367.823 330.506 367.685 330.506 367.341C330.506 366.928 330.85 366.584 331.194 366.584C331.607 366.584 331.882 366.722 331.882 366.86ZM114.1 369.268C113.893 369.681 113.343 370.025 112.999 370.025C112.655 370.025 112.724 369.612 113.205 369.061C114.169 367.961 114.857 368.167 114.1 369.268ZM133.504 386.677C133.298 387.227 133.091 387.021 133.091 386.264C133.023 385.507 133.229 385.094 133.435 385.369C133.642 385.576 133.711 386.195 133.504 386.677ZM131.302 387.227C131.509 387.571 131.233 387.915 130.614 387.915C129.995 387.915 129.72 387.571 129.926 387.227C130.133 386.814 130.477 386.539 130.614 386.539C130.752 386.539 131.096 386.814 131.302 387.227ZM452.918 452.321C454.776 454.661 454.776 456.518 452.918 457.069C451.611 457.482 451.611 457.619 452.712 458.445C453.882 459.271 453.813 459.34 452.437 460.097C450.372 461.197 435.785 461.06 434.271 459.89C433.583 459.408 433.032 458.858 433.032 458.72C433.032 458.514 435.441 458.514 438.4 458.583C444.73 458.789 450.923 458.17 450.923 457.344C450.923 457 446.45 456.794 441.014 456.862C431.381 457 428.904 456.518 428.904 454.592C428.904 453.56 431.863 453.147 433.445 454.041C434.684 454.661 435.509 454.661 436.679 454.179C437.574 453.766 440.464 453.491 443.079 453.56C445.693 453.628 448.79 453.491 449.891 453.216C451.405 452.872 450.648 452.665 446.794 452.527C436.954 452.183 435.785 451.977 439.225 451.22C440.533 450.945 443.835 450.67 446.588 450.601C451.129 450.532 451.611 450.67 452.918 452.321ZM265.825 451.908C265.825 452.252 264.999 453.009 263.967 453.56C262.316 454.385 261.834 454.385 260.114 453.56C259.082 453.009 258.394 452.252 258.6 451.908C259.15 451.014 265.825 451.014 265.825 451.908ZM273.05 451.908C272.5 452.803 269.954 452.803 268.577 451.908C267.821 451.427 268.371 451.22 270.504 451.22C272.293 451.22 273.325 451.495 273.05 451.908ZM356.447 451.633C355.966 452.115 349.085 452.115 348.534 451.633C348.328 451.427 350.117 451.22 352.525 451.22C354.933 451.22 356.722 451.427 356.447 451.633ZM374.544 452.321C374.544 452.94 375.163 453.56 375.92 453.766C378.673 454.454 377.228 455.142 371.998 455.624C363.879 456.312 357.686 456.106 356.791 455.211C356.241 454.661 355.966 454.661 355.966 455.142C355.966 456.106 326.722 455.624 324.864 454.592C323.006 453.628 323.35 452.803 325.827 452.321C327.341 452.046 328.304 452.183 328.786 452.734C329.336 453.422 334.291 453.628 350.805 453.56C375.026 453.491 374.338 453.491 373.512 452.665C373.099 452.252 370.828 451.839 368.351 451.702L363.879 451.495L369.246 451.358C373.718 451.22 374.544 451.427 374.544 452.321ZM416.518 452.596C416.518 452.94 416.243 453.284 415.83 453.284C415.486 453.284 415.142 452.94 415.142 452.596C415.142 452.183 415.486 451.908 415.83 451.908C416.243 451.908 416.518 452.183 416.518 452.596ZM428.697 453.009C428.491 453.216 427.872 453.284 427.39 453.078C426.839 452.872 427.046 452.665 427.803 452.665C428.56 452.596 428.973 452.803 428.697 453.009ZM276.972 454.798C276.353 455.417 275.94 455.417 275.321 454.798C274.701 454.179 274.839 453.972 276.146 453.972C277.454 453.972 277.591 454.179 276.972 454.798ZM419.27 454.661C419.27 455.005 419.133 455.349 418.995 455.349C418.789 455.349 418.445 455.005 418.238 454.661C418.032 454.248 418.169 453.972 418.514 453.972C418.926 453.972 419.27 454.248 419.27 454.661ZM181.74 458.514C186.419 459.408 190.41 460.165 190.547 460.165C190.685 460.165 190.823 460.441 190.823 460.853C190.823 461.197 190.066 461.542 189.171 461.542C188.208 461.542 187.107 462.23 186.419 463.262C185.799 464.225 184.63 464.982 183.735 465.051C182.909 465.051 182.634 465.257 183.116 465.464C184.836 466.152 183.873 467.046 181.189 467.046C179.469 467.046 177.611 467.666 175.96 468.767C174.515 469.73 172.244 470.693 170.799 470.9C169.354 471.175 168.047 471.725 167.84 472.276C167.359 473.514 163.23 475.51 162.542 474.822C162.198 474.478 161.854 470.418 161.785 465.808C161.647 458.927 161.785 457.275 162.611 456.656C163.987 455.762 171.281 456.45 181.74 458.514ZM281.72 458.858C284.266 460.165 282.959 460.509 275.802 460.372C264.586 460.234 264.518 458.514 275.734 458.239C278.28 458.17 281.032 458.445 281.72 458.858ZM354.727 459.546C355.415 459.959 355.966 459.89 356.103 459.34C356.31 458.789 359.75 458.583 367.732 458.652C381.769 458.72 380.875 458.652 380.599 459.546C380.393 460.097 373.237 460.441 356.103 460.716C336.217 460.991 331.676 460.853 330.712 460.097C329.749 459.271 330.024 459.064 333.327 458.789C338.35 458.239 353.282 458.858 354.727 459.546ZM322.593 459.477C322.799 459.821 322.662 460.165 322.318 460.165C321.905 460.165 321.561 459.821 321.561 459.477C321.561 459.064 321.698 458.789 321.836 458.789C322.042 458.789 322.387 459.064 322.593 459.477ZM425.807 459.546C426.633 460.853 425.463 461.129 424.294 459.959C423.193 458.858 423.193 458.789 424.225 458.789C424.844 458.789 425.601 459.133 425.807 459.546ZM207.543 461.61C209.126 463.606 208.988 466.152 207.199 467.803C206.305 468.56 203.552 471.175 201.006 473.583C198.529 475.992 195.433 478.469 194.125 479.088C192.887 479.776 191.235 480.877 190.479 481.565C189.722 482.322 187.726 483.836 186.006 484.937C180.57 488.446 163.299 504.066 163.299 505.511C163.299 505.786 162.198 506.818 160.89 507.713C159.583 508.607 158.344 510.121 158.138 511.084C157.243 515.007 150.363 519.686 147.266 518.447C145.064 517.621 147.817 510.878 152.633 505.236C154.216 503.309 156.143 500.763 156.899 499.524C157.725 498.217 158.964 496.772 159.789 496.222C160.546 495.671 161.234 494.914 161.234 494.501C161.234 492.781 173.139 482.666 185.318 473.996C187.451 472.551 189.584 470.831 190.066 470.212C190.547 469.592 191.373 469.111 191.855 469.111C192.887 469.111 196.809 464.776 197.841 462.505C199.286 459.34 205.135 458.789 207.543 461.61ZM236.925 464.913C239.402 465.257 242.361 465.808 243.462 466.152C245.389 466.771 245.457 466.84 244.012 467.322C242.843 467.734 242.499 468.491 242.155 471.725C241.948 473.858 241.742 476.404 241.742 477.368C241.742 478.331 241.398 481.152 241.054 483.698C240.572 486.657 240.641 491.198 241.054 496.772C241.879 506.956 242.086 527.943 241.398 530.351C240.71 532.553 240.365 566.751 241.054 568.472C241.26 569.16 241.122 571.912 240.572 574.527C239.746 578.931 239.815 579.412 241.054 581.821C242.567 584.573 242.774 586.156 241.81 587.188C240.572 588.426 240.916 623.588 242.223 632.877C242.705 635.905 242.567 659.782 242.086 665.906C241.81 669.622 240.503 670.723 238.026 669.347C236.512 668.59 236.099 668.59 235.067 669.484C234.379 670.103 232.521 670.585 230.939 670.585C228.599 670.654 227.705 670.31 226.604 668.865C225.847 667.833 225.296 666.663 225.434 666.25C225.64 665.837 225.503 662.741 225.159 659.369C224.883 655.929 224.539 648.36 224.539 642.511C224.47 632.396 222.544 587.945 221.099 562.004C220.755 555.398 219.929 538.402 219.241 524.365C218.622 510.259 218.002 498.836 217.865 498.974C217.727 499.043 217.452 505.648 217.245 513.562C216.695 532.003 216.695 532.209 216.076 532.828C215.8 533.103 214.975 532.691 214.287 531.934C211.878 529.388 207.819 527.324 205.617 527.461C204.516 527.599 203.002 527.255 202.245 526.704C201.213 525.947 201.075 525.534 201.763 524.296C203.071 521.888 202.658 521.475 198.392 520.649C195.846 520.167 193.575 519.204 192.543 518.241C191.579 517.346 189.928 516.452 188.896 516.176C187.864 515.97 186.694 515.695 186.281 515.557C185.249 515.282 184.423 507.575 185.18 505.511C185.524 504.616 185.662 503.515 185.524 503.103C185.387 502.69 185.593 501.52 185.937 500.557C186.763 498.355 188.414 498.011 187.726 500.144C187.382 501.107 187.726 502.07 188.827 503.24C190.341 504.892 190.41 505.029 189.309 507.162C186.212 513.286 188.689 513.08 194.745 506.612C197.084 504.135 199.286 502.139 199.63 502.139C200.043 502.139 200.456 501.658 200.731 501.107C200.938 500.419 200.525 499.937 199.355 499.662C198.048 499.318 197.704 498.836 197.91 497.942C198.185 496.978 197.704 496.29 196.259 495.602C193.575 494.157 193.713 492.85 197.084 489.891C198.667 488.515 201.557 485.694 203.484 483.698C206.58 480.395 207.062 480.189 207.819 481.221C208.3 481.84 208.507 482.666 208.3 482.941C208.094 483.285 208.3 483.561 208.644 483.561C209.745 483.561 209.539 486.795 208.438 487.208C207.956 487.414 207.337 488.584 207.062 489.891C206.786 491.13 206.374 491.818 206.098 491.474C205.685 490.854 204.447 490.717 201.832 491.061C200.249 491.267 201.213 493.194 202.864 493.194C203.896 493.194 204.584 493.607 204.584 494.157C204.584 495.396 202.727 496.084 200.938 495.533C199.63 495.121 199.561 495.189 200.594 496.222C201.213 496.772 201.832 497.667 202.039 498.148C202.52 499.524 205.823 496.084 207.337 492.712C208.025 491.061 208.988 489.753 209.332 489.753C209.745 489.753 210.089 489.134 210.089 488.446C210.089 487.689 210.433 486.863 210.777 486.657C212.222 485.763 213.667 482.047 212.91 481.29C212.36 480.739 211.947 480.739 211.328 481.359C209.952 482.735 209.401 482.322 209.401 479.845C209.401 477.299 211.947 472.62 213.392 472.551C214.355 472.551 214.493 475.716 213.53 476.336C212.429 477.024 212.773 479.294 214.08 480.258C215.044 480.946 215.594 482.873 216.282 487.689C217.796 498.492 218.209 498.217 218.278 486.519C218.346 479.294 218.071 475.235 217.589 474.959C217.108 474.615 217.039 473.446 217.383 471.588C217.658 470.074 217.796 467.941 217.727 466.84C217.658 465.464 218.071 464.776 219.172 464.294C220.755 463.606 228.53 463.881 236.925 464.913ZM264.174 465.739C264.38 466.152 264.242 466.84 263.83 467.253C263.21 467.872 262.866 467.803 262.385 467.046C262.041 466.496 261.696 465.808 261.696 465.464C261.696 464.707 263.623 464.913 264.174 465.739ZM255.504 467.322C255.504 467.528 255.228 467.872 254.816 468.078C254.471 468.285 254.127 468.147 254.127 467.803C254.127 467.39 254.471 467.046 254.816 467.046C255.228 467.046 255.504 467.184 255.504 467.322ZM454.226 468.56C455.395 469.73 455.327 481.083 454.088 482.116C453.606 482.528 451.542 482.735 449.134 482.597C446.932 482.46 443.354 482.322 441.289 482.253C436.266 482.184 435.647 481.221 436.266 474.271L436.679 469.111L440.189 469.042C442.115 468.973 444.455 468.698 445.418 468.422C448.102 467.597 453.331 467.666 454.226 468.56ZM265.825 476.336V482.528L264.449 480.808C262.935 478.882 262.729 478.056 263.761 478.056C264.174 478.056 264.449 477.299 264.449 476.336C264.449 475.372 264.174 474.615 263.761 474.615C263.417 474.615 263.073 475.235 263.073 475.992C263.073 476.748 262.797 477.368 262.453 477.368C261.49 477.368 260.802 474.822 261.49 473.79C261.765 473.308 261.903 472.345 261.834 471.657C261.49 469.592 262.935 468.354 264.518 469.317C265.619 470.005 265.825 470.968 265.825 476.336ZM292.248 469.73C293.005 470.624 293.555 472.689 293.831 475.854C294.312 481.909 294.175 481.978 284.266 482.116L276.835 482.184V476.611C276.835 468.629 276.903 468.56 284.61 468.491C290.115 468.422 291.285 468.629 292.248 469.73ZM260.32 470.968C260.32 471.312 260.045 471.932 259.701 472.413C259.219 473.17 259.082 473.17 258.738 472.345C258.531 471.794 258.531 471.106 258.738 470.9C259.357 470.349 260.32 470.418 260.32 470.968ZM387.962 473.721C389.269 475.579 390.37 477.643 390.37 478.469C390.37 479.707 389.889 479.983 386.379 480.327C382.32 480.739 379.636 480.395 378.191 479.294C377.159 478.469 378.673 474.409 380.875 472.069C383.214 469.523 385.21 470.005 387.962 473.721ZM354.383 472.689C355.277 473.514 355.966 474.478 355.966 474.822C355.966 475.235 356.447 476.129 357.135 476.817C357.823 477.574 357.961 478.056 357.411 478.056C356.998 478.056 356.654 478.606 356.791 479.226C356.929 480.189 356.516 480.464 355.14 480.395C349.153 480.258 347.158 480.051 346.126 479.226C345.094 478.469 345.3 478.056 348.259 474.822C350.048 472.826 351.768 471.175 352.112 471.175C352.525 471.175 353.488 471.863 354.383 472.689ZM418.032 473.721C422.573 478.193 421.128 480.533 414.454 479.776C411.013 479.363 410.119 479.019 409.706 477.781C408.949 475.854 410.119 473.377 412.321 472.207C414.867 470.831 415.142 470.9 418.032 473.721ZM324.588 474.891C327.478 478.331 327.547 478.95 325.689 480.946C324.52 482.253 324.107 482.322 322.662 481.565C321.492 480.877 320.666 480.877 319.703 481.359C318.258 482.116 315.643 481.772 314.198 480.602C312.547 479.363 313.235 476.886 316.056 474.34C319.772 470.968 321.561 471.106 324.588 474.891ZM368.971 490.579C369.315 491.474 370.416 492.919 371.379 493.813C372.342 494.777 373.168 495.878 373.168 496.29C373.168 496.703 374.544 498.905 376.264 501.176C382.939 510.052 385.416 513.699 390.852 522.644C392.503 525.259 395.325 529.25 397.114 531.452C398.972 533.723 402.618 538.746 405.233 542.737C407.779 546.728 412.045 552.921 414.729 556.568C417.413 560.214 421.059 565.238 422.849 567.715L426.151 572.187L425.532 578.036C425.119 582.44 424.569 584.435 423.399 585.88C421.472 588.289 416.105 594.55 410.394 600.812C407.986 603.496 404.82 607.556 403.375 609.826C401.862 612.097 399.384 615.331 397.733 617.051C394.843 620.148 391.678 623.932 387.618 629.093C386.379 630.607 385.21 631.983 384.934 632.189C384.659 632.396 383.765 633.497 382.939 634.735C380.875 637.694 378.948 638.176 377.021 636.387C376.058 635.492 375.026 635.148 373.994 635.423C371.31 636.111 372.205 633.772 376.264 629.575C382.044 623.588 383.077 622.418 384.797 619.804C385.691 618.496 386.792 617.051 387.205 616.707C387.687 616.294 390.164 613.198 392.779 609.826C395.393 606.386 398.903 602.395 400.485 600.812C402.137 599.23 403.444 597.716 403.444 597.44C403.444 597.096 404.064 596.202 404.752 595.445C405.509 594.619 406.816 593.037 407.71 591.798C411.082 587.05 416.105 580.926 416.656 580.651C417.963 580.169 418.582 577.142 417.757 575.215C417.068 573.77 412.114 566.545 408.811 562.348C403.1 554.985 393.192 541.361 386.655 531.796C383.971 527.874 380.049 522.163 377.916 519.066C375.783 516.039 372.893 511.773 371.517 509.708C370.072 507.644 368.42 505.648 367.87 505.304C366.356 504.479 363.603 506.749 361.126 510.878C359.131 514.181 354.177 520.58 349.016 526.498C347.64 528.012 345.438 531.039 344.062 533.103C342.685 535.168 340.759 537.989 339.795 539.296C338.006 541.705 336.424 543.907 332.777 549.274C331.745 550.788 329.749 553.402 328.442 555.123C327.066 556.843 324.451 560.49 322.731 563.173C320.942 565.926 319.221 568.196 318.877 568.196C318.533 568.196 318.052 568.747 317.845 569.366C317.639 570.054 316.194 571.981 314.68 573.632C313.166 575.284 311.927 577.004 311.927 577.555C311.927 578.036 313.51 580.307 315.368 582.578C317.295 584.848 318.808 586.913 318.808 587.119C318.808 587.394 319.703 588.289 320.804 589.252C321.974 590.215 323.625 592.624 324.588 594.688C325.552 596.752 327.272 599.436 328.373 600.675C329.543 601.913 330.712 603.496 330.919 604.115C331.125 604.803 331.607 605.354 331.951 605.354C332.295 605.354 332.57 605.698 332.57 606.111C332.57 606.523 334.222 608.519 336.217 610.514C341.447 615.813 344.268 619.253 344.681 620.905C344.887 621.73 345.782 622.694 346.745 623.175C348.741 624.07 348.947 625.996 347.02 625.996C345.782 625.996 345.713 626.203 346.332 627.373C347.02 628.611 346.883 628.749 345.025 628.749C343.649 628.749 342.548 628.198 341.653 627.029C340.896 626.065 339.933 625.308 339.52 625.308C339.107 625.308 338.763 625.102 338.763 624.758C338.763 624.483 337.869 623.313 336.837 622.143C332.846 617.533 329.405 613.404 328.442 611.959C327.891 611.134 326.584 609.62 325.552 608.519C324.451 607.418 323.625 606.111 323.625 605.629C323.625 605.078 323.143 604.666 322.593 604.666C322.042 604.666 321.561 604.39 321.561 603.977C321.561 603.358 313.028 591.66 311.033 589.527C308.143 586.431 303.601 580.376 302.294 577.83C300.711 574.665 300.505 575.215 304.84 569.435C308.349 564.825 315.643 555.467 316.4 554.71C316.744 554.297 317.845 552.921 318.808 551.682C319.772 550.444 321.905 547.622 323.625 545.42C325.345 543.219 328.098 539.434 329.818 536.888C331.538 534.411 333.671 531.521 334.566 530.489C338.144 526.567 346.745 515.695 348.741 512.736C352.25 507.438 362.709 493.4 363.535 492.85C363.948 492.575 364.567 491.611 364.911 490.717C365.737 488.584 368.145 488.515 368.971 490.579ZM351.699 492.162C353.076 493.469 350.667 498.492 347.158 501.726C345.644 503.171 343.855 505.442 343.236 506.749C342.617 508.057 341.378 509.433 340.483 509.846C339.52 510.259 338.488 511.635 338.075 512.873C337.593 514.181 336.837 515.213 336.286 515.213C335.804 515.213 335.185 515.97 334.91 516.864C334.703 517.759 333.327 519.686 331.813 521.131C330.368 522.576 329.13 524.089 329.13 524.502C329.13 524.915 328.235 526.223 327.066 527.461C325.965 528.7 325.001 530.145 325.001 530.558C325.001 531.039 323.763 532.622 322.318 534.204C320.804 535.718 318.396 538.815 316.951 541.085C313.854 545.833 312.203 547.76 309.932 548.93C307.799 550.031 307.042 548.861 307.868 545.971C308.143 544.87 308.212 543.425 307.868 542.806C307.592 542.186 307.248 537.645 307.18 532.759C307.111 527.805 306.904 522.576 306.698 521.062C306.492 519.548 306.285 513.149 306.147 506.818C306.079 499.043 305.735 495.052 305.184 494.364C303.946 492.85 306.01 490.923 308.418 491.405C309.382 491.611 311.583 491.474 313.304 491.198C318.258 490.304 350.598 491.13 351.699 492.162ZM424.362 492.437C425.119 493.125 425.394 493.951 425.119 495.052C424.913 495.946 425.05 496.634 425.463 496.634C425.876 496.634 426.083 496.841 425.945 497.116C424.913 498.768 424.362 519.754 425.119 526.223C425.326 527.943 425.119 531.314 424.569 533.723C423.949 536.819 423.812 539.296 424.225 542.049C424.913 546.521 424.156 550.512 422.642 550.856C422.092 550.925 419.89 548.31 417.206 544.319C414.729 540.604 411.977 536.682 410.944 535.512C409.981 534.411 409.018 532.966 408.811 532.415C408.261 530.97 399.522 518.034 397.527 515.763C396.632 514.731 395.875 513.355 395.875 512.805C395.875 511.841 395.531 511.291 392.503 507.85C391.815 507.093 390.99 505.717 390.714 504.96C390.508 504.135 389.338 502.483 388.237 501.245C387.136 500.075 386.035 498.355 385.829 497.598C385.623 496.772 384.728 495.809 383.833 495.396C382.733 494.845 382.388 494.226 382.595 493.056L382.87 491.474H403.031C419.477 491.474 423.399 491.68 424.362 492.437ZM293.349 507.506C293.349 517.621 291.973 518.86 286.33 513.837C282.408 510.396 281.926 508.814 284.197 506.818C285.092 505.924 287.018 504.066 288.326 502.621C289.702 501.245 291.353 500.075 292.11 500.075C293.211 500.075 293.349 500.763 293.349 507.506ZM441.909 501.107C443.01 501.658 444.042 502.552 444.248 503.171C444.524 503.722 445.143 504.203 445.693 504.203C446.794 504.203 448.377 506.818 449.134 509.777C449.478 511.291 449.065 512.048 446.863 514.043C443.904 516.727 440.601 518.654 438.95 518.654C438.331 518.654 437.367 517.69 436.748 516.52C434.89 512.805 436.542 500.075 439.019 500.075C439.569 500.075 440.877 500.557 441.909 501.107ZM179.538 509.158C179.469 511.497 179.125 513.493 178.712 513.63C178.368 513.768 177.474 512.598 176.785 511.016C175.547 508.263 175.547 508.194 177.129 506.543C177.955 505.648 178.919 504.892 179.194 504.892C179.469 504.892 179.675 506.818 179.538 509.158ZM367.319 512.942C367.732 514.043 368.489 521.612 368.489 525.19C368.627 537.094 367.526 565.788 366.906 566.889C365.943 568.816 366.7 571.637 368.214 571.637C368.833 571.637 371.379 569.435 373.787 566.82L378.122 561.935L389.269 562.416C395.325 562.692 401.036 563.173 401.862 563.449C402.687 563.724 403.926 565.031 404.545 566.27C405.164 567.508 406.885 570.329 408.33 572.531C411.288 577.004 411.633 578.38 409.844 578.931C409.155 579.137 408.054 579.619 407.298 580.032C406.541 580.376 405.853 580.445 405.577 580.1C405.371 579.756 400.829 579.412 395.531 579.344C390.233 579.206 384.659 578.862 383.214 578.518C380.187 577.83 371.929 578.38 371.379 579.275C370.966 579.963 374.613 584.711 375.508 584.711C375.852 584.711 377.297 585.949 378.742 587.532C380.943 589.94 381.219 590.628 380.737 592.005C380.393 592.899 379.774 593.656 379.498 593.656C378.81 593.656 372.342 587.463 370.966 585.468C370.416 584.711 369.452 584.023 368.695 583.885C367.388 583.679 367.319 584.16 367.25 600.537C367.182 609.826 366.906 620.01 366.7 623.244C366.493 626.478 366.287 630.125 366.287 631.295C366.356 635.699 364.223 634.322 355.759 624.414L350.667 618.427L350.117 605.766C349.842 597.716 349.91 592.624 350.323 591.867C350.736 591.11 352.938 588.22 355.209 585.399C357.548 582.578 359.406 580.032 359.406 579.756C359.406 579.481 350.667 579.206 340.002 579.206C329.267 579.206 319.841 579 319.015 578.793C316.951 578.243 317.019 576.798 319.221 574.527C320.185 573.495 322.318 570.605 323.969 568.128C325.689 565.582 327.41 563.242 327.891 562.898C328.373 562.485 333.258 562.004 338.763 561.728C346.057 561.384 349.016 560.971 349.773 560.215C350.53 559.458 350.736 557.462 350.598 550.444C350.323 538.264 351.011 531.521 352.525 529.525C359.613 520.649 362.227 517.14 363.81 514.663C365.805 511.497 366.562 511.153 367.319 512.942ZM171.831 521.819C179.744 523.814 188.552 527.117 198.116 531.727C201.901 533.516 206.305 535.237 207.819 535.512C211.328 536.062 213.048 537.851 212.498 540.191C212.154 541.361 211.465 542.049 209.952 542.324C208.851 542.53 207.543 542.53 207.199 542.324C206.786 542.049 205.548 541.636 204.309 541.361C201.97 540.741 191.304 536.957 189.102 535.925C183.322 533.241 179.538 531.796 176.992 531.383C175.34 531.108 173.139 530.489 172.175 529.938C170.937 529.319 167.29 528.975 161.51 528.837C151.945 528.7 150.913 528.906 137.977 533.723C134.812 534.893 131.922 535.856 131.578 535.856C130.545 535.856 130.889 533.379 132.197 532.209C136.945 527.736 139.353 526.291 144.376 524.64C156.968 520.649 164.262 519.892 171.831 521.819ZM372.686 524.846C373.099 525.397 372.686 525.19 371.861 524.434C370.76 523.401 370.416 522.576 370.828 522.025C371.31 521.268 371.448 521.406 371.654 522.438C371.792 523.195 372.273 524.296 372.686 524.846ZM262.591 529.388C264.931 532.209 264.655 533.241 262.316 530.902C259.426 528.08 258.6 526.911 259.701 526.911C260.251 526.911 261.559 528.012 262.591 529.388ZM372.48 533.31C372.48 534.617 371.241 537.439 371.035 536.544C371.035 536.338 370.828 535.443 370.691 534.48C370.553 533.585 370.553 532.415 370.76 531.865C371.241 530.558 372.48 531.521 372.48 533.31ZM172.106 537.439C176.304 539.159 183.254 543.425 189.378 548.035C191.304 549.48 193.162 550.306 194.538 550.306C197.222 550.306 199.768 552.026 199.768 553.746C199.768 555.329 197.291 557.187 195.089 557.187C194.194 557.187 190.96 556.086 187.864 554.779C184.836 553.471 182.015 552.37 181.74 552.37C181.396 552.37 179.951 551.476 178.574 550.306C168.459 542.118 165.501 540.81 156.555 540.26C149.537 539.847 145.271 540.741 134.192 544.801C131.027 545.902 129.926 546.04 129.169 545.42C127.449 544.044 128.137 542.943 131.509 541.774C133.298 541.085 135.775 540.122 137.013 539.572C138.252 539.021 139.697 538.608 140.248 538.608C140.867 538.608 141.83 538.333 142.518 537.989C145.752 536.2 152.289 535.305 159.858 535.443C166.464 535.649 168.459 535.994 172.106 537.439ZM262.247 537.714C263.486 540.122 263.898 544.113 262.935 544.457C262.385 544.664 262.041 546.109 261.972 548.242C261.903 551.889 260.389 554.847 260.251 551.613C259.632 540.81 259.77 536.544 260.664 536.544C261.215 536.544 261.903 537.094 262.247 537.714ZM441.909 547.141C442.941 548.104 444.18 548.93 444.73 549.067C445.9 549.274 448.17 552.577 448.17 554.022C448.17 555.123 443.423 558.976 440.877 559.939C438.193 560.971 437.23 559.664 436.679 554.228C436.266 549.205 437.23 545.489 439.088 545.489C439.707 545.489 440.945 546.246 441.909 547.141ZM161.372 548.654C165.638 550.856 171.762 555.26 173.07 557.118C173.62 557.875 175.753 559.045 177.818 559.733C180.914 560.765 181.602 561.247 181.74 562.692C181.877 564.137 181.464 564.687 179.469 565.65C177.129 566.751 176.854 566.751 173.758 565.375C167.359 562.623 164.606 560.834 160.684 556.98C154.629 551.132 150.913 550.65 140.66 554.434C137.702 555.467 137.495 555.742 137.633 557.875C137.702 559.114 138.39 561.04 139.147 562.072C140.041 563.311 141.004 566.339 141.624 569.917C142.174 573.151 143.069 576.935 143.619 578.38C144.101 579.756 145.546 583.679 146.784 587.119C151.601 600.399 152.633 605.078 152.083 610.996C151.532 616.501 148.78 625.308 146.853 627.717C146.096 628.749 145.546 629.85 145.752 630.125C145.959 630.4 143.963 630.676 141.348 630.744C137.289 630.813 136.463 630.607 136.188 629.575C135.913 628.886 135.637 624.414 135.5 619.597C135.293 614.849 135.018 610.583 134.812 610.239C134.399 609.551 133.16 597.234 132.541 587.188C132.403 584.16 131.784 581.064 131.302 580.307C130.752 579.412 130.27 575.353 129.995 569.297C129.651 560.146 129.582 559.595 127.862 558.081C124.972 555.329 124.628 555.535 139.215 549.205C143.826 547.209 145.133 547.003 151.119 546.934C157.106 546.865 158.207 547.072 161.372 548.654ZM292.523 556.636C292.386 561.797 292.11 563.036 291.285 562.967C289.702 562.898 282.339 557.118 282.339 556.017C282.339 554.916 285.573 551.957 289.151 549.893C292.454 548.035 292.73 548.655 292.523 556.636ZM216.489 550.994C216.282 551.751 215.869 552.233 215.594 552.026C215.25 551.82 215.181 551.063 215.388 550.306C215.594 549.549 216.007 549.067 216.282 549.274C216.626 549.48 216.695 550.237 216.489 550.994ZM264.242 565.582C264.105 567.99 264.036 566.063 264.036 561.315C264.036 556.568 264.105 554.641 264.242 556.98C264.38 559.389 264.38 563.242 264.242 565.582ZM261.352 557.324C261.284 558.563 261.146 560.971 261.077 562.692L260.871 565.788L260.183 562.004C259.563 558.15 259.907 555.123 260.94 555.123C261.215 555.123 261.421 556.155 261.352 557.324ZM217.177 560.283C218.002 561.109 218.209 563.586 218.346 572.394C218.346 578.518 218.553 583.747 218.69 584.023C219.241 584.917 220.342 614.849 220.755 639.758C221.03 653.176 221.374 664.805 221.512 665.631C221.993 667.557 220.067 672.099 218.759 672.099C218.209 672.099 217.658 672.787 217.521 673.613C217.245 675.608 214.631 676.09 213.048 674.438C211.672 673.062 205.823 673.406 202.383 675.127C201.075 675.815 198.46 676.227 195.57 676.227C191.511 676.227 190.616 675.952 188.758 674.37L186.556 672.512L186.969 661.502C187.382 651.456 187.589 650.011 189.309 646.295C190.341 644.025 191.304 642.029 191.511 641.823C192.68 640.653 194.882 636.937 195.846 634.46C196.465 632.877 198.392 629.506 200.112 627.029C201.832 624.551 203.484 621.937 203.896 621.249C205.204 618.771 206.718 609.345 206.855 602.739C206.993 597.303 207.337 595.514 208.369 593.931C211.397 589.527 212.429 585.88 213.254 577.623C213.667 573.632 213.53 573.013 212.566 573.013C211.947 573.013 211.465 572.669 211.465 572.325C211.465 571.912 212.085 571.637 212.773 571.637C214.631 571.637 215.112 569.504 213.874 567.095C211.397 562.279 213.943 556.98 217.177 560.283ZM152.427 562.485C154.422 563.517 156.211 564.549 156.418 564.756C156.624 564.962 158.482 566.201 160.546 567.577C165.225 570.605 168.735 571.981 173.895 572.944C180.226 574.114 180.708 575.009 178.85 582.165C177.474 587.463 176.51 588.702 172.794 589.94C170.661 590.628 168.803 591.936 167.152 593.862C165.776 595.445 164.193 597.303 163.643 597.991C163.023 598.679 162.267 599.986 161.923 600.881C161.578 601.844 160.959 602.601 160.546 602.601C160.202 602.601 159.858 603.358 159.858 604.253C159.858 606.179 159.101 606.936 157.588 606.386C156.899 606.042 156.487 604.184 156.211 599.367C155.867 594.482 155.454 592.349 154.491 591.316C151.463 587.738 150.087 585.192 150.431 583.61C150.569 582.715 150.431 581.958 150.087 581.958C149.743 581.958 149.674 581.614 149.881 581.27C150.087 580.857 150.018 580.582 149.674 580.582C149.193 580.582 147.473 569.71 147.404 566.476C147.404 565.926 147.954 561.384 148.092 560.765C148.229 560.421 148.849 560.696 152.427 562.485ZM202.52 564.137C202.52 564.412 202.245 564.894 201.832 565.1C201.488 565.306 201.144 567.233 201.144 569.229C201.144 572.187 200.525 574.32 198.392 578.999C195.777 584.642 195.639 585.192 196.259 588.289C197.084 592.005 197.084 592.005 192.061 602.945C190.203 607.074 187.864 612.166 186.969 614.092C186.075 616.088 184.423 618.978 183.254 620.561C182.153 622.143 181.189 623.863 181.189 624.276C181.189 625.24 176.029 630.125 175.134 630.125C174.79 630.125 173.001 631.639 171.143 633.497C167.565 637.075 164.537 638.382 162.679 637.212C159.721 635.355 158.138 624.276 159.721 616.088C161.51 606.936 168.253 597.096 174.652 594.344C176.717 593.45 179.538 591.316 181.877 588.908C186.075 584.504 186.832 582.646 188.758 571.293C189.722 565.306 189.859 565.1 191.924 564.412C194.538 563.586 202.52 563.38 202.52 564.137ZM264.242 577.279C264.036 577.83 263.83 577.623 263.83 576.866C263.761 576.11 263.967 575.697 264.174 575.972C264.38 576.178 264.449 576.798 264.242 577.279ZM261.559 588.426C261.696 589.115 261.559 590.491 261.284 591.454L260.802 593.312L260.32 591.592C259.426 588.77 259.563 586.637 260.527 586.913C260.94 587.119 261.49 587.807 261.559 588.426ZM442.666 593.037C444.592 595.789 446.381 598.335 446.519 598.817C446.725 599.298 445.487 600.468 443.698 601.5C441.978 602.532 440.189 603.977 439.707 604.734C438.606 606.455 437.367 606.386 436.404 604.528C434.89 601.707 436.61 588.151 438.468 588.151C438.744 588.151 440.67 590.353 442.666 593.037ZM293.349 597.028C293.349 601.294 292.179 604.184 290.39 604.528C288.601 604.872 283.027 598.954 283.509 597.165C283.716 596.408 284.472 595.583 285.161 595.376C285.849 595.101 286.468 594.482 286.468 593.931C286.468 593.381 287.5 592.349 288.739 591.592L290.941 590.215L292.179 591.661C293.005 592.693 293.349 594.275 293.349 597.028ZM116.783 591.729C116.99 592.211 117.265 598.197 117.472 605.01C117.953 619.391 118.985 635.974 119.949 645.263C120.362 648.841 120.843 655.929 121.118 660.883L121.531 670.035H119.88C117.059 670.035 95.7965 666.525 82.0346 663.842C63.2496 660.126 44.8086 655.447 28.6384 650.424C28.0879 650.217 27.9503 648.772 28.2255 645.401C28.5007 642.236 28.3631 640.515 27.8815 640.171C27.3998 639.896 25.3355 641.41 23.1336 643.543C20.9317 645.607 18.8674 647.259 18.4545 647.121C18.1105 646.915 15.4957 646.089 12.8122 645.194C7.3762 643.474 6.48167 642.236 9.16525 639.965C9.92215 639.277 10.5414 638.52 10.5414 638.176C10.5414 637.901 11.2983 636.8 12.2617 635.767C13.225 634.735 13.9819 633.566 13.9819 633.084C13.9819 631.708 22.1015 623.932 23.4776 623.932C24.1657 623.932 25.1979 623.313 25.8172 622.625C27.6062 620.561 32.7669 617.808 36.7579 616.776C41.9186 615.469 56.0934 613.06 61.8734 612.51C68.7544 611.89 81.4153 612.028 83.8237 612.785C86.8513 613.68 86.4384 616.432 82.5163 620.423C80.796 622.143 77.9748 625.377 76.117 627.51C66.0708 639.277 57.0567 649.392 56.5751 649.392C55.3365 649.392 55.9558 652.763 57.2632 653.52C59.4651 654.69 60.3596 654.346 62.1486 651.662C64.0753 648.772 75.1537 636.111 76.0482 635.767C76.3234 635.63 76.5987 635.217 76.5987 634.873C76.5987 634.46 77.8372 632.809 79.4198 631.157C80.9337 629.506 82.8603 627.304 83.686 626.203C84.5117 625.171 87.4018 621.937 90.0853 619.116C92.7689 616.294 96.8287 611.753 99.0994 609.138C101.37 606.455 104.398 603.083 105.843 601.569C107.219 600.055 109.214 597.716 110.178 596.408C114.169 591.041 116.164 589.596 116.783 591.729ZM310.207 601.707C311.927 603.565 313.235 605.354 313.304 605.835C313.304 606.317 313.992 607.418 314.886 608.381C318.258 612.028 321.905 616.432 322.524 617.602C322.868 618.221 323.35 618.909 323.625 619.116C324.176 619.528 325.689 622.281 325.689 622.831C325.689 623.038 325.139 623.244 324.451 623.244C323.694 623.244 322.249 621.799 320.873 619.597C316.606 612.991 314.611 610.858 312.616 610.858C310.414 610.858 309.863 612.441 309.794 619.735C309.794 622.212 309.588 623.863 309.381 623.451C309.175 622.762 308.831 622.762 308.074 623.519C307.317 624.276 307.248 624.964 307.799 626.341C308.143 627.304 308.487 628.611 308.487 629.162C308.487 630.263 306.698 630.469 306.079 629.437C305.597 628.68 305.046 600.606 305.528 599.367C306.147 597.853 307.111 598.335 310.207 601.707ZM261.008 607.143C261.008 608.794 260.733 609.482 260.183 609.345C259.151 609 258.669 606.455 259.219 604.941C259.907 603.22 261.008 604.597 261.008 607.143ZM418.926 616.845C418.926 626.065 418.858 626.341 417.413 626.547C416.312 626.685 415.624 626.203 414.798 624.689C414.179 623.451 413.215 622.556 412.458 622.556C410.669 622.556 406.197 624.483 406.197 625.308C406.197 625.652 405.577 626.272 404.889 626.616C403.857 627.166 403.513 627.097 403.169 626.272C402.894 625.584 403.582 624.345 405.096 622.831C406.334 621.593 407.229 620.423 407.091 620.216C406.885 620.01 406.953 619.597 407.16 619.184C407.504 618.703 408.054 618.703 408.949 619.253C410.6 620.285 411.357 619.597 410.394 617.877C409.912 616.914 409.912 616.019 410.532 614.78C411.495 612.785 414.385 611.891 414.935 613.404C415.279 614.23 415.417 614.23 415.899 613.542C416.174 612.991 415.968 612.372 415.417 611.891C414.66 611.409 414.523 610.583 414.798 609.276C415.211 607.831 415.692 607.418 417.137 607.418H418.995L418.926 616.845ZM402.343 629.987C401.793 630.538 400.898 630.744 400.279 630.538C399.384 630.194 399.384 629.919 400.417 628.405C401.449 626.822 401.655 626.753 402.412 627.854C403.1 628.818 403.1 629.231 402.343 629.987ZM353.213 630.125C353.213 630.469 352.938 630.813 352.525 630.813C352.181 630.813 351.837 630.469 351.837 630.125C351.837 629.712 352.181 629.437 352.525 629.437C352.938 629.437 353.213 629.712 353.213 630.125ZM292.386 635.286C292.936 637.488 291.835 644.781 290.941 644.988C290.596 645.057 289.22 643.956 287.913 642.442C285.78 639.896 285.642 639.621 286.468 637.694C287.225 635.836 289.908 633.703 291.422 633.566C291.697 633.566 292.11 634.322 292.386 635.286ZM329.956 638.933C332.639 641.272 338.075 642.648 359.406 646.295C364.98 647.327 369.039 648.497 373.512 650.424C374.682 650.906 376.884 651.662 378.535 652.075C380.118 652.557 381.425 653.176 381.425 653.52C381.425 653.864 382.664 654.828 384.178 655.653C386.173 656.823 386.723 657.442 386.173 658.062C385.691 658.681 386.035 659.3 387.343 660.332C389.751 662.19 389.063 663.566 385.416 664.117C362.915 667.833 356.103 668.246 361.195 665.768C363.466 664.736 364.085 662.878 362.778 661.296C360.782 658.956 350.254 654.828 343.236 653.727C338.901 653.039 335.736 652.144 334.703 651.387C333.809 650.63 332.364 650.08 331.401 650.08C330.506 650.08 329.612 649.598 329.405 649.048C329.13 648.497 328.511 648.016 327.891 648.016C325.07 648.016 320.873 645.676 319.497 643.405C317.776 640.515 317.776 640.722 319.909 638.726C322.593 636.249 326.928 636.318 329.956 638.933ZM181.877 659.988C181.877 663.842 181.671 669.002 181.464 671.342L180.983 675.539H176.373L176.235 670.172C176.029 662.259 176.373 658.199 177.474 656.135C178.368 654.415 180.157 652.901 181.396 652.832C181.671 652.832 181.877 656.066 181.877 659.988ZM158.757 660.814C159.652 661.158 159.858 662.466 159.858 667.764V674.37L153.872 673.888C143.413 673.062 142.656 672.856 142.656 670.86C142.656 668.59 145.202 665.906 147.404 665.906C148.298 665.906 149.743 665.287 150.5 664.599C151.67 663.566 156.968 660.401 157.588 660.401C157.656 660.401 158.138 660.608 158.757 660.814ZM278.486 670.103C278.28 670.447 277.798 670.585 277.454 670.31C277.11 670.103 276.972 669.622 277.247 669.278C277.454 668.934 277.936 668.796 278.28 669.071C278.624 669.278 278.761 669.759 278.486 670.103ZM291.973 671.273V673.131L291.009 671.411C290.115 669.622 290.252 668.383 291.353 669.002C291.697 669.278 291.973 670.241 291.973 671.273ZM264.242 674.301C264.036 674.851 263.83 674.645 263.83 673.888C263.761 673.131 263.967 672.718 264.174 672.993C264.38 673.2 264.449 673.819 264.242 674.301Z" fill="url(#paint0_linear_323_97)"/>
<path d="M278.555 39.6699C278.348 40.014 278.486 40.4956 278.899 40.7709C279.243 40.9773 279.587 40.7021 279.587 40.1516C279.587 38.913 279.174 38.7066 278.555 39.6699Z" fill="url(#paint1_linear_323_97)"/>
<path d="M27.331 315.115C27.0557 315.528 27.3998 316.284 28.1567 316.835C29.5329 317.867 30.221 317.11 29.5329 315.321C29.12 314.083 28.0191 314.014 27.331 315.115Z" fill="url(#paint2_linear_323_97)"/>
<path d="M31.1843 322.202C31.1843 323.509 31.5284 324.61 31.8724 324.61C32.2853 324.61 32.5605 323.509 32.5605 322.202C32.5605 320.895 32.2853 319.794 31.8724 319.794C31.5284 319.794 31.1843 320.895 31.1843 322.202Z" fill="url(#paint3_linear_323_97)"/>
<path d="M69.3736 336.927C69.1672 337.271 69.3736 337.822 69.7177 338.028C70.8186 338.716 73.9839 337.753 73.5022 336.996C72.9517 336.102 69.9241 336.102 69.3736 336.927Z" fill="url(#paint4_linear_323_97)"/>
<path d="M96.5534 345.529C96.5534 346.354 97.2415 346.63 99.0306 346.63C102.127 346.63 101.921 344.978 98.7553 344.703C97.1039 344.565 96.5534 344.772 96.5534 345.529Z" fill="url(#paint5_linear_323_97)"/>
<path d="M254.127 340.368C254.127 340.781 254.471 341.262 254.816 341.469C255.228 341.675 255.504 341.4 255.504 340.849C255.504 340.23 255.228 339.749 254.816 339.749C254.471 339.749 254.127 340.024 254.127 340.368Z" fill="url(#paint6_linear_323_97)"/>
<path d="M442.528 470.556C440.326 471.381 439.913 472.345 440.533 475.372C441.014 477.712 441.014 477.712 445.349 477.918C450.235 478.125 450.923 477.712 450.923 474.134C450.923 472.551 450.51 471.657 449.478 471.106C447.345 470.005 444.661 469.799 442.528 470.556Z" fill="url(#paint7_linear_323_97)"/>
<path d="M281.858 471.313C278.899 475.028 279.449 478.262 283.165 479.157C285.986 479.845 287.775 479.57 289.771 478.331C291.904 476.955 291.904 473.033 289.771 471.588C287.913 470.28 282.752 470.143 281.858 471.313Z" fill="url(#paint8_linear_323_97)"/>
<path d="M306.56 576.591C306.904 577.623 308.487 578.174 308.487 577.279C308.487 576.935 308.005 576.385 307.386 576.178C306.698 575.903 306.423 576.11 306.56 576.591Z" fill="url(#paint9_linear_323_97)"/>
<path d="M421.679 579.206C421.885 579.55 421.679 579.894 421.128 579.894C419.821 579.894 419.064 581.752 420.096 582.371C420.922 582.922 422.711 580.857 422.711 579.412C422.711 578.931 422.367 578.518 421.954 578.518C421.61 578.518 421.472 578.793 421.679 579.206Z" fill="url(#paint10_linear_323_97)"/>
<path d="M309.175 580.169C309.175 580.72 309.657 581.27 310.207 581.545C310.827 581.752 311.239 581.545 311.239 580.995C311.239 580.445 310.758 579.894 310.207 579.619C309.588 579.412 309.175 579.619 309.175 580.169Z" fill="url(#paint11_linear_323_97)"/>
<path d="M411.839 591.11C410.188 592.83 409.843 594.619 411.151 594.206C412.252 593.794 414.798 589.527 413.972 589.527C413.628 589.527 412.665 590.215 411.839 591.11Z" fill="url(#paint12_linear_323_97)"/>
<path d="M408.605 595.72C408.398 596.064 408.536 596.408 408.88 596.408C409.293 596.408 409.637 596.064 409.637 595.72C409.637 595.307 409.499 595.032 409.362 595.032C409.155 595.032 408.811 595.307 408.605 595.72Z" fill="url(#paint13_linear_323_97)"/>
<path d="M404.27 598.885C402.825 599.918 402.137 602.601 403.375 602.601C404.201 602.601 407.573 599.367 407.573 598.473C407.573 597.44 406.059 597.647 404.27 598.885Z" fill="url(#paint14_linear_323_97)"/>
<path d="M399.866 605.835C400.348 606.042 400.967 605.973 401.173 605.766C401.449 605.56 401.036 605.354 400.279 605.422C399.522 605.422 399.316 605.629 399.866 605.835Z" fill="url(#paint15_linear_323_97)"/>
<path d="M396.357 609.344C395.669 610.033 395.187 610.927 395.187 611.34C395.187 611.684 394.43 612.372 393.467 612.785C391.678 613.611 391.265 614.574 392.366 615.262C392.71 615.469 393.467 614.987 394.017 614.092C394.568 613.267 395.669 611.822 396.494 610.927C397.802 609.482 398.352 608.106 397.733 608.106C397.595 608.106 396.976 608.656 396.357 609.344Z" fill="url(#paint16_linear_323_97)"/>
<path d="M334.703 612.647C334.703 613.404 334.91 613.611 335.116 613.06C335.323 612.579 335.254 611.959 335.047 611.753C334.841 611.478 334.635 611.89 334.703 612.647Z" fill="url(#paint17_linear_323_97)"/>
<path d="M387.618 620.216C387.618 620.767 387.962 621.042 388.306 620.836C388.719 620.629 388.994 620.148 388.994 619.735C388.994 619.391 388.719 619.116 388.306 619.116C387.962 619.116 387.618 619.597 387.618 620.216Z" fill="url(#paint18_linear_323_97)"/>
<path d="M384.866 623.657C384.866 624.827 386.379 624.62 386.792 623.382C386.93 622.9 386.586 622.556 385.967 622.556C385.347 622.556 384.866 623.038 384.866 623.657Z" fill="url(#paint19_linear_323_97)"/>
<path d="M313.648 497.116C311.652 498.217 311.79 497.116 311.859 514.8C311.859 526.429 312.891 536.888 313.992 537.576C314.267 537.783 315.23 536.819 316.125 535.512C317.019 534.204 318.189 533.103 318.74 533.103C319.29 533.103 319.497 532.622 319.29 531.796C319.084 530.97 319.497 529.938 320.322 529.181C321.836 527.805 325.689 522.3 325.689 521.475C325.689 521.199 326.653 520.305 327.754 519.479C328.923 518.585 329.818 517.621 329.818 517.209C329.818 516.52 330.988 514.869 334.635 510.396C335.392 509.433 336.837 507.713 337.731 506.612C338.626 505.442 340.208 503.584 341.172 502.483C343.236 500.075 343.511 496.703 341.722 496.497C341.034 496.497 334.841 496.359 327.96 496.359C318.74 496.29 314.955 496.497 313.648 497.116Z" fill="url(#paint20_linear_323_97)"/>
<path d="M394.361 495.602C392.366 496.703 391.953 497.598 393.123 498.355C393.536 498.561 393.811 499.249 393.811 499.868C393.811 500.419 394.912 502.414 396.219 504.203C397.527 505.993 398.628 507.919 398.628 508.47C398.628 509.02 399.247 510.052 400.073 510.809C400.829 511.497 402.137 513.355 402.894 514.869C406.747 522.576 413.903 533.448 415.83 534.48C416.862 535.03 417.275 534.893 417.825 533.998C418.445 532.897 418.169 502.277 417.55 498.974C417.069 496.91 414.454 496.084 406.541 495.671C402.756 495.465 398.903 495.121 397.939 494.914C396.976 494.708 395.393 495.052 394.361 495.602Z" fill="url(#paint21_linear_323_97)"/>
<path d="M194.057 591.179C193.644 592.211 194.125 592.968 195.089 592.968C195.846 592.968 195.777 591.11 195.02 590.628C194.676 590.422 194.263 590.628 194.057 591.179Z" fill="url(#paint22_linear_323_97)"/>
</g>
<defs>
<linearGradient id="paint0_linear_323_97" x1="245.134" y1="-43.8661" x2="386.022" y2="736.435" gradientUnits="userSpaceOnUse">
<stop stop-color="#426077"/>
<stop offset="0.646497" stop-color="#87A0B4" stop-opacity="0.334485"/>
<stop offset="1" stop-color="#585E62" stop-opacity="0"/>
</linearGradient>
<linearGradient id="paint1_linear_323_97" x1="245.134" y1="-43.8661" x2="386.022" y2="736.435" gradientUnits="userSpaceOnUse">
<stop stop-color="#426077"/>
<stop offset="0.646497" stop-color="#87A0B4" stop-opacity="0.334485"/>
<stop offset="1" stop-color="#585E62" stop-opacity="0"/>
</linearGradient>
<linearGradient id="paint2_linear_323_97" x1="245.134" y1="-43.8661" x2="386.022" y2="736.435" gradientUnits="userSpaceOnUse">
<stop stop-color="#426077"/>
<stop offset="0.646497" stop-color="#87A0B4" stop-opacity="0.334485"/>
<stop offset="1" stop-color="#585E62" stop-opacity="0"/>
</linearGradient>
<linearGradient id="paint3_linear_323_97" x1="245.134" y1="-43.8661" x2="386.022" y2="736.435" gradientUnits="userSpaceOnUse">
<stop stop-color="#426077"/>
<stop offset="0.646497" stop-color="#87A0B4" stop-opacity="0.334485"/>
<stop offset="1" stop-color="#585E62" stop-opacity="0"/>
</linearGradient>
<linearGradient id="paint4_linear_323_97" x1="245.134" y1="-43.8661" x2="386.022" y2="736.435" gradientUnits="userSpaceOnUse">
<stop stop-color="#426077"/>
<stop offset="0.646497" stop-color="#87A0B4" stop-opacity="0.334485"/>
<stop offset="1" stop-color="#585E62" stop-opacity="0"/>
</linearGradient>
<linearGradient id="paint5_linear_323_97" x1="245.134" y1="-43.8661" x2="386.022" y2="736.435" gradientUnits="userSpaceOnUse">
<stop stop-color="#426077"/>
<stop offset="0.646497" stop-color="#87A0B4" stop-opacity="0.334485"/>
<stop offset="1" stop-color="#585E62" stop-opacity="0"/>
</linearGradient>
<linearGradient id="paint6_linear_323_97" x1="245.134" y1="-43.8661" x2="386.022" y2="736.435" gradientUnits="userSpaceOnUse">
<stop stop-color="#426077"/>
<stop offset="0.646497" stop-color="#87A0B4" stop-opacity="0.334485"/>
<stop offset="1" stop-color="#585E62" stop-opacity="0"/>
</linearGradient>
<linearGradient id="paint7_linear_323_97" x1="245.134" y1="-43.8661" x2="386.022" y2="736.435" gradientUnits="userSpaceOnUse">
<stop stop-color="#426077"/>
<stop offset="0.646497" stop-color="#87A0B4" stop-opacity="0.334485"/>
<stop offset="1" stop-color="#585E62" stop-opacity="0"/>
</linearGradient>
<linearGradient id="paint8_linear_323_97" x1="245.134" y1="-43.8661" x2="386.022" y2="736.435" gradientUnits="userSpaceOnUse">
<stop stop-color="#426077"/>
<stop offset="0.646497" stop-color="#87A0B4" stop-opacity="0.334485"/>
<stop offset="1" stop-color="#585E62" stop-opacity="0"/>
</linearGradient>
<linearGradient id="paint9_linear_323_97" x1="245.134" y1="-43.8661" x2="386.022" y2="736.435" gradientUnits="userSpaceOnUse">
<stop stop-color="#426077"/>
<stop offset="0.646497" stop-color="#87A0B4" stop-opacity="0.334485"/>
<stop offset="1" stop-color="#585E62" stop-opacity="0"/>
</linearGradient>
<linearGradient id="paint10_linear_323_97" x1="245.134" y1="-43.8661" x2="386.022" y2="736.435" gradientUnits="userSpaceOnUse">
<stop stop-color="#426077"/>
<stop offset="0.646497" stop-color="#87A0B4" stop-opacity="0.334485"/>
<stop offset="1" stop-color="#585E62" stop-opacity="0"/>
</linearGradient>
<linearGradient id="paint11_linear_323_97" x1="245.134" y1="-43.8661" x2="386.022" y2="736.435" gradientUnits="userSpaceOnUse">
<stop stop-color="#426077"/>
<stop offset="0.646497" stop-color="#87A0B4" stop-opacity="0.334485"/>
<stop offset="1" stop-color="#585E62" stop-opacity="0"/>
</linearGradient>
<linearGradient id="paint12_linear_323_97" x1="245.134" y1="-43.8661" x2="386.022" y2="736.435" gradientUnits="userSpaceOnUse">
<stop stop-color="#426077"/>
<stop offset="0.646497" stop-color="#87A0B4" stop-opacity="0.334485"/>
<stop offset="1" stop-color="#585E62" stop-opacity="0"/>
</linearGradient>
<linearGradient id="paint13_linear_323_97" x1="245.134" y1="-43.8661" x2="386.022" y2="736.435" gradientUnits="userSpaceOnUse">
<stop stop-color="#426077"/>
<stop offset="0.646497" stop-color="#87A0B4" stop-opacity="0.334485"/>
<stop offset="1" stop-color="#585E62" stop-opacity="0"/>
</linearGradient>
<linearGradient id="paint14_linear_323_97" x1="245.134" y1="-43.8661" x2="386.022" y2="736.435" gradientUnits="userSpaceOnUse">
<stop stop-color="#426077"/>
<stop offset="0.646497" stop-color="#87A0B4" stop-opacity="0.334485"/>
<stop offset="1" stop-color="#585E62" stop-opacity="0"/>
</linearGradient>
<linearGradient id="paint15_linear_323_97" x1="245.134" y1="-43.8661" x2="386.022" y2="736.435" gradientUnits="userSpaceOnUse">
<stop stop-color="#426077"/>
<stop offset="0.646497" stop-color="#87A0B4" stop-opacity="0.334485"/>
<stop offset="1" stop-color="#585E62" stop-opacity="0"/>
</linearGradient>
<linearGradient id="paint16_linear_323_97" x1="245.134" y1="-43.8661" x2="386.022" y2="736.435" gradientUnits="userSpaceOnUse">
<stop stop-color="#426077"/>
<stop offset="0.646497" stop-color="#87A0B4" stop-opacity="0.334485"/>
<stop offset="1" stop-color="#585E62" stop-opacity="0"/>
</linearGradient>
<linearGradient id="paint17_linear_323_97" x1="245.134" y1="-43.8661" x2="386.022" y2="736.435" gradientUnits="userSpaceOnUse">
<stop stop-color="#426077"/>
<stop offset="0.646497" stop-color="#87A0B4" stop-opacity="0.334485"/>
<stop offset="1" stop-color="#585E62" stop-opacity="0"/>
</linearGradient>
<linearGradient id="paint18_linear_323_97" x1="245.134" y1="-43.8661" x2="386.022" y2="736.435" gradientUnits="userSpaceOnUse">
<stop stop-color="#426077"/>
<stop offset="0.646497" stop-color="#87A0B4" stop-opacity="0.334485"/>
<stop offset="1" stop-color="#585E62" stop-opacity="0"/>
</linearGradient>
<linearGradient id="paint19_linear_323_97" x1="245.134" y1="-43.8661" x2="386.022" y2="736.435" gradientUnits="userSpaceOnUse">
<stop stop-color="#426077"/>
<stop offset="0.646497" stop-color="#87A0B4" stop-opacity="0.334485"/>
<stop offset="1" stop-color="#585E62" stop-opacity="0"/>
</linearGradient>
<linearGradient id="paint20_linear_323_97" x1="245.134" y1="-43.8661" x2="386.022" y2="736.435" gradientUnits="userSpaceOnUse">
<stop stop-color="#426077"/>
<stop offset="0.646497" stop-color="#87A0B4" stop-opacity="0.334485"/>
<stop offset="1" stop-color="#585E62" stop-opacity="0"/>
</linearGradient>
<linearGradient id="paint21_linear_323_97" x1="245.134" y1="-43.8661" x2="386.022" y2="736.435" gradientUnits="userSpaceOnUse">
<stop stop-color="#426077"/>
<stop offset="0.646497" stop-color="#87A0B4" stop-opacity="0.334485"/>
<stop offset="1" stop-color="#585E62" stop-opacity="0"/>
</linearGradient>
<linearGradient id="paint22_linear_323_97" x1="245.134" y1="-43.8661" x2="386.022" y2="736.435" gradientUnits="userSpaceOnUse">
<stop stop-color="#426077"/>
<stop offset="0.646497" stop-color="#87A0B4" stop-opacity="0.334485"/>
<stop offset="1" stop-color="#585E62" stop-opacity="0"/>
</linearGradient>
</defs>
</svg>
