<svg width="950" height="1158" viewBox="0 0 950 1158" fill="none" xmlns="http://www.w3.org/2000/svg">
<path d="M418.426 -163.531C318.826 -153.664 237.626 -120.464 163.093 -59.1311C151.626 -49.7977 119.893 -18.331 108.56 -4.99771C75.2263 33.8023 41.3596 87.669 26.1596 126.336C-0.373699 193.269 -6.64037 277.269 7.09297 382.202C8.95963 396.869 16.293 425.002 22.4263 441.669C44.5596 501.002 92.9596 572.602 152.026 633.002L168.426 649.669L160.693 656.336C144.693 670.202 129.76 685.669 122.56 695.536C100.56 726.202 79.7596 764.602 65.093 802.336C45.2263 852.869 20.9596 931.802 12.4263 973.669C4.8263 1010.34 -2.50703 1082.47 0.8263 1085.8C4.69297 1089.54 72.8263 1111 111.76 1120.87C252.026 1156.07 420.426 1166.07 605.76 1150.2C711.493 1141.27 832.56 1119.8 930.16 1092.74L950.026 1087.27L949.226 1080.47C948.826 1076.74 946.96 1055.94 945.093 1034.34C936.96 940.602 930.426 905.402 903.76 814.336C898.96 797.802 898.826 797.002 896.56 735.002C895.226 702.069 894.16 697.936 885.36 695.536C882.56 694.869 867.893 694.069 852.96 693.802L825.626 693.402L820.826 686.202C814.026 676.069 770.826 633.269 761.36 627.402C760.293 626.736 765.226 620.869 775.226 610.736C803.626 581.936 821.36 560.069 842.026 528.336C879.493 471.002 900.026 417.002 908.693 353.002C912.56 324.336 912.826 260.202 909.36 231.669C901.893 172.069 890.56 131.936 869.093 89.0024C831.893 14.7357 784.026 -42.4644 722.293 -86.4644C668.56 -124.864 599.626 -150.464 521.093 -161.131C507.093 -163.131 431.626 -164.864 418.426 -163.531ZM475.626 -141.264C475.36 -139.531 475.76 -139.264 476.96 -140.331C477.893 -140.998 479.093 -141.264 479.493 -140.731C480.026 -140.331 480.426 -140.598 480.426 -141.398C480.426 -143.398 517.493 -141.664 529.093 -138.998C532.026 -138.331 536.426 -137.664 538.826 -137.664C541.093 -137.664 543.093 -137.131 543.093 -136.464C543.093 -135.131 550.826 -133.398 558.826 -132.998C567.093 -132.598 568.293 -130.864 564.693 -124.064C561.093 -117.264 553.893 -106.731 549.76 -102.331C546.96 -99.3977 546.96 -98.331 547.093 -75.531C547.226 -62.331 547.226 -38.331 547.226 -22.0644L547.093 7.66896H543.893C542.16 7.66896 537.76 6.73563 534.293 5.80229C513.093 -0.597702 506.826 -1.93105 492.693 -3.13104C484.16 -3.79771 471.893 -4.99771 465.626 -5.66438C448.96 -7.39772 422.426 -4.33105 399.093 2.20229C374.826 8.86896 376.426 8.60229 377.226 4.60229C377.493 3.00229 378.16 -21.531 378.693 -49.931L379.493 -101.398L374.693 -108.598C372.16 -112.464 366.96 -118.464 363.226 -122.064C359.493 -125.531 356.426 -129.131 356.426 -130.064C356.426 -132.198 371.36 -135.798 387.093 -137.664C392.56 -138.198 399.493 -139.398 402.426 -140.198C405.36 -140.998 410.826 -141.664 414.426 -141.664C418.16 -141.664 422.026 -142.331 423.093 -142.998C424.293 -143.798 435.493 -144.198 450.426 -143.931C473.76 -143.664 475.76 -143.531 475.626 -141.264ZM598.426 -124.064C602.16 -122.598 610.56 -119.664 617.226 -117.664C623.893 -115.531 632.56 -112.198 636.56 -110.198C645.36 -105.664 645.626 -105.531 658.16 -100.331C663.76 -98.0644 668.426 -95.531 668.426 -94.8644C668.426 -94.1977 669.36 -93.6644 670.426 -93.6644C673.226 -93.6644 682.026 -89.1311 689.893 -83.5311C693.493 -80.9977 696.826 -78.9977 697.36 -78.9977C698.026 -78.9977 701.493 -76.5977 705.36 -73.6644C709.226 -70.8644 714.16 -67.531 716.426 -66.331C718.56 -65.2644 720.426 -63.7977 720.426 -63.2644C720.426 -62.5977 722.96 -60.731 726.026 -58.9977C729.093 -57.2644 735.093 -52.8644 739.226 -49.1311C743.36 -45.3977 750.56 -39.2644 755.226 -35.3977C759.893 -31.531 767.093 -24.9977 771.093 -20.8644C775.093 -16.731 780.293 -11.3977 782.56 -9.13104C784.826 -6.86438 792.826 2.33562 800.293 11.269C807.76 20.3356 814.426 27.669 815.226 27.669C815.893 27.669 817.626 30.3356 818.96 33.5356C820.426 36.7356 823.093 40.869 824.96 42.7356C826.826 44.6023 828.426 46.7356 828.426 47.5356C828.426 49.5356 838.96 65.0023 840.426 65.0023C841.093 65.0023 842.026 66.3357 842.426 67.9357C844.426 74.869 847.493 79.8024 850.826 81.5357C853.626 83.0023 855.093 85.5357 857.76 93.8024C859.493 99.669 861.76 105.802 862.56 107.669C863.493 109.536 864.56 113.536 865.093 116.736L866.026 122.469L852.16 136.469C844.693 144.202 837.226 151.136 835.76 152.069C833.893 153.136 818.026 153.536 779.093 153.136C749.36 153.002 723.76 152.469 722.026 152.069C720.026 151.669 717.76 149.002 715.493 144.469C713.626 140.736 710.826 136.202 709.226 134.336C707.626 132.469 703.893 127.136 701.093 122.336C686.826 98.469 661.36 71.9356 635.626 54.3356C634.026 53.269 629.226 49.9356 624.96 46.869C620.56 43.9356 614.426 40.069 611.093 38.2023C607.76 36.4689 602.426 33.1356 599.093 31.0023C592.693 26.7356 576.026 18.3356 573.893 18.3356C571.493 18.3356 563.36 12.869 562.56 10.7356C561.76 8.60229 561.76 -4.73105 562.426 -58.9977C563.093 -101.798 562.56 -97.5311 568.293 -107.131C571.093 -111.798 576.026 -118.464 579.226 -121.931C585.76 -128.731 586.16 -128.864 598.426 -124.064ZM344.56 -122.198C346.293 -120.331 349.093 -118.198 350.693 -117.531C352.293 -116.998 354.693 -114.464 355.893 -112.064C357.093 -109.664 360.826 -104.198 364.16 -99.931L370.293 -92.1977L368.693 -74.5977C367.76 -64.8644 366.693 -42.0644 366.426 -23.6644C366.026 -5.39772 365.36 10.7356 364.96 12.069C363.626 16.2023 361.093 13.669 360.293 7.53563C359.626 2.46896 358.826 -36.5977 358.56 -80.9977C358.426 -97.131 356.826 -101.131 349.093 -106.064C343.093 -109.931 332.426 -121.531 332.426 -124.198C332.426 -127.264 341.226 -125.798 344.56 -122.198ZM335.493 -98.5977L345.76 -87.1311L346.96 -56.731C348.56 -8.99771 348.16 19.8023 345.76 21.1356C344.693 21.669 340.826 23.669 337.093 25.4023C324.426 31.269 307.76 40.069 305.76 41.669C304.693 42.6023 300.56 45.1356 296.826 47.269C292.96 49.4023 288.16 52.4689 286.16 54.069C273.093 64.6023 267.093 69.0024 266.026 69.0024C264.56 69.0024 245.493 86.3357 231.76 100.336C220.426 111.936 204.426 131.936 196.026 145.002L192.96 149.669L179.76 150.469C172.426 151.002 149.626 151.402 129.226 151.536C108.693 151.536 88.5596 151.936 84.5596 152.469C78.0263 153.136 76.293 152.736 70.693 149.669C67.2263 147.669 63.893 145.002 63.2263 143.802C62.4263 142.469 59.493 138.602 56.5596 135.002C53.493 131.402 51.093 127.402 51.093 126.069C51.093 123.402 67.093 92.3357 72.693 84.069C74.693 81.0024 76.4263 78.2023 76.4263 77.8024C76.4263 77.4024 79.7596 72.069 83.7596 66.069C95.3596 48.6024 96.8263 46.469 101.36 40.6023C103.626 37.5356 107.626 31.9356 110.293 28.3356C112.826 24.6023 117.626 19.0023 120.96 15.9356C124.426 12.7356 128.826 7.93562 130.826 5.26895C135.093 -0.597717 154.56 -21.2644 163.093 -28.9977C166.293 -31.931 172.96 -38.0644 177.893 -42.731C182.693 -47.2644 187.36 -50.9977 188.16 -50.9977C189.093 -50.9977 189.76 -51.5311 189.76 -52.1977C189.76 -52.8644 191.493 -54.4644 193.626 -55.931C195.76 -57.2644 201.226 -60.9977 205.893 -64.331C216.826 -72.0644 238.96 -85.7977 248.426 -90.5977C252.426 -92.5977 256.426 -94.9977 257.093 -95.931C257.893 -96.8644 263.893 -99.6644 270.426 -102.198C277.093 -104.731 287.493 -108.998 293.76 -111.664C300.026 -114.331 307.093 -117.131 309.493 -117.664C312.026 -118.331 314.293 -119.131 314.693 -119.531C315.626 -120.331 318.56 -117.264 335.493 -98.5977ZM424.026 34.3356C421.493 36.4689 418.56 38.3356 417.493 38.3356C416.426 38.3356 414.426 39.669 412.96 41.1356C409.493 45.1356 396.026 54.069 389.36 57.0023C378.56 61.669 353.626 62.069 349.226 57.5356C348.16 56.469 346.16 55.669 344.826 55.5356C340.293 55.269 348.826 53.269 355.093 53.1356C360.56 53.0023 366.693 51.9356 384.426 47.669C394.826 45.269 410.16 39.4023 417.76 34.869C426.96 29.269 429.893 29.1356 424.026 34.3356ZM506.293 31.669C508.16 32.3356 516.426 33.5356 524.826 34.2023C547.226 36.2023 557.493 39.269 549.626 41.669C546.426 42.7356 526.16 41.4023 518.426 39.669C504.826 36.7356 495.093 33.9356 495.093 33.1356C495.093 30.2023 500.56 29.4023 506.293 31.669ZM399.093 35.669C399.093 36.3356 397.36 37.0023 395.226 37.0023C392.96 37.0023 390.826 37.5356 390.426 38.3356C389.36 39.9356 384.426 40.069 384.426 38.469C384.426 37.269 392.293 34.7356 396.826 34.469C398.026 34.3356 399.093 34.869 399.093 35.669ZM432.426 40.869C432.426 43.9356 414.16 59.269 404.693 64.2023C392.826 70.3356 376.16 74.869 365.76 74.6024C358.826 74.469 335.626 70.3357 326.426 67.5357C322.426 66.2024 321.76 65.669 323.76 65.269C326.96 64.6024 349.226 65.8024 363.76 67.5357C378.026 69.1357 386.426 67.5356 399.626 60.2023C414.426 52.069 414.826 51.8023 422.426 45.269C428.826 39.9356 432.426 38.3356 432.426 40.869ZM374.426 42.3356C374.026 43.0023 371.093 43.669 368.026 43.5356C363.626 43.5356 362.96 43.269 365.093 42.3356C368.826 40.7356 375.493 40.7356 374.426 42.3356ZM523.093 46.2023C532.293 47.5356 548.96 49.269 560.026 49.9356C578.826 51.0023 585.36 52.4689 582.693 55.1356C581.093 56.7356 542.826 55.669 530.426 53.8023C515.226 51.4023 501.76 47.669 497.626 44.6023L494.426 42.3356L500.426 42.869C503.76 43.269 513.893 44.7356 523.093 46.2023ZM490.426 48.3356C510.96 57.4023 528.426 60.469 568.293 62.3356C596.826 63.5356 605.226 64.869 607.626 68.869C609.226 71.4024 602.293 71.9357 572.16 71.269C541.226 70.6024 536.293 69.9356 513.093 62.7356C507.226 60.869 499.36 57.669 495.626 55.5356C491.893 53.4023 487.626 51.669 486.16 51.669C482.826 51.669 476.16 46.6023 477.226 44.869C478.16 43.4023 481.093 44.2023 490.426 48.3356ZM502.16 64.7356C512.026 69.4023 517.093 71.0024 527.76 73.0024C532.16 73.8024 538.293 75.0023 541.493 75.669C544.56 76.469 561.76 77.4024 579.493 77.669C612.293 78.469 624.56 79.9357 627.36 83.4024C628.826 85.0024 628.16 85.1357 622.426 84.469C618.693 83.9357 600.826 83.269 582.426 83.0024C546.426 82.3357 529.493 80.3357 512.693 74.869C500.16 70.7357 492.693 67.1356 487.76 62.869L483.76 59.5356L488.826 60.2023C491.626 60.6023 497.626 62.6023 502.16 64.7356ZM459.093 62.2023C459.093 65.8023 488.56 90.2024 493.226 90.3357C493.893 90.3357 495.893 91.5357 497.76 93.0023C499.626 94.469 502.56 95.669 504.426 95.669C508.026 95.669 517.093 98.6024 518.56 100.069C519.093 100.602 521.76 101.002 524.56 101.002C530.56 101.002 550.16 105.536 560.026 109.269C564.96 111.136 568.16 113.269 570.16 116.336C571.76 118.736 577.76 126.202 583.493 132.736C589.093 139.402 593.76 145.136 593.76 145.669C593.76 146.202 595.626 148.869 597.76 151.669C600.026 154.469 601.76 158.336 601.76 160.336C601.76 162.469 604.426 167.936 607.893 173.136C611.226 178.336 614.826 185.536 615.76 189.136C616.826 192.869 618.56 198.069 619.76 200.469C623.493 208.469 618.826 210.202 611.093 203.669C608.56 201.402 606.026 199.669 605.226 199.669C604.56 199.669 603.36 198.869 602.56 197.802C600.293 195.002 581.76 189.269 564.56 186.202C538.026 181.402 504.96 184.469 494.293 192.469C491.36 194.736 488.026 199.669 484.96 206.202C477.76 221.269 473.626 229.136 470.16 234.202C467.226 238.602 467.093 239.669 467.093 267.002C467.093 282.469 466.693 302.469 466.293 311.136L465.36 327.136L469.626 331.936C475.493 338.602 475.226 343.536 468.826 348.869C463.893 353.002 458.426 354.069 451.626 352.202C445.893 350.736 444.026 340.202 447.76 331.269C449.36 327.269 449.493 324.202 448.426 313.402C447.626 306.202 447.093 286.202 447.36 269.002C447.626 238.869 447.626 237.402 444.56 229.669C436.96 210.336 435.226 205.269 433.226 198.069C430.96 190.336 426.826 185.536 421.226 184.336C380.426 176.069 363.226 176.202 337.093 184.602C331.226 186.469 325.493 189.136 324.426 190.469C321.626 193.669 311.893 196.869 309.226 195.402C307.626 194.469 307.093 194.736 307.093 196.736C307.093 198.069 306.293 200.336 305.226 201.669C300.693 207.936 308.426 211.802 315.226 206.602C316.96 205.269 321.893 202.736 326.026 201.136C330.293 199.402 334.293 197.269 335.093 196.336C338.426 192.336 375.76 190.469 379.36 194.069C380.56 195.269 380.293 195.669 378.026 195.669C376.426 195.669 374.026 196.869 372.826 198.336C371.36 200.069 368.826 201.002 366.026 201.002C360.693 201.002 353.626 203.802 349.893 207.536C348.426 209.002 343.893 212.069 339.893 214.202C335.893 216.336 328.96 220.869 324.56 224.202C320.026 227.669 316.426 230.202 316.426 229.802C316.426 229.269 314.293 231.269 311.76 234.202C309.226 237.002 307.093 240.202 307.093 241.402C307.093 245.936 310.026 244.869 315.893 238.469C324.426 229.002 347.626 217.536 362.026 215.669C378.693 213.669 386.026 215.936 403.76 228.869C408.826 232.602 413.493 235.669 414.026 235.669C415.36 235.669 420.426 245.669 420.426 248.202C420.426 249.269 419.76 250.602 419.093 251.002C417.493 251.936 416.826 251.536 404.293 241.802C376.426 220.202 352.826 221.536 322.56 246.602C318.293 250.202 313.093 253.536 310.96 253.936C308.293 254.469 307.093 255.536 307.093 257.136C307.093 259.269 308.16 259.669 313.226 259.669C320.56 259.669 322.693 260.736 333.493 269.936C338.16 273.802 344.426 278.336 347.493 279.936C355.093 283.802 369.493 284.602 378.826 281.936C386.026 279.802 403.093 268.336 403.093 265.669C403.093 262.869 408.56 260.736 413.76 261.669C420.16 262.736 423.893 267.536 421.76 271.669C420.96 273.136 420.826 274.336 421.493 274.336C422.16 274.336 422.16 277.802 421.626 282.202C420.96 286.602 420.293 303.802 420.026 320.469L419.626 350.736L424.693 355.536C427.493 358.202 429.76 361.136 429.76 361.936C429.76 362.869 427.76 364.469 425.493 365.536C423.093 366.469 418.56 369.802 415.493 372.869C412.426 375.802 409.493 378.336 408.96 378.336C406.826 378.336 392.426 390.202 382.16 400.336C364.16 418.202 359.36 422.336 357.36 422.336C356.426 422.336 353.493 419.802 350.96 416.602C348.56 413.536 343.226 408.069 339.36 404.469C335.493 400.869 330.826 395.002 329.093 391.536C327.226 388.069 325.226 384.869 324.426 384.336C323.76 383.936 323.093 382.602 323.093 381.402C323.093 380.202 322.293 378.602 321.226 377.802C319.626 376.469 312.56 363.136 307.626 352.336C306.693 350.069 305.493 344.869 305.093 340.736C304.56 336.469 303.626 332.736 302.96 332.336C302.293 331.802 301.76 330.202 301.76 328.469C301.76 326.736 300.96 323.669 299.893 321.536C297.36 316.336 292.426 290.069 291.093 274.069C290.426 266.869 289.493 260.336 288.96 259.536C288.16 258.202 290.16 246.336 292.16 241.002C293.36 237.669 293.626 236.602 294.56 231.002C295.093 228.069 296.293 223.936 297.36 221.936C298.693 219.402 298.96 216.336 298.293 212.202C297.76 207.936 298.026 205.536 299.493 203.136C300.693 201.402 301.893 198.202 302.16 196.202C302.426 193.802 303.493 192.469 304.56 192.602C305.626 192.736 307.626 190.469 309.093 187.669C314.426 177.136 324.96 159.002 326.16 158.202C326.826 157.669 326.693 157.002 325.893 156.469C323.493 155.002 324.16 153.269 329.093 147.802C331.626 145.002 334.16 140.736 334.56 138.469C335.093 135.802 337.226 132.869 339.893 130.736C342.426 128.869 344.426 126.602 344.426 125.669C344.426 124.602 346.56 122.069 349.226 119.936C357.626 113.002 370.693 107.536 387.093 104.202C388.96 103.802 391.626 103.002 393.093 102.336C394.56 101.802 400.426 99.669 406.16 97.669C411.76 95.669 418.426 92.6024 420.826 90.869C423.093 89.1357 426.293 87.1357 427.76 86.469C430.426 85.1357 434.96 80.869 446.826 67.9357C450.826 63.8024 454.56 61.0023 456.293 61.0023C457.76 61.0023 459.093 61.5356 459.093 62.2023ZM334.426 78.469C336.026 79.0024 329.226 79.5357 318.56 79.5357C300.426 79.669 297.093 79.0024 306.026 77.1357C311.226 76.069 330.693 76.869 334.426 78.469ZM634.16 87.269C633.226 87.5357 631.626 87.5357 630.826 87.269C629.893 86.869 630.56 86.6024 632.426 86.6024C634.293 86.6024 634.96 86.869 634.16 87.269ZM623.493 91.669C627.626 93.1357 632.16 94.3357 633.626 94.3357C636.026 94.3357 640.026 97.8023 638.826 99.0023C638.56 99.4023 634.026 98.7357 628.96 97.5357C623.893 96.469 617.36 95.269 614.426 94.869C611.493 94.469 608.16 93.8024 607.093 93.4024C606.026 92.869 603.893 92.7357 602.426 92.7357C600.96 92.869 600.56 92.6024 601.493 92.2024C602.293 91.8024 602.826 90.869 602.293 90.2024C600.96 87.9357 615.76 89.0023 623.493 91.669ZM289.093 122.336C287.76 123.802 286.426 124.736 286.026 124.336C285.093 123.536 288.426 119.669 290.16 119.669C290.826 119.669 290.426 120.869 289.093 122.336ZM612.16 126.469C613.36 128.869 615.493 131.669 616.826 132.869C618.026 133.936 619.093 135.536 619.093 136.336C619.093 137.136 621.493 140.069 624.293 142.869C627.226 145.669 632.16 153.136 635.226 159.269C638.693 166.202 642.026 171.002 643.76 171.669C646.293 172.602 653.76 182.202 653.76 184.469C653.76 185.002 656.026 187.402 658.826 189.802C661.893 192.602 662.96 194.202 661.76 194.336C659.493 194.336 650.293 184.336 640.826 171.402C637.36 166.869 633.626 162.202 632.426 161.002C631.093 159.936 626.56 153.269 622.293 146.336C618.026 139.402 613.76 133.136 612.826 132.602C611.893 132.069 611.093 130.736 611.093 129.936C611.093 129.002 609.893 127.402 608.426 126.336C605.226 124.069 604.96 122.336 607.76 122.336C608.96 122.336 610.96 124.202 612.16 126.469ZM638.826 142.069C642.293 146.069 646.426 151.269 647.893 153.802C653.093 162.336 675.893 186.469 681.76 189.669C684.16 191.002 694.426 200.469 697.093 203.936C697.893 204.869 702.693 210.736 708.026 217.002C713.226 223.269 718.426 230.602 719.493 233.269C721.493 238.069 721.493 238.336 719.226 238.336C717.893 238.336 715.226 236.336 713.226 233.802C711.36 231.269 698.56 217.802 684.826 203.802C670.96 189.936 656.693 174.736 652.826 170.069C642.96 157.936 624.56 129.936 625.36 128.469C625.893 127.802 627.626 129.002 629.36 131.136C631.093 133.269 635.226 138.202 638.826 142.069ZM870.693 134.069C871.626 134.602 872.693 137.002 873.226 139.136C873.893 142.602 873.36 143.536 870.16 145.669C868.16 147.002 861.36 153.136 855.226 159.402C848.96 165.536 842.16 171.402 840.026 172.602C836.826 174.202 830.426 174.602 804.56 174.469C787.226 174.336 763.226 173.936 751.093 173.536C730.693 173.002 728.96 172.736 726.693 170.069C725.36 168.469 724.426 165.669 724.693 163.802L725.093 160.336L783.626 160.202C835.893 160.069 842.16 159.802 843.226 157.936C844.826 155.269 867.093 133.002 868.293 133.002C868.693 133.002 869.893 133.536 870.693 134.069ZM651.093 143.136C651.093 143.536 650.16 143.269 649.093 142.336C648.026 141.402 647.093 140.069 647.093 139.402C647.093 138.736 648.026 139.002 649.093 140.202C650.16 141.269 651.093 142.602 651.093 143.136ZM273.226 146.336C271.493 148.202 268.56 152.202 266.56 155.269C263.093 160.869 260.426 162.602 260.426 159.269C260.426 158.469 263.493 153.536 267.226 148.469C272.293 141.669 274.293 139.802 275.226 141.136C275.893 142.336 275.226 144.069 273.226 146.336ZM288.16 143.936C286.293 147.136 284.16 149.136 283.36 148.336C283.093 148.069 284.16 146.069 285.893 143.802C289.36 139.136 290.826 139.136 288.16 143.936ZM52.9596 148.336C56.5596 152.336 61.7596 157.136 64.4263 159.002L69.493 162.469L114.56 160.602C172.16 158.069 186.693 157.936 187.626 159.536C188.16 160.336 187.226 163.136 185.76 165.936C184.293 168.736 183.093 171.669 183.093 172.602C183.093 173.402 182.693 174.336 182.026 174.602C181.493 174.736 178.693 182.202 175.893 191.002C173.093 199.802 170.293 208.469 169.626 210.336C165.626 221.669 160.426 248.069 159.226 262.336C155.093 310.069 154.96 315.002 156.426 324.602C157.226 329.936 157.626 334.869 157.093 335.669C156.56 336.469 137.76 337.002 103.36 337.002C74.293 337.002 48.1596 337.536 45.3596 338.202C40.4263 339.402 36.8263 342.602 29.093 352.202C25.2263 357.136 22.293 356.069 21.2263 349.402C18.0263 328.336 17.6263 277.936 20.293 249.002C21.2263 239.136 23.3596 223.669 25.2263 214.602C26.9596 205.536 28.4263 197.136 28.4263 195.936C28.4263 193.936 30.9596 184.869 39.3596 157.669C41.493 150.336 43.6263 143.536 43.893 142.602C44.693 139.802 46.293 140.736 52.9596 148.336ZM256.426 149.802C256.426 150.869 255.76 151.402 255.093 151.002C254.293 150.469 254.026 149.536 254.426 148.869C255.626 147.002 256.426 147.402 256.426 149.802ZM665.893 157.936C669.36 161.536 675.36 167.002 679.36 170.336C687.76 177.402 701.493 191.402 703.226 194.602C703.893 195.936 703.893 197.136 703.226 197.536C701.226 198.869 697.893 196.869 696.96 193.936C696.426 192.336 694.56 189.936 692.56 188.336C687.76 184.602 674.16 172.602 668.026 166.602C663.093 161.936 656.693 151.669 658.56 151.669C659.093 151.669 662.293 154.469 665.893 157.936ZM253.093 154.202C253.493 154.869 253.226 155.802 252.426 156.336C251.76 156.736 251.093 156.202 251.093 155.136C251.093 152.736 251.893 152.336 253.093 154.202ZM881.493 167.669C885.093 179.269 889.093 197.002 891.226 209.936C894.16 228.736 898.16 277.402 898.16 295.002C898.16 307.802 894.826 343.536 892.426 355.669C888.826 373.936 886.693 383.136 885.626 385.269C884.96 386.602 884.426 388.469 884.426 389.536C884.426 394.069 881.093 392.736 873.893 385.402C869.76 381.136 864.56 375.269 862.426 372.336C857.093 365.136 856.826 365.002 848.426 365.936C841.226 366.602 775.36 364.469 752.693 362.869L741.493 361.936L742.293 357.802C745.226 343.002 748.293 303.136 748.293 277.402C748.426 258.736 746.426 241.002 742.56 227.002C741.493 223.269 740.026 216.069 739.093 211.002C738.16 205.802 735.893 197.669 734.16 192.736C732.56 187.802 731.093 182.869 731.093 181.669C731.093 179.936 736.96 179.802 780.16 180.336C807.093 180.736 832.96 181.269 837.626 181.669C844.693 182.202 846.426 181.802 848.293 179.802C853.76 173.402 874.293 156.869 876.16 157.269C877.493 157.536 879.493 161.402 881.493 167.669ZM249.76 159.402C249.76 161.002 246.026 165.802 245.36 165.002C244.293 163.936 246.826 158.336 248.426 158.336C249.093 158.336 249.76 158.869 249.76 159.402ZM243.093 167.936C243.093 168.869 241.226 171.536 239.093 173.936C236.826 176.336 235.093 178.736 235.093 179.269C235.093 179.936 232.96 182.602 230.293 185.136L225.36 189.669L230.293 182.736C232.96 178.869 235.093 175.402 235.093 175.002C235.093 173.536 240.96 166.336 242.026 166.336C242.56 166.336 243.093 167.136 243.093 167.936ZM225.76 191.402C225.76 191.936 222.96 195.136 219.493 198.336L213.226 204.336L218.16 198.469C220.826 195.136 223.093 192.069 223.093 191.402C223.093 190.869 223.76 190.336 224.426 190.336C225.226 190.336 225.76 190.869 225.76 191.402ZM573.093 198.336C591.36 203.802 600.16 207.402 606.826 211.936C610.293 214.336 614.293 216.069 616.026 215.936C618.426 215.802 618.96 216.469 619.36 220.069C619.626 223.136 620.426 224.336 622.16 224.202C624.56 223.936 624.693 225.802 624.826 265.669C624.826 273.669 623.493 292.736 622.426 300.336C622.16 302.469 621.493 308.069 621.093 312.602C620.693 317.136 619.093 324.336 617.626 328.602C616.16 332.869 614.026 340.469 612.96 345.536C611.76 351.536 609.493 356.869 606.693 360.869C604.293 364.202 600.56 371.269 598.56 376.602C596.426 381.802 592.96 388.069 590.826 390.336C588.293 393.269 587.226 395.402 587.76 397.136C588.426 399.269 587.093 400.469 585.226 399.269C584.16 398.602 579.226 405.936 578.56 409.402C578.16 411.402 577.493 414.469 577.093 416.336C575.76 422.602 574.426 421.802 550.293 399.136C544.96 394.069 538.16 388.336 535.226 386.469C532.426 384.602 523.093 378.336 514.56 372.736C506.16 367.002 497.226 361.536 494.96 360.336C491.493 358.469 490.96 357.669 491.76 354.602C492.293 352.602 493.093 350.736 493.76 350.336C497.093 348.336 497.626 341.802 496.16 322.202C494.96 307.669 494.026 301.536 492.56 300.069C491.093 298.469 490.56 294.602 490.56 282.869C490.56 268.069 490.693 267.669 494.16 264.869C496.16 263.402 497.626 261.136 497.493 259.936C496.693 255.536 502.426 258.469 508.96 265.802C513.626 271.002 518.426 274.602 525.893 278.469C536.026 283.536 536.826 283.669 549.893 283.669C562.293 283.669 564.16 283.269 571.76 279.536C576.426 277.269 583.093 272.336 587.226 268.202C593.626 261.669 594.96 261.002 600.026 261.002C609.36 261.002 607.76 257.402 594.16 248.336C572.16 233.802 563.626 230.336 548.293 230.336C534.96 230.336 524.16 234.336 507.093 245.669C504.56 247.402 500.826 249.269 498.826 249.669C495.76 250.469 495.093 250.202 495.093 248.202C495.093 245.802 504.293 237.002 506.693 237.002C507.36 237.002 509.893 235.269 512.426 233.269C520.293 227.002 527.36 223.402 537.093 220.869C553.226 216.602 565.493 217.936 575.76 225.002C578.693 227.002 584.16 230.202 587.76 232.202C591.493 234.069 597.226 237.802 600.826 240.336C606.826 244.869 607.093 244.869 607.093 242.069C607.093 238.336 597.226 229.136 592.16 228.069C590.16 227.669 588.16 226.202 587.626 224.736C587.226 223.269 584.693 221.269 582.16 220.069C579.493 219.002 576.56 217.269 575.493 216.336C574.426 215.269 571.093 213.669 568.026 212.736C564.16 211.669 560.293 208.869 555.493 203.802C551.626 199.669 548.426 196.336 548.426 196.336C548.426 195.536 569.36 197.269 573.093 198.336ZM530.426 199.669C530.96 200.469 529.493 201.002 527.226 201.002C524.96 201.002 523.093 200.336 523.093 199.669C523.093 198.869 524.56 198.336 526.293 198.336C528.16 198.336 530.026 198.869 530.426 199.669ZM709.226 201.936C711.893 205.536 711.36 206.602 708.426 203.669C706.96 202.202 705.76 200.736 705.76 200.336C705.76 198.869 707.493 199.802 709.226 201.936ZM548.426 201.536C548.426 201.802 547.226 202.336 545.76 202.736C544.293 203.136 543.093 202.869 543.093 202.202C543.093 201.536 544.293 201.002 545.76 201.002C547.226 201.002 548.426 201.269 548.426 201.536ZM686.826 215.536C695.093 223.536 701.76 230.736 701.76 231.536C701.76 232.336 703.493 233.802 705.626 234.869C707.626 235.936 710.426 238.869 711.626 241.269C712.96 243.669 715.36 247.669 717.226 250.202C718.96 252.736 720.426 255.536 720.426 256.602C720.426 260.736 715.626 257.136 707.493 247.002C702.826 241.136 695.76 233.002 691.893 229.002C687.893 225.002 684.426 221.002 684.293 220.202C684.026 219.269 680.56 215.269 676.826 211.136C670.16 203.936 668.426 201.002 670.826 201.002C671.493 201.002 678.693 207.536 686.826 215.536ZM384.426 247.136C384.426 247.536 383.76 249.002 383.093 250.469C381.36 253.669 376.96 253.802 375.226 250.602C373.76 247.936 374.693 245.802 377.76 244.736C379.76 244.069 384.426 245.802 384.426 247.136ZM255.893 248.602C254.56 249.936 253.36 247.936 254.56 246.202C255.36 244.736 255.626 244.736 256.16 246.202C256.426 247.136 256.293 248.202 255.893 248.602ZM569.493 248.869C570.16 253.136 566.426 256.069 562.96 254.202C561.493 253.536 560.426 251.802 560.426 250.602C560.426 244.602 568.693 243.136 569.493 248.869ZM339.626 249.936C342.026 254.736 349.226 261.402 354.693 264.202C360.026 266.869 369.76 267.002 375.76 264.336C378.426 263.269 383.76 259.402 387.76 255.536C394.693 249.002 395.36 248.736 398.426 250.336C403.76 253.136 402.693 257.269 394.826 264.336C386.56 271.669 380.16 275.136 371.226 277.136C358.826 279.802 342.96 273.402 332.693 261.669C327.893 256.336 327.36 252.469 330.693 248.736C333.76 245.269 337.36 245.802 339.626 249.936ZM656.56 252.469C657.226 257.402 661.626 273.002 664.693 281.669C666.826 287.669 667.493 293.002 666.293 293.002C664.693 292.869 660.426 283.402 660.426 279.936C660.426 278.469 659.893 276.869 659.36 276.469C658.693 276.069 657.493 272.336 656.56 268.069C655.626 263.802 654.426 258.469 653.626 256.202C651.893 250.469 652.026 246.069 654.16 246.602C654.96 247.002 656.16 249.536 656.56 252.469ZM525.36 257.536C533.093 265.402 543.626 269.802 551.493 268.602C562.16 267.002 569.76 263.802 573.36 259.669C580.96 250.469 581.226 250.469 585.893 254.202C590.026 257.536 588.826 259.536 578.293 267.936C568.826 275.536 560.426 278.336 547.893 278.336C540.293 278.336 536.826 277.536 530.426 274.469C516.426 267.802 506.16 255.802 510.693 251.269C513.36 248.469 518.826 250.736 525.36 257.536ZM668.426 258.869C668.426 259.536 669.226 261.136 670.293 262.202C671.36 263.402 672.96 267.402 673.893 271.002C674.826 274.736 676.56 280.069 677.76 283.002C679.093 285.936 680.56 289.802 680.96 291.669C681.493 293.536 682.426 296.202 683.093 297.669C688.96 311.669 696.426 335.536 696.426 340.336C696.426 341.402 696.96 342.336 697.626 342.336C698.293 342.336 699.36 344.336 699.76 346.602C700.293 349.002 701.893 353.402 703.226 356.202C704.693 359.136 705.76 362.869 705.76 364.736C705.76 366.469 706.293 368.869 706.96 370.202C707.626 371.402 707.76 373.269 707.226 374.069C705.76 376.469 701.093 366.736 692.693 344.336C690.426 338.469 688.293 332.202 687.76 330.336C687.226 328.469 686.026 325.136 684.96 323.002C682.693 317.936 679.36 308.469 677.626 302.336C672.426 284.602 669.226 274.069 666.96 268.336C665.626 264.602 664.426 259.536 664.426 257.002C664.56 252.602 664.56 252.469 666.426 254.869C667.493 256.336 668.426 258.069 668.426 258.869ZM250.56 262.469C248.693 266.736 248.56 266.736 248.426 263.536C248.426 261.669 249.093 259.536 250.026 258.602C252.426 256.202 252.693 257.536 250.56 262.469ZM237.76 269.002C237.76 269.669 236.56 273.802 235.226 277.936C233.893 282.202 231.626 290.202 230.426 295.536C229.093 301.002 227.626 306.469 227.093 307.536C225.36 311.269 221.493 322.869 220.426 327.669C219.893 330.202 218.826 333.802 218.026 335.669C216.56 339.002 216.56 339.002 216.56 334.736C216.426 332.469 216.96 330.202 217.626 329.802C218.293 329.402 219.226 325.136 219.76 320.469C220.56 312.869 224.96 297.002 228.293 289.669C228.96 288.202 229.893 284.202 230.426 280.736C230.826 277.402 232.16 273.802 233.093 273.002C234.16 272.069 235.093 270.469 235.093 269.536C235.093 268.469 235.76 267.669 236.426 267.669C237.226 267.669 237.76 268.202 237.76 269.002ZM247.226 274.602C246.16 276.202 244.96 279.136 244.293 281.002L243.36 284.336L243.226 281.136C243.093 276.069 246.026 268.736 247.626 270.336C248.56 271.269 248.426 272.602 247.226 274.602ZM686.426 282.336C688.96 285.402 693.76 299.936 693.626 304.469C693.493 308.336 693.493 308.336 690.96 303.002C689.626 300.069 688.426 295.669 688.426 293.269C688.426 291.002 687.893 289.002 687.226 289.002C685.76 289.002 683.093 281.536 683.226 277.802C683.36 275.136 683.493 275.136 684.026 277.669C684.426 279.136 685.493 281.269 686.426 282.336ZM676.426 321.136C676.426 321.936 675.893 322.069 675.093 321.669C674.426 321.269 673.76 320.202 673.76 319.536C673.76 318.736 674.426 318.602 675.093 319.002C675.893 319.402 676.426 320.469 676.426 321.136ZM265.893 328.869C267.76 329.136 271.093 339.002 271.093 344.069C271.093 347.269 271.76 350.469 272.56 351.269C273.36 352.069 273.626 353.536 273.093 354.336C271.76 356.469 258.693 355.402 255.893 353.136C252.96 350.736 253.226 342.602 256.426 335.402C259.493 328.336 260.026 327.802 262.826 328.336C264.026 328.602 265.493 328.869 265.893 328.869ZM489.226 332.336C492.16 336.869 490.96 344.736 486.826 347.936C485.093 349.269 483.226 350.069 482.426 349.802C481.093 349.402 481.36 332.202 482.693 329.936C483.893 327.936 487.093 329.136 489.226 332.336ZM434.426 331.936C436.293 332.736 437.76 334.469 437.76 335.669C437.76 337.002 438.16 340.736 438.56 344.202C439.493 350.336 439.493 350.336 435.493 350.336C429.893 350.336 426.426 346.069 426.56 339.536C426.693 336.736 427.493 333.402 428.426 332.336C430.426 329.936 430.16 329.936 434.426 331.936ZM659.626 350.336C661.76 357.669 661.493 358.736 655.893 360.736C648.293 363.536 648.026 363.269 649.093 352.602C649.626 347.402 650.693 341.802 651.36 340.469C652.693 338.069 652.826 338.069 655.226 341.136C656.693 342.869 658.56 347.002 659.626 350.336ZM153.493 346.336C159.626 346.336 160.693 346.736 162.026 349.536C162.826 351.402 163.093 353.802 162.56 355.136C161.76 357.136 157.36 357.269 105.36 356.869L49.093 356.336L38.9596 366.869C32.8263 373.402 28.293 377.002 27.3596 376.469C24.293 374.602 25.7596 371.136 32.1596 365.002C35.6263 361.536 40.9596 355.936 44.0263 352.602L49.6263 346.336L80.0263 346.202C96.693 346.069 116.693 345.669 124.426 345.136C132.16 344.736 140.16 344.736 142.426 345.269C144.56 345.936 149.626 346.336 153.493 346.336ZM213.893 349.402C212.826 350.469 212.426 350.336 212.426 348.869C212.426 346.202 214.16 344.336 214.826 346.336C215.226 347.269 214.693 348.602 213.893 349.402ZM708.426 348.336C708.426 349.402 707.893 350.336 707.093 350.336C706.426 350.336 706.16 349.402 706.56 348.336C707.093 347.269 707.626 346.336 707.893 346.336C708.16 346.336 708.426 347.269 708.426 348.336ZM696.56 372.202C701.76 387.536 701.893 402.336 696.826 387.936C694.693 381.936 689.76 362.469 689.76 359.669C689.76 355.536 692.826 361.136 696.56 372.202ZM165.36 367.136C167.493 367.536 168.826 369.402 170.293 374.069C173.493 384.336 181.893 406.869 183.093 408.336C184.16 409.802 192.96 425.936 199.626 439.002C201.893 443.402 204.826 448.069 206.16 449.536C207.36 451.002 208.426 453.269 208.426 454.602C208.426 455.936 208.96 457.002 209.626 457.002C211.36 457.002 217.76 467.269 217.76 470.202C217.76 471.669 218.293 473.002 218.96 473.269C219.626 473.402 220.56 476.336 220.96 479.669C221.226 483.002 221.626 485.936 221.626 486.202C221.76 486.469 222.56 485.936 223.493 485.136C224.56 484.336 225.76 484.069 226.16 484.602C227.626 485.936 227.226 495.669 225.893 495.669C224.293 495.669 222.693 490.736 223.76 489.002C224.16 488.336 224.026 487.669 223.36 487.669C221.626 487.669 220.56 492.736 221.226 498.069C221.76 503.002 219.093 505.136 215.76 502.336C214.16 501.002 214.026 500.336 215.626 498.069C219.093 493.269 215.36 487.936 211.36 491.936C210.16 493.136 208.826 492.869 205.76 490.602C203.626 489.002 201.226 487.669 200.56 487.669C199.893 487.669 199.093 486.336 198.826 484.736C198.293 481.136 193.76 479.669 193.76 483.002C193.76 485.536 196.826 489.002 198.96 489.002C199.76 489.002 200.426 490.469 200.426 492.469C200.426 495.002 201.493 496.202 205.093 497.802C209.093 499.402 209.76 500.336 209.493 503.402C209.226 505.802 209.76 507.002 211.093 507.136C215.76 507.536 216.426 507.802 216.426 509.536C216.426 510.602 215.093 511.669 213.493 511.936C210.693 512.336 210.693 512.469 212.96 514.736C216.426 518.069 219.493 517.002 221.093 511.936C222.426 507.269 226.16 506.069 227.626 509.802C228.693 512.469 227.36 517.002 225.76 517.002C223.226 517.002 221.626 522.202 223.093 525.136C224.026 526.602 224.96 529.402 225.226 531.269C225.626 533.269 227.093 536.202 228.426 538.069C231.893 542.336 231.76 543.669 227.893 543.669C226.16 543.669 223.893 542.336 222.693 540.602C218.16 534.069 211.626 528.069 209.76 528.736C208.693 529.002 206.426 530.602 204.826 532.069C202.16 534.469 201.76 534.469 200.96 532.469C199.893 529.802 195.626 529.669 194.56 532.336C192.693 537.269 187.226 532.736 186.96 526.069C186.96 524.336 185.893 521.136 184.56 519.002C182.293 515.269 181.76 515.002 172.693 514.602C167.36 514.336 163.093 513.802 163.093 513.136C163.093 511.269 170.56 505.002 172.693 505.002C174.026 505.002 175.093 506.336 175.36 507.936C175.626 509.669 176.826 511.136 178.16 511.402C179.893 511.802 180.426 510.869 180.426 507.402C180.426 503.802 179.626 502.469 176.56 500.602C171.36 497.536 164.96 497.669 162.16 501.002C159.36 504.202 157.893 504.336 153.76 501.402C149.893 498.736 144.826 497.936 143.626 499.936C142.96 500.869 143.493 501.136 144.826 500.602C146.293 500.069 147.093 500.469 147.093 501.802C147.093 502.869 147.626 503.536 148.293 503.002C149.093 502.602 150.293 503.536 151.093 505.002C152.426 507.536 152.16 507.669 145.626 507.669H138.826L139.36 503.669C139.893 500.202 139.626 499.669 136.826 499.669C134.96 499.669 132.426 500.336 130.96 501.136C128.826 502.202 128.56 502.869 129.893 504.469C130.693 505.536 132.16 506.336 133.093 506.336C134.026 506.336 135.226 507.269 135.626 508.469C136.026 509.536 135.893 510.202 135.36 509.802C134.693 509.402 133.226 510.336 132.026 511.669C127.76 516.736 119.093 516.869 119.093 511.802C119.093 510.469 118.16 509.002 117.093 508.469C115.626 507.936 115.093 508.602 115.093 511.002C115.093 515.136 111.626 515.536 110.426 511.536C109.76 509.402 108.826 509.002 105.76 509.669C103.36 510.202 100.426 509.669 97.893 508.469C94.9596 506.869 92.9596 506.736 90.5596 507.669C87.3596 508.869 87.093 508.602 87.093 505.136C87.093 503.136 85.893 500.336 84.4263 499.002C82.9596 497.669 81.7596 495.802 81.7596 494.736C81.7596 492.869 80.1596 492.469 78.693 493.802C78.293 494.336 79.7596 497.669 81.893 501.536C84.1596 505.269 86.5596 509.936 87.2263 511.802C88.293 514.602 89.2263 515.136 91.7596 514.602C93.6263 514.336 95.093 513.536 95.093 513.002C95.093 511.402 98.9596 510.336 99.7596 511.669C100.16 512.202 99.3596 513.802 98.1596 515.002C96.0263 517.269 96.0263 517.536 98.5596 519.536C100.56 521.136 101.093 522.469 100.293 524.336C99.6263 526.202 99.2263 526.336 99.093 525.002C98.9596 523.669 98.5596 523.802 97.893 525.669C96.9596 527.936 96.8263 527.936 95.893 524.602C95.493 522.602 94.1596 521.002 93.093 521.002C92.0263 521.002 91.093 520.336 91.093 519.669C91.093 518.869 90.0263 518.336 88.5596 518.336C86.1596 518.336 76.4263 504.736 74.4263 498.469C73.893 496.869 72.1596 494.069 70.293 492.336C68.5596 490.602 67.093 488.069 67.093 486.602C67.093 485.269 66.5596 483.669 65.893 483.002C65.093 482.202 62.4263 477.136 59.6263 471.669C56.9596 466.202 52.5596 457.802 49.7596 453.002C46.9596 448.202 43.893 441.002 43.093 437.002C42.1596 433.002 40.293 427.536 38.9596 425.002C37.6263 422.469 36.1596 418.202 35.7596 415.669C35.3596 413.136 34.0263 408.469 32.9596 405.269C29.7596 395.802 30.4263 393.269 38.1596 385.136C53.7596 368.602 55.3596 367.536 66.0263 366.336C75.6263 365.269 159.626 365.936 165.36 367.136ZM851.36 375.802C855.093 376.736 857.626 378.736 861.093 383.402C863.626 386.869 869.093 393.136 873.226 397.269C881.36 405.536 881.493 405.802 876.96 419.402C875.893 422.469 875.093 425.936 875.093 426.869C875.093 427.802 873.76 430.602 872.026 433.136C870.426 435.669 868.16 440.336 867.226 443.669C866.293 447.002 863.893 452.602 862.026 456.336C860.16 459.936 857.36 465.936 855.76 469.669C852.693 477.002 836.026 506.869 828.56 518.336C815.093 539.269 786.293 574.469 772.96 586.602C767.493 591.536 762.693 596.069 748.96 609.002C746.293 611.536 746.293 611.536 742.026 607.936C738.96 605.269 738.16 603.802 739.093 602.336C741.76 598.202 740.693 596.869 736.426 599.002C734.16 600.202 731.76 600.736 731.093 600.336C729.36 599.269 729.36 593.402 731.226 592.736C732.826 592.202 731.36 587.669 729.493 587.669C728.826 587.669 727.893 588.869 727.493 590.336C726.426 594.202 724.56 593.536 724.693 589.269C724.826 583.536 722.96 574.202 720.426 568.336C714.693 554.869 709.76 545.269 707.893 543.802C706.693 542.736 705.76 541.269 705.76 540.469C705.76 539.536 702.426 536.869 698.426 534.469C692.293 530.736 691.093 529.402 691.093 526.202C691.093 524.069 691.626 522.336 692.293 522.336C692.826 522.336 694.026 519.536 694.826 515.936C697.893 502.736 700.826 490.869 701.76 488.336C702.293 486.869 703.626 482.602 704.826 479.002C705.893 475.269 708.826 467.536 711.093 461.669C713.36 455.802 716.693 445.536 718.426 439.002C721.226 427.802 726.026 413.269 732.293 397.536C733.76 393.802 735.36 387.402 735.893 383.536C736.426 379.536 737.36 375.669 737.893 374.869C739.36 373.002 843.893 373.936 851.36 375.802ZM710.693 391.936C710.426 393.669 710.16 392.602 710.16 389.669C710.026 386.736 710.293 385.402 710.693 386.602C710.96 387.936 710.96 390.336 710.693 391.936ZM703.093 402.336C703.093 404.469 702.56 406.469 701.893 407.002C700.16 407.936 698.693 403.002 699.76 399.669C700.96 395.936 703.093 397.669 703.093 402.336ZM668.026 403.936C667.626 404.869 667.36 404.202 667.36 402.336C667.36 400.469 667.626 399.802 668.026 400.602C668.293 401.536 668.293 403.136 668.026 403.936ZM483.093 414.736C483.093 420.336 470.56 425.802 461.493 424.336C450.56 422.469 445.226 419.002 446.826 414.602C447.626 412.202 483.093 412.336 483.093 414.736ZM516.426 421.002C522.56 424.202 531.093 432.202 531.093 435.002C531.093 436.469 530.026 436.736 526.96 436.069L522.826 435.269L524.96 438.602C527.36 442.336 526.56 444.202 523.226 442.069C521.626 441.136 518.693 441.269 513.093 442.469C502.693 444.736 503.093 444.736 500.96 441.669C499.493 439.402 499.626 438.202 501.36 434.336C503.893 429.002 504.026 428.336 504.293 425.669C504.426 423.802 508.96 418.336 510.426 418.336C510.826 418.336 513.493 419.536 516.426 421.002ZM666.293 426.336C666.026 428.202 665.226 435.669 664.426 443.002C661.226 472.602 660.026 481.936 658.693 487.002C658.026 489.936 657.226 495.269 656.96 499.002C656.56 507.936 654.56 520.736 653.36 521.802C651.893 523.269 652.293 503.802 653.76 501.002C654.56 499.669 655.36 492.869 655.626 486.069C655.893 479.269 656.56 472.736 656.96 471.536C657.493 470.336 658.693 461.136 659.626 450.869C660.693 440.736 661.893 430.869 662.426 429.002C662.96 427.136 663.626 423.936 664.16 421.669C664.693 418.202 664.96 418.069 665.76 420.336C666.293 421.802 666.56 424.469 666.293 426.336ZM266.826 441.269C268.826 465.936 268.826 473.936 267.226 472.202C265.493 470.469 263.493 455.536 263.226 441.802C263.093 435.269 262.56 429.269 262.293 428.736C261.226 427.136 262.826 421.002 264.16 421.002C264.826 421.002 266.026 430.202 266.826 441.269ZM431.76 431.269L441.093 439.936L437.093 443.269C434.826 445.136 431.36 447.669 429.226 449.002C425.36 451.402 425.36 451.402 421.093 448.202C418.693 446.469 416.426 445.002 415.76 445.002C414.426 445.002 409.76 450.336 409.76 451.936C409.76 452.469 409.226 453.002 408.426 453.002C407.76 453.002 407.493 451.269 408.026 449.002C408.56 445.802 408.026 444.202 405.76 441.802C403.493 439.269 403.093 438.069 404.16 436.069C406.426 431.802 417.493 422.336 420.026 422.336C421.36 422.469 426.56 426.336 431.76 431.269ZM252.026 431.936C251.76 433.669 251.493 432.336 251.493 429.002C251.493 425.669 251.76 424.336 252.026 425.936C252.293 427.669 252.293 430.336 252.026 431.936ZM529.76 446.336C529.76 447.002 529.493 447.669 529.226 447.669C528.826 447.669 528.16 447.002 527.76 446.336C527.36 445.536 527.626 445.002 528.293 445.002C529.093 445.002 529.76 445.536 529.76 446.336ZM476.56 455.002C486.826 458.602 488.426 459.669 486.96 462.602C486.026 464.469 486.16 466.736 487.626 470.736C488.693 473.802 490.026 478.069 490.56 480.336C490.96 482.469 491.76 483.536 492.026 482.602C492.96 480.069 494.826 480.736 495.893 483.936C496.293 485.669 497.493 487.936 498.426 489.002C500.026 490.869 500.96 495.269 500.56 499.269C500.426 500.202 499.493 501.002 498.426 501.002C497.226 501.002 496.426 502.202 496.426 503.936C496.293 508.202 493.093 513.802 491.893 511.802C490.293 509.269 484.826 510.202 482.693 513.269L480.56 516.336V512.602C480.426 508.602 477.76 507.536 477.76 511.536C477.76 515.802 475.093 516.202 474.826 512.069C474.56 505.269 475.093 503.002 478.16 500.736C480.96 498.602 481.226 498.602 482.826 501.802C485.226 506.469 487.493 505.802 486.56 500.602C482.826 479.136 480.426 473.536 480.426 486.202C480.426 492.736 478.426 496.202 475.093 495.402C474.16 495.136 472.56 497.536 471.493 500.602C470.16 504.602 468.826 506.336 467.093 506.336C465.76 506.336 464.426 507.402 464.16 508.602C463.893 510.336 462.826 509.269 461.093 505.402C458.026 499.002 455.093 497.936 455.093 503.269C455.093 507.136 453.093 506.202 452.026 501.669C451.626 499.936 451.36 500.336 451.226 503.136C451.226 505.402 450.293 508.069 449.226 508.869C447.76 510.069 447.36 509.136 446.56 504.202C446.16 500.736 445.76 495.802 445.76 493.136C445.626 489.269 445.36 488.736 444.293 490.602C443.626 491.936 442.16 493.002 441.226 493.002C440.16 493.002 439.093 494.602 438.693 496.602C437.76 501.136 434.293 506.069 433.093 504.736C430.16 501.802 435.093 478.602 439.626 473.002C441.893 470.336 445.226 461.936 444.693 460.336C444.426 459.536 444.56 459.402 445.093 459.802C445.493 460.336 447.493 459.269 449.226 457.669C454.56 452.736 466.693 451.536 476.56 455.002ZM650.693 467.936C650.293 468.869 650.026 468.202 650.026 466.336C650.026 464.469 650.293 463.802 650.693 464.602C650.96 465.536 650.96 467.136 650.693 467.936ZM648.026 480.602C647.626 481.936 647.36 481.136 647.36 479.002C647.36 476.736 647.626 475.802 648.026 476.602C648.293 477.536 648.293 479.402 648.026 480.602ZM615.093 495.269C615.093 499.536 614.56 509.936 613.893 518.336C613.226 526.736 612.16 542.602 611.76 553.669C611.226 564.602 610.56 574.069 610.293 574.469C610.026 575.002 609.226 603.136 608.426 637.136C607.493 684.202 606.693 699.136 605.493 699.936C604.56 700.602 596.56 700.736 587.76 700.336C578.96 699.936 552.426 700.069 528.826 700.602C493.226 701.536 485.493 702.069 483.893 703.669C482.693 704.869 481.493 709.536 480.96 715.402C480.16 723.936 479.626 725.136 477.093 725.802C473.226 726.736 434.426 725.402 422.426 723.802C417.36 723.136 409.76 721.402 405.76 719.936C401.76 718.469 393.626 716.869 387.76 716.336C377.36 715.536 369.093 714.602 350.693 711.802C342.16 710.469 333.76 707.002 333.76 704.736C333.76 703.269 338.96 700.202 346.426 697.669C352.96 695.269 371.093 682.869 371.093 680.736C371.093 680.069 373.76 678.469 376.96 677.002C382.56 674.736 393.76 664.736 393.76 662.202C393.76 661.669 397.76 657.802 402.826 653.536C407.76 649.402 412.426 644.869 413.093 643.536C415.093 639.936 439.093 618.602 443.226 616.736C445.093 615.936 447.626 613.669 448.693 611.669C449.893 609.669 457.226 603.669 465.093 598.202C473.76 592.336 480.56 586.736 482.16 584.069C483.493 581.669 485.226 579.669 486.026 579.669C488.426 579.669 495.093 585.136 495.093 587.136C495.093 588.202 496.293 589.002 497.893 589.002C501.493 589.002 514.16 583.669 515.493 581.536C516.026 580.602 520.426 577.002 525.493 573.536C530.426 569.936 536.826 564.869 539.76 562.202C542.693 559.536 546.026 556.869 547.226 556.202C552.96 553.136 587.893 520.069 591.36 514.469C592.826 512.069 597.36 506.336 601.36 501.802C605.36 497.402 609.226 492.336 609.893 490.602C610.426 489.002 611.893 487.669 613.093 487.669C614.693 487.669 615.093 489.402 615.093 495.269ZM234.693 510.602C234.293 511.669 233.893 511.269 233.893 509.802C233.76 508.336 234.16 507.536 234.56 508.069C234.96 508.469 235.093 509.669 234.693 510.602ZM111.093 518.469C112.026 520.202 113.36 520.869 114.693 520.469C117.493 519.269 121.76 520.736 121.76 522.869C121.76 523.802 120.293 525.269 118.426 526.069C116.426 527.002 115.093 527.136 115.093 526.336C115.093 525.536 114.293 525.002 113.36 525.002C111.493 525.002 104.426 518.336 104.426 516.602C104.426 514.469 109.76 515.936 111.093 518.469ZM653.36 531.269C652.96 532.602 652.693 531.802 652.693 529.669C652.693 527.402 652.96 526.469 653.36 527.269C653.626 528.202 653.626 530.069 653.36 531.269ZM220.426 546.736C220.426 547.002 219.226 547.136 217.76 547.136C216.293 547.136 215.093 546.336 215.093 545.402C215.093 543.936 215.76 543.936 217.76 545.002C219.226 545.802 220.426 546.602 220.426 546.736ZM643.093 546.869C643.093 547.269 642.56 547.936 641.76 548.336C641.093 548.736 640.426 548.469 640.426 547.802C640.426 547.002 641.093 546.336 641.76 546.336C642.56 546.336 643.093 546.602 643.093 546.869ZM221.093 551.536C220.693 552.336 219.626 553.002 218.96 553.002C218.293 553.002 218.426 552.202 219.36 551.136C221.226 549.002 222.56 549.402 221.093 551.536ZM258.693 585.269C258.293 586.336 257.893 585.936 257.893 584.469C257.76 583.002 258.16 582.202 258.56 582.736C258.96 583.136 259.093 584.336 258.693 585.269ZM254.426 586.336C254.826 587.002 254.293 587.669 253.093 587.669C251.893 587.669 251.36 587.002 251.76 586.336C252.16 585.536 252.826 585.002 253.093 585.002C253.36 585.002 254.026 585.536 254.426 586.336ZM877.626 712.469C881.226 717.002 881.226 720.602 877.626 721.669C875.093 722.469 875.093 722.736 877.226 724.336C879.493 725.936 879.36 726.069 876.693 727.536C872.693 729.669 844.426 729.402 841.493 727.136C840.16 726.202 839.093 725.136 839.093 724.869C839.093 724.469 843.76 724.469 849.493 724.602C861.76 725.002 873.76 723.802 873.76 722.202C873.76 721.536 865.093 721.136 854.56 721.269C835.893 721.536 831.093 720.602 831.093 716.869C831.093 714.869 836.826 714.069 839.893 715.802C842.293 717.002 843.893 717.002 846.16 716.069C847.893 715.269 853.493 714.736 858.56 714.869C863.626 715.002 869.626 714.736 871.76 714.202C874.693 713.536 873.226 713.136 865.76 712.869C846.693 712.202 844.426 711.802 851.093 710.336C853.626 709.802 860.026 709.269 865.36 709.136C874.16 709.002 875.093 709.269 877.626 712.469ZM515.093 711.669C515.093 712.336 513.493 713.802 511.493 714.869C508.293 716.469 507.36 716.469 504.026 714.869C502.026 713.802 500.693 712.336 501.093 711.669C502.16 709.936 515.093 709.936 515.093 711.669ZM529.093 711.669C528.026 713.402 523.093 713.402 520.426 711.669C518.96 710.736 520.026 710.336 524.16 710.336C527.626 710.336 529.626 710.869 529.093 711.669ZM690.693 711.136C689.76 712.069 676.426 712.069 675.36 711.136C674.96 710.736 678.426 710.336 683.093 710.336C687.76 710.336 691.226 710.736 690.693 711.136ZM725.76 712.469C725.76 713.669 726.96 714.869 728.426 715.269C733.76 716.602 730.96 717.936 720.826 718.869C705.093 720.202 693.093 719.802 691.36 718.069C690.293 717.002 689.76 717.002 689.76 717.936C689.76 719.802 633.093 718.869 629.493 716.869C625.893 715.002 626.56 713.402 631.36 712.469C634.293 711.936 636.16 712.202 637.093 713.269C638.16 714.602 647.76 715.002 679.76 714.869C726.693 714.736 725.36 714.736 723.76 713.136C722.96 712.336 718.56 711.536 713.76 711.269L705.093 710.869L715.493 710.602C724.16 710.336 725.76 710.736 725.76 712.469ZM807.093 713.002C807.093 713.669 806.56 714.336 805.76 714.336C805.093 714.336 804.426 713.669 804.426 713.002C804.426 712.202 805.093 711.669 805.76 711.669C806.56 711.669 807.093 712.202 807.093 713.002ZM830.693 713.802C830.293 714.202 829.093 714.336 828.16 713.936C827.093 713.536 827.493 713.136 828.96 713.136C830.426 713.002 831.226 713.402 830.693 713.802ZM536.693 717.269C535.493 718.469 534.693 718.469 533.493 717.269C532.293 716.069 532.56 715.669 535.093 715.669C537.626 715.669 537.893 716.069 536.693 717.269ZM812.426 717.002C812.426 717.669 812.16 718.336 811.893 718.336C811.493 718.336 810.826 717.669 810.426 717.002C810.026 716.202 810.293 715.669 810.96 715.669C811.76 715.669 812.426 716.202 812.426 717.002ZM352.16 724.469C361.226 726.202 368.96 727.669 369.226 727.669C369.493 727.669 369.76 728.202 369.76 729.002C369.76 729.669 368.293 730.336 366.56 730.336C364.693 730.336 362.56 731.669 361.226 733.669C360.026 735.536 357.76 737.002 356.026 737.136C354.426 737.136 353.893 737.536 354.826 737.936C358.16 739.269 356.293 741.002 351.093 741.002C347.76 741.002 344.16 742.202 340.96 744.336C338.16 746.202 333.76 748.069 330.96 748.469C328.16 749.002 325.626 750.069 325.226 751.136C324.293 753.536 316.293 757.402 314.96 756.069C314.293 755.402 313.626 747.536 313.493 738.602C313.226 725.269 313.493 722.069 315.093 720.869C317.76 719.136 331.893 720.469 352.16 724.469ZM545.893 725.136C550.826 727.669 548.293 728.336 534.426 728.069C512.693 727.802 512.56 724.469 534.293 723.936C539.226 723.802 544.56 724.336 545.893 725.136ZM687.36 726.469C688.693 727.269 689.76 727.136 690.026 726.069C690.426 725.002 697.093 724.602 712.56 724.736C739.76 724.869 738.026 724.736 737.493 726.469C737.093 727.536 723.226 728.202 690.026 728.736C651.493 729.269 642.693 729.002 640.826 727.536C638.96 725.936 639.493 725.536 645.893 725.002C655.626 723.936 684.56 725.136 687.36 726.469ZM625.093 726.336C625.493 727.002 625.226 727.669 624.56 727.669C623.76 727.669 623.093 727.002 623.093 726.336C623.093 725.536 623.36 725.002 623.626 725.002C624.026 725.002 624.693 725.536 625.093 726.336ZM825.093 726.469C826.693 729.002 824.426 729.536 822.16 727.269C820.026 725.136 820.026 725.002 822.026 725.002C823.226 725.002 824.693 725.669 825.093 726.469ZM402.16 730.469C405.226 734.336 404.96 739.269 401.493 742.469C399.76 743.936 394.426 749.002 389.493 753.669C384.693 758.336 378.693 763.136 376.16 764.336C373.76 765.669 370.56 767.802 369.093 769.136C367.626 770.602 363.76 773.536 360.426 775.669C349.893 782.469 316.426 812.736 316.426 815.536C316.426 816.069 314.293 818.069 311.76 819.802C309.226 821.536 306.826 824.469 306.426 826.336C304.693 833.936 291.36 843.002 285.36 840.602C281.093 839.002 286.426 825.936 295.76 815.002C298.826 811.269 302.56 806.336 304.026 803.936C305.626 801.402 308.026 798.602 309.626 797.536C311.093 796.469 312.426 795.002 312.426 794.202C312.426 790.869 335.493 771.269 359.093 754.469C363.226 751.669 367.36 748.336 368.293 747.136C369.226 745.936 370.826 745.002 371.76 745.002C373.76 745.002 381.36 736.602 383.36 732.202C386.16 726.069 397.493 725.002 402.16 730.469ZM459.093 736.869C463.893 737.536 469.626 738.602 471.76 739.269C475.493 740.469 475.626 740.602 472.826 741.536C470.56 742.336 469.893 743.802 469.226 750.069C468.826 754.202 468.426 759.136 468.426 761.002C468.426 762.869 467.76 768.336 467.093 773.269C466.16 779.002 466.293 787.802 467.093 798.602C468.693 818.336 469.093 859.002 467.76 863.669C466.426 867.936 465.76 934.202 467.093 937.536C467.493 938.869 467.226 944.202 466.16 949.269C464.56 957.802 464.693 958.736 467.093 963.402C470.026 968.736 470.426 971.802 468.56 973.802C466.16 976.202 466.826 1044.34 469.36 1062.34C470.293 1068.2 470.026 1114.47 469.093 1126.34C468.56 1133.54 466.026 1135.67 461.226 1133C458.293 1131.54 457.493 1131.54 455.493 1133.27C454.16 1134.47 450.56 1135.4 447.493 1135.4C442.96 1135.54 441.226 1134.87 439.093 1132.07C437.626 1130.07 436.56 1127.8 436.826 1127C437.226 1126.2 436.96 1120.2 436.293 1113.67C435.76 1107 435.093 1092.34 435.093 1081C434.96 1061.4 431.226 975.269 428.426 925.002C427.76 912.202 426.16 879.269 424.826 852.069C423.626 824.736 422.426 802.602 422.16 802.869C421.893 803.002 421.36 815.802 420.96 831.136C419.893 866.869 419.893 867.269 418.693 868.469C418.16 869.002 416.56 868.202 415.226 866.736C410.56 861.802 402.693 857.802 398.426 858.069C396.293 858.336 393.36 857.669 391.893 856.602C389.893 855.136 389.626 854.336 390.96 851.936C393.493 847.269 392.693 846.469 384.426 844.869C379.493 843.936 375.093 842.069 373.093 840.202C371.226 838.469 368.026 836.736 366.026 836.202C364.026 835.802 361.76 835.269 360.96 835.002C358.96 834.469 357.36 819.536 358.826 815.536C359.493 813.802 359.76 811.669 359.493 810.869C359.226 810.069 359.626 807.802 360.293 805.936C361.893 801.669 365.093 801.002 363.76 805.136C363.093 807.002 363.76 808.869 365.893 811.136C368.826 814.336 368.96 814.602 366.826 818.736C360.826 830.602 365.626 830.202 377.36 817.669C381.893 812.869 386.16 809.002 386.826 809.002C387.626 809.002 388.426 808.069 388.96 807.002C389.36 805.669 388.56 804.736 386.293 804.202C383.76 803.536 383.093 802.602 383.493 800.869C384.026 799.002 383.093 797.669 380.293 796.336C375.093 793.536 375.36 791.002 381.893 785.269C384.96 782.602 390.56 777.136 394.293 773.269C400.293 766.869 401.226 766.469 402.693 768.469C403.626 769.669 404.026 771.269 403.626 771.802C403.226 772.469 403.626 773.002 404.293 773.002C406.426 773.002 406.026 779.269 403.893 780.069C402.96 780.469 401.76 782.736 401.226 785.269C400.693 787.669 399.893 789.002 399.36 788.336C398.56 787.136 396.16 786.869 391.093 787.536C388.026 787.936 389.893 791.669 393.093 791.669C395.093 791.669 396.426 792.469 396.426 793.536C396.426 795.936 392.826 797.269 389.36 796.202C386.826 795.402 386.693 795.536 388.693 797.536C389.893 798.602 391.093 800.336 391.493 801.269C392.426 803.936 398.826 797.269 401.76 790.736C403.093 787.536 404.96 785.002 405.626 785.002C406.426 785.002 407.093 783.802 407.093 782.469C407.093 781.002 407.76 779.402 408.426 779.002C411.226 777.269 414.026 770.069 412.56 768.602C411.493 767.536 410.693 767.536 409.493 768.736C406.826 771.402 405.76 770.602 405.76 765.802C405.76 760.869 410.693 751.802 413.493 751.669C415.36 751.669 415.626 757.802 413.76 759.002C411.626 760.336 412.293 764.736 414.826 766.602C416.693 767.936 417.76 771.669 419.093 781.002C422.026 801.936 422.826 801.402 422.96 778.736C423.093 764.736 422.56 756.869 421.626 756.336C420.693 755.669 420.56 753.402 421.226 749.802C421.76 746.869 422.026 742.736 421.893 740.602C421.76 737.936 422.56 736.602 424.693 735.669C427.76 734.336 442.826 734.869 459.093 736.869ZM511.893 738.469C512.293 739.269 512.026 740.602 511.226 741.402C510.026 742.602 509.36 742.469 508.426 741.002C507.76 739.936 507.093 738.602 507.093 737.936C507.093 736.469 510.826 736.869 511.893 738.469ZM495.093 741.536C495.093 741.936 494.56 742.602 493.76 743.002C493.093 743.402 492.426 743.136 492.426 742.469C492.426 741.669 493.093 741.002 493.76 741.002C494.56 741.002 495.093 741.269 495.093 741.536ZM880.16 743.936C882.426 746.202 882.293 768.202 879.893 770.202C878.96 771.002 874.96 771.402 870.293 771.136C866.026 770.869 859.093 770.602 855.093 770.469C845.36 770.336 844.16 768.469 845.36 755.002L846.16 745.002L852.96 744.869C856.693 744.736 861.226 744.202 863.093 743.669C868.293 742.069 878.426 742.202 880.16 743.936ZM515.093 759.002V771.002L512.426 767.669C509.493 763.936 509.093 762.336 511.093 762.336C511.893 762.336 512.426 760.869 512.426 759.002C512.426 757.136 511.893 755.669 511.093 755.669C510.426 755.669 509.76 756.869 509.76 758.336C509.76 759.802 509.226 761.002 508.56 761.002C506.693 761.002 505.36 756.069 506.693 754.069C507.226 753.136 507.493 751.269 507.36 749.936C506.693 745.936 509.493 743.536 512.56 745.402C514.693 746.736 515.093 748.602 515.093 759.002ZM566.293 746.202C567.76 747.936 568.826 751.936 569.36 758.069C570.293 769.802 570.026 769.936 550.826 770.202L536.426 770.336V759.536C536.426 744.069 536.56 743.936 551.493 743.802C562.16 743.669 564.426 744.069 566.293 746.202ZM504.426 748.602C504.426 749.269 503.893 750.469 503.226 751.402C502.293 752.869 502.026 752.869 501.36 751.269C500.96 750.202 500.96 748.869 501.36 748.469C502.56 747.402 504.426 747.536 504.426 748.602ZM751.76 753.936C754.293 757.536 756.426 761.536 756.426 763.136C756.426 765.536 755.493 766.069 748.693 766.736C740.826 767.536 735.626 766.869 732.826 764.736C730.826 763.136 733.76 755.269 738.026 750.736C742.56 745.802 746.426 746.736 751.76 753.936ZM686.693 751.936C688.426 753.536 689.76 755.402 689.76 756.069C689.76 756.869 690.693 758.602 692.026 759.936C693.36 761.402 693.626 762.336 692.56 762.336C691.76 762.336 691.093 763.402 691.36 764.602C691.626 766.469 690.826 767.002 688.16 766.869C676.56 766.602 672.693 766.202 670.693 764.602C668.693 763.136 669.093 762.336 674.826 756.069C678.293 752.202 681.626 749.002 682.293 749.002C683.093 749.002 684.96 750.336 686.693 751.936ZM810.026 753.936C818.826 762.602 816.026 767.136 803.093 765.669C796.426 764.869 794.693 764.202 793.893 761.802C792.426 758.069 794.693 753.269 798.96 751.002C803.893 748.336 804.426 748.469 810.026 753.936ZM628.96 756.202C634.56 762.869 634.693 764.069 631.093 767.936C628.826 770.469 628.026 770.602 625.226 769.136C622.96 767.802 621.36 767.802 619.493 768.736C616.693 770.202 611.626 769.536 608.826 767.269C605.626 764.869 606.96 760.069 612.426 755.136C619.626 748.602 623.093 748.869 628.96 756.202ZM714.96 786.602C715.626 788.336 717.76 791.136 719.626 792.869C721.493 794.736 723.093 796.869 723.093 797.669C723.093 798.469 725.76 802.736 729.093 807.136C742.026 824.336 746.826 831.402 757.36 848.736C760.56 853.802 766.026 861.536 769.493 865.802C773.093 870.202 780.16 879.936 785.226 887.669C790.16 895.402 798.426 907.402 803.626 914.469C808.826 921.536 815.893 931.269 819.36 936.069L825.76 944.736L824.56 956.069C823.76 964.602 822.693 968.469 820.426 971.269C816.693 975.936 806.293 988.069 795.226 1000.2C790.56 1005.4 784.426 1013.27 781.626 1017.67C778.693 1022.07 773.893 1028.34 770.693 1031.67C765.093 1037.67 758.96 1045 751.093 1055C748.693 1057.94 746.426 1060.6 745.893 1061C745.36 1061.4 743.626 1063.54 742.026 1065.94C738.026 1071.67 734.293 1072.6 730.56 1069.14C728.693 1067.4 726.693 1066.74 724.693 1067.27C719.493 1068.6 721.226 1064.07 729.093 1055.94C740.293 1044.34 742.293 1042.07 745.626 1037C747.36 1034.47 749.493 1031.67 750.293 1031C751.226 1030.2 756.026 1024.2 761.093 1017.67C766.16 1011 772.96 1003.27 776.026 1000.2C779.226 997.136 781.76 994.202 781.76 993.669C781.76 993.002 782.96 991.269 784.293 989.802C785.76 988.202 788.293 985.136 790.026 982.736C796.56 973.536 806.293 961.669 807.36 961.136C809.893 960.202 811.093 954.336 809.493 950.602C808.16 947.802 798.56 933.802 792.16 925.669C781.093 911.402 761.893 885.002 749.226 866.469C744.026 858.869 736.426 847.802 732.293 841.802C728.16 835.936 722.56 827.669 719.893 823.669C717.093 819.669 713.893 815.802 712.826 815.136C709.893 813.536 704.56 817.936 699.76 825.936C695.893 832.336 686.293 844.736 676.293 856.202C673.626 859.136 669.36 865.002 666.693 869.002C664.026 873.002 660.293 878.469 658.426 881.002C654.96 885.669 651.893 889.936 644.826 900.336C642.826 903.269 638.96 908.336 636.426 911.669C633.76 915.002 628.693 922.069 625.36 927.269C621.893 932.602 618.56 937.002 617.893 937.002C617.226 937.002 616.293 938.069 615.893 939.269C615.493 940.602 612.693 944.336 609.76 947.536C606.826 950.736 604.426 954.069 604.426 955.136C604.426 956.069 607.493 960.469 611.093 964.869C614.826 969.269 617.76 973.269 617.76 973.669C617.76 974.202 619.493 975.936 621.626 977.802C623.893 979.669 627.093 984.336 628.96 988.336C630.826 992.336 634.16 997.536 636.293 999.936C638.56 1002.34 640.826 1005.4 641.226 1006.6C641.626 1007.94 642.56 1009 643.226 1009C643.893 1009 644.426 1009.67 644.426 1010.47C644.426 1011.27 647.626 1015.14 651.493 1019C661.626 1029.27 667.093 1035.94 667.893 1039.14C668.293 1040.74 670.026 1042.6 671.893 1043.54C675.76 1045.27 676.16 1049 672.426 1049C670.026 1049 669.893 1049.4 671.093 1051.67C672.426 1054.07 672.16 1054.34 668.56 1054.34C665.893 1054.34 663.76 1053.27 662.026 1051C660.56 1049.14 658.693 1047.67 657.893 1047.67C657.093 1047.67 656.426 1047.27 656.426 1046.6C656.426 1046.07 654.693 1043.8 652.693 1041.54C644.96 1032.6 638.293 1024.6 636.426 1021.8C635.36 1020.2 632.826 1017.27 630.826 1015.14C628.693 1013 627.093 1010.47 627.093 1009.54C627.093 1008.47 626.16 1007.67 625.093 1007.67C624.026 1007.67 623.093 1007.14 623.093 1006.34C623.093 1005.14 606.56 982.469 602.693 978.336C597.093 972.336 588.293 960.602 585.76 955.669C582.693 949.536 582.293 950.602 590.693 939.402C597.493 930.469 611.626 912.336 613.093 910.869C613.76 910.069 615.893 907.402 617.76 905.002C619.626 902.602 623.76 897.136 627.093 892.869C630.426 888.602 635.76 881.269 639.093 876.336C642.426 871.536 646.56 865.936 648.293 863.936C655.226 856.336 671.893 835.269 675.76 829.536C682.56 819.269 702.826 792.069 704.426 791.002C705.226 790.469 706.426 788.602 707.093 786.869C708.693 782.736 713.36 782.602 714.96 786.602ZM681.493 789.669C684.16 792.202 679.493 801.936 672.693 808.202C669.76 811.002 666.293 815.402 665.093 817.936C663.893 820.469 661.493 823.136 659.76 823.936C657.893 824.736 655.893 827.402 655.093 829.802C654.16 832.336 652.693 834.336 651.626 834.336C650.693 834.336 649.493 835.802 648.96 837.536C648.56 839.269 645.893 843.002 642.96 845.802C640.16 848.602 637.76 851.536 637.76 852.336C637.76 853.136 636.026 855.669 633.76 858.069C631.626 860.469 629.76 863.269 629.76 864.069C629.76 865.002 627.36 868.069 624.56 871.136C621.626 874.069 616.96 880.069 614.16 884.469C608.16 893.669 604.96 897.402 600.56 899.669C596.426 901.802 594.96 899.536 596.56 893.936C597.093 891.802 597.226 889.002 596.56 887.802C596.026 886.602 595.36 877.802 595.226 868.336C595.093 858.736 594.693 848.602 594.293 845.669C593.893 842.736 593.493 830.336 593.226 818.069C593.093 803.002 592.426 795.269 591.36 793.936C588.96 791.002 592.96 787.269 597.626 788.202C599.493 788.602 603.76 788.336 607.093 787.802C616.693 786.069 679.36 787.669 681.493 789.669ZM822.293 790.202C823.76 791.536 824.293 793.136 823.76 795.269C823.36 797.002 823.626 798.336 824.426 798.336C825.226 798.336 825.626 798.736 825.36 799.269C823.36 802.469 822.293 843.136 823.76 855.669C824.16 859.002 823.76 865.536 822.693 870.202C821.493 876.202 821.226 881.002 822.026 886.336C823.36 895.002 821.893 902.736 818.96 903.402C817.893 903.536 813.626 898.469 808.426 890.736C803.626 883.536 798.293 875.936 796.293 873.669C794.426 871.536 792.56 868.736 792.16 867.669C791.093 864.869 774.16 839.802 770.293 835.402C768.56 833.402 767.093 830.736 767.093 829.669C767.093 827.802 766.426 826.736 760.56 820.069C759.226 818.602 757.626 815.936 757.093 814.469C756.693 812.869 754.426 809.669 752.293 807.269C750.16 805.002 748.026 801.669 747.626 800.202C747.226 798.602 745.493 796.736 743.76 795.936C741.626 794.869 740.96 793.669 741.36 791.402L741.893 788.336H780.96C812.826 788.336 820.426 788.736 822.293 790.202ZM568.426 819.402C568.426 839.002 565.76 841.402 554.826 831.669C547.226 825.002 546.293 821.936 550.693 818.069C552.426 816.336 556.16 812.736 558.693 809.936C561.36 807.269 564.56 805.002 566.026 805.002C568.16 805.002 568.426 806.336 568.426 819.402ZM856.293 807.002C858.426 808.069 860.426 809.802 860.826 811.002C861.36 812.069 862.56 813.002 863.626 813.002C865.76 813.002 868.826 818.069 870.293 823.802C870.96 826.736 870.16 828.202 865.893 832.069C860.16 837.269 853.76 841.002 850.56 841.002C849.36 841.002 847.493 839.136 846.293 836.869C842.693 829.669 845.893 805.002 850.693 805.002C851.76 805.002 854.293 805.936 856.293 807.002ZM347.893 822.602C347.76 827.136 347.093 831.002 346.293 831.269C345.626 831.536 343.893 829.269 342.56 826.202C340.16 820.869 340.16 820.736 343.226 817.536C344.826 815.802 346.693 814.336 347.226 814.336C347.76 814.336 348.16 818.069 347.893 822.602ZM711.76 829.936C712.56 832.069 714.026 846.736 714.026 853.669C714.293 876.736 712.16 932.336 710.96 934.469C709.093 938.202 710.56 943.669 713.493 943.669C714.693 943.669 719.626 939.402 724.293 934.336L732.693 924.869L754.293 925.802C766.026 926.336 777.093 927.269 778.693 927.802C780.293 928.336 782.693 930.869 783.893 933.269C785.093 935.669 788.426 941.136 791.226 945.402C796.96 954.069 797.626 956.736 794.16 957.802C792.826 958.202 790.693 959.136 789.226 959.936C787.76 960.602 786.426 960.736 785.893 960.069C785.493 959.402 776.693 958.736 766.426 958.602C756.16 958.336 745.36 957.669 742.56 957.002C736.693 955.669 720.693 956.736 719.626 958.469C718.826 959.802 725.893 969.002 727.626 969.002C728.293 969.002 731.093 971.402 733.893 974.469C738.16 979.136 738.693 980.469 737.76 983.136C737.093 984.869 735.893 986.336 735.36 986.336C734.026 986.336 721.493 974.336 718.826 970.469C717.76 969.002 715.893 967.669 714.426 967.402C711.893 967.002 711.76 967.936 711.626 999.669C711.493 1017.67 710.96 1037.4 710.56 1043.67C710.16 1049.94 709.76 1057 709.76 1059.27C709.893 1067.8 705.76 1065.14 689.36 1045.94L679.493 1034.34L678.426 1009.8C677.893 994.202 678.026 984.336 678.826 982.869C679.626 981.402 683.893 975.802 688.293 970.336C692.826 964.869 696.426 959.936 696.426 959.402C696.426 958.869 679.493 958.336 658.826 958.336C638.026 958.336 619.76 957.936 618.16 957.536C614.16 956.469 614.293 953.669 618.56 949.269C620.426 947.269 624.56 941.669 627.76 936.869C631.093 931.936 634.426 927.402 635.36 926.736C636.293 925.936 645.76 925.002 656.426 924.469C670.56 923.802 676.293 923.002 677.76 921.536C679.226 920.069 679.626 916.202 679.36 902.602C678.826 879.002 680.16 865.936 683.093 862.069C696.826 844.869 701.893 838.069 704.96 833.269C708.826 827.136 710.293 826.469 711.76 829.936ZM332.96 847.136C348.293 851.002 365.36 857.402 383.893 866.336C391.226 869.802 399.76 873.136 402.693 873.669C409.493 874.736 412.826 878.202 411.76 882.736C411.093 885.002 409.76 886.336 406.826 886.869C404.693 887.269 402.16 887.269 401.493 886.869C400.693 886.336 398.293 885.536 395.893 885.002C391.36 883.802 370.693 876.469 366.426 874.469C355.226 869.269 347.893 866.469 342.96 865.669C339.76 865.136 335.493 863.936 333.626 862.869C331.226 861.669 324.16 861.002 312.96 860.736C294.426 860.469 292.426 860.869 267.36 870.202C261.226 872.469 255.626 874.336 254.96 874.336C252.96 874.336 253.626 869.536 256.16 867.269C265.36 858.602 270.026 855.802 279.76 852.602C304.16 844.869 318.293 843.402 332.96 847.136ZM722.16 853.002C722.96 854.069 722.16 853.669 720.56 852.202C718.426 850.202 717.76 848.602 718.56 847.536C719.493 846.069 719.76 846.336 720.16 848.336C720.426 849.802 721.36 851.936 722.16 853.002ZM508.826 861.802C513.36 867.269 512.826 869.269 508.293 864.736C502.693 859.269 501.093 857.002 503.226 857.002C504.293 857.002 506.826 859.136 508.826 861.802ZM721.76 869.402C721.76 871.936 719.36 877.402 718.96 875.669C718.96 875.269 718.56 873.536 718.293 871.669C718.026 869.936 718.026 867.669 718.426 866.602C719.36 864.069 721.76 865.936 721.76 869.402ZM333.493 877.402C341.626 880.736 355.093 889.002 366.96 897.936C370.693 900.736 374.293 902.336 376.96 902.336C382.16 902.336 387.093 905.669 387.093 909.002C387.093 912.069 382.293 915.669 378.026 915.669C376.293 915.669 370.026 913.536 364.026 911.002C358.16 908.469 352.693 906.336 352.16 906.336C351.493 906.336 348.693 904.602 346.026 902.336C326.426 886.469 320.693 883.936 303.36 882.869C289.76 882.069 281.493 883.802 260.026 891.669C253.893 893.802 251.76 894.069 250.293 892.869C246.96 890.202 248.293 888.069 254.826 885.802C258.293 884.469 263.093 882.602 265.493 881.536C267.893 880.469 270.693 879.669 271.76 879.669C272.96 879.669 274.826 879.136 276.16 878.469C282.426 875.002 295.093 873.269 309.76 873.536C322.56 873.936 326.426 874.602 333.493 877.402ZM508.16 877.936C510.56 882.602 511.36 890.336 509.493 891.002C508.426 891.402 507.76 894.202 507.626 898.336C507.493 905.402 504.56 911.136 504.293 904.869C503.093 883.936 503.36 875.669 505.093 875.669C506.16 875.669 507.493 876.736 508.16 877.936ZM856.293 896.202C858.293 898.069 860.693 899.669 861.76 899.936C864.026 900.336 868.426 906.736 868.426 909.536C868.426 911.669 859.226 919.136 854.293 921.002C849.093 923.002 847.226 920.469 846.16 909.936C845.36 900.202 847.226 893.002 850.826 893.002C852.026 893.002 854.426 894.469 856.293 896.202ZM312.693 899.136C320.96 903.402 332.826 911.936 335.36 915.536C336.426 917.002 340.56 919.269 344.56 920.602C350.56 922.602 351.893 923.536 352.16 926.336C352.426 929.136 351.626 930.202 347.76 932.069C343.226 934.202 342.693 934.202 336.693 931.536C324.293 926.202 318.96 922.736 311.36 915.269C299.626 903.936 292.426 903.002 272.56 910.336C266.826 912.336 266.426 912.869 266.693 917.002C266.826 919.402 268.16 923.136 269.626 925.136C271.36 927.536 273.226 933.402 274.426 940.336C275.493 946.602 277.226 953.936 278.293 956.736C279.226 959.402 282.026 967.002 284.426 973.669C293.76 999.402 295.76 1008.47 294.693 1019.94C293.626 1030.6 288.293 1047.67 284.56 1052.34C283.093 1054.34 282.026 1056.47 282.426 1057C282.826 1057.54 278.96 1058.07 273.893 1058.2C266.026 1058.34 264.426 1057.94 263.893 1055.94C263.36 1054.6 262.826 1045.94 262.56 1036.6C262.16 1027.4 261.626 1019.14 261.226 1018.47C260.426 1017.14 258.026 993.269 256.826 973.802C256.56 967.936 255.36 961.936 254.426 960.469C253.36 958.736 252.426 950.869 251.893 939.136C251.226 921.402 251.093 920.336 247.76 917.402C242.16 912.069 241.493 912.469 269.76 900.202C278.693 896.336 281.226 895.936 292.826 895.802C304.426 895.669 306.56 896.069 312.693 899.136ZM566.826 914.602C566.56 924.602 566.026 927.002 564.426 926.869C561.36 926.736 547.093 915.536 547.093 913.402C547.093 911.269 553.36 905.536 560.293 901.536C566.693 897.936 567.226 899.136 566.826 914.602ZM419.493 903.669C419.093 905.136 418.293 906.069 417.76 905.669C417.093 905.269 416.96 903.802 417.36 902.336C417.76 900.869 418.56 899.936 419.093 900.336C419.76 900.736 419.893 902.202 419.493 903.669ZM512.026 931.936C511.76 936.602 511.626 932.869 511.626 923.669C511.626 914.469 511.76 910.736 512.026 915.269C512.293 919.936 512.293 927.402 512.026 931.936ZM506.426 915.936C506.293 918.336 506.026 923.002 505.893 926.336L505.493 932.336L504.16 925.002C502.96 917.536 503.626 911.669 505.626 911.669C506.16 911.669 506.56 913.669 506.426 915.936ZM420.826 921.669C422.426 923.269 422.826 928.069 423.093 945.136C423.093 957.002 423.493 967.136 423.76 967.669C424.826 969.402 426.96 1027.4 427.76 1075.67C428.293 1101.67 428.96 1124.2 429.226 1125.8C430.16 1129.54 426.426 1138.34 423.893 1138.34C422.826 1138.34 421.76 1139.67 421.493 1141.27C420.96 1145.14 415.893 1146.07 412.826 1142.87C410.16 1140.2 398.826 1140.87 392.16 1144.2C389.626 1145.54 384.56 1146.34 378.96 1146.34C371.093 1146.34 369.36 1145.8 365.76 1142.74L361.493 1139.14L362.293 1117.8C363.093 1098.34 363.493 1095.54 366.826 1088.34C368.826 1083.94 370.693 1080.07 371.093 1079.67C373.36 1077.4 377.626 1070.2 379.493 1065.4C380.693 1062.34 384.426 1055.8 387.76 1051C391.093 1046.2 394.293 1041.14 395.093 1039.8C397.626 1035 400.56 1016.74 400.826 1003.94C401.093 993.402 401.76 989.936 403.76 986.869C409.626 978.336 411.626 971.269 413.226 955.269C414.026 947.536 413.76 946.336 411.893 946.336C410.693 946.336 409.76 945.669 409.76 945.002C409.76 944.202 410.96 943.669 412.293 943.669C415.893 943.669 416.826 939.536 414.426 934.869C409.626 925.536 414.56 915.269 420.826 921.669ZM295.36 925.936C299.226 927.936 302.693 929.936 303.093 930.336C303.493 930.736 307.093 933.136 311.093 935.802C320.16 941.669 326.96 944.336 336.96 946.202C349.226 948.469 350.16 950.202 346.56 964.069C343.893 974.336 342.026 976.736 334.826 979.136C330.693 980.469 327.093 983.002 323.893 986.736C321.226 989.802 318.16 993.402 317.093 994.736C315.893 996.069 314.426 998.602 313.76 1000.34C313.093 1002.2 311.893 1003.67 311.093 1003.67C310.426 1003.67 309.76 1005.14 309.76 1006.87C309.76 1010.6 308.293 1012.07 305.36 1011C304.026 1010.34 303.226 1006.74 302.693 997.402C302.026 987.936 301.226 983.802 299.36 981.802C293.493 974.869 290.826 969.936 291.493 966.869C291.76 965.136 291.493 963.669 290.826 963.669C290.16 963.669 290.026 963.002 290.426 962.336C290.826 961.536 290.693 961.002 290.026 961.002C289.093 961.002 285.76 939.936 285.626 933.669C285.626 932.602 286.693 923.802 286.96 922.602C287.226 921.936 288.426 922.469 295.36 925.936ZM392.426 929.136C392.426 929.669 391.893 930.602 391.093 931.002C390.426 931.402 389.76 935.136 389.76 939.002C389.76 944.736 388.56 948.869 384.426 957.936C379.36 968.869 379.093 969.936 380.293 975.936C381.893 983.136 381.893 983.136 372.16 1004.34C368.56 1012.34 364.026 1022.2 362.293 1025.94C360.56 1029.8 357.36 1035.4 355.093 1038.47C352.96 1041.54 351.093 1044.87 351.093 1045.67C351.093 1047.54 341.093 1057 339.36 1057C338.693 1057 335.226 1059.94 331.626 1063.54C324.693 1070.47 318.826 1073 315.226 1070.74C309.493 1067.14 306.426 1045.67 309.493 1029.8C312.96 1012.07 326.026 993.002 338.426 987.669C342.426 985.936 347.893 981.802 352.426 977.136C360.56 968.602 362.026 965.002 365.76 943.002C367.626 931.402 367.893 931.002 371.893 929.669C376.96 928.069 392.426 927.669 392.426 929.136ZM512.026 954.602C511.626 955.669 511.226 955.269 511.226 953.802C511.093 952.336 511.493 951.536 511.893 952.069C512.293 952.469 512.426 953.669 512.026 954.602ZM506.826 976.202C507.093 977.536 506.826 980.202 506.293 982.069L505.36 985.669L504.426 982.336C502.693 976.869 502.96 972.736 504.826 973.269C505.626 973.669 506.693 975.002 506.826 976.202ZM857.76 985.136C861.493 990.469 864.96 995.402 865.226 996.336C865.626 997.269 863.226 999.536 859.76 1001.54C856.426 1003.54 852.96 1006.34 852.026 1007.8C849.893 1011.14 847.493 1011 845.626 1007.4C842.693 1001.94 846.026 975.669 849.626 975.669C850.16 975.669 853.893 979.936 857.76 985.136ZM568.426 992.869C568.426 1001.14 566.16 1006.74 562.693 1007.4C559.226 1008.07 548.426 996.602 549.36 993.136C549.76 991.669 551.226 990.069 552.56 989.669C553.893 989.136 555.093 987.936 555.093 986.869C555.093 985.802 557.093 983.802 559.493 982.336L563.76 979.669L566.16 982.469C567.76 984.469 568.426 987.536 568.426 992.869ZM226.293 982.602C226.693 983.536 227.226 995.136 227.626 1008.34C228.56 1036.2 230.56 1068.34 232.426 1086.34C233.226 1093.27 234.16 1107 234.693 1116.6L235.493 1134.34H232.293C226.826 1134.34 185.626 1127.54 158.96 1122.34C122.56 1115.14 86.8263 1106.07 55.493 1096.34C54.4263 1095.94 54.1596 1093.14 54.693 1086.6C55.2263 1080.47 54.9596 1077.14 54.0263 1076.47C53.093 1075.94 49.093 1078.87 44.8263 1083C40.5596 1087 36.5596 1090.2 35.7596 1089.94C35.093 1089.54 30.0263 1087.94 24.8263 1086.2C14.293 1082.87 12.5596 1080.47 17.7596 1076.07C19.2263 1074.74 20.4263 1073.27 20.4263 1072.6C20.4263 1072.07 21.893 1069.94 23.7596 1067.94C25.6263 1065.94 27.093 1063.67 27.093 1062.74C27.093 1060.07 42.8263 1045 45.493 1045C46.8263 1045 48.8263 1043.8 50.0263 1042.47C53.493 1038.47 63.493 1033.14 71.2263 1031.14C81.2263 1028.6 108.693 1023.94 119.893 1022.87C133.226 1021.67 157.76 1021.94 162.426 1023.4C168.293 1025.14 167.493 1030.47 159.893 1038.2C156.56 1041.54 151.093 1047.8 147.493 1051.94C128.026 1074.74 110.56 1094.34 109.626 1094.34C107.226 1094.34 108.426 1100.87 110.96 1102.34C115.226 1104.6 116.96 1103.94 120.426 1098.74C124.16 1093.14 145.626 1068.6 147.36 1067.94C147.893 1067.67 148.426 1066.87 148.426 1066.2C148.426 1065.4 150.826 1062.2 153.893 1059C156.826 1055.8 160.56 1051.54 162.16 1049.4C163.76 1047.4 169.36 1041.14 174.56 1035.67C179.76 1030.2 187.626 1021.4 192.026 1016.34C196.426 1011.14 202.293 1004.6 205.093 1001.67C207.76 998.736 211.626 994.202 213.493 991.669C221.226 981.269 225.093 978.469 226.293 982.602ZM601.093 1001.94C604.426 1005.54 606.96 1009 607.093 1009.94C607.093 1010.87 608.426 1013 610.16 1014.87C616.693 1021.94 623.76 1030.47 624.96 1032.74C625.626 1033.94 626.56 1035.27 627.093 1035.67C628.16 1036.47 631.093 1041.8 631.093 1042.87C631.093 1043.27 630.026 1043.67 628.693 1043.67C627.226 1043.67 624.426 1040.87 621.76 1036.6C613.493 1023.8 609.626 1019.67 605.76 1019.67C601.493 1019.67 600.426 1022.74 600.293 1036.87C600.293 1041.67 599.893 1044.87 599.493 1044.07C599.093 1042.74 598.426 1042.74 596.96 1044.2C595.493 1045.67 595.36 1047 596.426 1049.67C597.093 1051.54 597.76 1054.07 597.76 1055.14C597.76 1057.27 594.293 1057.67 593.093 1055.67C592.16 1054.2 591.093 999.802 592.026 997.402C593.226 994.469 595.093 995.402 601.093 1001.94ZM505.76 1012.47C505.76 1015.67 505.226 1017 504.16 1016.74C502.16 1016.07 501.226 1011.14 502.293 1008.2C503.626 1004.87 505.76 1007.54 505.76 1012.47ZM811.76 1031.27C811.76 1049.14 811.626 1049.67 808.826 1050.07C806.693 1050.34 805.36 1049.4 803.76 1046.47C802.56 1044.07 800.693 1042.34 799.226 1042.34C795.76 1042.34 787.093 1046.07 787.093 1047.67C787.093 1048.34 785.893 1049.54 784.56 1050.2C782.56 1051.27 781.893 1051.14 781.226 1049.54C780.693 1048.2 782.026 1045.8 784.96 1042.87C787.36 1040.47 789.093 1038.2 788.826 1037.8C788.426 1037.4 788.56 1036.6 788.96 1035.8C789.626 1034.87 790.693 1034.87 792.426 1035.94C795.626 1037.94 797.093 1036.6 795.226 1033.27C794.293 1031.4 794.293 1029.67 795.493 1027.27C797.36 1023.4 802.96 1021.67 804.026 1024.6C804.693 1026.2 804.96 1026.2 805.893 1024.87C806.426 1023.8 806.026 1022.6 804.96 1021.67C803.493 1020.74 803.226 1019.14 803.76 1016.6C804.56 1013.8 805.493 1013 808.293 1013H811.893L811.76 1031.27ZM779.626 1056.74C778.56 1057.8 776.826 1058.2 775.626 1057.8C773.893 1057.14 773.893 1056.6 775.893 1053.67C777.893 1050.6 778.293 1050.47 779.76 1052.6C781.093 1054.47 781.093 1055.27 779.626 1056.74ZM684.426 1057C684.426 1057.67 683.893 1058.34 683.093 1058.34C682.426 1058.34 681.76 1057.67 681.76 1057C681.76 1056.2 682.426 1055.67 683.093 1055.67C683.893 1055.67 684.426 1056.2 684.426 1057ZM566.56 1067C567.626 1071.27 565.493 1085.4 563.76 1085.8C563.093 1085.94 560.426 1083.8 557.893 1080.87C553.76 1075.94 553.493 1075.4 555.093 1071.67C556.56 1068.07 561.76 1063.94 564.693 1063.67C565.226 1063.67 566.026 1065.14 566.56 1067ZM639.36 1074.07C644.56 1078.6 655.093 1081.27 696.426 1088.34C707.226 1090.34 715.093 1092.6 723.76 1096.34C726.026 1097.27 730.293 1098.74 733.493 1099.54C736.56 1100.47 739.093 1101.67 739.093 1102.34C739.093 1103 741.493 1104.87 744.426 1106.47C748.293 1108.74 749.36 1109.94 748.293 1111.14C747.36 1112.34 748.026 1113.54 750.56 1115.54C755.226 1119.14 753.893 1121.8 746.826 1122.87C703.226 1130.07 690.026 1130.87 699.893 1126.07C704.293 1124.07 705.493 1120.47 702.96 1117.4C699.093 1112.87 678.693 1104.87 665.093 1102.74C656.693 1101.4 650.56 1099.67 648.56 1098.2C646.826 1096.74 644.026 1095.67 642.16 1095.67C640.426 1095.67 638.693 1094.74 638.293 1093.67C637.76 1092.6 636.56 1091.67 635.36 1091.67C629.893 1091.67 621.76 1087.14 619.093 1082.74C615.76 1077.14 615.76 1077.54 619.893 1073.67C625.093 1068.87 633.493 1069 639.36 1074.07ZM352.426 1114.87C352.426 1122.34 352.026 1132.34 351.626 1136.87L350.693 1145H341.76L341.493 1134.6C341.093 1119.27 341.76 1111.4 343.893 1107.4C345.626 1104.07 349.093 1101.14 351.493 1101C352.026 1101 352.426 1107.27 352.426 1114.87ZM307.626 1116.47C309.36 1117.14 309.76 1119.67 309.76 1129.94V1142.74L298.16 1141.8C277.893 1140.2 276.426 1139.8 276.426 1135.94C276.426 1131.54 281.36 1126.34 285.626 1126.34C287.36 1126.34 290.16 1125.14 291.626 1123.8C293.893 1121.8 304.16 1115.67 305.36 1115.67C305.493 1115.67 306.426 1116.07 307.626 1116.47ZM539.626 1134.47C539.226 1135.14 538.293 1135.4 537.626 1134.87C536.96 1134.47 536.693 1133.54 537.226 1132.87C537.626 1132.2 538.56 1131.94 539.226 1132.47C539.893 1132.87 540.16 1133.8 539.626 1134.47ZM565.76 1136.74V1140.34L563.893 1137C562.16 1133.54 562.426 1131.14 564.56 1132.34C565.226 1132.87 565.76 1134.74 565.76 1136.74ZM512.026 1142.6C511.626 1143.67 511.226 1143.27 511.226 1141.8C511.093 1140.34 511.493 1139.54 511.893 1140.07C512.293 1140.47 512.426 1141.67 512.026 1142.6Z" fill="url(#paint0_linear_323_97)"/>
<path d="M539.76 -87.131C539.36 -86.4644 539.626 -85.531 540.426 -84.9977C541.093 -84.5977 541.76 -85.131 541.76 -86.1977C541.76 -88.5977 540.96 -88.9977 539.76 -87.131Z" fill="url(#paint1_linear_323_97)"/>
<path d="M52.9596 446.602C52.4263 447.402 53.093 448.869 54.5596 449.936C57.2263 451.936 58.5596 450.469 57.2263 447.002C56.4263 444.602 54.293 444.469 52.9596 446.602Z" fill="url(#paint2_linear_323_97)"/>
<path d="M60.4263 460.336C60.4263 462.869 61.093 465.002 61.7596 465.002C62.5596 465.002 63.093 462.869 63.093 460.336C63.093 457.802 62.5596 455.669 61.7596 455.669C61.093 455.669 60.4263 457.802 60.4263 460.336Z" fill="url(#paint3_linear_323_97)"/>
<path d="M134.426 488.869C134.026 489.536 134.426 490.602 135.093 491.002C137.226 492.336 143.36 490.469 142.426 489.002C141.36 487.269 135.493 487.269 134.426 488.869Z" fill="url(#paint4_linear_323_97)"/>
<path d="M187.093 505.536C187.093 507.136 188.426 507.669 191.893 507.669C197.893 507.669 197.493 504.469 191.36 503.936C188.16 503.669 187.093 504.069 187.093 505.536Z" fill="url(#paint5_linear_323_97)"/>
<path d="M492.426 495.536C492.426 496.336 493.093 497.269 493.76 497.669C494.56 498.069 495.093 497.536 495.093 496.469C495.093 495.269 494.56 494.336 493.76 494.336C493.093 494.336 492.426 494.869 492.426 495.536Z" fill="url(#paint6_linear_323_97)"/>
<path d="M857.493 747.802C853.226 749.402 852.426 751.269 853.626 757.136C854.56 761.669 854.56 761.669 862.96 762.069C872.426 762.469 873.76 761.669 873.76 754.736C873.76 751.669 872.96 749.936 870.96 748.869C866.826 746.736 861.626 746.336 857.493 747.802Z" fill="url(#paint7_linear_323_97)"/>
<path d="M546.16 749.269C540.426 756.469 541.493 762.736 548.693 764.469C554.16 765.802 557.626 765.269 561.493 762.869C565.626 760.202 565.626 752.602 561.493 749.802C557.893 747.269 547.893 747.002 546.16 749.269Z" fill="url(#paint8_linear_323_97)"/>
<path d="M594.026 953.269C594.693 955.269 597.76 956.336 597.76 954.602C597.76 953.936 596.826 952.869 595.626 952.469C594.293 951.936 593.76 952.336 594.026 953.269Z" fill="url(#paint9_linear_323_97)"/>
<path d="M817.093 958.336C817.493 959.002 817.093 959.669 816.026 959.669C813.493 959.669 812.026 963.269 814.026 964.469C815.626 965.536 819.093 961.536 819.093 958.736C819.093 957.802 818.426 957.002 817.626 957.002C816.96 957.002 816.693 957.536 817.093 958.336Z" fill="url(#paint10_linear_323_97)"/>
<path d="M599.093 960.202C599.093 961.269 600.026 962.336 601.093 962.869C602.293 963.269 603.093 962.869 603.093 961.802C603.093 960.736 602.16 959.669 601.093 959.136C599.893 958.736 599.093 959.136 599.093 960.202Z" fill="url(#paint11_linear_323_97)"/>
<path d="M798.026 981.402C794.826 984.736 794.16 988.202 796.693 987.402C798.826 986.602 803.76 978.336 802.16 978.336C801.493 978.336 799.626 979.669 798.026 981.402Z" fill="url(#paint12_linear_323_97)"/>
<path d="M791.76 990.336C791.36 991.002 791.626 991.669 792.293 991.669C793.093 991.669 793.76 991.002 793.76 990.336C793.76 989.536 793.493 989.002 793.226 989.002C792.826 989.002 792.16 989.536 791.76 990.336Z" fill="url(#paint13_linear_323_97)"/>
<path d="M783.36 996.469C780.56 998.469 779.226 1003.67 781.626 1003.67C783.226 1003.67 789.76 997.402 789.76 995.669C789.76 993.669 786.826 994.069 783.36 996.469Z" fill="url(#paint14_linear_323_97)"/>
<path d="M774.826 1009.94C775.76 1010.34 776.96 1010.2 777.36 1009.8C777.893 1009.4 777.093 1009 775.626 1009.14C774.16 1009.14 773.76 1009.54 774.826 1009.94Z" fill="url(#paint15_linear_323_97)"/>
<path d="M768.026 1016.74C766.693 1018.07 765.76 1019.8 765.76 1020.6C765.76 1021.27 764.293 1022.6 762.426 1023.4C758.96 1025 758.16 1026.87 760.293 1028.2C760.96 1028.6 762.426 1027.67 763.493 1025.94C764.56 1024.34 766.693 1021.54 768.293 1019.8C770.826 1017 771.893 1014.34 770.693 1014.34C770.426 1014.34 769.226 1015.4 768.026 1016.74Z" fill="url(#paint16_linear_323_97)"/>
<path d="M648.56 1023.14C648.56 1024.6 648.96 1025 649.36 1023.94C649.76 1023 649.626 1021.8 649.226 1021.4C648.826 1020.87 648.426 1021.67 648.56 1023.14Z" fill="url(#paint17_linear_323_97)"/>
<path d="M751.093 1037.8C751.093 1038.87 751.76 1039.4 752.426 1039C753.226 1038.6 753.76 1037.67 753.76 1036.87C753.76 1036.2 753.226 1035.67 752.426 1035.67C751.76 1035.67 751.093 1036.6 751.093 1037.8Z" fill="url(#paint18_linear_323_97)"/>
<path d="M745.76 1044.47C745.76 1046.74 748.693 1046.34 749.493 1043.94C749.76 1043 749.093 1042.34 747.893 1042.34C746.693 1042.34 745.76 1043.27 745.76 1044.47Z" fill="url(#paint19_linear_323_97)"/>
<path d="M607.76 799.269C603.893 801.402 604.16 799.269 604.293 833.536C604.293 856.069 606.293 876.336 608.426 877.669C608.96 878.069 610.826 876.202 612.56 873.669C614.293 871.136 616.56 869.002 617.626 869.002C618.693 869.002 619.093 868.069 618.693 866.469C618.293 864.869 619.093 862.869 620.693 861.402C623.626 858.736 631.093 848.069 631.093 846.469C631.093 845.936 632.96 844.202 635.093 842.602C637.36 840.869 639.093 839.002 639.093 838.202C639.093 836.869 641.36 833.669 648.426 825.002C649.893 823.136 652.693 819.802 654.426 817.669C656.16 815.402 659.226 811.802 661.093 809.669C665.093 805.002 665.626 798.469 662.16 798.069C660.826 798.069 648.826 797.802 635.493 797.802C617.626 797.669 610.293 798.069 607.76 799.269Z" fill="url(#paint20_linear_323_97)"/>
<path d="M764.16 796.336C760.293 798.469 759.493 800.202 761.76 801.669C762.56 802.069 763.093 803.402 763.093 804.602C763.093 805.669 765.226 809.536 767.76 813.002C770.293 816.469 772.426 820.202 772.426 821.269C772.426 822.336 773.626 824.336 775.226 825.802C776.693 827.136 779.226 830.736 780.693 833.669C788.16 848.602 802.026 869.669 805.76 871.669C807.76 872.736 808.56 872.469 809.626 870.736C810.826 868.602 810.293 809.269 809.093 802.869C808.16 798.869 803.093 797.269 787.76 796.469C780.426 796.069 772.96 795.402 771.093 795.002C769.226 794.602 766.16 795.269 764.16 796.336Z" fill="url(#paint21_linear_323_97)"/>
<path d="M376.026 981.536C375.226 983.536 376.16 985.002 378.026 985.002C379.493 985.002 379.36 981.402 377.893 980.469C377.226 980.069 376.426 980.469 376.026 981.536Z" fill="url(#paint22_linear_323_97)"/>
<defs>
<linearGradient id="paint0_linear_323_97" x1="705" y1="374" x2="729" y2="1096" gradientUnits="userSpaceOnUse">
<stop stop-color="#AFC1CF"/>
<stop offset="0.5" stop-color="#AFC1CF" stop-opacity="0.5"/>
<stop offset="1" stop-color="#AFC1CF" stop-opacity="0"/>
</linearGradient>
<linearGradient id="paint1_linear_323_97" x1="705" y1="374" x2="729" y2="1096" gradientUnits="userSpaceOnUse">
<stop stop-color="#AFC1CF"/>
<stop offset="0.5" stop-color="#AFC1CF" stop-opacity="0.5"/>
<stop offset="1" stop-color="#AFC1CF" stop-opacity="0"/>
</linearGradient>
<linearGradient id="paint2_linear_323_97" x1="705" y1="374" x2="729" y2="1096" gradientUnits="userSpaceOnUse">
<stop stop-color="#AFC1CF"/>
<stop offset="0.5" stop-color="#AFC1CF" stop-opacity="0.5"/>
<stop offset="1" stop-color="#AFC1CF" stop-opacity="0"/>
</linearGradient>
<linearGradient id="paint3_linear_323_97" x1="705" y1="374" x2="729" y2="1096" gradientUnits="userSpaceOnUse">
<stop stop-color="#AFC1CF"/>
<stop offset="0.5" stop-color="#AFC1CF" stop-opacity="0.5"/>
<stop offset="1" stop-color="#AFC1CF" stop-opacity="0"/>
</linearGradient>
<linearGradient id="paint4_linear_323_97" x1="705" y1="374" x2="729" y2="1096" gradientUnits="userSpaceOnUse">
<stop stop-color="#AFC1CF"/>
<stop offset="0.5" stop-color="#AFC1CF" stop-opacity="0.5"/>
<stop offset="1" stop-color="#AFC1CF" stop-opacity="0"/>
</linearGradient>
<linearGradient id="paint5_linear_323_97" x1="705" y1="374" x2="729" y2="1096" gradientUnits="userSpaceOnUse">
<stop stop-color="#AFC1CF"/>
<stop offset="0.5" stop-color="#AFC1CF" stop-opacity="0.5"/>
<stop offset="1" stop-color="#AFC1CF" stop-opacity="0"/>
</linearGradient>
<linearGradient id="paint6_linear_323_97" x1="705" y1="374" x2="729" y2="1096" gradientUnits="userSpaceOnUse">
<stop stop-color="#AFC1CF"/>
<stop offset="0.5" stop-color="#AFC1CF" stop-opacity="0.5"/>
<stop offset="1" stop-color="#AFC1CF" stop-opacity="0"/>
</linearGradient>
<linearGradient id="paint7_linear_323_97" x1="705" y1="374" x2="729" y2="1096" gradientUnits="userSpaceOnUse">
<stop stop-color="#AFC1CF"/>
<stop offset="0.5" stop-color="#AFC1CF" stop-opacity="0.5"/>
<stop offset="1" stop-color="#AFC1CF" stop-opacity="0"/>
</linearGradient>
<linearGradient id="paint8_linear_323_97" x1="705" y1="374" x2="729" y2="1096" gradientUnits="userSpaceOnUse">
<stop stop-color="#AFC1CF"/>
<stop offset="0.5" stop-color="#AFC1CF" stop-opacity="0.5"/>
<stop offset="1" stop-color="#AFC1CF" stop-opacity="0"/>
</linearGradient>
<linearGradient id="paint9_linear_323_97" x1="705" y1="374" x2="729" y2="1096" gradientUnits="userSpaceOnUse">
<stop stop-color="#AFC1CF"/>
<stop offset="0.5" stop-color="#AFC1CF" stop-opacity="0.5"/>
<stop offset="1" stop-color="#AFC1CF" stop-opacity="0"/>
</linearGradient>
<linearGradient id="paint10_linear_323_97" x1="705" y1="374" x2="729" y2="1096" gradientUnits="userSpaceOnUse">
<stop stop-color="#AFC1CF"/>
<stop offset="0.5" stop-color="#AFC1CF" stop-opacity="0.5"/>
<stop offset="1" stop-color="#AFC1CF" stop-opacity="0"/>
</linearGradient>
<linearGradient id="paint11_linear_323_97" x1="705" y1="374" x2="729" y2="1096" gradientUnits="userSpaceOnUse">
<stop stop-color="#AFC1CF"/>
<stop offset="0.5" stop-color="#AFC1CF" stop-opacity="0.5"/>
<stop offset="1" stop-color="#AFC1CF" stop-opacity="0"/>
</linearGradient>
<linearGradient id="paint12_linear_323_97" x1="705" y1="374" x2="729" y2="1096" gradientUnits="userSpaceOnUse">
<stop stop-color="#AFC1CF"/>
<stop offset="0.5" stop-color="#AFC1CF" stop-opacity="0.5"/>
<stop offset="1" stop-color="#AFC1CF" stop-opacity="0"/>
</linearGradient>
<linearGradient id="paint13_linear_323_97" x1="705" y1="374" x2="729" y2="1096" gradientUnits="userSpaceOnUse">
<stop stop-color="#AFC1CF"/>
<stop offset="0.5" stop-color="#AFC1CF" stop-opacity="0.5"/>
<stop offset="1" stop-color="#AFC1CF" stop-opacity="0"/>
</linearGradient>
<linearGradient id="paint14_linear_323_97" x1="705" y1="374" x2="729" y2="1096" gradientUnits="userSpaceOnUse">
<stop stop-color="#AFC1CF"/>
<stop offset="0.5" stop-color="#AFC1CF" stop-opacity="0.5"/>
<stop offset="1" stop-color="#AFC1CF" stop-opacity="0"/>
</linearGradient>
<linearGradient id="paint15_linear_323_97" x1="705" y1="374" x2="729" y2="1096" gradientUnits="userSpaceOnUse">
<stop stop-color="#AFC1CF"/>
<stop offset="0.5" stop-color="#AFC1CF" stop-opacity="0.5"/>
<stop offset="1" stop-color="#AFC1CF" stop-opacity="0"/>
</linearGradient>
<linearGradient id="paint16_linear_323_97" x1="705" y1="374" x2="729" y2="1096" gradientUnits="userSpaceOnUse">
<stop stop-color="#AFC1CF"/>
<stop offset="0.5" stop-color="#AFC1CF" stop-opacity="0.5"/>
<stop offset="1" stop-color="#AFC1CF" stop-opacity="0"/>
</linearGradient>
<linearGradient id="paint17_linear_323_97" x1="705" y1="374" x2="729" y2="1096" gradientUnits="userSpaceOnUse">
<stop stop-color="#AFC1CF"/>
<stop offset="0.5" stop-color="#AFC1CF" stop-opacity="0.5"/>
<stop offset="1" stop-color="#AFC1CF" stop-opacity="0"/>
</linearGradient>
<linearGradient id="paint18_linear_323_97" x1="705" y1="374" x2="729" y2="1096" gradientUnits="userSpaceOnUse">
<stop stop-color="#AFC1CF"/>
<stop offset="0.5" stop-color="#AFC1CF" stop-opacity="0.5"/>
<stop offset="1" stop-color="#AFC1CF" stop-opacity="0"/>
</linearGradient>
<linearGradient id="paint19_linear_323_97" x1="705" y1="374" x2="729" y2="1096" gradientUnits="userSpaceOnUse">
<stop stop-color="#AFC1CF"/>
<stop offset="0.5" stop-color="#AFC1CF" stop-opacity="0.5"/>
<stop offset="1" stop-color="#AFC1CF" stop-opacity="0"/>
</linearGradient>
<linearGradient id="paint20_linear_323_97" x1="705" y1="374" x2="729" y2="1096" gradientUnits="userSpaceOnUse">
<stop stop-color="#AFC1CF"/>
<stop offset="0.5" stop-color="#AFC1CF" stop-opacity="0.5"/>
<stop offset="1" stop-color="#AFC1CF" stop-opacity="0"/>
</linearGradient>
<linearGradient id="paint21_linear_323_97" x1="705" y1="374" x2="729" y2="1096" gradientUnits="userSpaceOnUse">
<stop stop-color="#AFC1CF"/>
<stop offset="0.5" stop-color="#AFC1CF" stop-opacity="0.5"/>
<stop offset="1" stop-color="#AFC1CF" stop-opacity="0"/>
</linearGradient>
<linearGradient id="paint22_linear_323_97" x1="705" y1="374" x2="729" y2="1096" gradientUnits="userSpaceOnUse">
<stop stop-color="#AFC1CF"/>
<stop offset="0.5" stop-color="#AFC1CF" stop-opacity="0.5"/>
<stop offset="1" stop-color="#AFC1CF" stop-opacity="0"/>
</linearGradient>
</defs>
</svg>
