<svg width="500" height="515" viewBox="0 0 500 515" fill="none" xmlns="http://www.w3.org/2000/svg">
<path d="M499.003 255.11C498.663 249.93 498.493 244.73 498.003 239.57C496.717 226.12 494.223 212.813 490.553 199.81C478.717 157.275 455.815 118.639 424.18 87.8407C392.545 57.0422 353.31 35.1825 310.473 24.4899C305.601 23.2753 300.817 21.7318 296.153 19.8699C290.603 17.6499 284.853 15.9399 279.153 13.9899C278.583 13.7999 278.043 13.5299 277.493 13.2999C277.703 12.0699 277.923 11.0499 278.043 10.0199C278.633 5.23994 275.993 1.11994 271.543 0.26994C269.66 -0.0899799 267.726 -0.0899799 265.843 0.26994C259.843 1.48994 257.073 6.80994 259.263 12.5099C259.493 13.1099 259.803 13.6699 260.063 14.2499C260.323 14.8299 260.453 15.2499 260.633 15.6799C258.343 17.0799 258.203 17.1299 256.493 17.0799C246.103 16.818 235.707 17.192 225.363 18.1999C212.716 19.3674 200.18 21.5308 187.873 24.6699C152.424 33.6875 119.387 50.3795 91.0974 73.5668C62.8075 96.754 39.9546 125.871 24.1532 158.86C-0.492298 210.65 -6.4974 269.363 7.1532 325.07C18.5532 370.7 40.8632 410.19 74.5432 442.99C119.473 486.74 173.543 510.27 236.053 514.2C248.426 514.93 260.838 514.689 273.173 513.48C285.351 512.426 297.428 510.42 309.293 507.48C373.393 491.06 423.933 455.32 460.033 399.81C484.316 362.91 497.822 319.967 499.033 275.81C499.033 274.39 499.343 272.98 499.503 271.56V260.08C499.323 258.42 499.113 256.81 499.003 255.11ZM478.213 199.31C478.979 198.75 479.654 198.076 480.213 197.31C481.323 196.06 482.363 194.75 483.503 193.52C484.103 192.987 484.742 192.499 485.413 192.06C485.664 192.372 485.885 192.707 486.073 193.06C489.433 202.65 489.763 212.12 484.933 221.37C483.057 224.895 480.225 227.82 476.763 229.81C484.593 220.39 486.263 206.49 483.763 199.09C479.673 202.87 478.183 207.73 476.763 212.7V205.1C473.603 209.67 472.703 214.92 471.913 220.44C469.233 213.81 471.613 203.17 478.213 199.31ZM461.043 170.81C461.266 170.295 461.559 169.814 461.913 169.38C464.309 166.602 466.504 163.658 468.483 160.57C468.793 160.11 469.123 159.66 469.613 158.97C474.363 166.17 473.743 180.97 465.093 188.83C465.603 187.69 465.873 187.01 466.203 186.36C468.964 181.178 470.228 175.33 469.853 169.47C469.773 168.07 469.443 166.7 469.213 165.21C466.713 166.53 465.743 168.68 463.493 176.9V170.97C461.713 173.04 461.493 175.12 461.053 177.05C460.613 178.98 460.353 180.92 459.833 182.84C458.722 178.819 459.153 174.529 461.043 170.81ZM456.953 311.31C455.793 314.31 453.513 316.03 451.613 318.48C453.793 318.35 455.123 317.2 456.513 316.31C458.038 315.287 459.504 314.179 460.903 312.99C462.253 311.89 463.523 310.7 465.283 309.15C465.143 309.758 464.962 310.356 464.743 310.94C461.793 316.76 457.273 320.62 450.813 322.05C450.591 322.132 450.359 322.185 450.123 322.21C446.563 322 443.173 322.89 439.743 323.67C438.57 323.795 437.387 323.795 436.213 323.67C438.843 309.29 453.643 296.42 466.953 298.49C459.052 300.504 451.977 304.933 446.713 311.16C443.613 314.77 442.403 316.92 442.113 319.09C447.963 318.34 452.463 315.2 456.953 311.3V311.31ZM444.313 346.68L439.893 350.32C444.553 349.86 448.403 347.69 452.433 345.59C452.135 346.094 451.801 346.575 451.433 347.03C449.437 349.396 446.835 351.174 443.905 352.174C440.976 353.175 437.83 353.36 434.803 352.71C433.779 352.581 432.745 352.538 431.713 352.58C429.713 352.58 427.713 352.58 425.453 352.58C430.123 340.58 445.453 333.43 455.593 337.05C445.053 337.88 433.643 343.64 431.133 349.57C435.913 350.01 440.023 348.25 444.313 346.68ZM430.663 374.49L425.663 377.06C429.773 377.55 433.493 376.35 437.553 374.87C437.263 375.38 437.203 375.66 437.023 375.81C434.892 377.584 432.334 378.771 429.603 379.253C426.873 379.735 424.063 379.496 421.453 378.56C420.019 378.096 418.547 377.761 417.053 377.56C415.551 377.478 414.084 377.072 412.753 376.37C416.993 368.79 431.303 363.06 441.423 368.12C431.923 367.3 421.113 370.43 418.143 375.12C422.311 375.843 426.589 375.628 430.663 374.49ZM412.843 400.72L409.443 402.22C412.873 403.32 415.753 401.97 418.673 402.12C416.203 403.9 413.383 404.9 410.473 404.12C406.653 403.12 402.983 401.6 399.003 400.21C404.513 393.65 415.173 391.68 421.933 395.61C421.313 395.56 420.683 395.55 420.063 395.46C414.962 394.738 409.763 395.651 405.213 398.07C404.615 398.462 404.055 398.911 403.543 399.41C406.488 400.605 409.683 401.055 412.843 400.72ZM443.323 222.06C439.82 217.809 437.282 212.848 435.883 207.52C438.347 207.236 440.842 207.481 443.203 208.24C444.5 208.64 445.847 208.852 447.203 208.87C453.433 208.78 458.263 211.5 462.153 216.15C463.584 217.656 464.58 219.523 465.033 221.55C460.963 218.22 457.163 214.55 451.923 212.92C453.633 215.05 455.353 217.18 457.063 219.32L456.643 219.62C452.493 215.93 447.993 212.93 442.273 212.02C442.149 212.475 442.142 212.954 442.254 213.413C442.366 213.871 442.593 214.293 442.913 214.64C447.687 222.797 455.298 228.91 464.293 231.81C465.138 232.032 465.928 232.427 466.613 232.97C465.145 233.065 463.672 233.065 462.203 232.97C454.463 231.81 448.303 227.91 443.323 222.06ZM413.243 130.54C410.056 130.11 406.813 130.478 403.803 131.61C405.363 133.53 408.393 135 412.503 135.48C415.553 135.84 418.663 135.75 421.443 135.84C417.543 139.26 404.723 138.3 399.343 131.18C399.343 131.11 399.343 130.99 399.433 130.97C403.073 129.62 406.653 128.05 410.373 126.97C413.153 126.19 416.533 127.31 418.993 129.2C415.803 129.11 412.933 127.96 409.923 129.14L413.243 130.54ZM416.243 153.72C418.243 153.28 420.243 152.84 422.243 152.35C427.883 150.94 432.963 151.9 437.313 156.05C435.403 155.5 433.513 154.86 431.573 154.42C429.655 153.798 427.609 153.681 425.633 154.08L430.573 156.66C426.503 155.99 422.493 154.76 418.353 156.1C418.183 157.24 419.063 157.56 419.683 157.96C423.419 160.45 427.649 162.104 432.083 162.81C435.151 163.402 438.299 163.449 441.383 162.95C430.953 168.08 417.203 162.18 412.713 154.87C413.767 154.203 414.969 153.808 416.213 153.72H416.243ZM431.343 178.58C432.771 178.556 434.196 178.456 435.613 178.28C438.913 177.749 442.297 178.208 445.336 179.598C448.376 180.988 450.936 183.247 452.693 186.09C448.443 183.57 444.623 181.23 439.933 180.86L444.353 184.51C444.283 184.65 444.213 184.79 444.133 184.93C440.133 182.87 435.963 181.23 431.233 181.54C433.343 187.24 445.233 193.36 455.723 194.14C453.827 194.813 451.824 195.131 449.813 195.08C439.073 194.44 431.113 189.3 425.863 179.93C425.713 179.528 425.599 179.113 425.523 178.69C427.553 178.66 429.433 178.65 431.313 178.58H431.343ZM444.873 138.18C445.706 136.735 446.46 135.246 447.133 133.72C447.663 132.66 448.243 131.63 448.823 130.55C453.963 134.97 456.173 147.55 449.663 156.55C451.973 149.55 452.663 142.55 449.333 135.6C447.333 137.29 446.733 139.6 446.333 146.24L445.223 142.12C443.763 145.43 443.723 148.79 444.033 152.24C443.267 151.475 442.802 150.46 442.723 149.38C441.957 145.513 442.716 141.499 444.843 138.18H444.873ZM423.243 115.28C424.003 112.84 424.933 110.47 425.803 108.07C425.96 107.723 426.144 107.388 426.353 107.07C431.413 109.69 433.353 121.19 429.753 127.9C430.513 121.99 430.493 116.35 427.143 110.73C425.343 113.34 425.763 116.01 425.453 118.82L424.283 116.82C423.203 119.96 424.333 122.67 424.373 125.82C423.418 124.256 422.819 122.501 422.618 120.679C422.418 118.858 422.621 117.014 423.213 115.28H423.243ZM403.243 89.3799C406.563 91.6299 407.903 96.9899 406.243 102.16C406.243 98.6699 406.013 95.2299 403.783 92.0199C401.993 93.6899 402.683 95.6399 402.363 97.3799L401.213 96.3799V101.21C399.443 98.1699 400.393 93.4099 403.183 89.3799H403.243ZM382.403 93.7099C384.603 94.8999 386.863 96.0199 389.023 97.2899C400.862 104.443 411.518 113.389 420.613 123.81C433.423 138.11 443.353 154.26 451.483 171.57C456.352 182.02 460.44 192.816 463.713 203.87C461.293 197.96 458.993 192 456.453 186.14C448.449 167.626 438.082 150.225 425.613 134.37C420.449 127.75 414.882 121.455 408.943 115.52C401.066 107.555 392.283 100.54 382.773 94.6199C382.523 94.4699 382.293 94.2999 382.053 94.1299C382.173 93.9899 382.253 93.8099 382.343 93.7099H382.403ZM382.493 106.78C383.983 106.24 385.493 105.72 387.003 105.26C388.459 104.771 390.001 104.598 391.529 104.751C393.057 104.905 394.534 105.381 395.863 106.15C393.423 106.22 391.333 105.22 388.793 106.02L391.163 107.32C388.691 106.882 386.146 107.141 383.813 108.07C388.183 111.19 392.723 111.2 397.453 111C393.263 113.72 384.653 112 380.883 107.59C381.385 107.302 381.903 107.042 382.433 106.81L382.493 106.78ZM351.613 106.45C375.494 121.323 395.671 141.443 410.613 165.28C432.253 199.64 441.683 237.19 439.333 277.67C436.723 323.31 417.323 357.81 406.073 372.81C406.013 371.6 405.933 370.81 405.943 369.98C406.023 361.982 405.353 353.993 403.943 346.12C401.093 330.51 394.943 316.52 383.753 305C383.423 304.66 383.123 304.29 382.623 303.72C384.193 301.31 385.673 299.05 387.143 296.78L327.313 254.52C328.033 253.77 328.493 253.23 329.003 252.77C343.443 239.61 351.933 223.28 355.083 204.06C356.861 193.243 357.365 182.254 356.583 171.32C355.723 159.45 354.583 147.6 353.503 135.74C353.353 134.224 353.096 132.72 352.733 131.24V139.01C352.003 138.52 351.563 138.27 351.163 137.95C345.719 133.478 338.726 131.346 331.713 132.02C329.211 132.166 326.83 133.148 324.953 134.81C323.913 135.661 323.205 136.85 322.953 138.17L324.783 137.59C334.193 134.3 343.043 136.03 351.533 140.68C352.087 140.981 352.518 141.465 352.753 142.05C353.839 145.582 354.069 149.322 353.423 152.96C352.713 152.42 352.203 152.1 351.773 151.7C343.443 143.9 332.873 144.56 324.613 149.9C324.019 150.198 323.49 150.611 323.057 151.116C322.624 151.621 322.297 152.207 322.093 152.84C325.343 152.34 327.663 150.49 330.423 149.1C330.673 151.85 330.983 154.4 333.363 156C334.977 157.062 336.897 157.558 338.823 157.41C342.963 157.19 344.823 155.16 345.823 149.57C346.573 149.57 347.31 149.769 347.959 150.146C348.607 150.524 349.143 151.067 349.513 151.72C350.641 153.36 351.523 155.155 352.133 157.05C352.88 159.825 353.366 162.664 353.583 165.53C354.373 175.53 353.583 185.53 352.473 195.44C352.153 198.22 351.723 200.98 351.293 203.74C351.243 204.445 351.031 205.13 350.673 205.74C348.313 208.74 345.873 211.74 343.123 215.09C340.373 201.49 332.733 192.49 319.693 187.61C320.693 186.95 321.303 186.44 322.003 186.06C324.333 184.8 325.063 183.34 324.603 180.37L323.383 182.03C321.843 170.39 321.903 159.03 320.493 147.72C320.377 148.763 320.32 149.811 320.323 150.86C320.743 158.28 321.323 165.7 321.603 173.12C321.604 176.072 321.42 179.021 321.053 181.95C320.964 182.665 320.758 183.361 320.443 184.01C319.813 185.46 318.943 186.66 317.143 186.72C316.263 186.832 315.369 186.678 314.576 186.279C313.784 185.88 313.128 185.254 312.693 184.48C312.251 183.721 311.966 182.881 311.853 182.01C311.643 180.01 311.583 178.01 311.523 176.01C311.293 167.79 311.093 159.57 310.463 151.34C310.403 153.86 310.313 156.34 310.313 158.88C310.313 166.08 310.313 173.27 310.313 180.47C310.388 181.105 310.351 181.748 310.203 182.37C310.013 182.87 309.473 183.52 309.023 183.57C308.735 183.538 308.459 183.437 308.219 183.275C307.978 183.113 307.781 182.895 307.643 182.64C307.366 181.731 307.185 180.796 307.103 179.85C305.913 181.85 305.943 183.28 307.543 184.5C308.742 185.269 310.02 185.909 311.353 186.41C312.353 186.86 313.353 187.28 314.783 187.94C303.137 194.936 294.17 205.632 289.313 218.32C288.837 218.274 288.368 218.177 287.913 218.03C275.773 212.53 264.213 206.08 254.263 197.03C248.093 191.44 242.953 185.03 239.823 177.25C237.689 171.881 236.767 166.107 237.123 160.34C237.133 159.352 237.357 158.378 237.778 157.484C238.199 156.59 238.808 155.797 239.563 155.16C244.868 150.534 249.452 145.141 253.163 139.16C256.923 133.04 259.283 126.51 258.733 119.16C258.739 118.845 258.769 118.53 258.823 118.22C259.553 117.84 260.373 117.38 261.223 116.98C269.223 113.19 277.323 109.52 285.273 105.59C292.857 101.967 299.92 97.3423 306.273 91.8399C308.523 89.8399 310.513 87.5199 312.523 85.4399C312.862 85.4673 313.197 85.5276 313.523 85.6199C324.963 91.5099 335.053 99.1099 343.033 109.29C347.563 114.965 350.829 121.541 352.613 128.58C352.403 126.27 352.143 123.96 351.983 121.65C351.864 120.551 351.891 119.442 352.063 118.35C352.666 115.199 352.581 111.955 351.813 108.84C351.627 108.058 351.559 107.252 351.613 106.45ZM214.113 256.99C217.763 255.81 220.693 253.45 224.333 252.29C225.233 252 226.733 253.35 227.523 253.92C239.303 262.43 252.623 267.45 266.523 271.09C275.85 273.709 285.534 274.83 295.213 274.41C299.213 274.17 303.103 273.34 307.043 272.76C307.643 272.68 308.243 272.56 309.133 272.4C308.733 273.34 308.503 274 308.133 274.62C306.313 278.18 304.423 281.7 302.653 285.28C302.367 285.92 301.934 286.483 301.388 286.923C300.842 287.363 300.199 287.667 299.513 287.81C290.834 290.06 281.835 290.811 272.903 290.03C253.714 288.362 235.614 280.403 221.413 267.39C218.803 265.04 216.493 262.39 214.073 259.82C213.533 259.26 213.073 258.59 212.523 257.82C213.029 257.5 213.561 257.222 214.113 256.99ZM201.613 261.09C198.293 254.45 204.163 242.5 211.133 240.44C212.133 245.15 213.223 249.86 214.313 254.79L201.613 261.09ZM215.753 106.7C227.593 104.03 238.693 99.3099 249.753 94.3499C259.443 89.9799 269.123 85.5899 279.303 82.4399C289.464 79.2425 300.115 77.8879 310.753 78.4399C312.093 78.5099 313.423 78.7899 315.183 79.0299C314.593 80.0299 314.183 80.7399 313.733 81.4099C308.883 88.0099 302.623 93.0599 295.733 97.4099C287.293 102.81 278.233 107.04 269.193 111.29C259.503 115.85 249.713 120.21 240.523 125.76C234.698 129.123 229.376 133.291 224.713 138.14C220.499 142.582 217.383 147.948 215.613 153.81C215.383 154.57 215.203 155.36 215.043 156.14C215.05 156.461 215.093 156.779 215.173 157.09C215.553 156.72 215.903 156.53 216.023 156.25C220.793 144.41 229.483 135.96 239.863 129.11C244.523 126.03 249.503 123.45 254.353 120.66C254.948 120.363 255.559 120.099 256.183 119.87C256.546 120.302 256.805 120.811 256.94 121.359C257.076 121.907 257.083 122.479 256.963 123.03C256.582 128.326 254.801 133.427 251.803 137.81C248.652 142.536 245.052 146.946 241.053 150.98C237.053 155.02 233.157 159.143 229.363 163.35C226.109 166.785 223.447 170.735 221.483 175.04C220.62 177.186 219.902 179.388 219.333 181.63C219.125 182.565 219.071 183.528 219.173 184.48C219.221 184.691 219.323 184.887 219.468 185.048C219.614 185.209 219.798 185.33 220.003 185.4C220.343 185.4 220.763 185.01 221.083 184.71C221.233 184.57 221.243 184.27 221.273 184.03C222.063 177.03 225.593 171.41 229.743 166.03C231.013 164.39 232.463 162.89 233.863 161.36C234.277 160.972 234.718 160.614 235.183 160.29C236.113 161.29 235.933 162.49 235.893 163.56C235.712 172.588 234.853 181.59 233.323 190.49C231.73 198.73 229.459 206.824 226.533 214.69C226.223 215.52 225.403 216.46 226.533 217.26C227.163 217.71 228.073 217.07 228.663 215.5C229.663 212.88 230.453 210.2 231.343 207.55C231.583 206.82 231.823 206.09 232.213 204.93C233.354 206.498 234.819 207.802 236.508 208.755C238.197 209.707 240.071 210.285 242.003 210.45C242.303 210.45 242.603 210.45 242.903 210.45C241.663 215.31 237.013 228.52 236.723 228.37C233.486 226.768 230.448 224.791 227.673 222.48C211.814 209.829 201.069 191.866 197.423 171.91C194.253 156.453 195.907 140.395 202.163 125.91C204.791 119.804 208.265 114.098 212.483 108.96C213.269 107.841 214.428 107.039 215.753 106.7ZM207.483 99.4799C207.396 98.1469 207.768 96.8241 208.538 95.7322C209.307 94.6403 210.428 93.8454 211.713 93.4799C212.957 93.1837 214.215 92.9533 215.483 92.7899C224.723 91.1699 233.563 88.0999 242.433 85.1699C252.373 81.8899 262.293 78.5499 272.323 75.5799C279.987 73.2504 287.976 72.1732 295.983 72.3899C300.947 72.4937 305.854 73.465 310.483 75.2599C310.913 75.4299 311.323 75.6599 311.733 75.8599C299.943 74.6299 288.963 77.7699 278.083 81.3799C266.163 85.3199 254.733 90.5099 243.083 95.2499C236.433 97.9599 229.673 100.42 222.913 102.85C220.783 103.533 218.599 104.032 216.383 104.34C215.122 104.561 213.837 104.608 212.563 104.48C209.423 104.2 207.733 102.47 207.483 99.4799ZM288.213 224.81C288.436 224.832 288.66 224.796 288.865 224.707C289.069 224.618 289.248 224.478 289.383 224.3C289.719 223.667 289.978 222.995 290.153 222.3C294.415 209.004 303.201 197.622 314.983 190.13C315.779 189.549 316.72 189.198 317.702 189.115C318.685 189.032 319.671 189.22 320.553 189.66C331.083 194.02 337.413 201.95 340.493 212.66C340.963 214.27 341.243 215.93 341.633 217.56C341.823 218.36 342.063 219.15 342.273 219.94L342.813 219.99C343.713 216.32 346.573 214.07 349.043 211.32C349.108 211.804 349.108 212.295 349.043 212.78C345.719 225.261 339.617 236.829 331.193 246.62C329.473 248.62 327.623 250.49 325.813 252.42C323.812 254.4 321.222 255.678 318.433 256.06C313.573 256.99 308.893 256.16 304.293 254.71C297.216 252.365 290.642 248.712 284.913 243.94C267.441 230.195 253.357 212.624 243.743 192.58C242.528 190.316 241.71 187.86 241.323 185.32C253.593 200.879 269.73 212.948 288.123 220.32C287.894 221.407 287.724 222.505 287.613 223.61C287.6 223.845 287.648 224.079 287.754 224.29C287.859 224.5 288.017 224.68 288.213 224.81ZM267.763 233.81C275.253 241.93 283.763 248.74 293.883 253.39C299.465 256.016 305.442 257.706 311.573 258.39C312.443 258.48 313.313 258.63 314.183 258.77C314.323 258.77 314.443 258.93 314.753 259.13C313.913 261.13 313.073 263.2 312.223 265.26C311.983 265.85 311.723 266.43 311.483 267.03C309.913 270.83 309.913 270.82 306.003 271.7C298.947 273.172 291.71 273.577 284.533 272.9C275.233 272.21 266.323 269.85 257.533 266.81C246.773 263.134 236.612 257.898 227.373 251.27C232.208 245.163 236.117 238.377 238.973 231.13C240.203 228.02 245.433 212.07 245.043 209.87C244.653 207.67 244.203 205.35 244.173 205.35C244.023 206.08 243.693 207.56 243.173 209.56C242.083 209.2 240.993 208.84 239.933 208.43C238.449 207.868 237.157 206.891 236.21 205.617C235.264 204.343 234.703 202.824 234.593 201.24C234.398 198.698 234.448 196.143 234.743 193.61C235.273 189.33 236.093 185.09 236.803 180.84C236.939 180.431 237.113 180.036 237.323 179.66C237.783 181.03 238.133 182.08 238.493 183.12C244.913 201.87 254.213 219.05 267.763 233.81ZM227.393 224.7C229.733 226.38 233.393 228.76 236.273 230.7C233.203 238.03 229.273 245.01 224.683 248.7C223.323 249.77 216.803 253.24 216.803 253.24C214.313 247.15 214.463 229.09 219.453 218.72C222.123 220.68 224.713 222.74 227.393 224.65V224.7ZM304.543 285.56C308.813 277.56 312.543 269.22 316.543 261C317.193 259.63 317.813 258.77 319.493 258.83C321.434 258.825 323.313 258.151 324.813 256.92C325.187 256.553 325.69 256.348 326.213 256.348C326.737 256.348 327.239 256.553 327.613 256.92C329.113 258.09 330.713 259.14 332.493 260.4C330.783 264.4 329.273 268.06 327.623 271.68C318.444 291.757 307.182 310.815 294.023 328.54C285.36 340.231 276.01 351.397 266.023 361.98C250.313 378.597 233.203 393.833 214.883 407.52C214.193 408.03 213.463 408.52 212.363 409.22C212.427 408.566 212.537 407.918 212.693 407.28C214.903 400.78 217.183 394.28 219.353 387.78C219.883 386.18 221.083 385.33 222.243 384.39C232.389 376.21 242.036 367.431 251.133 358.1C272.203 336.28 290.293 312.29 304.543 285.51V285.56ZM350.543 112.56C350.583 113.186 350.583 113.814 350.543 114.44L350.093 114.61C340.919 101.646 328.696 91.1372 314.503 84.0099L317.143 80.2299C317.693 79.4499 318.413 79.4799 319.273 79.6699C324.528 80.7906 329.494 82.983 333.863 86.1099C341.793 91.7899 347.393 99.1099 349.863 108.71C350.179 109.949 350.429 111.204 350.613 112.47L350.543 112.56ZM261.793 3.96994C263.114 2.33829 265.009 1.27386 267.09 0.994946C269.171 0.716032 271.279 1.24377 272.983 2.46994C276.743 4.94994 277.933 9.17994 275.783 12.9699C274.073 12.5899 272.283 12.2599 270.533 11.7799C269.89 11.5744 269.208 11.5226 268.541 11.6285C267.874 11.7344 267.241 11.9952 266.693 12.3899C265.323 13.3899 263.823 14.0899 262.433 14.8999C260.991 13.4816 260.126 11.5779 260.008 9.55821C259.89 7.53856 260.526 5.54699 261.793 3.96994ZM209.283 44.1599C214.927 38.932 221.407 34.6865 228.453 31.5999C237.003 27.5999 245.703 23.9899 254.303 20.1399C257.733 18.6099 261.093 16.9299 264.483 15.3299C265.633 14.7799 266.823 14.3299 267.943 13.7499C268.14 13.6099 268.366 13.5162 268.604 13.4758C268.842 13.4354 269.086 13.4494 269.318 13.5168C269.549 13.5841 269.763 13.703 269.942 13.8646C270.122 14.0262 270.262 14.2263 270.353 14.4499C274.163 20.8699 279.703 25.7499 284.953 30.8999C288.543 34.4199 292.213 37.8999 295.503 41.6799C297.45 44.0023 299.059 46.5878 300.283 49.3599C302.613 54.4999 302.283 59.7899 300.203 64.9899C299.896 65.6871 299.706 66.4306 299.643 67.1899C301.723 64.3569 302.976 61.0026 303.263 57.4999C303.589 53.4861 302.686 49.4681 300.673 45.9799C298.679 42.4122 296.149 39.1713 293.173 36.3699C288.033 31.4599 282.753 26.6899 277.613 21.8099C275.543 19.8099 273.703 17.5899 271.793 15.4399C271.362 14.8415 270.968 14.217 270.613 13.5699C271.059 13.5325 271.507 13.5325 271.953 13.5699C294.683 18.8099 315.553 28.0699 333.663 43.0099C337.637 46.3552 341.413 49.9278 344.973 53.7099C354.413 63.5299 349.093 80.1099 337.713 84.7099C337.257 84.9404 336.747 85.0417 336.238 85.003C335.728 84.9642 335.239 84.7868 334.823 84.4899C330.335 81.5882 325.514 79.2379 320.463 77.4899C317.743 76.5599 315.113 75.3799 312.463 74.2799C312.129 74.0944 311.825 73.8582 311.563 73.5799L311.623 73.2699C311.623 73.3599 311.553 73.4599 311.513 73.5499C310.673 73.4699 309.803 73.4599 308.973 73.2999C305.843 72.6899 302.723 72.0699 299.613 71.3899C290.353 69.3899 281.363 71.2699 272.433 73.3899C267.313 74.5999 262.273 76.1799 257.283 77.8399C253.663 79.0399 250.143 80.5699 246.643 82.0999C246.178 82.3712 245.629 82.4629 245.1 82.3579C244.572 82.253 244.1 81.9585 243.773 81.5299C243.483 80.9699 243.223 80.3799 242.893 79.8499C233.103 64.2599 235.323 42.8499 247.963 29.1899C248.403 28.7099 248.783 28.1899 249.083 27.8199C245.143 30.2399 241.083 32.6499 237.173 35.1499C232.853 37.8799 228.463 40.5299 224.353 43.5399C221.114 45.8837 218.101 48.5252 215.353 51.4299C208.653 58.5999 207.493 66.8399 211.413 75.8099C213.307 80.0444 215.784 83.9928 218.773 87.5399C218.453 86.6031 218.065 85.6907 217.613 84.8099C215.003 80.6699 212.613 76.3999 211.613 71.5599C210.59 67.415 210.909 63.0523 212.523 59.0999C214.423 55.0336 217.212 51.4454 220.683 48.5999C227.253 42.8499 234.683 38.2799 241.863 33.3699C242.281 33.1845 242.716 33.0437 243.163 32.9499C240.493 36.6332 238.418 40.7129 237.013 45.0399C233.553 56.5199 234.473 67.4799 240.613 77.8099C241.542 79.1363 242.579 80.3838 243.713 81.5399C243.923 82.5399 243.453 82.9999 242.573 83.2999C240.993 83.8299 239.433 84.4599 237.843 84.9599C233.063 86.4599 228.273 87.9599 223.463 89.3799C222.233 89.7399 220.803 90.3099 219.773 88.8299L220.613 90.4099C218.75 90.6616 216.903 91.0256 215.083 91.4999C211.843 92.5699 209.363 91.3599 207.083 89.2799C201.773 84.5399 199.283 78.4399 198.653 71.5299C197.663 60.6799 201.523 51.6299 209.283 44.1599ZM200.703 83.3199C202.73 87.2107 205.82 90.4462 209.613 92.6499C207.013 94.7099 205.873 97.1799 206.403 100.27C206.933 103.36 208.773 105.43 211.933 106.78C198.933 123.14 193.203 141.71 194.373 162.39C195.271 182.323 203.406 201.244 217.253 215.61C215.923 219.76 214.513 223.67 213.453 227.61C212.827 230.24 212.409 232.915 212.203 235.61C212.208 236.192 212.043 236.763 211.729 237.253C211.414 237.743 210.964 238.131 210.433 238.37C207.462 239.879 204.882 242.059 202.898 244.737C200.914 247.415 199.581 250.518 199.003 253.8C198.43 256.667 198.737 259.64 199.883 262.33C197.222 263.993 194.46 265.489 191.613 266.81C184.733 270.01 178.353 274.4 171.683 277.98C153.951 287.3 139.108 301.295 128.763 318.45C122.233 329.24 116.533 340.45 113.693 352.77C111.983 360.23 110.833 367.83 109.593 375.39C108.883 379.72 108.533 384.11 107.993 388.48C107.903 389.18 107.713 389.86 107.513 390.86C67.5132 347.51 47.0832 278.67 67.8932 210.72C90.3532 137.29 150.723 95.4199 200.703 83.3199ZM87.3132 400.7C90.5418 401.078 93.8141 400.674 96.8532 399.52C95.2132 397.52 93.1132 396.95 91.1132 396.39C89.1235 395.816 87.0789 395.454 85.0132 395.31C82.8699 395.286 80.7269 395.376 78.5932 395.58C83.2832 391.89 95.9032 392.98 101.173 399.98C101.173 400.05 101.173 400.17 101.083 400.19C97.4432 401.54 93.8732 403.19 90.0832 404.13C88.6317 404.469 87.1185 404.44 85.6811 404.045C84.2437 403.651 82.9279 402.903 81.8532 401.87L86.1332 402.49C87.6358 402.882 89.2306 402.696 90.6032 401.97L87.3132 400.7ZM69.9132 374.53C74.1009 375.617 78.4736 375.787 82.7332 375.03C82.212 374.429 81.6471 373.868 81.0432 373.35C77.3418 370.807 73.1308 369.101 68.7032 368.35C65.5615 367.723 62.3319 367.676 59.1732 368.21C66.9432 363.51 82.2332 367.21 87.8832 376.52L83.7132 377.47C82.0752 377.748 80.4556 378.126 78.8632 378.6C74.0832 380.34 66.8632 379.35 63.2032 375.08C66.8854 376.464 70.7559 377.284 74.6832 377.51L74.8632 377.04L69.9132 374.53ZM56.2532 346.75L56.4332 346.3C60.4332 348.3 64.6132 349.84 69.4332 349.66C66.9032 344.47 55.6332 337.12 44.9432 337.14C53.7632 333.42 70.1732 339.9 74.9432 352.48C73.1232 352.53 71.4032 352.55 69.6832 352.62C67.9632 352.69 66.3432 352.72 64.6832 352.95C56.8832 354.02 50.3032 349.72 47.9632 345.26C52.1132 347.54 55.8832 349.98 60.5632 350.26L56.2532 346.75ZM45.9632 315.13C45.1051 314.054 44.3454 312.902 43.6932 311.69C48.0832 315.16 52.5532 318.4 58.4632 318.82C56.233 313.684 52.7207 309.208 48.2632 305.82C43.921 302.342 38.8583 299.876 33.4432 298.6C35.2343 298.048 37.1342 297.948 38.9732 298.31C46.2108 299.585 52.7311 303.466 57.3032 309.22C60.2757 312.79 62.5273 316.902 63.9332 321.33C64.1532 321.99 64.2732 322.68 64.4532 323.43C63.0403 323.907 61.5146 323.939 60.0832 323.52C57.0637 322.834 53.9994 322.363 50.9132 322.11C44.8432 321.52 40.2432 318.11 36.9732 313.01C36.3155 311.949 35.8105 310.801 35.4732 309.6C39.2732 312.71 42.8332 316.04 47.2832 318.13C47.5021 318.227 47.7389 318.277 47.9782 318.277C48.2176 318.277 48.4543 318.227 48.6732 318.13C47.7632 317.16 46.8132 316.18 45.9632 315.13ZM43.6132 219.44C44.3832 218.33 45.1032 217.17 45.9432 216.11C46.7832 215.05 47.7932 214.04 48.9432 212.76C46.7132 213.08 45.0432 213.92 41.7632 216.49C39.6932 218.11 37.7632 219.87 35.4332 221.83C35.5066 221.257 35.6407 220.694 35.8332 220.15C38.8332 214.45 43.1932 210.35 49.6032 209.28C53.4232 208.64 57.3132 208.34 61.1232 207.49C62.2259 207.333 63.3401 207.273 64.4532 207.31C61.7832 221.03 48.2132 234.24 33.8832 232.69C42.1997 230.424 49.551 225.509 54.8232 218.69C56.3132 216.77 57.9132 214.88 58.6332 212.42C55.3432 211.86 50.2932 214.35 43.6132 219.44ZM56.2032 184.44C57.7432 183.227 59.2799 182.013 60.8132 180.8C56.1232 181.18 52.2032 183.44 48.2232 185.69C49.0173 184.058 50.2238 182.662 51.7232 181.64C53.6537 180.14 55.8849 179.074 58.2647 178.515C60.6445 177.956 63.1168 177.917 65.5132 178.4C66.6165 178.55 67.7302 178.61 68.8432 178.58C70.8432 178.58 72.8432 178.58 74.8432 178.58C74.3532 182.17 69.6532 187.74 64.5132 190.88C58.5832 194.51 52.2132 195.88 45.3432 194.23C50.0032 193.837 54.5518 192.593 58.7632 190.56C62.9586 188.578 66.6457 185.664 69.5432 182.04C67.1432 180.87 64.0832 181.56 56.1832 184.46L56.2032 184.44ZM69.8532 156.7L74.8532 154.11C70.7132 153.58 66.9632 154.91 63.1532 155.98C65.3212 153.617 68.2902 152.145 71.4832 151.85C74.1823 151.472 76.9331 151.778 79.4832 152.74C81.0071 153.198 82.5655 153.532 84.1432 153.74C85.3632 153.99 86.5832 154.29 87.8532 154.58C84.7732 161.07 70.7732 168.47 58.5932 162.96C67.7432 164.06 75.5032 162.04 82.2732 156.53C78.0032 154.81 73.9632 155.93 69.8332 156.72L69.8532 156.7ZM87.6132 130.43L91.0132 128.96C87.5732 127.9 84.7032 129.11 81.3832 129.32C83.0231 127.819 85.1604 126.979 87.3832 126.96C89.0494 126.852 90.7216 127.038 92.3232 127.51C94.9032 128.27 97.4032 129.34 99.9232 130.3C100.351 130.495 100.768 130.712 101.173 130.95C97.0132 137.44 84.4532 139.67 78.6532 135.54C83.1862 136.407 87.8694 136.026 92.2032 134.44C93.5327 133.906 94.8285 133.292 96.0832 132.6C96.3232 132.48 96.4532 132.14 96.7532 131.73C93.7432 130.29 90.7332 130.31 87.6132 130.43ZM103.183 111.18C107.733 111.18 112.293 111.18 116.623 108.18C114.293 106.84 112.083 107 109.833 107.04L111.833 106.04C109.243 105.16 107.213 106.15 105.043 105.91C106.003 105.453 107.009 105.097 108.043 104.85C110.258 104.454 112.54 104.722 114.603 105.62C116.153 106.34 117.843 106.77 119.683 107.41C117.003 111.64 108.053 113.51 103.193 111.18H103.183ZM97.1832 89.3699C99.6832 92.1999 100.893 97.5799 99.5032 100.8C99.5032 100.14 99.5032 99.4699 99.5032 98.7999C99.5032 98.1299 99.4332 97.4099 99.3732 96.3299L98.1932 97.3899C97.9132 95.6499 98.4332 93.7799 97.0632 92.1499C95.0632 94.4199 94.9032 94.9999 94.2932 102.15C92.5232 97.5699 94.0932 91.4399 97.1932 89.3699H97.1832ZM73.9332 107.07C74.0632 107.15 74.2832 107.19 74.3232 107.3C75.6132 111.14 77.6132 114.81 77.9632 118.81C78.1951 121.236 77.5532 123.665 76.1532 125.66C76.2432 122.6 77.2932 119.9 76.4032 116.72L75.0232 118.72C75.0232 115.96 74.9432 113.44 73.8532 111.07C72.5232 111.29 72.3832 112.36 72.0432 113.17C70.1032 117.81 70.0432 122.63 70.7732 127.48C66.6832 121.35 69.6132 109.63 73.9432 107.07H73.9332ZM102.933 102.92C107.656 99.4805 112.676 96.4686 117.933 93.9199C118.353 93.7199 118.783 93.5599 119.203 93.3799L119.353 93.6499C119.053 93.8399 118.763 94.0399 118.463 94.2199C106.223 101.54 95.6632 110.88 86.0032 121.31C77.2176 130.832 69.287 141.108 62.3032 152.02C52.3209 167.591 44.1005 184.223 37.7932 201.61C37.6905 201.943 37.4923 202.239 37.2232 202.46C37.2212 202.218 37.2447 201.977 37.2932 201.74C44.2932 180.19 53.4932 159.74 66.4132 141C76.5332 126.35 88.4032 113.38 102.893 102.92H102.933ZM51.4832 130.58C52.4929 131.678 53.2596 132.976 53.7332 134.39C54.3832 135.74 55.0732 137.09 55.8432 138.39C57.1379 140.456 57.8916 142.816 58.0349 145.25C58.1782 147.684 57.7065 150.116 56.6632 152.32C56.7688 150.655 56.7688 148.985 56.6632 147.32C56.4532 145.63 56.6632 143.81 55.4332 141.71L54.3332 146.3C54.1432 142.53 53.7632 138.91 51.6132 135.68C47.9632 142.59 48.6132 149.59 51.2232 156.98C45.3032 149.49 45.5232 137.02 51.4832 130.58ZM30.6732 159.31C32.1532 160.31 32.9632 161.89 33.9732 163.31C34.9584 164.75 36.0164 166.138 37.1432 167.47C41.0932 171.96 41.9432 177.13 40.5232 182.83C40.1632 180.83 39.9032 178.83 39.4232 176.83C38.9432 174.83 38.7432 172.98 37.0632 170.94V176.86C34.5332 168.21 33.8832 166.73 31.5032 165.13C30.1332 169.13 30.4532 173.13 31.1232 177.13C31.9049 181.198 33.4013 185.095 35.5432 188.64C27.3532 182.06 25.7632 166.89 30.6732 159.31ZM14.1132 193.93C14.3032 193.41 14.5432 192.93 14.8332 192.22C15.3458 192.406 15.841 192.637 16.3132 192.91C16.8365 193.282 17.3103 193.718 17.7232 194.21C19.912 196.727 22.2495 199.112 24.7232 201.35C29.3232 205.76 30.3332 211.55 29.4732 217.72C29.3732 218.42 29.1832 219.12 29.0132 219.82C29.0132 219.95 28.8232 220.05 28.6532 220.26C27.9032 214.93 26.9532 209.72 24.0132 204.65C23.3632 206.33 24.0732 207.65 24.0132 208.86C23.9968 210.157 23.9133 211.452 23.7632 212.74C22.4132 207.74 20.8532 202.94 16.9932 199.18C15.3632 201.69 15.3132 208.98 16.7332 215.03C17.9232 220.238 20.2752 225.109 23.6132 229.28L23.2232 229.61C22.4332 229.02 21.5932 228.47 20.8532 227.82C15.9197 223.507 12.8512 217.449 12.2932 210.92C11.5276 205.193 12.1518 199.365 14.1132 193.93ZM11.4832 280.93C6.0332 274.83 5.2432 259.19 11.0632 251.14C11.4532 251.83 11.8032 252.39 12.1132 252.97C13.2246 255.281 14.8309 257.32 16.8184 258.941C18.8058 260.562 21.1256 261.726 23.6132 262.35C24.7761 262.565 25.952 262.702 27.1332 262.76C26.9382 259.137 25.5891 255.671 23.2832 252.87C21.0792 250.093 18.1619 247.967 14.8432 246.72C22.4632 240.24 36.6632 239.72 44.6932 246.72C42.2121 247.653 39.9487 249.084 38.0429 250.926C36.1371 252.768 34.6295 254.982 33.6132 257.43C32.7798 259.043 32.4324 260.863 32.6132 262.67C36.0964 262.71 39.487 261.548 42.2132 259.38C45.0239 257.203 47.174 254.288 48.4232 250.96C53.9032 258.68 54.0232 273.08 48.1832 281.1C46.1832 276.03 42.8932 272.1 37.9532 269.89C35.6532 268.83 34.6032 268.66 32.7032 268.95C32.6332 272.62 34.3632 275.62 36.3332 278.51C38.3032 281.4 41.1732 283.28 44.3332 284.85C37.2532 291.41 23.8732 291.73 15.1532 285.01C18.2932 283.27 21.2832 281.46 23.3132 278.51C25.4203 275.637 26.7218 272.254 27.0832 268.71C26.1611 268.724 25.2416 268.811 24.3332 268.97C21.7053 269.685 19.2675 270.97 17.1933 272.735C15.1191 274.5 13.4597 276.7 12.3332 279.18C12.1932 279.47 12.0932 279.77 11.9632 280.06C11.8332 280.35 11.6132 280.62 11.4832 280.93ZM22.7232 331.59C21.7873 332.312 20.9324 333.134 20.1732 334.04C19.0332 335.27 17.9932 336.59 16.8432 337.81C16.2747 338.311 15.6622 338.759 15.0132 339.15C14.6792 338.538 14.382 337.907 14.1232 337.26C11.4232 329.2 11.0632 321.13 14.1232 313.07C15.9009 308.148 19.3473 304.004 23.8632 301.36C18.39 308.139 15.5207 316.651 15.7732 325.36C15.8232 327.53 15.3732 329.8 16.7732 332.12C20.7732 328.3 22.3432 323.53 23.5732 318.53C24.3032 321.03 23.8332 323.53 23.5732 326.29C25.7732 324.44 27.1832 320.1 28.7032 311.04C31.4732 317.95 28.7032 327.44 22.7232 331.59ZM36.2732 364.64C35.5859 365.409 34.97 366.239 34.4332 367.12L30.8532 372.21C25.9632 364.37 27.0832 350.07 35.2232 342.87C34.8732 343.6 34.5532 344.34 34.2232 345.05C31.4945 350.243 30.2457 356.085 30.6132 361.94C30.5415 363.478 30.9887 364.996 31.8832 366.25C34.8832 362.68 35.8832 358.59 36.8832 354.36V360.18C37.5232 359.47 37.9432 359.18 38.0332 358.87C38.6999 356.337 39.3399 353.79 39.9532 351.23C40.1632 350.31 40.2432 349.36 40.4532 347.87C40.7131 348.397 40.9175 348.95 41.0632 349.52C41.8232 355.3 40.6132 360.45 36.2732 364.64ZM55.3532 393.51C54.8115 394.386 54.3433 395.306 53.9532 396.26L51.7232 400.81C45.9132 394.91 44.9132 382.51 51.1632 374.19C48.5932 381.64 47.9132 388.63 51.4532 396.07C53.8032 392.36 54.0632 388.76 54.3132 385C54.4632 385.67 54.6132 386.34 54.7732 387C54.9138 387.701 55.1635 388.376 55.5132 389C56.8932 385.73 56.7432 382.31 56.8932 378.81C57.3109 379.8 57.6454 380.824 57.8932 381.87C58.2755 383.881 58.2476 385.949 57.8112 387.949C57.3747 389.949 56.5387 391.841 55.3532 393.51ZM77.9232 412.62C77.5141 414.478 77 416.311 76.3832 418.11C76.0432 419.26 75.6732 420.39 75.2832 421.52C74.9832 422.41 74.6232 423.28 74.2032 424.41C68.7632 419.82 67.2032 409.79 70.7232 403.51C69.7932 410.62 70.7232 417.04 73.3832 420C74.7032 418.69 74.7532 418.48 75.0932 412.47L76.0032 413.95C77.0632 412.38 77.0732 411.47 76.1232 406C76.8852 406.907 77.4409 407.969 77.7517 409.112C78.0625 410.255 78.121 411.452 77.9232 412.62ZM97.3532 441.81C93.9932 439.93 92.7332 433.73 94.2532 429.08C94.7032 435.59 95.0532 436.88 97.1132 439C98.4332 437.45 97.9532 435.56 98.1132 433.8L99.3132 434.89V430.05C101.443 433.34 99.6132 437.3 97.3532 441.81ZM117.683 437.12C108.996 432.843 100.924 427.418 93.6832 420.99C78.1632 407.53 66.0232 391.38 56.0832 373.49C48.9206 360.367 42.9565 346.625 38.2632 332.43C38.0132 331.69 37.8232 330.93 37.6132 330.17H37.7732C40.6332 336.84 43.3732 343.56 46.3832 350.17C53.8344 366.646 63.2855 382.143 74.5232 396.31C79.3532 402.36 84.4532 408.23 89.7832 413.84C99.1932 423.73 107.723 430.35 119.153 437.67C118.663 437.49 118.153 437.33 117.683 437.11V437.12ZM119.333 423.81C116.033 424.86 112.973 426.86 109.333 426.45C107.878 426.204 106.438 425.87 105.023 425.45C105.083 425.29 105.133 425.12 105.193 424.95C107.338 425.44 109.562 425.481 111.723 425.07L109.993 424.19C110.083 424.09 110.163 423.93 110.243 423.93C111.443 423.93 112.643 423.93 113.833 423.87C114.707 423.733 115.569 423.532 116.413 423.27C114.253 420.86 111.583 420.27 103.213 420.07C107.583 417.51 115.993 419.21 119.483 423.35C119.423 423.49 119.413 423.74 119.333 423.81ZM193.973 446.61C161.935 436.771 133.041 418.691 110.183 394.18C109.744 393.784 109.408 393.286 109.208 392.729C109.007 392.173 108.947 391.575 109.033 390.99C110.293 382.06 111.283 373.08 112.743 364.17C116.843 339.17 128.093 317.73 145.423 299.46C154.473 289.92 165.273 282.65 177.073 276.86C184.893 273.02 207.223 260.05 210.753 258.46C234.953 285.53 264.383 296.63 300.563 289.21C280.321 325.224 253.317 356.992 221.033 382.77C222.403 377.15 225.213 372 225.283 366.09C214.393 392.62 204.223 419.38 196.413 447.19C195.463 446.93 194.703 446.81 193.973 446.57V446.61ZM235.073 453.86C232.293 453.54 229.513 453.29 226.733 453.04C225.063 452.89 223.373 452.93 221.733 452.67C219.223 452.27 216.733 451.67 214.243 451.16C210.583 450.45 206.923 449.79 203.243 449.09C202.776 448.99 202.32 448.843 201.883 448.65C199.623 447.65 199.553 447.57 200.263 445.27C201.673 440.7 203.143 436.16 204.533 431.59C205.163 429.54 205.593 427.42 206.243 425.38C206.703 423.95 207.443 422.61 207.953 421.19C208.763 418.93 209.543 416.66 210.223 414.36C210.627 412.979 211.523 411.794 212.743 411.03C232.994 397.259 251.652 381.281 268.373 363.39C286.189 344.431 301.727 323.456 314.673 300.89C321.515 288.975 327.548 276.614 332.733 263.89C333.023 263.17 333.433 262.51 333.973 261.45C346.643 270.12 358.813 278.73 370.843 287.63C370.433 288.63 370.183 289.27 369.843 289.9C358.364 313.143 344.985 335.398 329.843 356.44C318.864 371.784 307 386.475 294.313 400.44C282.835 413.138 270.688 425.215 257.923 436.62C251.923 441.92 245.803 447 239.783 452.25C239.157 452.835 238.412 453.277 237.599 453.546C236.786 453.815 235.924 453.905 235.073 453.81V453.86ZM262.013 453.98C258.343 454.09 254.683 454.27 251.013 454.35C248.073 454.41 245.123 454.35 242.183 454.35C242.123 454.17 242.063 453.98 241.993 453.8C297.713 408.63 340.083 352.8 372.873 289.1L384.733 296.96C384.303 297.81 384.013 298.54 383.593 299.19C367.653 324.29 351.313 349.12 333.713 373.1C321.613 389.51 309.023 405.5 295.543 420.81C285.883 431.81 275.853 442.43 265.143 452.42C264.337 453.314 263.214 453.859 262.013 453.94V453.98ZM267.243 453.8C279.557 442.068 291.221 429.673 302.183 416.67C302.303 416.54 302.613 416.56 303.363 416.39C303.883 426.6 304.363 436.55 304.903 446.73C292.661 450.518 280.025 452.893 267.243 453.81V453.8ZM311.773 444.1C310.133 444.65 308.483 445.1 306.663 445.72C306.487 445.113 306.353 444.495 306.263 443.87C306.103 441.323 305.967 438.773 305.853 436.22C305.543 429.22 305.233 422.22 304.963 415.17C304.927 414.54 305.096 413.916 305.443 413.39C307.293 410.98 309.223 408.64 311.153 406.3C311.263 406.15 311.563 406.15 311.933 406.04C312.051 406.415 312.138 406.8 312.193 407.19C312.566 413.49 312.923 419.787 313.263 426.08C313.543 430.94 313.803 435.8 314.093 440.66C314.233 443.04 314.143 443.25 311.773 444.06V444.1ZM360.153 394.63C360.153 402.14 359.923 409.63 359.883 417.16C359.918 417.874 359.756 418.585 359.416 419.214C359.076 419.843 358.57 420.368 357.953 420.73C354.843 422.82 351.823 425.05 348.673 427.08C347.003 428.15 345.113 428.86 343.393 429.86C336.977 433.548 330.375 436.903 323.613 439.91C321.253 441.094 318.699 441.846 316.073 442.13C316.003 441.13 315.933 440.31 315.893 439.47C315.527 430.77 315.16 422.07 314.793 413.37C314.663 410.58 314.573 407.78 314.313 405C314.244 404.09 314.356 403.175 314.643 402.308C314.929 401.441 315.385 400.64 315.983 399.95C322.663 391.17 329.393 382.43 335.833 373.47C343.393 362.96 350.663 352.24 358.073 341.62C358.543 340.94 359.073 340.28 359.563 339.62L360.043 339.79C360.093 340.55 360.183 341.31 360.183 342.06C360.183 359.56 360.213 377.08 360.153 394.59V394.63ZM370.433 411.29C367.763 413.29 365.163 415.41 362.243 417.7C362.115 417.069 362.025 416.431 361.973 415.79C361.973 398.28 361.973 380.79 361.973 363.27C361.973 354.64 362.243 346.01 362.323 337.38C362.301 335.947 362.74 334.545 363.573 333.38C365.073 331.25 366.493 329.05 367.943 326.88L368.493 327.09C368.62 327.532 368.714 327.984 368.773 328.44C369.313 337.21 369.923 345.98 370.353 354.75C370.923 366.64 371.353 378.54 371.833 390.43C372.043 396.02 372.093 401.61 372.313 407.2C372.38 407.98 372.242 408.765 371.912 409.475C371.583 410.186 371.073 410.798 370.433 411.25V411.29ZM374.043 408.64C373.943 407.27 373.853 406.49 373.823 405.71C373.443 393.18 373.183 380.64 372.643 368.11C372.073 354.71 371.263 341.31 370.483 327.92C370.193 322.82 370.103 322.83 372.883 318.59L380.113 307.59C380.593 306.86 381.113 306.17 381.773 305.26C382.603 306.08 383.353 306.76 384.043 307.51C392.603 316.85 397.983 327.87 401.043 340.08C403.863 351.32 404.613 362.77 404.343 374.31C404.229 375.405 403.806 376.445 403.123 377.31C398.029 384.374 392.382 391.022 386.233 397.19C382.943 400.45 379.583 403.64 376.233 406.84C375.683 407.32 375.043 407.81 374.043 408.6V408.64ZM397.613 420.11C390.683 419.86 386.773 420.7 384.183 422.99C386.103 424.64 388.463 423.47 390.713 424.08L388.833 424.96C391.263 425.77 393.323 425.17 395.833 424.96C394.614 425.746 393.24 426.261 391.804 426.468C390.368 426.675 388.905 426.57 387.513 426.16C385.593 425.68 383.743 424.93 381.873 424.27C381.519 424.107 381.184 423.906 380.873 423.67C383.223 419.46 393.173 417.61 397.613 420.11ZM402.913 441.94C401.713 438.16 399.133 434.75 401.003 430.42V434.81L402.313 433.81C402.513 435.52 402.063 437.34 403.233 438.81C405.233 437.6 405.793 435.68 406.113 429.03C408.023 432.46 406.553 440.18 402.953 441.94H402.913ZM426.493 424.16C426.333 424.01 426.063 423.89 426.003 423.7C424.853 420.16 423.583 416.64 422.643 413.03C422.406 411.78 422.431 410.495 422.717 409.256C423.003 408.016 423.543 406.85 424.303 405.83C424.243 408.57 423.193 411.27 424.163 414.45L425.223 412.69C425.313 412.79 425.473 412.89 425.483 413C425.633 414.66 425.723 416.33 425.943 418C426.086 418.773 426.431 419.494 426.943 420.09C430.493 414.95 430.433 409.28 429.703 403.27C433.223 410.2 431.613 420.22 426.533 424.16H426.493ZM448.783 400.72L446.783 396.92C446.013 395.44 445.293 393.92 444.453 392.49C443.327 390.597 442.635 388.478 442.428 386.285C442.22 384.092 442.502 381.881 443.253 379.81C443.397 379.433 443.652 379.109 443.983 378.88C443.568 382.25 443.802 385.668 444.673 388.95L445.223 389.03C445.563 387.66 445.893 386.29 446.223 384.92C446.423 388.63 446.793 392.21 448.983 395.45C452.493 388.6 452.043 381.67 449.523 374.69C454.863 380.37 455.413 394.15 448.823 400.72H448.783ZM433.223 391.42C422.133 407.19 409.033 420.95 392.783 431.53C389.14 433.946 385.26 435.983 381.203 437.61C384.203 435.61 387.333 433.67 390.283 431.55C403.283 422.2 414.413 410.88 424.393 398.4C435.807 384.168 445.482 368.624 453.213 352.1C456.623 344.79 459.493 337.24 462.613 329.8C462.763 329.44 462.893 329.06 463.033 328.7L463.433 328.86C461.933 333.15 460.523 337.47 458.923 341.72C452.513 359.308 443.891 376.009 433.263 391.42H433.223ZM469.653 372.18C468.403 370.46 467.353 368.99 466.283 367.53C465.383 366.32 464.533 365.07 463.533 363.95C459.623 359.56 458.533 354.47 459.533 348.79C459.533 348.65 459.703 348.54 459.983 348.14C460.673 352.21 461.043 356.14 462.983 360.14C463.983 358.02 463.163 356.14 463.713 354.21C464.613 358.5 465.493 362.69 468.643 366.35C468.962 365.815 469.217 365.244 469.403 364.65C470.486 358.614 469.704 352.391 467.163 346.81C466.593 345.49 465.913 344.23 465.243 342.81C472.533 348.08 475.083 363.48 469.693 372.18H469.653ZM486.373 337.18C486.203 337.63 486.023 338.08 485.813 338.51C485.753 338.63 485.573 338.69 485.343 338.86C483.51 337.928 481.976 336.5 480.913 334.74C479.955 333.373 478.767 332.182 477.403 331.22C473.003 328.03 471.253 323.4 470.843 318.22C470.558 315.663 470.901 313.074 471.843 310.68C472.703 316.15 473.493 321.31 476.163 325.87L476.673 325.78V318.57L476.873 318.51C477.683 320.92 478.353 323.39 479.333 325.72C480.219 328.123 481.698 330.262 483.633 331.94C485.213 329.41 485.233 321.88 483.763 315.86C482.474 310.576 480.04 305.64 476.633 301.4C480.055 303.186 482.848 305.978 484.633 309.4C486.996 313.485 488.309 318.093 488.453 322.81C488.73 327.701 488.036 332.598 486.413 337.22L486.373 337.18ZM487.953 280.93C487.523 280.08 487.133 279.34 486.763 278.59C485.624 276.288 484.022 274.246 482.057 272.592C480.092 270.938 477.806 269.709 475.343 268.98C474.812 268.807 474.266 268.68 473.713 268.6C473.291 268.596 472.87 268.626 472.453 268.69C472.447 269.534 472.513 270.377 472.653 271.21C473.267 273.784 474.39 276.21 475.956 278.343C477.523 280.476 479.5 282.274 481.773 283.63C482.433 284.04 483.103 284.43 483.973 284.95C483.597 285.418 483.171 285.843 482.703 286.22C473.823 291.49 464.343 291.02 455.703 285.73C455.513 285.62 455.393 285.38 455.063 284.97C455.763 284.54 456.403 284.13 457.063 283.75C459.361 282.437 461.37 280.673 462.97 278.565C464.57 276.456 465.727 274.047 466.373 271.48C466.536 270.654 466.649 269.819 466.713 268.98C461.633 267.98 455.643 272.61 451.133 280.9C445.393 273.9 445.393 258.03 450.913 251.07C454.053 257.73 458.773 262.21 466.833 262.77C466.883 258.77 465.233 255.82 463.173 252.97C461.012 250.165 458.119 248.009 454.813 246.74C461.123 240.35 476.543 239.52 484.313 246.61C477.613 249.81 473.233 254.75 472.063 262.81C480.373 262.26 485.163 257.91 488.203 251.15C493.503 257.09 493.863 273.73 487.993 280.97L487.953 280.93Z" fill="#8BAAB9"/>
<path d="M282.773 146.98C278.738 147.695 274.972 149.488 271.873 152.17C271.142 152.935 270.458 153.743 269.823 154.59L270.213 155.07C271.213 154.53 272.273 154.07 273.213 153.46C274.993 152.39 276.703 151.21 278.513 150.2C279.476 149.5 280.657 149.167 281.843 149.26C281.843 156.04 284.003 159.05 289.053 159.36C291.378 159.631 293.717 158.985 295.573 157.56C298.133 155.5 298.093 152.56 298.083 149.31C300.083 150.18 301.563 150.92 303.083 151.52C304.603 152.12 306.003 153.04 308.333 152.65C307.579 152.005 306.792 151.401 305.973 150.84C299.04 146.575 290.714 145.19 282.773 146.98Z" fill="#8BAAB9"/>
<path d="M307.103 133.66C306.154 133.079 305.117 132.653 304.033 132.4C298.96 131.208 293.706 130.994 288.553 131.77C279.877 133.058 271.777 136.885 265.273 142.77C264.683 143.29 264.103 143.83 263.523 144.35C277.733 135.81 292.633 133.52 308.453 138.44C309.113 136.12 308.743 134.69 307.103 133.66Z" fill="#8BAAB9"/>
<path d="M279.433 159.81C284.693 164.81 295.953 164.7 300.843 159.61C293.903 162.95 286.913 163.09 279.433 159.81Z" fill="#8BAAB9"/>
<path d="M345.933 158.03C341.445 159.964 336.388 160.115 331.793 158.45C334.613 162.04 343.333 161.68 345.933 158.03Z" fill="#8BAAB9"/>
<path d="M234.033 119.21C236.413 115.45 240.033 113.92 244.243 113.3C250.096 112.486 255.854 111.096 261.433 109.15C268.633 106.58 275.433 103.3 281.323 98.3399C282.063 97.7199 282.723 96.9899 283.413 96.3399L283.073 95.9699C282.751 96.1386 282.44 96.329 282.143 96.5399C274.903 102.37 266.553 105.84 257.613 108.03C253.193 109.11 248.753 110.11 244.353 111.24C241.449 111.835 238.677 112.953 236.173 114.54C234.828 115.424 233.828 116.745 233.343 118.28C233.299 118.704 233.323 119.133 233.413 119.55C233.763 119.35 233.963 119.32 234.033 119.21Z" fill="#8BAAB9"/>
<path d="M241.793 142.13C233.273 145.43 216.043 165.69 215.463 172.72C219.533 167.48 223.373 162.1 227.663 157.11C231.953 152.12 236.823 147.37 241.793 142.13Z" fill="#8BAAB9"/>
<path d="M247.403 106.33C255.838 105.792 263.731 101.986 269.403 95.7199L268.963 94.9599C267.603 95.8399 266.253 96.7499 264.873 97.6099C263.493 98.4699 262.013 99.3599 260.543 100.16C259.073 100.96 257.713 101.65 256.263 102.3C254.813 102.95 253.153 103.55 251.623 104.23C250.093 104.91 248.503 105.03 247.403 106.33Z" fill="#8BAAB9"/>
<path d="M227.613 185.81C226.903 187.56 226.313 189.07 225.683 190.56C225.053 192.05 224.343 193.44 223.763 194.92C223.183 196.4 221.943 197.59 222.063 199.45C226.163 197.05 229.413 189.36 227.613 185.81Z" fill="#8BAAB9"/>
<path d="M230.413 145.81C227.153 146.97 221.803 153.07 220.763 156.95C224.834 154.072 228.145 150.25 230.413 145.81Z" fill="#8BAAB9"/>
<path d="M253.813 99.9299C250.493 99.6399 247.693 100.87 244.903 102.93C246.521 103.252 248.195 103.144 249.758 102.618C251.322 102.092 252.72 101.165 253.813 99.9299Z" fill="#8BAAB9"/>
<path d="M314.433 51.9299C312.993 46.1199 309.883 41.2499 305.953 36.8399C304.423 35.1299 302.883 33.4499 301.343 31.7499C301.563 31.5699 301.653 31.4699 301.693 31.4799C302.803 31.9099 303.923 32.3099 305.013 32.7799C311.403 35.4999 317.813 38.1599 323.583 42.1599C326.732 44.2298 329.415 46.9317 331.464 50.0941C333.513 53.2566 334.881 56.8104 335.483 60.5299C336.483 66.5999 335.293 72.1299 330.853 76.6899C330.554 77.052 330.292 77.4441 330.073 77.8599C333.148 76.0222 335.386 73.0596 336.313 69.5999C337.468 65.9614 337.698 62.0927 336.984 58.3428C336.27 54.5929 334.634 51.0797 332.223 48.1199C328.712 43.5177 324.106 39.8668 318.823 37.4999C313.443 35.0899 307.953 32.8699 302.373 30.9599C299.561 30.1019 297.007 28.5552 294.943 26.4599C293.523 24.9799 291.943 23.6499 290.453 22.2499C292.753 25.2499 295.393 27.9499 297.903 30.7299C301.323 34.5299 304.903 38.2199 307.903 42.2999C313.223 49.3899 314.743 57.4599 313.013 66.1499C312.547 68.5433 312.07 70.9266 311.583 73.2999C312.273 71.5399 313.083 69.8099 313.583 67.9999C315.173 62.7199 315.793 57.3699 314.433 51.9299Z" fill="#8BAAB9"/>
<path d="M251.323 75.8099L251.803 75.5999L250.693 73.5999C248.278 69.3378 247.071 64.4972 247.203 59.5999C247.376 55.2753 248.517 51.0446 250.543 47.2199C253.013 42.4799 255.703 37.8599 258.363 33.2199C261.023 28.5799 263.903 23.7099 265.773 18.4899C265.993 17.8899 266.103 17.2399 266.263 16.6199C265.917 16.7436 265.633 16.9987 265.473 17.3299C262.653 22.3299 259.873 27.3299 257.013 32.3299C254.743 36.2699 252.193 40.0599 250.093 44.0899C248.567 46.979 247.353 50.023 246.473 53.1699C244.193 61.4899 246.153 69.0299 251.323 75.8099Z" fill="#8BAAB9"/>
<path d="M293.253 228.48C294.173 228.81 294.453 227.92 294.623 227.23C294.863 226.23 294.973 225.23 295.163 224.16C295.263 223.65 295.423 223.16 295.563 222.61C298.793 223.78 301.853 224.9 304.923 225.99C306.003 226.37 306.073 227.16 305.923 228.11C305.773 229.06 305.323 230.32 306.433 231.18C307.813 230.51 307.933 230.52 308.103 228.96C309.013 221.03 318.503 217.04 325.523 221.2C327.046 222.097 328.329 223.348 329.266 224.847C330.202 226.346 330.764 228.048 330.903 229.81C331.003 230.63 331.123 231.61 332.153 231.51C333.183 231.41 333.153 230.4 333.083 229.61C333.01 228.973 332.896 228.342 332.743 227.72C332.613 227.03 332.453 226.35 332.273 225.47L338.013 223.06L339.393 224.76L340.053 224.67C340.22 223.859 340.323 223.037 340.363 222.21C340.343 215.61 338.34 209.168 334.613 203.72C333.19 201.696 331.411 199.948 329.363 198.56C326.743 196.78 323.773 195.56 320.973 194C320.223 193.59 319.553 193 318.833 192.57C318.403 192.29 317.943 192.04 317.493 191.78C317.223 192.3 316.703 192.83 316.703 193.35C316.703 195.55 315.453 196.58 313.613 197.42C309.097 199.41 305.046 202.319 301.718 205.963C298.39 209.606 295.858 213.903 294.283 218.58C293.457 221.324 292.869 224.135 292.523 226.98C292.51 227.271 292.571 227.561 292.698 227.823C292.825 228.084 293.016 228.31 293.253 228.48ZM318.613 195.12L324.133 197.3C323.263 197.7 322.813 198.09 322.563 197.99C319.983 196.94 319.993 196.92 317.323 197.52C317.733 196.75 318.083 196.09 318.613 195.12ZM320.823 198.43C320.743 199.74 320.693 200.57 320.643 201.52C321.643 201.65 322.033 200.83 322.643 200.44C322.843 200.31 323.023 200.14 323.213 200C325.803 198 326.623 198.35 327.443 201.95C322.953 203.15 318.353 203.02 313.673 203.04C315.843 201.41 317.793 199.42 320.813 198.43H320.823ZM326.693 204.43C326.613 208.03 323.253 211.2 318.993 211.57C313.763 212.03 309.813 209.57 308.993 205.17L326.693 204.43ZM315.463 198.91C313.463 200.68 311.533 202.41 308.703 202.63C310.599 200.839 312.923 199.565 315.453 198.93L315.463 198.91ZM306.553 204.21C306.773 204.82 307.003 205.38 307.183 205.95C307.917 208.217 309.392 210.172 311.37 211.499C313.349 212.827 315.717 213.451 318.093 213.27C323.403 213.08 327.243 210.15 328.503 205.27C328.713 204.46 328.613 203.51 329.743 203.17C329.933 203.11 329.913 202.36 330.033 201.75C330.553 202.21 331.033 202.57 331.463 203.01C335.556 207.489 338.068 213.187 338.613 219.23C338.714 219.659 338.648 220.11 338.429 220.492C338.21 220.875 337.854 221.16 337.433 221.29C335.803 221.95 334.173 222.6 332.573 223.29C332.337 223.433 332.074 223.527 331.8 223.567C331.526 223.606 331.247 223.591 330.98 223.521C330.712 223.451 330.462 223.328 330.242 223.159C330.023 222.991 329.84 222.78 329.703 222.54C327.978 220.304 325.58 218.681 322.863 217.91C317.863 216.46 312.513 218.34 308.993 222.72C307.363 224.72 307.353 224.79 304.873 224.05C301.678 223.188 298.619 221.885 295.783 220.18C297.333 214.3 302.003 207.39 306.543 204.23L306.553 204.21Z" fill="#8BAAB9"/>
</svg>
