<svg width="31" height="31" viewBox="0 0 31 31" fill="none" xmlns="http://www.w3.org/2000/svg">
<path d="M30.5804 26.724L24.5716 20.7152C24.3004 20.444 23.9328 20.2934 23.5471 20.2934H22.5647C24.2281 18.1659 25.2165 15.4899 25.2165 12.579C25.2165 5.65411 19.6055 0.0431061 12.6806 0.0431061C5.75578 0.0431061 0.144775 5.65411 0.144775 12.579C0.144775 19.5038 5.75578 25.1148 12.6806 25.1148C15.5916 25.1148 18.2675 24.1264 20.395 22.463V23.4454C20.395 23.8311 20.5457 24.1988 20.8169 24.47L26.8257 30.4787C27.3922 31.0453 28.3083 31.0453 28.8688 30.4787L30.5744 28.7731C31.1409 28.2066 31.1409 27.2905 30.5804 26.724ZM12.6806 20.2934C8.41965 20.2934 4.96626 16.846 4.96626 12.579C4.96626 8.31798 8.41363 4.86459 12.6806 4.86459C16.9416 4.86459 20.395 8.31196 20.395 12.579C20.395 16.84 16.9477 20.2934 12.6806 20.2934Z" fill="#426077"/>
</svg>
