<svg width="312" height="310" viewBox="0 0 312 310" fill="none" xmlns="http://www.w3.org/2000/svg">
<g clip-path="url(#clip0_1770_6024)">
<path d="M283.002 26.3999C266.235 9.43 244.208 -9.68022e-05 221.335 7.45278e-10C209.138 0.00960249 197.068 2.70352 185.848 7.9205C174.628 13.1375 164.489 20.7703 156.036 30.3619L155.999 30.3213L155.962 30.3615C147.51 20.77 137.371 13.1374 126.151 7.92067C114.931 2.70387 102.861 0.010145 90.6645 0.000723186C66.6189 0.00102247 43.5583 10.4205 26.5554 28.9671C9.55255 47.5136 0.000274372 72.668 0 98.8964C0.0086376 112.2 2.47816 125.366 7.26075 137.605C12.0433 149.843 19.0406 160.903 27.8338 170.123L27.7965 170.163L155.994 310L284.203 170.152L284.194 170.143C292.986 160.917 299.98 149.85 304.758 137.606C309.536 125.361 311.999 112.191 312 98.8839C312 85.2743 309.425 71.8112 304.436 59.337C299.447 46.8629 292.151 35.6463 283.005 26.3894L283.002 26.3999Z" fill="#E1ECF3"/>
</g>
<defs>
<clipPath id="clip0_1770_6024">
<rect width="312" height="310" fill="white"/>
</clipPath>
</defs>
</svg>
